<svg height='300px' width='300px'  fill="#ffffff" xmlns="http://www.w3.org/2000/svg" xmlns:xlink="http://www.w3.org/1999/xlink" version="1.1" x="0px" y="0px" viewBox="0 0 100 100" enable-background="new 0 0 100 100" xml:space="preserve"><rect x="18.8" y="76.3" width="2.5" height="7.5"></rect><rect x="18.8" y="66.3" width="2.5" height="7.5"></rect><rect x="18.8" y="56.3" width="2.5" height="7.5"></rect><rect x="18.8" y="86.3" width="2.5" height="7.5"></rect><rect x="62.5" y="92.5" width="7.5" height="2.5"></rect><rect x="52.5" y="92.5" width="7.5" height="2.5"></rect><rect x="18.8" y="46.3" width="2.5" height="7.5"></rect><rect x="22.5" y="92.5" width="7.5" height="2.5"></rect><polygon points="24,5 18.8,5 18.8,13.8 21.3,13.8 21.3,7.5 24,7.5 "></polygon><rect x="26.5" y="5" width="7.5" height="2.5"></rect><rect x="18.8" y="36.3" width="2.5" height="7.5"></rect><rect x="32.5" y="92.5" width="7.5" height="2.5"></rect><rect x="18.8" y="16.3" width="2.5" height="7.5"></rect><rect x="18.8" y="26.3" width="2.5" height="7.5"></rect><rect x="42.5" y="92.5" width="7.5" height="2.5"></rect><polygon points="78.2,25 78.8,25.5 78.8,31.3 81.3,31.3 81.3,24.5 80,23.2 "></polygon><rect x="78.8" y="33.8" width="2.5" height="7.5"></rect><polygon points="56.5,5 56.5,7.5 60.7,7.5 62.3,9.1 64.1,7.3 61.8,5 "></polygon><rect x="63.9" y="11.4" transform="matrix(0.7071 0.7071 -0.7071 0.7071 28.7349 -44.1206)" width="7.5" height="2.5"></rect><rect x="70.9" y="18.4" transform="matrix(0.7071 0.7071 -0.7071 0.7071 35.8057 -47.0494)" width="7.5" height="2.5"></rect><rect x="78.8" y="43.8" width="2.5" height="7.5"></rect><rect x="78.8" y="63.8" width="2.5" height="7.5"></rect><rect x="78.8" y="83.8" width="2.5" height="7.5"></rect><rect x="72.5" y="92.5" width="7.5" height="2.5"></rect><rect x="46.5" y="5" width="7.5" height="2.5"></rect><rect x="78.8" y="53.8" width="2.5" height="7.5"></rect><rect x="36.5" y="5" width="7.5" height="2.5"></rect><rect x="78.8" y="73.8" width="2.5" height="7.5"></rect><path d="M66.8,57.5L59.3,50l7.5-7.5l-9.3-9.3L50,40.7l-7.5-7.5l-9.3,9.3l7.5,7.5l-7.5,7.5l9.3,9.3l7.5-7.5l7.5,7.5L66.8,57.5z   M42.5,63.2l-5.7-5.7l7.5-7.5l-7.5-7.5l5.7-5.7l7.5,7.5l7.5-7.5l5.7,5.7L55.7,50l7.5,7.5l-5.7,5.7L50,55.7L42.5,63.2z"></path><rect x="69.5" y="25" width="5.5" height="2.5"></rect><polygon points="58.8,27.5 65.5,27.5 65.5,25 61.3,25 61.3,20.8 58.8,20.8 "></polygon><rect x="58.8" y="11.3" width="2.5" height="5.5"></rect></svg>