<svg width="153" height="103" viewBox="0 0 153 103" fill="none" xmlns="http://www.w3.org/2000/svg">
<g clip-path="url(#clip0_131_2510)">
<path d="M116.29 63.8957C121.325 60.1131 126.005 55.7068 129.962 50.9472C130.69 50.0368 131.41 49.1296 132.13 48.2225C132.839 47.3109 133.452 46.3499 134.106 45.4243C134.424 44.9608 134.741 44.4974 135.059 44.034C135.368 43.5737 135.628 43.0887 135.915 42.6198C136.464 41.6733 137.008 40.7374 137.54 39.8228C138.131 38.6413 138.765 37.3929 139.384 36.1583C139.707 35.5491 139.984 34.9226 140.235 34.3055C140.487 33.6884 140.735 33.0894 140.972 32.5116C141.188 31.9582 141.39 31.4441 141.57 30.9799C141.728 30.507 141.835 30.0786 141.946 29.6907C142.157 28.9104 142.292 28.2938 142.37 27.8162C142.53 26.843 142.463 26.3934 142.31 26.1871C142.206 26.064 141.231 28.2164 140.692 29.1928C140.443 29.631 140.222 30.1439 139.949 30.7013C139.664 31.2543 139.367 31.8541 139.07 32.4795C138.773 33.1048 138.473 33.7483 138.173 34.3917C137.872 35.0351 137.501 35.6451 137.176 36.2469C136.722 37.0566 136.263 37.8769 135.806 38.7047C135.313 39.512 134.785 40.3064 134.272 41.1126C133.29 42.7422 132.116 44.2728 131.011 45.8293C130.448 46.6618 129.785 47.4298 129.149 48.2215C128.511 49.0056 127.886 49.8016 127.234 50.574L125.178 52.8341L124.15 53.9641L123.043 55.0384C118.16 59.8747 113.273 63.4506 109.313 65.9926C108.31 66.6054 107.351 67.1514 106.489 67.6703C105.615 68.1849 104.836 68.6648 104.082 69.0257C102.607 69.7859 101.467 70.3724 100.704 70.762C100.062 71.0564 98.1694 71.9016 95.5904 72.9728C94.3533 73.4256 92.9473 73.9489 91.8742 74.2909C90.6439 74.6821 89.3553 74.9675 88.0796 75.3413C87.4392 75.508 86.7953 75.7184 86.144 75.8552C85.4841 75.9952 84.8242 76.1351 84.167 76.2826L82.1815 76.7131C81.5243 76.8605 80.8585 77.0111 80.1967 77.0925C78.864 77.284 77.5399 77.4723 76.2243 77.6575C70.5972 78.2526 64.8438 78.3434 59.2384 77.8804C51.5556 77.1447 44.7365 75.2291 38.2688 72.4904C37.4289 72.1119 36.6002 71.7378 35.7829 71.368C34.957 71.0014 34.1366 70.6496 33.3658 70.2205L31.0095 68.9999L29.817 68.4033C29.4272 68.1903 29.0492 67.9561 28.6654 67.7325C27.7114 67.1756 26.6676 66.533 25.6718 65.9152C21.9105 63.2782 18.7123 61.0616 15.7406 58.1863C15.0424 57.4765 13.5221 56.3309 12.212 55.0406C11.8047 54.6732 8.35263 51.5503 9.21572 53.4022C9.35084 53.6915 9.48948 53.9372 9.87063 54.5259C10.7091 55.7517 11.6627 57.2657 13.0108 58.686C13.666 59.4116 14.3436 60.1713 15.0492 60.9546C15.7752 61.7135 16.6073 62.4166 17.3989 63.1684C17.9327 63.642 18.4947 64.1391 19.0593 64.6438C19.6529 65.1209 20.3011 65.5611 20.9091 66.0244C22.154 66.9236 23.3552 67.8896 24.7103 68.6638L26.7471 69.9167C27.4184 70.34 28.0982 70.7601 28.8218 71.1134C30.2573 71.8412 31.6607 72.6146 33.1282 73.2968C33.66 73.5256 34.5172 73.8977 35.5695 74.3508C36.2174 74.6302 36.8425 74.901 37.4423 75.1557C38.0566 75.3965 38.663 75.5895 39.2238 75.7907C40.3624 76.1868 41.3906 76.5472 42.2856 76.8631C44.1053 77.4164 45.3876 77.726 45.8695 77.8714C50.6881 79.139 57.2729 80.3614 64.8061 80.4489C72.3244 80.5758 80.7322 79.5132 88.7256 77.2389C88.9743 77.1733 89.5749 77.0042 90.4327 76.7664C90.856 76.6453 91.3394 76.5022 91.8685 76.3508C92.3839 76.1621 92.9509 75.9546 93.5409 75.7301C98.1934 74.0692 102.48 72.1017 106.702 69.9295C109.967 68.15 113.159 66.2529 116.321 63.9523L116.29 63.8957Z" fill="#321E4C"/>
<path d="M6.70958 64.8375C6.74983 65.1869 6.76156 65.5383 6.83617 65.8751C6.9264 66.3078 7.08808 66.7229 7.22986 67.1367C7.24899 67.189 7.33685 67.2161 7.39035 67.2558C7.66605 67.4767 7.77306 67.7424 7.79104 68.0576C7.79887 68.2919 7.79498 68.5473 8.09722 68.7077C8.25264 68.7863 8.38151 68.9254 8.25305 69.1333C8.18004 69.2532 8.19528 69.3747 8.25659 69.4623C8.49637 69.798 8.40659 70.2712 8.86425 70.5101C9.33596 70.7609 9.49257 71.1354 9.72376 71.4742C9.96315 71.8354 10.3626 72.1549 10.135 72.704C10.1026 72.7751 10.1042 72.8593 10.1577 72.8989C10.5435 73.1811 10.5599 73.5985 10.6794 73.9782C10.7501 74.1979 10.8981 74.3893 11.0719 74.5713C11.223 74.7446 11.3859 74.8967 11.2278 75.1832C11.1692 75.2894 11.2563 75.3676 11.2805 75.4603C11.3953 75.774 11.5015 76.0908 11.625 76.4012C11.7406 76.6638 11.8991 76.9106 12.0147 77.1732C12.0752 77.3119 12.0987 77.4558 12.1506 77.5976C12.31 77.9797 12.4146 78.3986 12.6571 78.7417C12.8134 78.9556 12.9036 79.202 12.9911 79.4409C13.0102 79.4932 13.0235 79.5561 13.0828 79.5852C13.5893 79.7978 13.6424 80.2356 13.8791 80.5894C13.9236 80.6577 13.9939 80.7167 14.0326 80.7957C14.1212 80.958 14.1927 81.1266 14.2727 81.2921C14.2864 81.3294 14.2513 81.3931 14.2938 81.4029C14.6027 81.5016 14.4614 81.8074 14.5637 82.007C14.641 82.165 14.7242 82.3124 14.7929 82.4735C14.9003 82.7137 14.9734 82.9664 15.0866 83.1959C15.153 83.3241 15.2538 83.4396 15.3459 83.5583C15.3963 83.6161 15.4725 83.6644 15.5057 83.7285L15.9059 84.3695C16.2031 84.862 16.5116 85.3588 16.8319 85.8343L18.0276 87.5306C18.1948 87.7743 18.2499 88.0844 18.4026 88.3418C18.5943 88.6527 18.8321 88.9298 19.0641 89.2175C19.1395 89.3169 19.2379 89.3994 19.5877 89.2375C19.9692 89.0555 20.312 88.7945 20.4409 88.561C20.6135 88.2607 20.551 88.0634 20.4397 87.8924L19.7141 86.7354C19.4446 86.292 19.1666 85.8518 18.9518 85.3716C18.7616 84.9585 18.6518 84.499 18.496 84.0734C18.3484 83.6701 18.3183 83.2154 18.0644 82.8679L17.4962 82.0343C17.4962 82.0343 17.4599 81.9884 17.4517 81.9659C17.183 81.2852 16.6792 80.7075 16.5425 79.9615C16.4425 79.4222 16.0184 79.0355 15.5744 78.6476C15.4171 78.5105 15.2831 78.3308 15.2948 78.1233C15.3202 77.7668 15.0125 77.5915 14.791 77.3593C14.7125 77.2779 14.6399 77.186 14.636 77.0688C14.6145 76.4246 14.3923 75.8709 14.0927 75.3454C13.9045 74.9909 13.808 74.5943 13.4878 74.305C13.1172 73.958 13.093 73.4926 13.0086 73.0493C12.9129 72.6016 12.7399 72.1823 12.6356 71.7377C12.5797 71.4787 12.5754 71.2008 12.5625 70.9261C12.5551 70.8526 12.5649 70.7728 12.5145 70.7151C12.2259 70.4057 12.2122 69.9958 12.2356 69.5807C12.2469 69.2125 12.0376 68.9334 11.9028 68.6186C11.8478 68.4948 11.8357 68.3553 11.8091 68.2295C11.747 68.0066 11.7064 67.8691 11.7013 67.8286C11.5935 67.4277 11.9156 67.0303 12.0624 66.5532C12.1553 66.2482 12.1049 66.0041 11.9925 65.5371C11.8804 65.0447 11.6972 64.7306 11.3391 64.125C11.3391 64.125 11.0923 63.6903 10.6412 63.2034C10.6412 63.2034 10.4417 63.0308 9.98793 62.7227C9.89772 62.6626 9.76456 62.6182 9.63141 62.5738C9.58884 62.5639 9.51231 62.5411 9.40141 62.5309C9.07184 62.4822 8.06517 62.3935 7.62355 62.5975C7.47439 62.669 7.3678 62.7504 7.3678 62.7504C7.31313 62.7873 7.27252 62.8361 7.23192 62.8848C6.56698 63.7295 6.63029 64.4346 6.63029 64.4346C6.63732 64.5337 6.66076 64.6775 6.72091 64.8418L6.70958 64.8375Z" fill="#321E4C"/>
<path d="M7.25457 51.1052C7.22212 50.4312 6.67887 49.0803 8.00108 49.7649C8.43218 49.8781 8.87187 49.9881 9.31429 50.1056L9.63489 50.183L10.1031 50.2911L11.0539 50.4934C12.1922 50.7288 13.4015 50.7857 14.5113 51.023C16.3505 51.4167 18.2463 51.6457 20.1608 51.7663C21.5177 51.8538 22.8934 51.8329 24.2417 51.9236C26.2473 52.0532 28.2965 51.9296 30.2833 52.1677C30.6187 52.2058 30.9998 52.2356 31.331 52.1822C32.7152 51.9718 34.0553 52.0401 35.4158 52.084C36.3182 52.1009 37.2362 52.0273 38.1511 51.9718C39.0601 51.927 39.9809 51.8609 40.893 51.7979C41.8423 51.7299 42.7943 51.6693 43.6939 51.306C44.5334 50.9648 45.4261 50.6888 46.1929 50.2557C46.6783 49.9848 46.8079 49.7003 46.8411 49.3917C46.8641 49.1885 46.7384 49.0313 46.3779 48.9515C45.816 48.827 45.306 48.658 44.7703 48.4985C44.6598 48.4627 44.518 48.4214 44.4095 48.4442C42.5969 48.7352 40.7909 48.5919 38.9537 49.0019C38.0681 49.1907 37.1224 49.2151 36.2044 49.2887C35.423 49.363 34.6421 49.4118 33.8611 49.4606C32.5987 49.5247 31.3234 49.5004 30.0746 49.6019C27.9789 49.7848 25.9257 49.6049 23.8624 49.5304C23.6262 49.5237 23.3919 49.5756 23.1584 49.5764C22.1451 49.5494 21.1345 49.5298 20.1212 49.5027C19.1704 49.4867 18.2168 49.4632 17.2691 49.429C16.8623 49.4086 16.4585 49.3701 16.0606 49.321C15.3558 49.2319 14.6599 49.114 13.9582 49.0067L11.2861 48.5199C10.7152 48.4241 10.2634 48.3608 9.30011 48.2308C8.10952 48.0654 7.00445 47.8941 5.8775 47.6631L5.45461 47.5723L5.24179 47.5232L5.13675 47.5024C5.13675 47.5024 5.11059 47.5373 5.12426 47.5747C5.14029 47.8313 5.15358 48.0805 5.16961 48.3372C5.19034 48.8462 5.19974 49.3508 5.18884 49.8799C5.18928 50.5995 5.23971 51.4025 5.31278 52.2141L5.3624 52.6956L5.41319 53.1004L5.5261 53.9144C5.64681 54.7764 5.8589 55.6218 6.03116 56.4649C6.17998 57.1641 6.59156 57.4368 7.02771 57.0316C7.45526 56.6294 7.63562 56.0045 7.63206 55.3029C7.62615 54.5683 7.54918 53.8259 7.48626 53.0952C7.46007 52.7576 7.41397 52.4188 7.35967 52.0576C7.32685 51.7817 7.29169 51.4727 7.24872 51.1159L7.25457 51.1052Z" fill="#321E4C"/>
<path d="M57.1963 49.0984L58.2357 48.7178C58.2357 48.7178 58.3357 48.6982 58.3388 48.6801C58.413 48.2973 58.7472 48.0394 58.8382 47.6758C58.9502 47.2368 58.7561 46.8929 58.5339 46.5254C58.2867 46.1163 57.9282 45.9088 57.5342 45.7905C57.1515 45.6766 56.7384 45.6923 56.3214 45.7772C55.8442 45.8842 55.4334 46.1192 55.0254 46.3618C54.8157 46.4809 54.6603 46.7749 54.5569 47.0245C54.2379 47.7764 54.5004 48.6796 55.1447 49.1889C55.3528 49.3583 55.5395 49.2561 55.7472 49.2647C56.231 49.2824 56.7179 49.282 57.1935 49.0909L57.1963 49.0984Z" fill="#321E4C"/>
</g>
<defs>
<clipPath id="clip0_131_2510">
<rect width="140.952" height="56.867" fill="white" transform="matrix(0.939049 -0.343782 -0.343782 -0.939049 20.1884 102.533)"/>
</clipPath>
</defs>
</svg>
