<svg height="300" width="300" xmlns="http://www.w3.org/2000/svg" viewBox="0 0 100 100">
  <path style="text-indent:0;text-transform:none;direction:ltr;block-progression:tb;baseline-shift:baseline;color:#000;enable-background:accumulate" d="M50 957.362c-24.83 0-45 20.171-45 45 0 24.83 20.17 45 45 45s45-20.17 45-45c0-24.829-20.17-45-45-45zm0 4c22.667 0 41 18.333 41 41 0 22.668-18.333 41-41 41s-41-18.333-41-41 18.333-41 41-41zm0 9a2 2 0 0 0-2 2v30a2 2 0 0 0 2 2h28a2 2 0 1 0 0-4H52v-28a2 2 0 0 0-2-2z" overflow="visible" transform="translate(0 -952.362)"/>
</svg>