<svg height='300px' width='300px'  fill="#ffffff" xmlns="http://www.w3.org/2000/svg" xmlns:xlink="http://www.w3.org/1999/xlink" version="1.1" x="0px" y="0px" viewBox="0 0 100 100" enable-background="new 0 0 100 100" xml:space="preserve"><path d="M52.828,50l28.586-28.586c0.781-0.781,0.781-2.047,0-2.828c-0.78-0.781-2.048-0.781-2.828,0L50,47.172L21.414,18.586  c-0.78-0.781-2.048-0.781-2.828,0c-0.781,0.781-0.781,2.047,0,2.828L47.172,50L18.586,78.586c-0.781,0.781-0.781,2.047,0,2.828  C18.976,81.805,19.488,82,20,82s1.024-0.195,1.414-0.586L50,52.828l28.586,28.586C78.976,81.805,79.488,82,80,82  s1.024-0.195,1.414-0.586c0.781-0.781,0.781-2.047,0-2.828L52.828,50z"></path></svg>