<svg height="300px" width="300px" fill="#ffffff" xmlns="http://www.w3.org/2000/svg" xmlns:xlink="http://www.w3.org/1999/xlink" version="1.1" x="0px" y="0px" viewBox="0 0 100 100" style="enable-background:new 0 0 100 100;" xml:space="preserve"><path class="st0" d="M87.42,8.887c-0.003-0.003-0.005-0.007-0.009-0.011c-3.798-3.799-11.331-2.428-22.388,4.063   C60.382,11.05,55.313,10,50,10c-22.056,0-40,17.944-40,40c0,7.492,2.075,14.506,5.674,20.507   c-5.607,10.084-6.637,17.012-3.057,20.606c0.003,0.003,0.005,0.007,0.009,0.011c1.399,1.399,3.304,2.098,5.705,2.098   c4.114,0,9.691-2.06,16.666-6.152C39.633,88.953,44.695,90,50,90c22.056,0,40-17.944,40-40c0-7.479-2.068-14.482-5.655-20.476   C89.967,19.423,91.004,12.484,87.42,8.887z M83.875,12.411c0,0,0.001,0.001,0.001,0.001c0.969,0.971,1.252,4.654-2.747,12.509   c-2.978-3.69-6.595-6.841-10.685-9.284C78.935,11.142,82.87,11.404,83.875,12.411z M16.162,87.589c0,0-0.001-0.001-0.001-0.001   c-0.968-0.97-1.25-4.645,2.732-12.48c2.978,3.683,6.594,6.827,10.68,9.265C21.096,88.858,17.167,88.595,16.162,87.589z M50,82.5   c-11.249,0-21.179-5.746-27.015-14.456c4.857-7.58,11.607-16.002,19.515-24.351V52.5h5V35H30v5h9.11   c-7.446,7.839-13.921,15.774-18.849,23.085C18.491,59.079,17.5,54.654,17.5,50c0-17.921,14.58-32.5,32.5-32.5   c11.261,0,21.2,5.759,27.034,14.485C72.17,39.569,65.414,47.994,57.5,56.346V47.5h-5V65H70v-5h-9.073   c7.435-7.827,13.902-15.751,18.828-23.052C81.515,40.945,82.5,45.359,82.5,50C82.5,67.921,67.92,82.5,50,82.5z"></path></svg>