<svg width="128" height="128" viewBox="0 0 128 128" fill="none" xmlns="http://www.w3.org/2000/svg">
<path d="M76.7999 9.72802C78.5919 9.72802 80.1279 11.264 80.1279 13.056V47.744C80.1279 49.664 79.3599 51.456 78.0799 52.736L74.6239 56.192C72.9599 57.856 71.9359 60.16 71.9359 62.592C71.9359 65.024 72.8319 67.328 74.6239 68.992L78.0799 72.448C79.3599 73.728 80.1279 75.52 80.1279 77.44V115.584C80.1279 117.376 78.5919 118.912 76.7999 118.912H55.5519C53.7599 118.912 52.2239 117.376 52.2239 115.584V77.568C52.2239 75.648 52.9919 73.856 54.2719 72.576L57.8559 68.992C59.5199 67.328 60.5439 65.024 60.5439 62.592C60.5439 60.16 59.6479 57.856 57.8559 56.192L54.2719 52.608C52.9919 51.328 52.2239 49.536 52.2239 47.616V13.056C52.2239 11.264 53.7599 9.72802 55.5519 9.72802H76.7999V9.72802ZM76.7999 7.29602H55.5519C52.4799 7.29602 49.9199 9.85602 49.9199 12.928V47.488C49.9199 49.92 50.9439 52.352 52.7359 54.144L56.3199 57.728C58.8799 60.288 58.8799 64.64 56.3199 67.2L52.7359 70.784C50.9439 72.576 49.9199 74.88 49.9199 77.44V115.456C49.9199 118.528 52.4799 121.088 55.5519 121.088H76.7999C79.8719 121.088 82.4319 118.528 82.4319 115.456V77.312C82.4319 74.88 81.4079 72.448 79.6159 70.656L76.1599 67.2C73.5999 64.64 73.5999 60.288 76.1599 57.728L79.6159 54.272C81.4079 52.48 82.4319 50.176 82.4319 47.616V13.056C82.4319 9.85602 79.8719 7.29602 76.7999 7.29602Z" fill="url(#paint0_linear)"/>
<path d="M73.7294 116.992H58.6254C56.1934 116.992 54.2734 115.072 54.2734 112.64V110.592L66.1774 103.68L78.0814 110.592V112.64C78.0814 115.072 76.1614 116.992 73.7294 116.992Z" fill="url(#paint1_linear)"/>
<path d="M74.8793 53.376C76.5433 51.84 77.8233 50.176 77.8233 48V21.248H54.5273V47.872C54.5273 50.048 55.8073 51.456 57.4713 53.248C57.4713 53.248 61.3113 56.576 61.5673 58.24C61.8233 59.392 65.4073 60.032 65.5353 60.8L66.1753 61.952L66.6873 60.8C66.8153 60.032 70.5273 59.136 70.7833 57.984C71.1673 56.32 74.8793 53.376 74.8793 53.376Z" fill="url(#paint2_linear)"/>
<defs>
<linearGradient id="paint0_linear" x1="53.2861" y1="24.3648" x2="71.5587" y2="25.3927" gradientUnits="userSpaceOnUse">
<stop stop-color="#940DFF"/>
<stop offset="1" stop-color="#0094FF"/>
<stop offset="1" stop-color="#0094FF"/>
</linearGradient>
<linearGradient id="paint1_linear" x1="56.7384" y1="105.677" x2="68.6809" y2="109.882" gradientUnits="userSpaceOnUse">
<stop stop-color="#940DFF"/>
<stop offset="1" stop-color="#0094FF"/>
<stop offset="1" stop-color="#0094FF"/>
</linearGradient>
<linearGradient id="paint2_linear" x1="56.9393" y1="27.3536" x2="69.9091" y2="28.815" gradientUnits="userSpaceOnUse">
<stop stop-color="#940DFF"/>
<stop offset="1" stop-color="#0094FF"/>
<stop offset="1" stop-color="#0094FF"/>
</linearGradient>
</defs>
</svg>
