<svg width="27" height="27" viewBox="0 0 27 27" fill="none" xmlns="http://www.w3.org/2000/svg">
<g clip-path="url(#clip0)">
<path fill-rule="evenodd" clip-rule="evenodd" d="M1.08359 21.0428C0.411223 20.6315 0 19.8992 0 19.1127V14.7213C0 14.5532 0.0450245 14.3912 0.12907 14.2471C0.390212 13.7968 0.969527 13.6438 1.41977 13.9079L11.3312 19.686C11.9105 20.0252 12.2677 20.6436 12.2677 21.3159V25.8664C12.2677 26.0735 12.2106 26.2806 12.1026 26.4577C11.7754 26.992 11.079 27.1601 10.5447 26.8329L1.08359 21.0428ZM15.8576 12.7042C16.4369 13.0434 16.7941 13.6618 16.7941 14.3341V23.5671C16.7941 23.8403 16.647 24.0924 16.4099 24.2245L14.2397 25.4462C14.2127 25.4612 14.1827 25.4732 14.1527 25.4822V20.3554C14.1527 19.692 13.8045 19.0767 13.2342 18.7345L4.52946 13.5267V7.73955C4.52946 7.57145 4.57449 7.40937 4.65853 7.26529C4.91967 6.81504 5.49899 6.66196 5.94923 6.9261L15.8576 12.7042ZM20.195 5.88454C20.7773 6.22072 21.1345 6.84506 21.1345 7.51743V21.0038C21.1345 21.2799 20.9814 21.535 20.7383 21.6671L18.6821 22.7777V13.3886C18.6821 12.7253 18.334 12.1129 17.7667 11.7707L8.86982 6.43384V0.943854C8.86982 0.775763 8.91484 0.613675 8.99589 0.469596C9.25703 0.0193519 9.83634 -0.133731 10.2866 0.127411L20.195 5.88454Z" fill="url(#grad)"/>
</g>
<defs>
<clipPath id="clip0">
<rect width="121" height="27" fill="white"/>
</clipPath>
<linearGradient id="grad" x1="3" y1="14" x2="32" y2="23" gradientUnits="userSpaceOnUse">
<stop stop-color="#7729FF"/>
<stop offset="1" stop-color="#448FFF"/>
</linearGradient>
</defs>
</svg>
