<?xml version="1.0" encoding="UTF-8"?><svg id="Layer_1" xmlns="http://www.w3.org/2000/svg" viewBox="0 0 989.29 220.11"><defs><style>.cls-1{fill:none;}.cls-2{fill:#00d395;fill-rule:evenodd;}</style></defs><rect class="cls-1" width="986.44" height="220.11"/><g><path d="M968.35,125.19c0-12.87-7.58-22.56-19.55-22.56s-19.56,9.69-19.56,22.56,7.59,22.56,19.56,22.56c11.99,.02,19.55-9.67,19.55-22.56Zm-.59-31.2V60.27c0-2.23,1.49-4.16,3.64-4.72l17.89-4.77v114.11h-19.84v-9.69c-4.99,7.27-13.95,11.52-25.16,11.52-23.02,0-36.51-18.47-36.51-41.5s13.48-41.5,36.51-41.5c11.19-.02,19.39,4.82,23.47,10.28Zm-122.08-8.49v9.69c3.64-6.83,11.82-11.53,23.63-11.53,19.09,0,29.24,12.72,29.24,31.66v49.55h-21.51v-47.11c0-9.25-3.94-15.61-13.48-15.61-10.45,0-16.2,6.66-16.2,17.28v45.44h-21.51V85.5h19.82Zm-70.11,81.22c-23.17,0-36.07-10.01-36.07-35.75v-45.47h21.51v45.76c0,11.06,4.99,16.2,14.54,16.2s14.54-5.16,14.54-16.2v-45.76h21.51v45.44c.05,25.77-12.85,35.78-36.02,35.78Zm-107.08-41.53c0,14.24,8.78,22.56,20.14,22.56s20.14-8.34,20.14-22.56-8.78-22.56-20.14-22.56-20.14,8.32-20.14,22.56Zm20.16,41.53c-25.45,0-41.67-18.94-41.67-41.5s16.2-41.5,41.67-41.5,41.67,18.94,41.67,41.5c-.02,22.56-16.22,41.5-41.67,41.5Zm-107.23-41.53c0,12.87,7.59,22.56,19.55,22.56s19.55-9.69,19.55-22.56-7.59-22.56-19.55-22.56-19.55,9.69-19.55,22.56Zm.61,31.22v33.01c0,2.23-1.49,4.16-3.65,4.72l-17.86,4.7V85.5h19.85v9.69c4.99-7.27,13.95-11.53,25.16-11.53,23.03,0,36.51,18.47,36.51,41.5s-13.48,41.5-36.51,41.5c-11.23,.05-19.41-4.8-23.49-10.25Zm-85.4-36.68v45.15h-21.51v-47.11c0-8.78-3.18-15.61-12.73-15.61s-15.47,6.51-15.47,17.13v45.61h-21.51V85.5h19.85v9.69c3.65-6.83,11.53-11.53,22.88-11.53,10.77,0,18.48,4.23,23.03,11.21,6.97-7.73,15-11.21,26.35-11.21,19.09,0,28.78,13.19,28.78,31.66v49.55h-21.51v-47.11c0-8.78-3.18-15.61-12.73-15.61-10.15,0-15.44,6.51-15.44,17.57Zm-142.98,5.46c0,14.24,8.78,22.56,20.14,22.56s20.14-8.34,20.14-22.56-8.79-22.56-20.14-22.56-20.14,8.32-20.14,22.56Zm20.14,41.53c-25.45,0-41.67-18.94-41.67-41.5s16.2-41.5,41.67-41.5,41.67,18.94,41.67,41.5-16.22,41.5-41.67,41.5Zm-153.28-55.77c0-33.62,23.17-55.91,54.08-55.91,26.82,0,48.04,15.91,52.12,42.11h-23.64c-3.18-13.48-14.09-21.07-28.48-21.07-19.7,0-30.76,13.63-30.76,34.85s11.06,34.85,30.76,34.85c14.39,0,25.3-7.59,28.48-21.07h23.64c-4.09,26.21-25.3,42.11-52.12,42.11-30.91,.05-54.08-22.22-54.08-55.87Z"/><path class="cls-2" d="M8.83,171.55c-5.48-3.35-8.83-9.32-8.83-15.73v-35.8c0-1.37,.37-2.69,1.05-3.87,2.13-3.67,6.85-4.92,10.52-2.77l80.8,47.11c4.72,2.77,7.63,7.81,7.63,13.29v37.1c0,1.69-.47,3.38-1.35,4.82-2.67,4.36-8.34,5.73-12.7,3.06L8.83,171.55Zm120.44-67.98c4.72,2.77,7.63,7.81,7.63,13.29v75.27c0,2.23-1.2,4.28-3.13,5.36l-17.69,9.96c-.22,.12-.46,.22-.71,.29v-41.8c0-5.41-2.84-10.42-7.49-13.21L36.93,110.27V63.1c0-1.37,.37-2.69,1.05-3.87,2.13-3.67,6.85-4.92,10.52-2.77l80.78,47.11Zm35.36-55.6c4.75,2.74,7.66,7.83,7.66,13.31v109.95c0,2.25-1.25,4.33-3.23,5.41l-16.76,9.05V109.15c0-5.41-2.84-10.4-7.46-13.19L72.31,52.45V7.69c0-1.37,.37-2.69,1.03-3.87,2.13-3.67,6.85-4.92,10.52-2.79l80.78,46.93Z"/></g></svg>