<svg width="20" height="20" viewBox="0 0 20 20" fill="none" xmlns="http://www.w3.org/2000/svg">
<path d="M12.1596 7H3.03961C2.23961 7 1.59961 7.64 1.59961 8.44V17.58C1.59961 18.36 2.23961 19.02 3.03961 19.02H12.1796C12.9596 19.02 13.6196 18.38 13.6196 17.58V8.44C13.5996 7.64 12.9596 7 12.1596 7ZM12.3996 17.56C12.3996 17.68 12.2996 17.78 12.1796 17.78H3.03961C2.91961 17.78 2.81961 17.68 2.81961 17.56V8.44C2.81961 8.32 2.91961 8.22 3.03961 8.22H12.1796C12.2996 8.22 12.3996 8.32 12.3996 8.44V17.56Z" fill="white"/>
<path d="M16.9604 1H7.84039C7.04039 1 6.40039 1.64 6.40039 2.44V5.8H7.60039V2.44C7.60039 2.32 7.70039 2.22 7.82039 2.22H16.9604C17.0804 2.22 17.1804 2.32 17.1804 2.44V11.58C17.1804 11.7 17.0804 11.8 16.9604 11.8H14.8004V13H16.9604C17.7404 13 18.4004 12.36 18.4004 11.56V2.44C18.4004 1.64 17.7604 1 16.9604 1Z" fill="white"/>
</svg>
