<svg width="29" height="29" viewBox="0 0 29 29" fill="none" xmlns="http://www.w3.org/2000/svg">
<path fill-rule="evenodd" clip-rule="evenodd" d="M28.4216 4.78158L24.1168 0.55924C23.7502 0.201069 23.2541 0 22.737 0C22.2199 0 21.7238 0.201069 21.3573 0.55924L18.6365 3.2306C18.2503 3.20039 17.8678 3.13465 17.4942 3.03422C16.3919 2.72317 15.4154 2.08553 14.6991 1.20916C14.6078 1.10552 14.4948 1.02236 14.3677 0.965356C14.2406 0.908352 14.1024 0.878846 13.9625 0.878846C13.8227 0.878846 13.6845 0.908352 13.5573 0.965356C13.4302 1.02236 13.3172 1.10552 13.2259 1.20916C12.5096 2.08553 11.5331 2.72317 10.4308 3.03422C9.59938 3.24342 8.73382 3.28952 7.88408 3.16987C7.03434 3.05023 6.21723 2.76721 5.47992 2.33714C5.29953 2.22961 5.08602 2.18803 4.87726 2.21974C4.6685 2.25144 4.47796 2.3544 4.3394 2.51036C2.76255 4.28895 0.105671 8.03622 0.0192684 13.1607V13.203C-0.166762 16.7273 0.999514 20.1925 3.28961 22.9198C5.95605 25.9322 9.54015 28.0289 13.5154 28.9019L13.7011 28.9568C13.7997 28.9897 13.9038 29.004 14.0079 28.999H14.0468C14.1749 28.9976 14.3014 28.9703 14.4183 28.9188C18.4029 28.0553 21.9983 25.9627 24.6743 22.9493C26.9659 20.2228 28.1323 16.757 27.9446 13.2326L27.9403 13.1607C27.9152 11.6471 27.6642 10.1455 27.1955 8.70349L28.4304 7.491C28.7952 7.13111 29 6.64403 29 6.13629C29 5.62855 28.7952 5.14147 28.4304 4.78158H28.4216ZM25.7485 10.1243L24.1168 11.7264C23.9371 11.9099 23.7226 12.0572 23.4854 12.1599C23.0069 12.3507 22.4715 12.3507 21.9931 12.1599C21.7551 12.0562 21.5393 11.9091 21.3573 11.7264L17.048 7.49967C16.6832 7.13979 16.4784 6.65271 16.4784 6.14497C16.4784 5.63723 16.6832 5.15015 17.048 4.79026L17.1031 4.73619L17.0017 4.7114C15.8686 4.39587 14.8309 3.81596 13.9776 3.02153C13.1227 3.8138 12.0855 4.39339 10.9535 4.7114C9.05488 5.20652 7.03761 5.01914 5.26824 4.18332C3.14751 6.73724 1.94381 9.90192 1.84238 13.1903V13.2326L1.84217 13.2477C1.82042 14.7982 1.76986 18.402 4.69366 21.8129C7.11545 24.5342 10.3642 26.4262 13.9647 27.212H14.0035C17.6152 26.4354 20.876 24.5441 23.3048 21.8171C26.163 18.4829 26.1583 14.9641 26.1562 13.3595C26.1561 13.3172 26.1561 13.2763 26.1561 13.2368V13.1946C26.1405 12.159 26.0037 11.1289 25.7485 10.1243ZM27.097 6.13846C27.0951 6.19668 27.0715 6.25218 27.0308 6.29452L22.9026 10.3478C22.8597 10.3844 22.8048 10.4044 22.7481 10.4041C22.6913 10.4027 22.6373 10.3793 22.5979 10.3391L18.4697 6.29018C18.433 6.24811 18.414 6.19383 18.4167 6.13846C18.4167 6.11111 18.4221 6.084 18.4327 6.05871C18.4433 6.03342 18.4589 6.01043 18.4785 5.99106L22.6068 1.93345C22.6489 1.89908 22.7021 1.88063 22.7569 1.88143C22.7847 1.88136 22.8123 1.88668 22.8381 1.89709C22.8639 1.90751 22.8873 1.92282 22.907 1.94212L27.0264 5.98672C27.0675 6.02751 27.0925 6.08128 27.097 6.13846ZM22.6817 4.18328L20.7566 6.07336C20.742 6.08862 20.7339 6.10878 20.7339 6.12971C20.7339 6.15065 20.742 6.1708 20.7566 6.18607L22.6817 8.08483C22.6972 8.09915 22.7177 8.10713 22.7391 8.10713C22.7604 8.10713 22.7809 8.09915 22.7965 8.08483L24.7215 6.19041C24.7361 6.17514 24.7442 6.15499 24.7442 6.13405C24.7442 6.11312 24.7361 6.09296 24.7215 6.0777L22.8097 4.18328C22.803 4.17252 22.7936 4.16362 22.7824 4.15745C22.7711 4.15129 22.7585 4.14806 22.7457 4.14806C22.7328 4.14806 22.7202 4.15129 22.709 4.15745C22.6978 4.16362 22.6884 4.17252 22.6817 4.18328Z" fill="url(#paint0_linear_1347_38139)"/>
<path d="M14.0773 15.6973H18.0196C18.1036 15.6973 18.1433 15.6973 18.1494 15.5879C18.1817 15.1892 18.1817 14.7887 18.1494 14.39C18.1494 14.3124 18.1106 14.2804 18.026 14.2804H10.1804C10.0834 14.2804 10.0572 14.3124 10.0572 14.403V15.5493C10.0572 15.6973 10.0572 15.6973 10.2127 15.6973H14.0773ZM17.7092 12.9405C17.7204 12.9116 17.7204 12.8796 17.7092 12.8507C17.6438 12.7085 17.5653 12.5727 17.4748 12.4449C17.3389 12.2272 17.1778 12.0261 16.9948 11.8457C16.9087 11.7364 16.8083 11.6389 16.6964 11.5558C16.1351 11.0812 15.4684 10.7457 14.7511 10.5768C14.3893 10.4963 14.0194 10.4573 13.6487 10.4608H10.1668C10.0698 10.4608 10.0567 10.4992 10.0567 10.5832V12.8697C10.0567 12.9662 10.0567 12.9921 10.1799 12.9921H17.6625C17.6625 12.9921 17.7273 12.9792 17.7404 12.9402H17.7092V12.9405ZM17.7092 17.0372C17.5992 17.0251 17.4881 17.0251 17.3781 17.0372H10.1871C10.09 17.0372 10.0574 17.0372 10.0574 17.1662V19.4014C10.0574 19.5053 10.0574 19.5304 10.1871 19.5304H13.5068C13.6652 19.5423 13.8245 19.5315 13.9798 19.4984C14.4617 19.4642 14.936 19.36 15.3874 19.189C15.5521 19.1325 15.7106 19.0594 15.8604 18.9709H15.9057C16.6835 18.5694 17.3159 17.937 17.7148 17.1617C17.7148 17.1617 17.7601 17.0644 17.7092 17.0387V17.0372ZM8.75408 20.6902V17.1275C8.75408 17.0436 8.75408 17.0311 8.65038 17.0311H7.24338C7.1653 17.0311 7.13306 17.0311 7.13306 16.9272V15.7042H8.63731C8.72149 15.7042 8.75408 15.7042 8.75408 15.5948V14.3839C8.75408 14.3064 8.75408 14.2875 8.65038 14.2875H7.24338C7.1653 14.2875 7.13306 14.2875 7.13306 14.1836V13.051C7.13306 12.98 7.13306 12.961 7.23676 12.961H8.63104C8.72811 12.961 8.75426 12.961 8.75426 12.8386V9.36678C8.75426 9.26376 8.75426 9.23779 8.8841 9.23779H13.7467C14.0991 9.25154 14.4502 9.2903 14.7971 9.35379C15.5119 9.48531 16.1987 9.73801 16.8273 10.1009C17.2433 10.344 17.6266 10.6383 17.9684 10.9769C18.2246 11.2415 18.4567 11.5282 18.662 11.8335C18.8659 12.1431 19.0358 12.4736 19.1687 12.8192C19.1766 12.8625 19.2014 12.9009 19.2376 12.9262C19.2738 12.9516 19.3186 12.9617 19.3623 12.9546H20.5222C20.671 12.9546 20.671 12.9546 20.6776 13.0964V14.1525C20.6776 14.2553 20.6389 14.2813 20.5347 14.2813H19.6401C19.5495 14.2813 19.5233 14.2813 19.53 14.3973C19.5653 14.7893 19.5653 15.1837 19.53 15.5758C19.53 15.6852 19.53 15.6982 19.6537 15.6982H20.6774C20.7228 15.7562 20.6774 15.8142 20.6774 15.8725C20.6841 15.9474 20.6841 16.0227 20.6774 16.0976V16.8767C20.6774 16.9863 20.6452 17.0186 20.5478 17.0186H19.3222C19.281 17.011 19.2384 17.0194 19.2033 17.0422C19.1682 17.0651 19.1434 17.1005 19.134 17.141C18.8419 17.8951 18.3754 18.5703 17.7721 19.1121C17.5517 19.3098 17.3201 19.4947 17.0785 19.6662C16.8188 19.8145 16.5662 19.969 16.3001 20.0914C15.8103 20.31 15.2968 20.472 14.7697 20.5742C14.269 20.6629 13.7609 20.7039 13.2524 20.6966H8.75217V20.6901L8.75408 20.6902Z" fill="url(#paint1_linear_1347_38139)"/>
<defs>
<linearGradient id="paint0_linear_1347_38139" x1="-5.87031e-07" y1="0.935484" x2="27.8891" y2="29" gradientUnits="userSpaceOnUse">
<stop stop-color="#940DFF"/>
<stop offset="1" stop-color="#0094FF"/>
</linearGradient>
<linearGradient id="paint1_linear_1347_38139" x1="7.13306" y1="8.41924" x2="20.6976" y2="21.9253" gradientUnits="userSpaceOnUse">
<stop stop-color="#940DFF"/>
<stop offset="1" stop-color="#0094FF"/>
</linearGradient>
</defs>
</svg>
