<?xml version="1.0" encoding="UTF-8"?><svg id="Layer_1" xmlns="http://www.w3.org/2000/svg" viewBox="0 0 210.25 220"><defs><style>.cls-1{fill:#771dec;}</style></defs><path class="cls-1" d="M14.53,84.33c1.53-2.65,4.36-4.29,7.43-4.29h26.7c3.06,0,5.9,1.64,7.43,4.29l13.35,23.12c1.53,2.65,1.53,5.92,0,8.58l-13.35,23.12c-1.53,2.65-4.36,4.29-7.43,4.29H21.96c-3.06,0-5.9-1.64-7.43-4.29L1.18,116.03c-1.53-2.65-1.53-5.92,0-8.58l13.35-23.12Z"/><path class="cls-1" d="M84.37,44.01c1.53-2.65,4.36-4.29,7.43-4.29h26.7c3.06,0,5.9,1.63,7.43,4.29l13.35,23.12c1.53,2.65,1.53,5.92,0,8.58l-13.35,23.12c-1.53,2.65-4.36,4.29-7.43,4.29h-26.7c-3.06,0-5.9-1.63-7.43-4.29l-13.35-23.12c-1.53-2.65-1.53-5.92,0-8.58l13.35-23.12Z"/><path class="cls-1" d="M83.19,122.61c1.53-2.65,4.36-4.29,7.43-4.29h26.7c3.06,0,5.9,1.63,7.43,4.29l13.35,23.12c1.53,2.65,1.53,5.92,0,8.58l-13.35,23.12c-1.53,2.65-4.36,4.29-7.43,4.29h-26.7c-3.07,0-5.9-1.63-7.43-4.29l-13.35-23.12c-1.53-2.65-1.53-5.92,0-8.58l13.35-23.12Z"/><path class="cls-1" d="M154.2,3.69c1.53-2.65,4.36-4.29,7.43-4.29h26.7c3.07,0,5.9,1.64,7.43,4.29l13.35,23.12c1.53,2.65,1.53,5.92,0,8.58l-13.35,23.12c-1.53,2.65-4.36,4.29-7.43,4.29h-26.7c-3.06,0-5.9-1.63-7.43-4.29l-13.35-23.12c-1.53-2.65-1.53-5.92,0-8.58l13.35-23.12Z"/><path class="cls-1" d="M153.02,82.29c1.53-2.65,4.36-4.29,7.43-4.29h26.7c3.07,0,5.9,1.64,7.43,4.29l13.35,23.12c1.53,2.65,1.53,5.92,0,8.58l-13.35,23.12c-1.53,2.65-4.36,4.29-7.43,4.29h-26.7c-3.06,0-5.9-1.64-7.43-4.29l-13.35-23.12c-1.53-2.65-1.53-5.92,0-8.58l13.35-23.12Z"/><path class="cls-1" d="M151.85,160.89c1.53-2.65,4.36-4.29,7.43-4.29h26.7c3.06,0,5.9,1.64,7.43,4.29l13.35,23.12c1.53,2.65,1.53,5.92,0,8.58l-13.35,23.12c-1.53,2.65-4.36,4.29-7.43,4.29h-26.7c-3.07,0-5.9-1.64-7.43-4.29l-13.35-23.12c-1.53-2.65-1.53-5.92,0-8.58l13.35-23.12Z"/><path class="cls-1" d="M70.6,36.05c1.53-2.65,1.53-5.92,0-8.58L57.25,4.35C55.72,1.7,52.89,.06,49.82,.06H23.13c-3.06,0-5.9,1.64-7.43,4.29l-7.43,11.65h31.65c3.06,0,5.9,1.63,7.43,4.29l15.82,27.41,7.43-11.65Z"/></svg>