<svg width="240" height="92" viewBox="0 0 240 92" fill="none" xmlns="http://www.w3.org/2000/svg">
<path d="M67.1848 58.0278C66.9398 58.0278 66.7392 57.9409 66.5832 57.7672C66.4272 57.5935 66.3492 57.3701 66.3492 57.0972V32.9028C66.3492 32.6298 66.4272 32.4065 66.5832 32.2328C66.7392 32.059 66.9398 31.9722 67.1848 31.9722H82.326C82.571 31.9722 82.7716 32.059 82.9276 32.2328C83.0836 32.4065 83.1616 32.6298 83.1616 32.9028V35.8805C83.1616 36.1287 83.0836 36.3396 82.9276 36.5133C82.7716 36.687 82.571 36.7739 82.326 36.7739H71.4965V42.6178H81.5906C81.8357 42.6178 82.0363 42.7046 82.1923 42.8783C82.3483 43.052 82.4262 43.2754 82.4262 43.5483V46.3028C82.4262 46.5509 82.3483 46.7618 82.1923 46.9355C82.0363 47.1093 81.8357 47.1961 81.5906 47.1961H71.4965V53.2261H82.5934C82.8384 53.2261 83.039 53.3129 83.195 53.4866C83.351 53.6604 83.429 53.8837 83.429 54.1566V57.0972C83.429 57.3701 83.351 57.5935 83.195 57.7672C83.039 57.9409 82.8384 58.0278 82.5934 58.0278H67.1848ZM88.2047 58.0278C87.9596 58.0278 87.759 57.9409 87.603 57.7672C87.447 57.5935 87.3691 57.3701 87.3691 57.0972V32.5305C87.3691 32.2576 87.447 32.0343 87.603 31.8605C87.759 31.6868 87.9596 31.6 88.2047 31.6H91.5471C91.7699 31.6 91.9593 31.6868 92.1153 31.8605C92.2713 32.0343 92.3493 32.2576 92.3493 32.5305V57.0972C92.3493 57.3701 92.2713 57.5935 92.1153 57.7672C91.9593 57.9409 91.7699 58.0278 91.5471 58.0278H88.2047ZM104.662 58.4C102.1 58.4 100.061 57.6059 98.5458 56.0178C97.0525 54.4296 96.2621 52.1218 96.1726 49.0944C96.1726 48.8959 96.1726 48.6354 96.1726 48.3128C96.1726 47.9654 96.1726 47.6924 96.1726 47.4939C96.2621 45.5832 96.6514 43.9454 97.3425 42.5805C98.0335 41.1909 99.0028 40.1362 100.25 39.4166C101.498 38.6722 102.958 38.3 104.629 38.3C106.501 38.3 108.061 38.7343 109.308 39.6028C110.578 40.4465 111.525 41.6128 112.149 43.1016C112.795 44.5657 113.119 46.2532 113.119 48.1639V49.02C113.119 49.2682 113.029 49.479 112.851 49.6528C112.695 49.8265 112.506 49.9133 112.283 49.9133H101.353C101.353 49.9382 101.353 49.9878 101.353 50.0622C101.353 50.1118 101.353 50.1615 101.353 50.2111C101.376 51.0051 101.51 51.7372 101.754 52.4072C102.022 53.0524 102.39 53.5735 102.857 53.9705C103.348 54.3676 103.927 54.5661 104.596 54.5661C105.153 54.5661 105.609 54.4793 105.966 54.3055C106.323 54.1318 106.612 53.9209 106.835 53.6728C107.08 53.4246 107.259 53.2137 107.37 53.04C107.57 52.7918 107.727 52.6429 107.838 52.5933C107.971 52.5189 108.172 52.4816 108.439 52.4816H111.915C112.138 52.4816 112.316 52.5561 112.45 52.705C112.606 52.829 112.673 53.0151 112.651 53.2633C112.628 53.6604 112.439 54.1566 112.083 54.7522C111.748 55.3229 111.247 55.8937 110.578 56.4644C109.91 57.0104 109.074 57.4694 108.072 57.8416C107.091 58.2139 105.955 58.4 104.662 58.4ZM101.353 46.5261H107.904V46.4516C107.904 45.5583 107.771 44.789 107.503 44.1439C107.259 43.4739 106.891 42.9528 106.4 42.5805C105.91 42.2083 105.32 42.0222 104.629 42.0222C103.938 42.0222 103.348 42.2083 102.857 42.5805C102.367 42.9528 101.988 43.4739 101.721 44.1439C101.476 44.789 101.353 45.5583 101.353 46.4516V46.5261ZM117.596 58.0278C117.374 58.0278 117.184 57.9409 117.028 57.7672C116.872 57.5935 116.794 57.3701 116.794 57.0972V39.6028C116.794 39.3298 116.872 39.1065 117.028 38.9328C117.184 38.759 117.374 38.6722 117.596 38.6722H120.704C120.927 38.6722 121.117 38.759 121.272 38.9328C121.451 39.1065 121.54 39.3298 121.54 39.6028V40.8683C121.986 40.1735 122.599 39.5779 123.378 39.0816C124.18 38.5854 125.128 38.3248 126.219 38.3C128.805 38.2504 130.576 39.3422 131.534 41.5755C132.047 40.6078 132.782 39.8261 133.74 39.2305C134.721 38.6101 135.79 38.3 136.948 38.3C138.107 38.3 139.154 38.5978 140.09 39.1933C141.026 39.764 141.761 40.6574 142.296 41.8733C142.854 43.0644 143.132 44.6029 143.132 46.4889V57.0972C143.132 57.3701 143.054 57.5935 142.898 57.7672C142.742 57.9409 142.553 58.0278 142.33 58.0278H139.021C138.798 58.0278 138.609 57.9409 138.452 57.7672C138.297 57.5935 138.218 57.3701 138.218 57.0972V46.7866C138.218 45.7693 138.085 44.9751 137.817 44.4044C137.55 43.8089 137.194 43.387 136.748 43.1389C136.325 42.8907 135.845 42.7666 135.311 42.7666C134.843 42.7666 134.386 42.8907 133.94 43.1389C133.517 43.387 133.161 43.8089 132.871 44.4044C132.603 44.9751 132.47 45.7693 132.47 46.7866V57.0972C132.47 57.3701 132.392 57.5935 132.236 57.7672C132.08 57.9409 131.88 58.0278 131.634 58.0278H128.358C128.114 58.0278 127.913 57.9409 127.757 57.7672C127.601 57.5935 127.523 57.3701 127.523 57.0972V46.7866C127.523 45.7693 127.389 44.9751 127.122 44.4044C126.854 43.8089 126.498 43.387 126.052 43.1389C125.629 42.8907 125.161 42.7666 124.648 42.7666C124.18 42.7666 123.724 42.9032 123.278 43.1761C122.833 43.4243 122.465 43.8337 122.175 44.4044C121.908 44.9751 121.774 45.7568 121.774 46.7494V57.0972C121.774 57.3701 121.696 57.5935 121.54 57.7672C121.384 57.9409 121.195 58.0278 120.972 58.0278H117.596ZM155.271 58.4C152.709 58.4 150.67 57.6059 149.155 56.0178C147.662 54.4296 146.87 52.1218 146.782 49.0944C146.782 48.8959 146.782 48.6354 146.782 48.3128C146.782 47.9654 146.782 47.6924 146.782 47.4939C146.87 45.5832 147.261 43.9454 147.952 42.5805C148.642 41.1909 149.611 40.1362 150.859 39.4166C152.107 38.6722 153.567 38.3 155.238 38.3C157.11 38.3 158.669 38.7343 159.917 39.6028C161.188 40.4465 162.134 41.6128 162.758 43.1016C163.404 44.5657 163.728 46.2532 163.728 48.1639V49.02C163.728 49.2682 163.638 49.479 163.46 49.6528C163.304 49.8265 163.114 49.9133 162.892 49.9133H151.962C151.962 49.9382 151.962 49.9878 151.962 50.0622C151.962 50.1118 151.962 50.1615 151.962 50.2111C151.984 51.0051 152.118 51.7372 152.364 52.4072C152.631 53.0524 152.999 53.5735 153.467 53.9705C153.956 54.3676 154.536 54.5661 155.205 54.5661C155.761 54.5661 156.218 54.4793 156.575 54.3055C156.931 54.1318 157.221 53.9209 157.444 53.6728C157.689 53.4246 157.867 53.2137 157.979 53.04C158.179 52.7918 158.335 52.6429 158.447 52.5933C158.58 52.5189 158.781 52.4816 159.048 52.4816H162.524C162.747 52.4816 162.926 52.5561 163.059 52.705C163.215 52.829 163.282 53.0151 163.26 53.2633C163.237 53.6604 163.048 54.1566 162.692 54.7522C162.357 55.3229 161.856 55.8937 161.188 56.4644C160.519 57.0104 159.683 57.4694 158.681 57.8416C157.7 58.2139 156.563 58.4 155.271 58.4ZM151.962 46.5261H158.514V46.4516C158.514 45.5583 158.38 44.789 158.112 44.1439C157.867 43.4739 157.499 42.9528 157.01 42.5805C156.519 42.2083 155.928 42.0222 155.238 42.0222C154.547 42.0222 153.956 42.2083 153.467 42.5805C152.976 42.9528 152.598 43.4739 152.33 44.1439C152.084 44.789 151.962 45.5583 151.962 46.4516V46.5261ZM168.205 58.0278C167.982 58.0278 167.793 57.9409 167.637 57.7672C167.48 57.5935 167.403 57.3701 167.403 57.0972V39.6028C167.403 39.3298 167.48 39.1065 167.637 38.9328C167.793 38.759 167.982 38.6722 168.205 38.6722H171.48C171.725 38.6722 171.926 38.759 172.082 38.9328C172.238 39.1065 172.316 39.3298 172.316 39.6028V41.0544C172.895 40.2604 173.642 39.6028 174.555 39.0816C175.469 38.5605 176.583 38.3 177.898 38.3C179.212 38.3 180.36 38.635 181.341 39.305C182.343 39.9501 183.123 40.9055 183.68 42.1711C184.259 43.4118 184.549 44.9255 184.549 46.7122V57.0972C184.549 57.3701 184.46 57.5935 184.282 57.7672C184.126 57.9409 183.937 58.0278 183.714 58.0278H180.171C179.926 58.0278 179.725 57.9409 179.569 57.7672C179.413 57.5935 179.335 57.3701 179.335 57.0972V46.9355C179.335 45.6204 179.045 44.6029 178.466 43.8833C177.909 43.1389 177.085 42.7666 175.993 42.7666C174.946 42.7666 174.11 43.1389 173.486 43.8833C172.862 44.6029 172.55 45.6204 172.55 46.9355V57.0972C172.55 57.3701 172.472 57.5935 172.316 57.7672C172.16 57.9409 171.971 58.0278 171.748 58.0278H168.205ZM197.048 58.0278C195.667 58.0278 194.486 57.7796 193.505 57.2833C192.525 56.7622 191.779 55.9682 191.266 54.9011C190.776 53.834 190.531 52.494 190.531 50.8811V43.0644H187.923C187.679 43.0644 187.478 42.9776 187.322 42.8039C187.166 42.6301 187.088 42.4068 187.088 42.1339V39.6028C187.088 39.3298 187.166 39.1065 187.322 38.9328C187.478 38.759 187.679 38.6722 187.923 38.6722H190.531V32.5305C190.531 32.2576 190.609 32.0343 190.764 31.8605C190.943 31.6868 191.144 31.6 191.366 31.6H194.642C194.887 31.6 195.088 31.6868 195.243 31.8605C195.4 32.0343 195.477 32.2576 195.477 32.5305V38.6722H199.655C199.878 38.6722 200.068 38.759 200.224 38.9328C200.38 39.1065 200.457 39.3298 200.457 39.6028V42.1339C200.457 42.4068 200.38 42.6301 200.224 42.8039C200.068 42.9776 199.878 43.0644 199.655 43.0644H195.477V50.4344C195.477 51.3774 195.623 52.1218 195.912 52.6678C196.224 53.1889 196.759 53.4494 197.516 53.4494H199.956C200.179 53.4494 200.369 53.5362 200.524 53.71C200.681 53.8837 200.758 54.0946 200.758 54.3428V57.0972C200.758 57.3701 200.681 57.5935 200.524 57.7672C200.369 57.9409 200.179 58.0278 199.956 58.0278H197.048Z" fill="white"/>
<path d="M206.73 58.24C206.489 58.24 206.292 58.1563 206.139 57.9887C205.985 57.8212 205.909 57.6058 205.909 57.3426V34.0102C205.909 33.747 205.985 33.5316 206.139 33.364C206.292 33.1965 206.489 33.1128 206.73 33.1128H221.376C221.616 33.1128 221.813 33.1965 221.967 33.364C222.12 33.5316 222.197 33.747 222.197 34.0102V37.0613C222.197 37.3245 222.12 37.5399 221.967 37.7075C221.813 37.875 221.616 37.9587 221.376 37.9587H211.032V44.0252H220.719C220.959 44.0252 221.157 44.1089 221.31 44.2764C221.464 44.444 221.54 44.6594 221.54 44.9226V47.9737C221.54 48.2131 221.464 48.4164 221.31 48.584C221.157 48.7515 220.959 48.8352 220.719 48.8352H211.032V57.3426C211.032 57.6058 210.955 57.8212 210.802 57.9887C210.648 58.1563 210.451 58.24 210.211 58.24H206.73ZM227.124 58.24C226.905 58.24 226.718 58.1563 226.566 57.9887C226.412 57.8212 226.336 57.6058 226.336 57.3426V40.4715C226.336 40.2083 226.412 39.9929 226.566 39.8253C226.718 39.6578 226.905 39.5741 227.124 39.5741H230.408C230.648 39.5741 230.845 39.6578 230.999 39.8253C231.152 39.9929 231.229 40.2083 231.229 40.4715V57.3426C231.229 57.6058 231.152 57.8212 230.999 57.9887C230.845 58.1563 230.648 58.24 230.408 58.24H227.124ZM227.025 36.7024C226.806 36.7024 226.62 36.6187 226.467 36.4511C226.314 36.2836 226.237 36.0682 226.237 35.805V32.9333C226.237 32.6701 226.314 32.4547 226.467 32.2872C226.62 32.0958 226.806 32 227.025 32H230.473C230.714 32 230.911 32.0958 231.065 32.2872C231.239 32.4547 231.327 32.6701 231.327 32.9333V35.805C231.327 36.0682 231.239 36.2836 231.065 36.4511C230.911 36.6187 230.714 36.7024 230.473 36.7024H227.025Z" fill="#8FD8E7"/>
<mask id="mask0" style="mask-type:alpha" maskUnits="userSpaceOnUse" x="5" y="15" width="49" height="47">
<path d="M23.9138 50.1657C17.1799 53.4558 9.28162 50.1543 6.27249 42.7917C3.26336 35.429 6.2829 26.7932 13.0168 23.5031C19.7507 20.213 27.6489 23.5145 30.6581 30.8771C33.6672 38.2398 30.6477 46.8756 23.9138 50.1657Z" fill="black"/>
<path d="M48.1712 35.1481C43.5093 37.4259 38.0412 35.1403 35.958 30.043C33.8748 24.9458 35.9652 18.9672 40.6271 16.6894C45.2891 14.4116 50.7571 16.6973 52.8403 21.7945C54.9236 26.8918 52.8332 32.8704 48.1712 35.1481Z" fill="black"/>
<path d="M44.9022 60.2919C41.1468 62.1267 36.742 60.2855 35.0638 56.1794C33.3857 52.0733 35.0696 47.2572 38.8251 45.4224C42.5805 43.5875 46.9853 45.4287 48.6634 49.5348C50.3416 53.6409 48.6576 58.457 44.9022 60.2919Z" fill="black"/>
</mask>
<g mask="url(#mask0)">
<path d="M7.13862 48.0127C13.7864 61.6236 31.2351 67.7268 46.1117 61.6446C60.9882 55.5624 67.6588 39.5981 61.011 25.9872C54.3633 12.3764 36.9145 6.27322 22.038 12.3554C7.16158 18.4375 0.490873 34.4019 7.13862 48.0127Z" fill="white"/>
<path d="M17.3813 45.0636C20.9257 53.7003 30.2291 57.573 38.1609 53.7136C46.0927 49.8541 49.6494 39.7241 46.105 31.0875C42.5606 22.4509 33.2572 18.5781 25.3253 22.4376C17.3935 26.2969 13.8368 36.4269 17.3813 45.0636Z" fill="#6ACDE2"/>
</g>
</svg>
