<svg xmlns="http://www.w3.org/2000/svg" width="342px" height="80px" viewBox="1300 -200 3420 1400"><defs><style>.cls-1{fill:#fff;}.cls-2{fill:#37bec1;}.cls-3{fill:#fbb144;}.cls-4{fill:#e4615e;}</style></defs><title>EF_logo_</title><g id="Layer_2" data-name="Layer 2"><path class="cls-1" d="M849.86,784.31V729.48L940,707.94V175.29l-90.09-21.55V98.91h519.92V299.64H1312l-39.17-126.31h-173.3V401.47l182.12-16.65v96.94l-182.12-14.69V709.9h175.26l66.59-137.08h57.77l-29.39,211.49Z"/><path class="cls-1" d="M1443.21,346.63V294.74h234V632.55q0,49.92,12.24,69t49.46,19.09q28.38,0,58.74-14.69t49-39.16V366.22L1783,346.63V294.74h215.41V710.88h76.38V753q-21.54,14.68-34.76,21t-29.37,12.73a168.8,168.8,0,0,1-33.29,9.3,189.13,189.13,0,0,1-31.83,2.94q-70.5,0-98.89-63.64Q1777.08,799,1676.25,799q-149.82,0-149.81-153.72V366.22Z"/><path class="cls-1" d="M2102.17,784.31V732.42l83.22-19.58V90.1h-83.22V38.21L2258.83,1h77.35V712.84l83.23,19.58v51.89Z"/><path class="cls-1" d="M2463.46,533.65q0-115.51,65.11-184.56t176.74-69q113.57,0,171.84,77.36t58.26,190.93H2614.24q6.86,72.06,51.91,124.15t115.53,52.1q52.88,0,113.59-21.54l20.55,55.8Q2824.77,799,2737.62,799q-126.3,0-200.23-73.93T2463.46,533.65Zm150.78-46,165.49-10.77a301.39,301.39,0,0,0-2.94-43.57q-3-20.06-16.65-48.47-24.48-41.11-57.77-41.12-39.16,0-64.62,40.14a152.4,152.4,0,0,0-19.58,53.86Q2613.25,467.07,2614.24,487.63Z"/><path class="cls-1" d="M2992.2,784.31V732.42l83.23-19.58v-329H2992.2V332l156.67-37.21h77.35v58.75q73.43-73.44,174.29-73.44a136.38,136.38,0,0,1,5.87,41.13q0,45-9.79,84.21l-123.38-20.57q-23.49,10.79-47,31.33V712.84L3329,732.42v51.89Z"/><rect class="cls-2" x="-4.28" y="183.22" width="552.62" height="138.16" rx="69.08" transform="translate(-79.1 132.46) rotate(-24)"/><rect class="cls-3" x="22.87" y="428.73" width="414.47" height="138.16" rx="69.08" transform="translate(-182.58 136.63) rotate(-24)"/><rect class="cls-4" x="164.3" y="561.85" width="552.62" height="138.16" rx="69.08" transform="translate(-218.53 233.76) rotate(-24)"/></g></svg>