<svg width="20" height="19" viewBox="0 0 20 19" fill="none" xmlns="http://www.w3.org/2000/svg">
<path opacity="0.7" fill-rule="evenodd" clip-rule="evenodd" d="M10 0.000213623H8.68097C8.63427 0.507139 8.48642 0.876946 8.2374 1.10963C7.99616 1.34232 7.60317 1.47944 7.05844 1.52099L6.2997 1.59578V2.96697H8.27242V9.00021H10V0.000213623ZM0 9.00021H5.56796V7.41711H1.71591V0.0500754H0V9.00021ZM13.9978 9.53298L12.2403 9.59869L14.119 6.29868L15.9998 3.00021L17.7913 6.16333L19.5821 9.32531L18.0071 9.38376C18.0003 9.88797 17.9561 10.3929 17.8749 10.8942C17.7804 11.471 17.6387 12.0412 17.451 12.5986C17.3333 12.9484 17.0735 13.7092 16.6041 14.508C15.7327 15.9888 14.5765 16.8633 14.1011 17.1926C12.3818 18.3823 10.727 18.5751 10.005 18.6519C7.8326 18.879 6.16229 18.2552 5.35145 17.8814C5.51029 17.8837 5.73148 17.8831 5.99544 17.8711C6.28193 17.8585 7.28125 17.809 8.30872 17.5268L8.31565 17.5249C8.85532 17.3756 9.97616 17.0654 11.1185 16.1678C11.3616 15.977 12.6154 14.9664 13.3966 13.1272C13.8799 11.982 14.0863 10.7481 13.9978 9.53298Z" fill="url(#paint0_linear_1910_39500)"/>
<defs>
<linearGradient id="paint0_linear_1910_39500" x1="2.02744" y1="2.80524" x2="12.6179" y2="4.98854" gradientUnits="userSpaceOnUse">
<stop stop-color="#940DFF"/>
<stop offset="1" stop-color="#0094FF"/>
<stop offset="1" stop-color="#0094FF"/>
</linearGradient>
</defs>
</svg>
