<svg width="21" height="23" viewBox="0 0 21 23" fill="none" xmlns="http://www.w3.org/2000/svg">
<path d="M20.7592 10.4253L20.4903 10.5495C20.4826 10.5328 20.4714 10.5203 20.4593 10.5122L20.7374 10.0988L20.4593 10.5122C20.4474 10.5042 20.4348 10.5004 20.4228 10.5C20.4108 10.4996 20.3982 10.5026 20.3862 10.5095L20.384 10.5109L8.61067 17.2779L8.60459 17.2814L8.60457 17.2813C8.57322 17.2988 8.54553 17.3261 8.52635 17.3617L8.08617 17.1246L8.52635 17.3617C8.50711 17.3974 8.49779 17.4391 8.50044 17.4814C8.5031 17.5238 8.5175 17.5633 8.54054 17.5955C8.56349 17.6276 8.59362 17.6505 8.62615 17.6634L8.6265 17.6635L11.1763 18.6755L16.3197 14.1897C16.462 14.0619 16.6465 13.9888 16.8401 13.9868L16.8449 13.9868C16.9989 13.9867 17.1489 14.0313 17.2774 14.1142L20.7592 10.4253ZM20.7592 10.4253L20.4903 10.5495C20.4981 10.5663 20.5015 10.5857 20.4994 10.6054L20.351 12.0355L20.3683 12.0178M20.7592 10.4253L20.3683 12.0178M20.3683 12.0178L19.4562 21.6545L19.4561 21.6545L19.4556 21.6608C19.4526 21.6979 19.4411 21.733 19.4229 21.7634C19.4048 21.7937 19.3807 21.818 19.3534 21.8352C19.3263 21.8523 19.2964 21.8622 19.2663 21.8648C19.2362 21.8674 19.2056 21.8628 19.1768 21.8509L19.1769 21.8509L19.1704 21.8483L15.7184 20.479L15.4194 20.3604L15.1875 20.5833L13.2517 22.4438L13.2517 22.4438L13.2472 22.4482C13.2121 22.4828 13.1679 22.4999 13.1244 22.4999V22.4999L13.1186 22.5C13.0941 22.5003 13.0696 22.4956 13.0462 22.4859C13.0228 22.4762 13.0007 22.4615 12.9814 22.442C12.9622 22.4225 12.9462 22.3985 12.9352 22.3712C12.9241 22.3438 12.9182 22.314 12.9183 22.2837V22.2827V21.1389L17.4749 15.2994C17.475 15.2992 17.4752 15.2991 17.4753 15.2989L17.4755 15.2987L17.0813 14.9911M20.3683 12.0178L17.571 14.4508M17.0813 14.9911C17.117 14.9455 17.1394 14.8905 17.1459 14.8324C17.1524 14.7743 17.1428 14.7155 17.1181 14.6627M17.0813 14.9911L12.4183 20.9669L17.0813 14.9911ZM17.1181 14.6627L17.571 14.4508M17.1181 14.6627C17.0934 14.61 17.0547 14.5655 17.0065 14.5344M17.1181 14.6627L17.571 14.4508C17.571 14.4508 17.571 14.4508 17.571 14.4508M17.571 14.4508L17.0065 14.5344M17.0065 14.5344C16.9582 14.5033 16.9023 14.4868 16.8453 14.4868L17.0065 14.5344Z" fill="url(#paint0_linear_1917_51596)" stroke="url(#paint1_linear_1917_51596)"/>
<path d="M6.48 12H0.756V3.384H2.52V10.476H6.48V12ZM7.08825 12V10.644L9.32025 8.808C9.73625 8.464 10.0283 8.216 10.1963 8.064C10.3643 7.912 10.5123 7.776 10.6403 7.656C10.9043 7.376 11.0963 7.116 11.2163 6.876C11.3443 6.628 11.4083 6.38 11.4083 6.132C11.4083 5.716 11.2883 5.384 11.0483 5.136C10.8083 4.88 10.4883 4.752 10.0883 4.752C9.68825 4.752 9.36025 4.888 9.10425 5.16C8.85625 5.432 8.73225 5.772 8.73225 6.18C8.73225 6.316 8.74425 6.452 8.76825 6.588C8.79225 6.724 8.82825 6.856 8.87625 6.984H7.20825C7.16025 6.824 7.12425 6.676 7.10025 6.54C7.07625 6.396 7.06425 6.24 7.06425 6.072C7.06425 5.672 7.14425 5.296 7.30425 4.944C7.46425 4.592 7.69225 4.284 7.98825 4.02C8.26825 3.772 8.59225 3.584 8.96025 3.456C9.32825 3.32 9.71625 3.252 10.1243 3.252C11.0363 3.252 11.7683 3.508 12.3203 4.02C12.8803 4.524 13.1603 5.188 13.1603 6.012C13.1603 6.572 12.9963 7.108 12.6683 7.62C12.3483 8.132 11.7843 8.708 10.9763 9.348L9.57225 10.476H13.2323V12H7.08825Z" fill="url(#paint2_linear_1917_51596)"/>
<defs>
<linearGradient id="paint0_linear_1917_51596" x1="9.34596" y1="11.95" x2="16.402" y2="13.3391" gradientUnits="userSpaceOnUse">
<stop stop-color="#940DFF"/>
<stop offset="1" stop-color="#0094FF"/>
<stop offset="1" stop-color="#0094FF"/>
</linearGradient>
<linearGradient id="paint1_linear_1917_51596" x1="9.34596" y1="11.95" x2="16.402" y2="13.3391" gradientUnits="userSpaceOnUse">
<stop stop-color="#940DFF"/>
<stop offset="1" stop-color="#0094FF"/>
<stop offset="1" stop-color="#0094FF"/>
</linearGradient>
<linearGradient id="paint2_linear_1917_51596" x1="1.44949" y1="1.95" x2="9.00324" y2="3.55152" gradientUnits="userSpaceOnUse">
<stop stop-color="#940DFF"/>
<stop offset="1" stop-color="#0094FF"/>
<stop offset="1" stop-color="#0094FF"/>
</linearGradient>
</defs>
</svg>
