<svg width="18" height="18" viewBox="0 0 18 18" fill="none" xmlns="http://www.w3.org/2000/svg">
<path d="M1.37733 10.7113C-0.252062 12.3407 -0.252079 14.9932 1.37728 16.6226C3.00665 18.252 5.65926 18.252 7.28866 16.6226L10.3999 13.5113C12.0293 11.8819 12.0293 9.2293 10.4 7.59994C10.339 7.53726 10.2662 7.48732 10.1857 7.45303C10.1053 7.41873 10.0188 7.40076 9.93139 7.40016C9.84395 7.39956 9.75726 7.41634 9.67636 7.44952C9.59545 7.48271 9.52195 7.53165 9.46012 7.59348C9.39828 7.65531 9.34935 7.72882 9.31617 7.80972C9.28298 7.89062 9.2662 7.97731 9.2668 8.06475C9.2674 8.1522 9.28538 8.23865 9.31967 8.31909C9.35397 8.39953 9.4039 8.47235 9.46658 8.53333C10.595 9.66175 10.595 11.4495 9.46655 12.5779L6.35528 15.6892C5.22685 16.8176 3.43909 16.8177 2.31066 15.6892C1.18222 14.5608 1.18226 12.7731 2.31069 11.6446L5.42197 8.53335C5.4847 8.47239 5.53469 8.39956 5.56903 8.3191C5.60337 8.23865 5.62137 8.15217 5.622 8.0647C5.62263 7.97723 5.60586 7.89051 5.57267 7.80957C5.53949 7.72864 5.49055 7.65511 5.42869 7.59325C5.36684 7.5314 5.29331 7.48247 5.21237 7.44928C5.13144 7.4161 5.04471 7.39932 4.95724 7.39995C4.86977 7.40057 4.78329 7.41858 4.70284 7.45292C4.62239 7.48726 4.54956 7.53726 4.4886 7.59999L1.37733 10.7113ZM7.59987 4.48872C5.97048 6.11811 5.97046 8.77073 7.59982 10.4001C7.6608 10.4628 7.73363 10.5127 7.81406 10.547C7.8945 10.5812 7.98094 10.5992 8.06837 10.5998C8.15581 10.6004 8.24249 10.5836 8.32338 10.5504C8.40428 10.5172 8.47777 10.4683 8.5396 10.4065C8.60142 10.3446 8.65035 10.2712 8.68354 10.1903C8.71672 10.1094 8.7335 10.0227 8.73291 9.93525C8.73231 9.84782 8.71435 9.76136 8.68007 9.68093C8.64579 9.6005 8.59587 9.52768 8.53321 9.4667C7.40477 8.33828 7.40479 6.55052 8.53324 5.42208L11.6445 2.31082C12.7729 1.18238 14.5607 1.18235 15.6891 2.31078C16.8176 3.43921 16.8175 5.22696 15.6891 6.35542L12.5778 9.46668C12.515 9.52762 12.465 9.60044 12.4306 9.68092C12.3962 9.76139 12.3781 9.8479 12.3775 9.93541C12.3768 10.0229 12.3935 10.1097 12.4267 10.1907C12.4599 10.2717 12.5089 10.3452 12.5708 10.4071C12.6326 10.469 12.7062 10.5179 12.7872 10.5511C12.8682 10.5843 12.9549 10.6011 13.0425 10.6004C13.13 10.5997 13.2165 10.5817 13.2969 10.5473C13.3774 10.5129 13.4502 10.4628 13.5112 10.4L16.6225 7.28877C18.2518 5.65937 18.2519 3.00678 16.6225 1.37741C14.9931 -0.251955 12.3405 -0.251941 10.7111 1.37745L7.59987 4.48872Z" fill="#A3BBC9"/>
</svg>
