<svg width="339" height="121" viewBox="60 -20 339 161" fill="none" xmlns="http://www.w3.org/2000/svg">
<path d="M122 80.1538H148.687V73.2308H129.913V34.4615H122V80.1538Z" fill="white"/>
<path d="M162.607 46.0769H154.927V80.1538H162.607V46.0769ZM158.806 40.4615C161.366 40.4615 163.616 38.3077 163.616 35.6923C163.616 33.0769 161.366 31 158.806 31C156.168 31 153.918 33.0769 153.918 35.6923C153.918 38.3077 156.168 40.4615 158.806 40.4615Z" fill="white"/>
<path d="M201.991 47.8462C198.5 46.3846 193.69 45.3077 188.957 45.3077C176.778 45.3077 169.175 52.2308 169.175 63.1538C169.175 74.4615 176.778 80.9231 187.871 80.9231C190.587 80.9231 193.069 80.3846 194.388 79.8462V94H201.991V47.8462ZM194.388 73.2308C192.448 73.9231 190.819 74.3077 188.337 74.3077C181.432 74.3077 176.933 69.9231 176.933 63.1538C176.933 56.0769 181.51 52.0769 188.957 52.0769C191.052 52.0769 192.836 52.4615 194.388 52.9231V73.2308Z" fill="white"/>
<path d="M238.918 46.0769H231.316V74.1538C229.299 74.4615 227.126 74.6154 225.42 74.6154C220.377 74.6154 217.274 72.7692 217.274 67.6923V46.0769H209.671V68.2308C209.671 77.7692 215.722 80.9231 225.575 80.9231C229.609 80.9231 234.884 80.3846 238.918 79.3846V46.0769Z" fill="white"/>
<path d="M256.442 46.0769H248.762V80.1538H256.442V46.0769ZM252.641 40.4615C255.201 40.4615 257.451 38.3077 257.451 35.6923C257.451 33.0769 255.201 31 252.641 31C250.003 31 247.753 33.0769 247.753 35.6923C247.753 38.3077 250.003 40.4615 252.641 40.4615Z" fill="white"/>
<path d="M262.264 52.4615H267.462V70.3846C267.462 78.1538 272.194 80.9231 277.78 80.9231C281.038 80.9231 283.831 80.2308 286.081 79.0769V72.2308C283.986 73.4615 282.047 74.1538 279.797 74.1538C276.849 74.1538 275.065 72.7692 275.065 68.6923V52.4615H284.84V46.0769H275.065V37.7692H267.462V46.0769H262.264V52.4615Z" fill="white"/>
<path d="M295.692 46.0769H287.469L301.666 81.6923L296.856 94H304.381L323 46.0769H315.087L305.467 72.9231L295.692 46.0769Z" fill="white"/>
<circle cx="51.7784" cy="60.3789" r="35.3789" fill="#fff6"/>
<path d="M51.5858 95.7577C16.399 95.7577 2.51194 49.4676 33.5923 29.9596C29.8961 68.6486 49.5584 69.5044 67.8043 68.6486C98.3781 67.2146 98.3986 95.7577 98.3986 95.7577H51.5858Z" fill="#fff6"/>
<path fill-rule="evenodd" clip-rule="evenodd" d="M85.22 71.9525C79.8972 85.5946 66.808 95.3498 51.3867 95.7841C51.7492 95.7941 52.114 95.7992 52.4811 95.7992H99C99 95.7992 98.988 79.0696 85.22 71.9525Z" fill="#fff1"/>
</svg>
