<?xml version="1.0" encoding="UTF-8"?><svg id="Layer_1" xmlns="http://www.w3.org/2000/svg" viewBox="0 0 948.57 220"><defs><style>.cls-1{fill:#2eb6ea;}.cls-2{fill:#1542cd;}.cls-3{fill:#293147;}.cls-4{fill:#745ddf;fill-rule:evenodd;}</style></defs><path class="cls-3" d="M326.83,170.59h82.55v-21.41h-58.07V29.25h-24.48V170.59Z"/><path class="cls-3" d="M452.44,65.18h-23.76v105.41h23.76V65.18Zm-11.76-17.37c7.92,0,14.88-6.66,14.88-14.75s-6.96-14.51-14.88-14.51-15.12,6.42-15.12,14.51,6.96,14.75,15.12,14.75Z"/><path class="cls-3" d="M574.26,70.66c-10.8-4.52-25.68-7.85-40.32-7.85-37.67,0-61.19,21.41-61.19,55.2s23.52,54.96,57.83,54.96c8.4,0,16.08-1.67,20.16-3.33v43.78h23.52V70.66Zm-23.52,78.52c-6,2.14-11.04,3.33-18.72,3.33-21.36,0-35.28-13.56-35.28-34.5s14.16-34.26,37.19-34.26c6.48,0,12,1.19,16.8,2.62v62.82Z"/><path class="cls-3" d="M688.48,65.18h-23.51v86.85c-6.24,.95-12.96,1.43-18.24,1.43-15.6,0-25.2-5.71-25.2-21.41V65.18h-23.52v68.53c0,29.5,18.72,39.26,49.19,39.26,12.48,0,28.79-1.67,41.27-4.76V65.18Z"/><path class="cls-3" d="M742.69,65.18h-23.76v105.41h23.76V65.18Zm-11.76-17.37c7.92,0,14.88-6.66,14.88-14.75s-6.96-14.51-14.88-14.51-15.12,6.42-15.12,14.51,6.96,14.75,15.12,14.75Z"/><path class="cls-3" d="M760.7,84.93h16.08v55.44c0,24.03,14.64,32.6,31.92,32.6,10.08,0,18.72-2.14,25.68-5.71v-21.18c-6.48,3.81-12.48,5.95-19.44,5.95-9.12,0-14.64-4.28-14.64-16.89v-50.21h30.24v-19.75h-30.24v-25.7h-23.52v25.7h-16.08v19.75Z"/><path class="cls-3" d="M864.1,65.18h-25.44l43.91,110.17-14.88,38.07h23.28l57.59-148.24h-24.48l-29.76,83.04-30.24-83.04Z"/><circle class="cls-1" cx="109.62" cy="109.42" r="109.43"/><path class="cls-2" d="M109.02,218.86C.18,218.86-42.77,75.67,53.37,15.33c-11.43,119.67,49.39,122.32,105.82,119.67,94.57-4.44,94.63,83.85,94.63,83.85H109.02Z"/><path class="cls-4" d="M213.06,145.22c-16.46,42.2-56.95,72.37-104.65,73.72,1.12,.03,2.25,.05,3.39,.05H255.69s-.04-51.75-42.62-73.76Z"/></svg>