<svg height='300px' width='300px'  fill="#ffffff" xmlns="http://www.w3.org/2000/svg" xmlns:xlink="http://www.w3.org/1999/xlink" version="1.1" x="0px" y="0px" viewBox="0 0 100 100" style="enable-background:new 0 0 100 100;" xml:space="preserve"><path d="M74.7,50.7c0.1,5.6-1.9,11.3-5.5,15.8c-3.6,4.5-8.9,7.5-14.6,8.5c-5.7,1.1-11.8,0-16.8-3c-5.1-2.9-9.1-7.7-11-13.3  c-1.9-5.6-2-11.9,0.2-17.5c2.2-5.6,6.3-10.4,11.7-13.4c2.7-1.5,5.6-2.4,8.6-2.9c3-0.4,6.1-0.4,9.1,0.2c6,1.2,11.6,4.7,15.4,9.6l0,0  c1,1.3,0.8,3.2-0.5,4.2c-1.3,1-3.2,0.8-4.2-0.5c0,0,0-0.1-0.1-0.1c-2.8-3.9-7-6.8-11.8-7.9c-2.4-0.6-4.8-0.7-7.3-0.5  c-2.4,0.3-4.8,0.9-7,2.1c-4.4,2.2-8.1,6.1-10,10.7c-2,4.6-2.2,10-0.7,14.8c1.5,4.9,4.8,9.2,9.2,11.9c4.3,2.8,9.7,4,14.9,3.2  c5.2-0.7,10.1-3.3,13.6-7.3c3.5-4,5.6-9.2,5.7-14.6c0-0.3,0.3-0.6,0.6-0.6C74.4,50.1,74.7,50.4,74.7,50.7z"></path></svg>