<?xml version="1.0" encoding="UTF-8"?><svg id="Layer_1" xmlns="http://www.w3.org/2000/svg" viewBox="0 0 101.67 69.18"><path d="M89.35,0H30.84C24.03,0,18.52,5.52,18.52,12.32v1.2h23.28c11.62,0,21.07,9.45,21.07,21.07s-9.45,21.07-21.07,21.07H18.52v1.2c0,6.8,5.52,12.32,12.32,12.32h58.51c6.8,0,12.32-5.52,12.32-12.32V12.32C101.67,5.52,96.15,0,89.35,0Z"/><path d="M41.8,22.27H12.32c-6.8,0-12.32,5.52-12.32,12.32s5.52,12.32,12.32,12.32h29.48c6.8,0,12.32-5.52,12.32-12.32s-5.52-12.32-12.32-12.32Zm-.57,18.89c-3.63,0-6.57-2.94-6.57-6.57s2.94-6.57,6.57-6.57,6.57,2.94,6.57,6.57-2.94,6.57-6.57,6.57Z"/></svg>