<?xml version="1.0" encoding="UTF-8"?><svg id="Layer_1" xmlns="http://www.w3.org/2000/svg" viewBox="0 0 80.98 68.83"><path d="M4.2,47.78l3.61-3.9c1.42-1.52,3.47-2.45,5.67-2.45h23.88l-1.56,7.21c-.43,1.85,1.84,3.18,3.47,2.05l19.98-13.83c1.2-.79,1.2-2.45,0-3.31l-19.98-13.83c-1.63-1.12-3.9,.2-3.47,2.05l1.56,7.21H13.06c-6.16,0-11.19,4.7-11.19,10.45v7.48c0,1.19,1.56,1.72,2.34,.86Z"/><path d="M68.69,0H24.43c-6.76,0-12.28,5.53-12.28,12.28v8.63h8.7V12.28c0-1.94,1.64-3.58,3.58-3.58h44.27c1.94,0,3.58,1.64,3.58,3.58V56.55c0,1.94-1.64,3.58-3.58,3.58H24.43c-1.94,0-3.58-1.64-3.58-3.58v-8.39H12.14v8.39c0,6.76,5.53,12.28,12.28,12.28h44.27c6.76,0,12.28-5.53,12.28-12.28V12.28c0-6.76-5.53-12.28-12.28-12.28Z"/></svg>