<?xml version="1.0" encoding="UTF-8"?><svg id="Layer_1" xmlns="http://www.w3.org/2000/svg" viewBox="0 0 1348.55 220"><defs><style>.cls-1{fill:#020202;}</style></defs><path class="cls-1" d="M1.47,31.86C1.47,22.39,.89,13.23,0,3.75H42.28l1.47,19.22C48.49,16.49,60.02,.49,89.87,.49c34.32,0,44.06,21,47.01,28.11C149.31,4.65,169.42,.8,184.79,.8c30.17,0,42.32,18.05,45.54,23.95,8,13,7.37,31.06,7.37,44.06v81.83h-44.06V65.29c0-16-2.37-33.74-25.16-33.74-26.32,0-26.9,24.53-26.9,46.75v72.35h-44.06V64.4c0-11.53-.31-32.85-24.53-32.85-27.53,0-27.53,23.69-27.53,33.74v85.36H1.47V31.86Z"/><path class="cls-1" d="M0,183.54H237.84v36.42H0v-36.42Z"/><path class="cls-1" d="M1201.48,218.4h147.07v-35.66h-101.04v-57.96h91.52v-35.08h-91.52V38.61h97.78V3.58h-143.81V218.4Zm-166.69,0h139.07v-36.56h-92.11V3.84h-46.97V218.4h0Zm-154.49-93.89h26.46c21.99,0,49.61,0,49.61,30.61,0,28.82-23.77,28.82-44.87,28.82h-31.19v-59.44Zm0-87.68h31.19c15.15,0,37.72,0,37.72,26.72s-23.77,27.62-36.82,27.62h-32.09V36.82Zm-43.97,181.57h80.22c8.31,0,37.45,0,54.07-8.63,16.62-8.31,31.51-25.25,31.51-50.5,0-22.57-12.78-46.34-45.45-52.29v-.63c12.47-3.26,22.88-12.78,24.36-14.57,10.99-10.1,12.47-24.09,12.47-32.09,0-12.47-4.47-33.29-24.09-45.76-16.36-10.1-40.4-10.1-52.91-10.1h-80.22V218.4h.04Zm-161.33-81.11l31.77-91.52,29.67,91.52h-61.45Zm5.63-133.71l-77.54,214.82h43.97l16.04-46.34h85l15.46,46.34h46.34L735.28,3.58h-54.66Zm-164.32,214.82h46.34V39.24h63.91V3.58h-174.16V39.24h63.91V218.4Zm-249.9-68.64c.31,20.78,.89,73.69,83.21,73.69,59.44,0,91.52-31.19,91.52-69.81,0-41.92-36.56-52.02-73.69-60.91-30.88-7.73-46.66-11.31-46.66-31.19,0-17.52,13.94-29.14,35.35-29.14,31.82,0,34.19,25.25,34.77,32.67h44.29c0-7.11,0-24.36-12.2-39.82C406.94,5.05,380.49,0,358.23,0c-59.71,0-85,31.19-85,66.54,0,37.14,27.93,52.29,79.06,65.07,27.35,6.52,40.71,9.79,40.71,28.82s-15.73,30.03-40.71,30.03c-39.51,0-38.92-30.61-38.92-40.71h-46.97Z"/></svg>