<svg width="58" height="47" viewBox="0 0 58 47" fill="none" xmlns="http://www.w3.org/2000/svg">
<path fill-rule="evenodd" clip-rule="evenodd" d="M50.948 2.66047C52.8283 4.83216 57.8556 11.2184 57.9905 20.4144L57.9917 20.4923C58.034 23.2199 58.1412 30.1365 52.7313 36.5907C48.7964 41.2872 42.9009 44.9925 35.6917 46.6308L35.622 46.6792L35.5538 46.6626L35.4857 46.6792L35.1281 46.5641C28.0613 44.8879 22.2704 41.225 18.387 36.5907C16.7025 34.5926 15.3861 32.3112 14.4991 29.8528C15.8045 29.285 17.1884 28.9181 18.6037 28.7647L18.384 35.0009L29.8341 28.0767L40.8539 21.401L19.3143 8.44053L19.1127 14.2282C18.6703 14.2797 18.2299 14.3433 17.7915 14.4191C16.3945 14.6631 15.0201 15.0225 13.6824 15.4936C15.0627 8.9467 18.6552 4.41843 20.1703 2.66047C20.7219 2.99842 24.931 5.47927 29.9083 4.04865C32.1142 3.42037 34.0679 2.11661 35.4948 0.320557L35.5629 0.43725C35.5842 0.399363 35.6054 0.359959 35.6235 0.320557C37.0504 2.11661 39.0041 3.42037 41.21 4.04865C46.1888 5.47927 50.3964 2.99842 50.948 2.66047ZM35.8675 21.4085L28.4993 25.8716L21.1173 30.3302L21.2689 26.1596C18.5149 25.9554 15.7538 26.4457 13.2385 27.5856C10.5616 28.7978 8.22763 30.6558 6.44597 32.9929C4.44314 35.7143 3.75074 38.3738 3.418 39.6519L3.41563 39.661C2.9739 41.4599 2.71651 43.2991 2.64744 45.1501C2.62319 45.7775 2.62319 46.3019 2.62319 46.6792C1.12029 43.2038 0.527903 39.4025 0.901959 35.6344C1.07469 33.9295 1.505 29.9892 4.16261 25.9125C5.71634 23.5282 7.76088 21.5028 10.1596 19.9718C11.5044 19.1494 12.9345 18.4756 14.4248 17.9623C15.663 17.5188 16.9369 17.1822 18.2325 16.956C19.3476 16.7667 20.4758 16.6644 21.6067 16.6499L21.737 12.9127L28.8008 17.1561L35.8675 21.4085Z" fill="url(#paint0_linear_1497_18374)"/>
<defs>
<linearGradient id="paint0_linear_1497_18374" x1="6.71599" y1="7.27436" x2="37.1725" y2="14.6737" gradientUnits="userSpaceOnUse">
<stop stop-color="#940DFF"/>
<stop offset="1" stop-color="#0094FF"/>
<stop offset="1" stop-color="#0094FF"/>
</linearGradient>
</defs>
</svg>
