<svg width="116" height="116" viewBox="0 0 116 116" fill="none" xmlns="http://www.w3.org/2000/svg">
<path d="M114.266 72.0309C106.519 103.102 75.0445 122.009 43.965 114.264C12.8855 106.519 -6.01276 75.0443 1.73811 43.975C9.48898 12.9057 40.9563 -6.01097 72.025 1.73516C103.094 9.48128 122.009 40.9578 114.265 72.0309H114.266Z" fill="url(#paint0_linear_0_1)"/>
<path d="M83.5788 49.7361C84.7324 42.0172 78.8562 37.868 70.8198 35.1002L73.4262 24.6447L67.0608 23.0586L64.5275 33.2394C62.8536 32.8224 61.1349 32.4288 59.4278 32.0391L61.9835 21.7911L55.6182 20.21L53.0099 30.6576C51.6253 30.343 50.2651 30.0312 48.9459 29.7029L48.9527 29.6698L40.1749 27.4777L38.4864 34.2759C38.4864 34.2759 43.209 35.3583 43.1096 35.4246C45.6877 36.0685 46.1534 37.7744 46.0765 39.1267L43.1018 51.0376C43.3269 51.0934 43.5479 51.1643 43.7634 51.25C43.551 51.1974 43.3249 51.1399 43.0901 51.0834L38.9277 67.7691C38.613 68.5485 37.8131 69.7273 36.0115 69.2811C36.0749 69.3737 31.3844 68.1267 31.3844 68.1267L28.2246 75.413L36.5065 77.4774C38.0479 77.8671 39.5581 78.2675 41.045 78.6464L38.4143 89.2218L44.7718 90.8078L47.3801 80.3445C49.1174 80.8161 50.803 81.2506 52.4535 81.6607L49.853 92.0743L56.2193 93.6672L58.85 83.1114C69.7042 85.165 77.8653 84.3369 81.3008 74.5206C84.0689 66.6176 81.1624 62.0591 75.4547 59.0858C79.6132 58.1271 82.7467 55.3915 83.5817 49.7419L83.5788 49.7361ZM69.0348 70.1268C67.0676 78.0307 53.7601 73.7577 49.4447 72.6871L52.9407 58.6756C57.2551 59.7531 71.0907 61.8848 69.0358 70.1268H69.0348ZM71.004 49.6211C69.2092 56.81 58.1329 53.1576 54.5376 52.2623L57.7062 39.5553C61.2995 40.4516 72.8708 42.1224 71.002 49.6211H71.004Z" fill="white"/>
<defs>
<linearGradient id="paint0_linear_0_1" x1="11.5" y1="25" x2="104.5" y2="99" gradientUnits="userSpaceOnUse">
<stop stop-color="#940DFF"/>
<stop offset="1" stop-color="#448FFF"/>
</linearGradient>
</defs>
</svg>
