<svg width="20" height="20" viewBox="0 0 20 20" fill="none" xmlns="http://www.w3.org/2000/svg">
<mask id="path-1-inside-1_1485_39393" fill="white">
<path d="M19.9993 1.00646L18.3907 18.0026C18.3764 18.1765 18.3226 18.3445 18.2335 18.4932C18.1444 18.6418 18.0225 18.7669 17.8777 18.8584C17.7328 18.95 17.569 19.0053 17.3995 19.0201C17.2299 19.0348 17.0594 19.0086 16.9016 18.9434L11.5908 16.8367L8.61256 19.6991C8.41677 19.8921 8.15584 19.9999 7.88431 20.0001C7.74201 20.0019 7.60078 19.9746 7.46884 19.9199C7.33689 19.8652 7.21687 19.7842 7.11573 19.6815C7.0146 19.5789 6.93437 19.4566 6.87972 19.3218C6.82506 19.1871 6.79707 19.0425 6.79737 18.8966V16.8724L13.9712 7.67876C14.0261 7.60861 14.0606 7.52396 14.0706 7.43458C14.0806 7.3452 14.0658 7.25474 14.0279 7.17363C13.9899 7.09251 13.9304 7.02406 13.8561 6.97617C13.7818 6.92828 13.6959 6.9029 13.6081 6.90296C13.4982 6.90409 13.3924 6.94607 13.3103 7.02111L5.0387 14.2351L0.680073 12.5052C0.490708 12.4302 0.326241 12.3012 0.206115 12.1334C0.0859883 11.9656 0.015226 11.766 0.00219348 11.5582C-0.0108391 11.3505 0.0344031 11.1433 0.132571 10.9611C0.23074 10.7789 0.377729 10.6293 0.556162 10.53L18.6689 0.119196C18.8115 0.0362632 18.9736 -0.00475283 19.1374 0.00065675C19.3012 0.00606633 19.4604 0.0576921 19.5975 0.149858C19.7345 0.242024 19.8441 0.371161 19.9143 0.523072C19.9844 0.674982 20.0123 0.843783 19.995 1.01092L19.9993 1.00646Z"/>
</mask>
<path d="M19.9993 1.00646L18.3907 18.0026C18.3764 18.1765 18.3226 18.3445 18.2335 18.4932C18.1444 18.6418 18.0225 18.7669 17.8777 18.8584C17.7328 18.95 17.569 19.0053 17.3995 19.0201C17.2299 19.0348 17.0594 19.0086 16.9016 18.9434L11.5908 16.8367L8.61256 19.6991C8.41677 19.8921 8.15584 19.9999 7.88431 20.0001C7.74201 20.0019 7.60078 19.9746 7.46884 19.9199C7.33689 19.8652 7.21687 19.7842 7.11573 19.6815C7.0146 19.5789 6.93437 19.4566 6.87972 19.3218C6.82506 19.1871 6.79707 19.0425 6.79737 18.8966V16.8724L13.9712 7.67876C14.0261 7.60861 14.0606 7.52396 14.0706 7.43458C14.0806 7.3452 14.0658 7.25474 14.0279 7.17363C13.9899 7.09251 13.9304 7.02406 13.8561 6.97617C13.7818 6.92828 13.6959 6.9029 13.6081 6.90296C13.4982 6.90409 13.3924 6.94607 13.3103 7.02111L5.0387 14.2351L0.680073 12.5052C0.490708 12.4302 0.326241 12.3012 0.206115 12.1334C0.0859883 11.9656 0.015226 11.766 0.00219348 11.5582C-0.0108391 11.3505 0.0344031 11.1433 0.132571 10.9611C0.23074 10.7789 0.377729 10.6293 0.556162 10.53L18.6689 0.119196C18.8115 0.0362632 18.9736 -0.00475283 19.1374 0.00065675C19.3012 0.00606633 19.4604 0.0576921 19.5975 0.149858C19.7345 0.242024 19.8441 0.371161 19.9143 0.523072C19.9844 0.674982 20.0123 0.843783 19.995 1.01092L19.9993 1.00646Z" fill="url(#paint0_linear_1485_39393)"/>
<path d="M19.9993 1.00646L20.9949 1.10069L21.262 -1.7211L19.2833 0.308374L19.9993 1.00646ZM18.3907 18.0026L17.395 17.9084L17.394 17.9211L18.3907 18.0026ZM16.9016 18.9434L17.2833 18.019L17.2703 18.0139L16.9016 18.9434ZM11.5908 16.8367L11.9595 15.9072L11.3616 15.67L10.8978 16.1157L11.5908 16.8367ZM8.61256 19.6991L7.91955 18.9781L7.91069 18.9868L8.61256 19.6991ZM7.88431 20.0001L7.88358 19L7.87185 19.0002L7.88431 20.0001ZM6.79737 18.8966L7.79737 18.8986V18.8966H6.79737ZM6.79737 16.8724L6.00898 16.2572L5.79737 16.5284V16.8724H6.79737ZM13.9712 7.67876L13.1839 7.06219L13.1828 7.06358L13.9712 7.67876ZM13.6081 6.90296L13.6074 5.90291L13.5978 5.90301L13.6081 6.90296ZM13.3103 7.02111L13.9676 7.77475L13.9765 7.76702L13.9852 7.75908L13.3103 7.02111ZM5.0387 14.2351L4.6698 15.1646L5.23649 15.3895L5.69599 14.9888L5.0387 14.2351ZM0.680073 12.5052L1.04898 11.5757L1.04827 11.5754L0.680073 12.5052ZM0.556162 10.53L1.04233 11.404L1.05449 11.397L0.556162 10.53ZM18.6689 0.119196L19.1673 0.986196L19.1718 0.983571L18.6689 0.119196ZM19.995 1.01092L19.0003 0.9077L18.7035 3.76807L20.711 1.709L19.995 1.01092ZM19.0038 0.91223L17.3951 17.9084L19.3862 18.0969L20.9949 1.10069L19.0038 0.91223ZM17.394 17.9211C17.3922 17.9431 17.3855 17.9629 17.3758 17.979L19.0912 19.0073C19.2598 18.7262 19.3607 18.41 19.3873 18.0842L17.394 17.9211ZM17.3758 17.979C17.3662 17.995 17.3546 18.0061 17.3435 18.013L18.4118 19.7039C18.6905 19.5278 18.9226 19.2886 19.0912 19.0073L17.3758 17.979ZM17.3435 18.013C17.3327 18.0199 17.3221 18.023 17.3128 18.0239L17.4862 20.0163C17.8159 19.9876 18.1329 19.88 18.4118 19.7039L17.3435 18.013ZM17.3128 18.0239C17.3034 18.0247 17.2935 18.0233 17.2832 18.0191L16.5199 19.8677C16.8253 19.9938 17.1565 20.045 17.4862 20.0163L17.3128 18.0239ZM17.2703 18.0139L11.9595 15.9072L11.222 17.7663L16.5328 19.873L17.2703 18.0139ZM10.8978 16.1157L7.91961 18.9782L9.30551 20.4201L12.2837 17.5577L10.8978 16.1157ZM7.91069 18.9868C7.89923 18.9981 7.8891 19.0001 7.88358 19.0001L7.88504 21.0001C8.42257 20.9997 8.93431 20.786 9.31444 20.4114L7.91069 18.9868ZM7.87185 19.0002C7.86564 19.0003 7.85889 18.9991 7.85174 18.9961L7.08593 20.8437C7.34267 20.9501 7.61838 21.0035 7.89677 21L7.87185 19.0002ZM7.85174 18.9961C7.84453 18.9932 7.83629 18.988 7.82816 18.9798L6.4033 20.3833C6.59744 20.5804 6.82926 20.7373 7.08593 20.8437L7.85174 18.9961ZM7.82816 18.9798C7.81999 18.9715 7.81217 18.9602 7.8064 18.946L5.95304 19.6977C6.05657 19.953 6.2092 20.1862 6.4033 20.3833L7.82816 18.9798ZM7.8064 18.946C7.80061 18.9317 7.79733 18.9155 7.79737 18.8986L5.79737 18.8946C5.79681 19.1695 5.84952 19.4425 5.95304 19.6977L7.8064 18.946ZM7.79737 18.8966V16.8724H5.79737V18.8966H7.79737ZM7.58576 17.4876L14.7596 8.29393L13.1828 7.06358L6.00898 16.2572L7.58576 17.4876ZM14.7585 8.29532C14.9288 8.07778 15.0339 7.81789 15.0644 7.54613L13.0769 7.32304C13.0873 7.23003 13.1234 7.13944 13.1839 7.06219L14.7585 8.29532ZM15.0644 7.54613C15.0949 7.27442 15.05 6.99859 14.9336 6.74978L13.1221 7.59747C13.0816 7.51088 13.0664 7.41599 13.0769 7.32304L15.0644 7.54613ZM14.9336 6.74978C14.8171 6.50079 14.6325 6.28698 14.398 6.13575L13.3142 7.81658C13.2282 7.76115 13.1627 7.68424 13.1221 7.59747L14.9336 6.74978ZM14.398 6.13575C14.1633 5.98436 13.8891 5.90276 13.6074 5.90296L13.6088 7.90296C13.5026 7.90303 13.4004 7.87219 13.3142 7.81658L14.398 6.13575ZM13.5978 5.90301C13.2386 5.90671 12.897 6.04403 12.6355 6.28314L13.9852 7.75908C13.8878 7.84811 13.7578 7.90147 13.6184 7.90291L13.5978 5.90301ZM12.653 6.26747L4.38142 13.4815L5.69599 14.9888L13.9676 7.77475L12.653 6.26747ZM5.40761 13.3057L1.04898 11.5757L0.311169 13.4347L4.6698 15.1646L5.40761 13.3057ZM1.04827 11.5754C1.04003 11.5722 1.02911 11.5651 1.01924 11.5513L-0.607013 12.7155C-0.376627 13.0373 -0.0586154 13.2882 0.311872 13.4349L1.04827 11.5754ZM1.01924 11.5513C1.00921 11.5373 1.00164 11.518 1.00023 11.4956L-0.995844 11.6209C-0.971183 12.014 -0.837231 12.3939 -0.607013 12.7155L1.01924 11.5513ZM1.00023 11.4956C0.998825 11.4732 1.0039 11.4521 1.01293 11.4354L-0.747787 10.4868C-0.935098 10.8344 -1.0205 11.2278 -0.995844 11.6209L1.00023 11.4956ZM1.01293 11.4354C1.02184 11.4188 1.03312 11.409 1.04229 11.4039L0.0700384 9.65614C-0.277659 9.84956 -0.560363 10.1389 -0.747787 10.4868L1.01293 11.4354ZM1.05449 11.397L19.1673 0.986185L18.1706 -0.747794L0.0578352 9.66304L1.05449 11.397ZM19.1718 0.983571C19.153 0.99448 19.1296 1.00094 19.1044 1.00011L19.1704 -0.998798C18.8176 -1.01045 18.4699 -0.921954 18.1661 -0.74518L19.1718 0.983571ZM19.1044 1.00011C19.0792 0.999281 19.0567 0.991322 19.0394 0.979685L20.1555 -0.679969C19.8641 -0.875938 19.5232 -0.987148 19.1704 -0.998798L19.1044 1.00011ZM19.0394 0.979685C19.0224 0.968207 19.012 0.954398 19.0064 0.942243L20.8222 0.103901C20.6763 -0.212075 20.4467 -0.484159 20.1555 -0.679969L19.0394 0.979685ZM19.0064 0.942243C19.0008 0.930257 18.9992 0.91853 19.0003 0.9077L20.9897 1.11413C21.0255 0.769036 20.968 0.419707 20.8222 0.103901L19.0064 0.942243ZM20.711 1.709L20.7154 1.70454L19.2833 0.308374L19.279 0.312833L20.711 1.709Z" fill="url(#paint1_linear_1485_39393)" mask="url(#path-1-inside-1_1485_39393)"/>
<defs>
<linearGradient id="paint0_linear_1485_39393" x1="2.07071" y1="3.00018" x2="12.9261" y2="5.13732" gradientUnits="userSpaceOnUse">
<stop stop-color="#940DFF"/>
<stop offset="1" stop-color="#0094FF"/>
<stop offset="1" stop-color="#0094FF"/>
</linearGradient>
<linearGradient id="paint1_linear_1485_39393" x1="2.07071" y1="3.00018" x2="12.9261" y2="5.13732" gradientUnits="userSpaceOnUse">
<stop stop-color="#940DFF"/>
<stop offset="1" stop-color="#0094FF"/>
<stop offset="1" stop-color="#0094FF"/>
</linearGradient>
</defs>
</svg>
