<?xml version="1.0" encoding="UTF-8"?>
<svg
    xmlns="http://www.w3.org/2000/svg"
    xmlns:xlink="http://www.w3.org/1999/xlink"
    viewBox="-60.705 -1.522 173.859 48.167"
    width="173.859"
    height="63.167">
  <defs>
    <linearGradient x1="50%" y1="0%" x2="50%" y2="100%" id="linearGradient-1">
      <stop offset="0" style="stop-color: rgb(255, 255, 255);"></stop>
      <stop stop-opacity="0" offset="1" style="stop-color: rgb(255, 255, 255);"></stop>
    </linearGradient>
  </defs>
  <path fill-rule="evenodd" clip-rule="evenodd" d="M 65.708 23.578 C 65.649 23.809 65.544 24.026 65.401 24.216 C 65.135 24.563 64.783 24.834 64.38 25.001 C 64.017 25.158 63.633 25.259 63.241 25.302 C 63.16 25.312 63.076 25.318 62.995 25.325 L 62.982 25.326 C 62.733 25.335 62.494 25.424 62.3 25.58 C 62.105 25.736 61.966 25.95 61.901 26.192 C 61.872 26.312 61.85 26.433 61.836 26.556 C 61.813 26.742 61.801 26.931 61.789 27.137 C 61.78 27.284 61.77 27.439 61.756 27.606 C 61.671 28.288 61.475 28.951 61.175 29.568 C 61.114 29.698 61.051 29.823 60.99 29.947 C 60.661 30.609 60.363 31.207 60.449 32.008 C 60.515 32.625 60.83 33.038 61.248 33.465 C 61.447 33.669 61.71 33.843 61.983 34.024 C 62.748 34.531 63.592 35.089 63.314 36.496 C 63.087 37.636 61.205 38.832 58.561 39.25 C 58.817 39.211 58.252 38.242 58.19 38.135 L 58.186 38.128 C 58.113 38.013 58.038 37.9 57.964 37.788 C 57.748 37.462 57.534 37.138 57.367 36.778 C 56.925 35.84 56.72 34.754 56.901 33.726 C 57.065 32.795 57.678 32.051 58.268 31.336 C 58.364 31.219 58.459 31.103 58.552 30.987 C 59.341 30.003 60.169 28.714 60.352 27.436 C 60.367 27.325 60.381 27.204 60.395 27.077 C 60.421 26.849 60.45 26.601 60.494 26.354 C 60.56 25.927 60.693 25.513 60.888 25.129 C 61.022 24.876 61.197 24.649 61.408 24.456 C 61.517 24.354 61.59 24.218 61.613 24.07 C 61.637 23.921 61.61 23.769 61.537 23.638 L 57.322 16.022 L 63.376 23.528 C 63.445 23.615 63.533 23.685 63.632 23.735 C 63.731 23.784 63.84 23.811 63.95 23.813 C 64.061 23.815 64.171 23.793 64.272 23.748 C 64.373 23.703 64.463 23.636 64.536 23.552 C 64.613 23.463 64.656 23.349 64.659 23.231 C 64.662 23.112 64.624 22.997 64.552 22.903 C 64.271 22.542 63.978 22.175 63.686 21.811 L 63.686 21.81 C 63.568 21.663 63.45 21.516 63.333 21.369 L 61.81 19.475 L 58.751 15.692 L 55.356 11.654 L 59.144 15.354 L 62.399 18.969 L 64.023 20.781 C 64.172 20.95 64.321 21.117 64.471 21.285 C 64.86 21.721 65.25 22.158 65.639 22.622 L 65.728 22.73 L 65.747 22.898 C 65.773 23.125 65.76 23.355 65.708 23.578 Z M 81.28 26.124 L 81.287 26.134 C 81.286 25.326 80.788 23.994 79.78 22.712 L 79.757 22.681 C 79.446 22.295 79.108 21.933 78.745 21.598 C 78.677 21.532 78.604 21.467 78.529 21.402 C 78.064 20.994 77.555 20.639 77.012 20.343 L 76.973 20.324 C 75.268 19.391 73.048 18.91 70.311 19.451 C 69.943 19.003 69.547 18.579 69.125 18.182 C 68.479 17.563 67.719 17.078 66.887 16.754 C 66.063 16.451 65.18 16.343 64.307 16.438 C 65.149 16.514 65.968 16.749 66.722 17.131 C 67.451 17.523 68.107 18.038 68.662 18.653 C 69.225 19.281 69.753 19.938 70.246 20.623 L 70.37 20.784 C 70.852 21.415 71.343 22.057 71.954 22.629 C 72.291 22.947 72.666 23.221 73.071 23.444 C 73.179 23.499 73.288 23.551 73.395 23.596 C 73.501 23.642 73.602 23.684 73.709 23.723 C 73.917 23.804 74.133 23.871 74.348 23.933 C 75.21 24.18 76.093 24.269 76.955 24.316 C 77.075 24.323 77.195 24.328 77.314 24.334 C 77.622 24.35 77.927 24.365 78.228 24.387 C 78.639 24.411 79.048 24.476 79.447 24.579 C 80.048 24.736 80.576 25.096 80.944 25.597 C 81.069 25.764 81.182 25.94 81.28 26.124 Z M 78.757 21.599 C 78.714 21.559 78.67 21.519 78.626 21.48 C 78.598 21.454 78.569 21.429 78.542 21.403 C 78.563 21.423 78.585 21.443 78.606 21.463 C 78.657 21.51 78.707 21.557 78.757 21.599 Z M 77.68 29.571 C 74.907 28.441 72.008 27.259 72.439 23.942 C 73.365 24.934 74.818 25.143 76.398 25.369 C 77.831 25.575 79.37 25.795 80.714 26.63 C 83.886 28.598 83.423 32.421 82.345 33.828 C 82.443 31.513 80.11 30.562 77.68 29.571 Z M 66.511 27.911 C 67.243 27.841 68.802 27.458 68.105 26.225 C 67.955 25.975 67.737 25.771 67.477 25.639 C 67.218 25.507 66.926 25.451 66.636 25.477 C 66.342 25.509 66.064 25.631 65.841 25.827 C 65.618 26.022 65.46 26.282 65.389 26.571 C 65.173 27.377 65.402 28.019 66.511 27.911 Z M 66.301 18.156 C 65.842 17.623 65.129 17.344 64.431 17.242 C 64.405 17.417 64.388 17.593 64.381 17.769 C 64.35 19.223 64.864 20.82 65.859 21.929 C 66.177 22.288 66.561 22.582 66.989 22.795 C 67.237 22.916 67.894 23.217 68.138 22.947 C 68.156 22.922 68.168 22.893 68.172 22.862 C 68.175 22.831 68.171 22.8 68.158 22.771 C 68.118 22.656 68.04 22.55 67.963 22.446 C 67.908 22.372 67.853 22.298 67.812 22.221 C 67.771 22.144 67.727 22.068 67.683 21.993 C 67.6 21.851 67.518 21.71 67.455 21.556 C 67.288 21.153 67.201 20.724 67.114 20.297 L 67.114 20.296 C 67.097 20.211 67.079 20.125 67.061 20.04 C 66.929 19.381 66.76 18.688 66.301 18.156 Z M 76.108 29.752 C 75.396 31.749 76.545 33.435 77.686 35.111 C 78.963 36.986 80.232 38.848 78.879 41.118 C 81.509 40.027 82.758 36.731 81.666 34.116 C 80.978 32.462 79.321 31.565 77.782 30.733 L 77.782 30.732 C 77.185 30.41 76.606 30.096 76.108 29.752 Z M 68.411 34.518 C 67.934 34.713 67.485 34.969 67.074 35.281 C 68.008 34.94 68.99 34.746 69.983 34.704 C 70.163 34.693 70.344 34.685 70.527 34.676 L 70.528 34.676 C 70.844 34.662 71.164 34.647 71.492 34.619 C 72.029 34.583 72.558 34.473 73.066 34.295 C 73.598 34.108 74.083 33.804 74.484 33.407 C 74.89 32.997 75.175 32.481 75.306 31.918 C 75.422 31.387 75.406 30.834 75.259 30.31 C 75.112 29.786 74.838 29.307 74.463 28.915 C 74.644 29.376 74.755 29.863 74.793 30.358 C 74.826 30.818 74.764 31.281 74.61 31.716 C 74.46 32.129 74.215 32.5 73.895 32.799 C 73.564 33.1 73.181 33.339 72.764 33.502 C 72.186 33.736 71.531 33.832 70.85 33.932 C 70.539 33.977 70.222 34.024 69.904 34.085 C 69.394 34.179 68.893 34.324 68.411 34.518 Z M 76.674 42.759 L 76.629 42.796 C 76.508 42.893 76.386 42.992 76.254 43.081 C 76.086 43.192 75.91 43.291 75.727 43.375 C 75.347 43.562 74.928 43.657 74.505 43.654 C 73.359 43.632 72.548 42.775 72.074 41.806 C 71.95 41.552 71.84 41.29 71.731 41.028 C 71.555 40.609 71.38 40.19 71.144 39.803 C 70.596 38.904 69.657 38.18 68.558 38.314 C 68.11 38.37 67.689 38.572 67.44 38.963 C 66.785 39.984 67.726 41.414 68.925 41.212 C 69.027 41.196 69.127 41.168 69.223 41.129 C 69.318 41.089 69.407 41.034 69.487 40.968 C 69.654 40.828 69.781 40.645 69.852 40.438 C 69.931 40.222 69.948 39.988 69.903 39.763 C 69.854 39.528 69.715 39.321 69.517 39.186 C 69.747 39.295 69.927 39.489 70.018 39.727 C 70.112 39.973 70.137 40.24 70.088 40.499 C 70.041 40.769 69.923 41.021 69.745 41.229 C 69.651 41.336 69.542 41.429 69.422 41.505 C 69.303 41.58 69.175 41.641 69.042 41.686 C 68.771 41.779 68.483 41.809 68.199 41.773 C 67.8 41.716 67.425 41.553 67.111 41.299 C 67.053 41.253 66.997 41.205 66.943 41.155 C 66.73 40.97 66.536 40.763 66.365 40.537 C 66.288 40.452 66.21 40.369 66.129 40.288 C 65.745 39.883 65.292 39.551 64.791 39.306 C 64.445 39.154 64.084 39.041 63.713 38.971 C 63.527 38.932 63.338 38.904 63.15 38.88 C 63.129 38.878 63.09 38.871 63.041 38.862 L 63.04 38.862 C 62.883 38.835 62.627 38.79 62.582 38.832 C 63.165 38.293 63.8 37.815 64.478 37.403 C 65.175 36.988 65.922 36.667 66.702 36.448 C 67.511 36.219 68.357 36.154 69.19 36.256 C 69.62 36.308 70.04 36.417 70.44 36.581 C 70.86 36.749 71.247 36.989 71.585 37.291 C 71.919 37.607 72.189 37.985 72.38 38.405 C 72.553 38.797 72.681 39.208 72.764 39.629 C 72.808 39.856 72.841 40.104 72.876 40.362 C 73.033 41.537 73.214 42.891 74.56 43.128 C 74.646 43.144 74.732 43.157 74.819 43.164 L 75.087 43.171 C 75.271 43.158 75.455 43.131 75.635 43.092 C 76.01 43.003 76.375 42.878 76.725 42.718 L 76.674 42.759 Z M 66.436 40.616 C 66.468 40.653 66.501 40.69 66.534 40.726 C 66.52 40.711 66.507 40.696 66.493 40.681 C 66.474 40.659 66.455 40.638 66.436 40.616 Z" fill="white"></path>
  <g id="♠️-Symbols" stroke="none" stroke-width="1" fill="none" fill-rule="evenodd" transform="matrix(1, 0, 0, 1, -60.426277, 5.821987)">
    <g id="V1.5_Nav" transform="translate(-85.000000, -4.000000)">
      <g id="Set-+-TokenSets" transform="translate(83.000000, 4.000000)">
        <g id="Group">
          <g id="Group-20-Copy" transform="translate(0.223589, 0.164535)" fill="url(#linearGradient-1)">
            <g id="Group-19">
              <g id="Group-2-Copy" transform="translate(16.566618, 15.200993) rotate(-90.000000) translate(-16.566618, -15.200993) translate(1.566618, 0.700993)">
                <ellipse id="Oval" cx="14.8327083" cy="14.255783" rx="14.8327083" ry="14.2274455"></ellipse>
              </g>
              <g id="Group-2-Copy-2" transform="translate(15.481025, 29.037061) rotate(-270.000000) translate(-15.481025, -29.037061) translate(0.481025, 14.537061)">
                <ellipse id="Oval" cx="14.8327083" cy="14.255783" rx="14.8327083" ry="14.2274455"></ellipse>
              </g>
            </g>
          </g>
          <path d="M51.0165589,35.3475309 C47.1101493,35.3475309 43.9361914,34.4406858 41.4249281,33.0106608 L43.6222835,26.3488372 L43.7966768,26.3488372 C45.0174298,31.2318493 48.8192035,33.7431126 52.3419479,33.7431126 C54.3300314,33.7431126 55.794935,32.5921169 55.794935,30.7435481 C55.794935,29.627431 55.3415124,28.5810713 53.3185503,27.6742262 L47.5286931,25.0234482 C44.1105847,23.41903 42.3317732,20.5589801 42.3317732,17.4896582 C42.3317732,13.6878845 44.7384005,9.53732429 51.714132,9.53732429 C54.8532112,9.53732429 58.4805916,10.5488054 60.5384324,11.6998011 L58.0271691,17.4199009 L57.8527758,17.4199009 C56.4576295,13.129826 53.353429,11.0719852 50.3189857,11.0719852 C47.7728437,11.0719852 46.8659986,12.3624956 46.8659986,13.5134913 C46.8659986,14.664487 47.4589358,15.7457253 49.3075047,16.6525704 L55.2717551,19.4777417 C59.1084074,21.2565532 60.2594031,23.4539087 60.2594031,26.4883519 C60.2594031,31.4411212 56.5622654,35.3475309 51.0165589,35.3475309 Z M71.9299127,29.9762176 C73.6738456,29.9762176 74.9643559,29.4530377 75.9060797,28.1276488 L76.1851089,28.1974061 C75.2433852,33.5687193 71.6160048,35.1731376 68.8257122,35.1731376 C64.8146666,35.1731376 60.8733783,31.9643011 60.8733783,25.860536 C60.8733783,20.0009216 64.3263654,15.8154827 69.0698628,15.8154827 C72.0345487,15.8154827 76.2548662,17.3850222 76.2548662,24.0119672 L66.2098129,24.0119672 C66.7329927,27.9532555 68.8257122,29.9762176 71.9299127,29.9762176 Z M68.3025323,16.9664784 C66.8725074,16.9664784 66.0702982,18.8150472 66.0702982,21.9541264 C66.0702982,22.302913 66.0702982,22.6168209 66.1051769,22.9307288 L70.4301304,22.9307288 C70.4301304,18.326746 69.6976786,16.9664784 68.3025323,16.9664784 Z M89.4251581,29.9064603 L89.739066,30.0110963 C88.9717355,32.5921169 86.8790161,35.1731376 83.2516357,35.1731376 C79.9381632,35.1731376 78.4732596,33.0455395 78.4732596,30.1506109 L78.4732596,17.3152649 L76.7642054,17.3152649 L76.7642054,17.1408716 C79.449862,14.8388802 82.3099119,12.7112821 85.0653259,10.3046548 L85.1002045,10.3046548 L85.1002045,16.4084198 L88.309041,16.4084198 L88.309041,17.2803863 L85.1002045,17.2803863 L85.1002045,29.2088871 C85.1002045,30.7086694 85.762899,31.6852718 86.983652,31.6852718 C88.3439197,31.6852718 89.1112502,30.7784267 89.4251581,29.9064603 Z" id="Set-Protocol" style="fill: rgb(255, 255, 255);"></path>
        </g>
      </g>
    </g>
  </g>
  <g transform="matrix(1, 0, 0, 1, 60.510582, -61.464809)">
    <rect x="-18.52" y="84.016" width="0.417" height="16.337" style="fill: rgb(255, 255, 255);" transform="matrix(0.707107, 0.707107, -0.707107, 0.707107, 59.821045, 39.94838)"></rect>
    <rect x="-18.52" y="84.016" width="0.417" height="16.337" style="fill: rgb(255, 255, 255);" transform="matrix(0.707107, -0.707107, 0.707107, 0.707107, -70.547562, 14.051999)"></rect>
  </g>
</svg>
