<svg width="126" height="181" viewBox="0 0 126 181" fill="none" xmlns="http://www.w3.org/2000/svg">
<path fill-rule="evenodd" clip-rule="evenodd" d="M107.551 73.6731C107.588 73.7315 107.623 73.7898 107.657 73.8481L107.426 73.7444L63.2672 99.7835V99.8073H63.2456H63.2262V99.7835L19.0479 73.7552L18.832 73.8588C18.8665 73.8005 18.9011 73.7422 18.9378 73.6839L18.8729 73.6451L63.183 0.284624V0.0686035L63.25 0.180938L63.3191 0.0686035V0.295429L107.497 73.5824L107.616 73.6343L107.551 73.6731ZM63.3133 113.921L115.059 83.2465C121.989 93.5325 125.682 105.657 125.663 118.06C125.663 152.531 97.7146 180.477 63.2442 180.477C28.7739 180.477 0.827362 152.531 0.827362 118.06C0.806073 105.633 4.51284 93.4846 11.4685 83.186L63.3133 113.921Z" fill="url(#paint0_linear_713_11867)"/>
<defs>
<linearGradient id="paint0_linear_713_11867" x1="0.827362" y1="131.831" x2="125.663" y2="131.831" gradientUnits="userSpaceOnUse">
<stop stop-color="#940DFF"/>
<stop offset="1" stop-color="#0094FF"/>
</linearGradient>
</defs>
</svg>
