<svg width="24" height="13" viewBox="0 0 24 13" fill="none" xmlns="http://www.w3.org/2000/svg">
<g clip-path="url(#clip0_1059_16735)">
<path fill-rule="evenodd" clip-rule="evenodd" d="M16.0777 1.58142C16.0766 1.16234 15.9091 0.760732 15.6119 0.464395C15.3147 0.168059 14.9119 0.00109564 14.4915 0H14.4249H14.3625C14.1566 0.00223445 13.9536 0.0481873 13.767 0.134789C13.5803 0.221391 13.4144 0.346649 13.2801 0.502231L5.84487 8.86175L2.82666 5.47893L2.72675 5.38762C2.66847 5.33781 2.61435 5.288 2.5519 5.24234C2.31717 5.0656 2.03766 4.95762 1.74478 4.93052C1.45189 4.90341 1.15723 4.95825 0.89388 5.08889C0.630531 5.21953 0.408926 5.42078 0.253957 5.67005C0.0989886 5.91932 0.016793 6.20673 0.0166016 6.5C0.0167321 6.89373 0.165332 7.27301 0.432907 7.56258C0.495971 7.68565 0.572781 7.80121 0.661874 7.90708L4.76248 12.4978C4.89497 12.6528 5.05962 12.7772 5.24506 12.8626C5.4305 12.9479 5.63231 12.9921 5.83655 12.9921C6.04079 12.9921 6.2426 12.9479 6.42804 12.8626C6.61348 12.7772 6.77813 12.6528 6.91062 12.4978L15.4615 2.91379C15.5267 2.84267 15.5839 2.76474 15.6322 2.68135C15.919 2.38671 16.0788 1.99197 16.0777 1.58142Z" fill="#00E2CA"/>
<path fill-rule="evenodd" clip-rule="evenodd" d="M23.9999 1.58557C23.9999 1.16615 23.8328 0.763903 23.5353 0.46733C23.2379 0.170756 22.8344 0.00415039 22.4138 0.00415039H22.3097C22.1038 0.00638484 21.9008 0.052325 21.7142 0.138927C21.5276 0.225528 21.3616 0.350799 21.2273 0.506382L13.7754 8.85759L12.7139 7.6705L10.5491 10.0945L10.803 10.385L12.6681 12.4604C12.8844 12.707 13.1777 12.8737 13.5007 12.9336C13.5975 12.9567 13.6967 12.9678 13.7963 12.9668C14.0023 12.9656 14.2056 12.9202 14.3924 12.8335C14.5792 12.7468 14.7451 12.621 14.8786 12.4646L23.4004 2.91794C23.4871 2.81711 23.5625 2.70716 23.6252 2.59003C23.8645 2.30943 23.9971 1.95386 23.9999 1.58557Z" fill="#00E2CA"/>
</g>
<defs>
<clipPath id="clip0_1059_16735">
<rect width="24" height="13" fill="white"/>
</clipPath>
</defs>
</svg>
