<svg width="163" height="19" viewBox="0 0 163 19" fill="none" xmlns="http://www.w3.org/2000/svg">
<g clip-path="url(#clip0_131_2517)">
<path d="M161.906 10.3314C161.906 10.3314 161.837 10.3735 161.867 10.401C161.957 10.4833 161.63 10.5482 160.802 10.6C160.301 10.6255 159.903 10.694 159.418 10.7284C157.675 10.8558 155.787 10.9326 153.841 11.0027C153.555 11.0173 153.225 11.0148 152.953 11.0093C151.058 10.961 149.241 11.0342 147.456 11.154C147.298 11.1621 147.142 11.1893 146.998 11.1773C144.648 11.1908 142.738 11.3943 140.519 11.459C138.472 11.5149 136.425 11.5709 134.364 11.6276C133.748 11.6396 133.131 11.6228 132.5 11.6259C131.999 11.6321 131.454 11.6309 130.996 11.6542C128.766 11.7677 126.517 11.805 124.225 11.8252C121.861 11.8586 119.498 11.8921 117.12 11.9262C116.476 11.9397 115.803 11.9547 115.187 11.9571C112.462 11.9413 109.918 12.0902 107.314 12.1745C106.641 12.1895 105.953 12.2052 105.28 12.2105L98.5764 12.3104L92.9038 12.3868L88.2646 12.4879L82.5915 12.5546C80.8004 12.5686 79.0078 12.5537 77.2359 12.6632C76.7641 12.6872 76.1192 12.6911 75.5887 12.6891C74.5707 12.683 73.6689 12.7096 72.6967 12.7591C71.9389 12.7977 71.0372 12.8243 70.1922 12.8384C68.9035 12.8654 67.599 12.8642 66.4137 12.9535C66.2708 12.9608 66.0849 12.9703 65.9133 12.979C64.0226 13.0077 62.1324 13.046 60.256 13.074L55.1243 13.0746C54.6229 13.0808 54.1072 13.0877 53.5915 13.0947L48.8507 13.1719C48.2487 13.1736 47.633 13.1856 47.0453 13.1866C43.6667 13.2717 40.256 13.2909 36.8602 13.319L34.6682 13.3437C33.9943 13.3394 33.306 13.3358 32.6326 13.3411C31.5726 13.3565 30.4979 13.3629 29.4379 13.3783C27.4614 13.4113 25.6097 13.3608 23.7145 13.3028C23.1545 13.283 22.5234 13.2765 21.9792 13.2849C18.8855 13.3362 15.746 13.332 12.5725 13.2232C10.7055 13.1541 8.8676 13.0932 6.95084 12.8915C6.60475 12.8512 6.24437 12.8116 5.85393 12.7445L5.54976 12.6828L5.17165 12.5765C5.0558 12.5534 4.76249 12.4235 4.58406 12.2975C4.36077 12.135 4.20357 11.863 4.19229 11.6415C4.18003 11.4007 4.44784 11.0298 4.53215 10.9966C5.11303 10.5808 5.27325 10.6305 5.51189 10.5315C5.7239 10.4724 5.92259 10.4333 6.10699 10.395C6.47578 10.3183 6.83126 10.2615 7.17293 10.2152C8.53862 10.0105 9.86486 9.87535 11.2059 9.74913C11.7053 9.70439 12.2895 9.63602 12.7165 9.57565C13.6552 9.4313 14.6112 9.344 15.6101 9.25452C18.6629 8.96389 21.7171 8.70216 24.7581 8.46042L26.6858 8.31399L30.9563 8.00964L39.6137 7.43364L46.2015 7.03061C46.5732 7.01169 47.0011 6.97058 47.329 6.93458C48.7967 6.76329 50.3394 6.65577 51.9535 6.54461C53.5815 6.4231 55.1951 6.30231 56.8236 6.19043L57.5947 6.13185L67.5571 5.56665C68.1862 5.53462 68.8162 5.52185 69.4601 5.49872C70.4323 5.44922 71.4475 5.39753 72.3901 5.33022C73.6749 5.22617 74.9173 5.13395 76.2332 5.0766C78.579 4.97647 80.8784 4.81111 83.1783 4.65538C84.3927 4.57424 85.5503 4.50564 86.767 4.47265C87.6254 4.4386 88.5409 4.40164 89.4426 4.37503C90.6875 4.33096 91.9318 4.27725 93.1624 4.23391C95.2518 4.16614 97.3402 4.07912 99.4691 3.94175C101.727 3.79783 103.971 3.67391 106.275 3.60485C107.992 3.54638 109.793 3.44503 111.566 3.35475C112.996 3.28195 114.411 3.20988 115.842 3.14671L119.071 2.95329C120.758 2.84812 122.502 2.75931 124.218 2.67195C125.504 2.60643 126.806 2.55944 128.093 2.49392C129.266 2.43422 130.383 2.41596 131.515 2.41623C132.661 2.40615 133.863 2.36426 135.004 2.2386C136.273 2.11603 137.673 2.02542 139.22 1.99495C139.836 1.98291 140.508 1.94869 141.137 1.91666L148.703 1.58933C149.032 1.58222 149.39 1.57365 149.735 1.57544C151.066 1.54625 152.413 1.52598 153.744 1.49679C155.09 1.46689 156.422 1.44733 157.798 1.44486C158.486 1.44844 159.16 1.45275 159.952 1.50901C160.153 1.52771 160.354 1.53678 160.643 1.58001C160.759 1.59345 160.99 1.63958 161.209 1.70571C161.325 1.73841 161.457 1.78964 161.574 1.8416L161.736 1.9299L161.826 1.99295C161.899 2.03746 161.96 2.09233 162.02 2.15683C162.277 2.40449 162.407 2.71648 162.378 2.98832C162.357 3.13424 162.308 3.30087 162.215 3.45043C162.176 3.52003 162.122 3.59036 162.054 3.66141L161.958 3.75318L161.917 3.78426C161.821 3.8664 161.71 3.93964 161.584 4.01361L161.403 4.10975L161.319 4.14301C161.22 4.18663 161.08 4.24206 160.995 4.26569C160.868 4.30114 160.685 4.35875 160.6 4.38238C160.359 4.44291 160.175 4.48127 159.976 4.52035C158.003 4.90084 156.235 5.08741 154.397 5.31616L151.946 5.58583C149.295 5.88497 146.639 6.08779 144.004 6.42472C143.078 6.53945 142.036 6.62149 141.052 6.71987L137.842 7.02813L130.268 7.76141L120.977 8.57241C119.58 8.71117 118.196 8.8492 116.798 8.98796C114.801 9.16693 112.791 9.39478 110.789 9.48707C109.917 9.53148 109.06 9.59442 108.134 9.69952C107.663 9.75244 107.12 9.78973 106.607 9.8352L100.055 10.3812C98.4704 10.5102 96.872 10.6495 95.2875 10.7785C91.8033 11.0428 88.4374 11.3783 85.0873 11.742C82.2643 12.0402 79.4274 12.3488 76.5757 12.6485C74.8931 12.8211 73.1783 12.9277 71.4651 13.0633C68.5247 13.3095 65.5552 13.5476 62.5863 13.7954C61.1881 13.9245 59.7899 14.0536 58.3916 14.1827C57.6787 14.2577 56.9796 14.3222 56.2667 14.3972C55.468 14.4764 54.655 14.5565 53.8834 14.6054C50.098 14.8657 46.3294 15.1735 42.5331 15.502C40.8352 15.656 39.1066 15.773 37.3924 15.8893C35.5495 16.0121 33.7071 16.1445 31.8642 16.2673C31.1784 16.3119 30.4926 16.3565 29.8211 16.4003C27.9629 16.5046 26.119 16.6081 24.2613 16.722C22.7034 16.811 21.3013 16.8631 19.983 16.8723C19.5674 16.8741 19.0526 16.9003 18.5665 16.9251C17.7087 16.9688 16.8222 17.0139 15.9644 17.0576C14.8921 17.1122 13.8474 17.1461 12.7889 17.1903C11.9453 17.2333 11.2004 17.2422 10.6822 17.201C9.84759 17.1373 8.75755 17.1252 7.38352 17.1662C6.22395 17.1963 5.31879 17.1555 4.25784 17.1516C2.55202 17.1515 1.64393 17.0529 1.20421 16.8629C0.808863 16.6996 0.88484 16.5026 0.94652 16.3063C0.970701 16.2182 1.53721 16.0831 1.96172 15.9746C2.37193 15.8668 2.79595 15.7487 3.42112 15.6396C4.64335 15.4325 5.72113 15.2039 7.6932 15.0841C8.55105 15.0404 9.32017 14.9434 10.1465 14.8433C11.4431 14.6904 12.8842 14.5591 14.2825 14.43C15.3385 14.3376 16.4227 14.2341 17.4787 14.1417C17.7785 14.1168 18.092 14.0815 18.3341 14.0499C20.9817 13.6833 23.8205 13.4133 26.8772 13.1997C27.8199 13.1324 28.7882 13.0058 29.7437 12.9089C30.2002 12.8663 30.6425 12.8245 31.0985 12.7723L36.222 12.328C38.4056 12.1395 40.5887 11.9415 42.758 11.7538C45.7255 11.4772 48.6693 11.2983 51.6249 11.0706C53.0384 10.96 54.4657 10.839 55.8792 10.7284C57.5934 10.6122 59.2934 10.4966 60.9933 10.3811C62.6508 10.2774 64.2798 10.1751 65.9373 10.0714C66.6946 10.0232 67.4647 9.94539 68.2353 9.87718C68.8772 9.81553 69.5196 9.76351 70.1615 9.70186C73.2882 9.45575 76.4007 9.21037 79.5274 8.96426C80.5978 8.87113 81.6558 8.81726 82.7271 8.7434L83.1131 8.72374C86.2384 8.44874 89.3538 8.26115 92.5062 7.9558C96.1294 7.60716 99.7847 7.32449 103.413 7.08179C105.57 6.93334 107.799 6.78125 109.927 6.63425C114 6.38825 118.098 6.07337 122.236 5.69853C124.247 5.49957 126.229 5.30207 128.24 5.09349C128.825 5.04438 129.424 4.98491 130.009 4.9358L134.473 4.48643C135.287 4.41604 136.1 4.34565 136.913 4.26563L139.852 4.0001L140.238 3.96118C143.206 3.69418 146.188 3.42646 149.142 3.1602C152.323 2.86302 155.576 2.57184 158.591 2.09006C158.733 2.06352 158.889 2.03625 159.031 2.00971C159.216 1.97135 159.456 1.91082 159.47 1.90046C159.684 2.16956 159.785 2.45411 160.054 2.67215C160.145 2.77372 160.177 2.83005 160.294 2.88201C160.367 2.90726 160.339 2.91834 160.368 2.92652C160.383 2.93542 160.439 2.92288 160.382 2.92579C160.354 2.92725 160.34 2.94724 160.326 2.9576C160.285 2.97904 160.229 3.02048 160.188 3.06118C160.107 3.1426 160.096 3.21074 159.975 3.37138C159.882 3.51131 159.803 3.65051 159.753 3.79788C159.742 3.85639 159.689 3.95561 159.637 4.05483C159.624 4.08445 159.637 4.05483 159.623 4.06519C159.479 4.04358 158.89 4.01564 158.459 4.00859C157.497 3.98032 156.48 3.98386 155.462 3.98739C153.843 3.99261 152.212 4.06597 150.567 4.1208C147.876 4.19988 145.185 4.27896 142.494 4.35804C140.82 4.41432 139.131 4.47133 137.457 4.52762C136.813 4.56038 136.024 4.54263 135.667 4.57046C134.711 4.64813 133.822 4.64512 132.907 4.69171C131.834 4.73668 130.761 4.78165 129.688 4.82662L128.173 4.90379L127.429 4.94164L122.794 5.11973L120.463 5.21913L112.452 5.54014C112.108 5.55761 111.751 5.57581 111.422 5.59255C110.437 5.66205 109.493 5.7101 108.518 5.71145C108.031 5.71694 107.416 5.74824 106.858 5.767C104.055 5.89043 101.252 6.01386 98.4484 6.13728C96.6889 6.20757 94.9421 6.24823 93.2121 6.33632C90.6105 6.47844 88.0507 6.59913 85.4762 6.71091C83.8596 6.77391 82.2568 6.82655 80.6259 6.89028C77.7654 7.01662 74.8902 7.13406 72.0154 7.26113C68.7122 7.41966 65.3814 7.59892 62.1264 7.86121C60.0853 8.03273 58.0566 8.165 55.9839 8.28019C55.4263 8.30858 54.8549 8.34733 54.3126 8.39426C52.2148 8.57832 50.1268 8.67498 48.0251 8.78199C47.2245 8.82276 46.3819 8.88498 45.597 8.95391C43.7275 9.11669 41.8545 9.21206 39.983 9.33632L38.5818 9.40766C36.0098 9.5676 33.4515 9.71717 30.8794 9.8771C29.037 10.0095 27.1803 10.1427 25.3379 10.2751L17.5156 10.9245C14.804 11.1591 12.0366 11.4255 9.44185 11.7025C8.88572 11.7598 8.33008 11.8267 7.80401 11.9114C7.30605 11.9851 6.68088 12.0941 6.45507 12.1636C6.43979 12.145 6.45752 12.2117 6.39591 12.128C6.31854 12.016 6.22736 11.9145 6.12189 11.8136C5.97303 11.7053 5.95579 11.6483 5.86706 11.5948C5.8227 11.5681 5.77882 11.5511 5.73495 11.534C5.73446 11.5244 5.70537 11.5162 5.69108 11.5169C5.591 11.522 5.74827 11.514 5.76158 11.494C5.78969 11.4829 5.78871 11.4637 5.80202 11.4437C5.87204 11.4111 5.92727 11.3697 5.9825 11.3283C6.09295 11.2454 6.17433 11.1544 6.22661 11.0551C6.22367 10.9974 6.46828 10.7338 6.41452 10.8042C6.42882 10.8034 6.4436 10.8123 6.47269 10.8205L6.61762 10.8518C6.70439 10.8667 6.83454 10.889 6.9499 10.9024C7.42613 10.9651 7.97385 11.0241 8.52059 11.0639C10.4349 11.2174 12.474 11.2874 14.4682 11.321C16.7493 11.3594 18.9757 11.4488 21.2411 11.459C22.3598 11.4696 23.4784 11.4802 24.5827 11.4916C29.3132 11.4921 34.0416 11.4541 38.7701 11.4161C41.4353 11.3963 44.1005 11.3764 46.7662 11.3662C48.0989 11.3563 49.4448 11.3264 50.7478 11.2987C52.9097 11.2465 55.0459 11.2536 57.1954 11.2407C60.5479 11.2052 63.9147 11.169 67.2819 11.1423C69.9181 11.1143 72.5537 11.0767 75.1898 11.0487C79.027 10.9595 82.8503 10.8807 86.6731 10.7923L87.4461 10.7722C90.4407 10.7453 93.3731 10.6249 96.3371 10.5609C98.0992 10.5388 99.8755 10.5159 101.638 10.4938L105.763 10.4286L113.398 10.3295L116.119 10.2874C119.614 10.2254 123.122 10.1626 126.617 10.1005C128.68 10.0727 130.729 10.0649 132.765 10.0675C134.528 10.0743 136.275 10.0336 138.036 9.98258C142.173 9.87813 146.31 9.77367 150.45 9.71737C150.665 9.70645 150.894 9.71407 151.095 9.7135C153.777 9.74109 156.473 9.76795 159.155 9.79553C161.278 9.82262 162.216 9.94865 161.887 10.2358L161.906 10.3314Z" fill="#321E4C"/>
</g>
<defs>
<clipPath id="clip0_131_2517">
<rect width="162" height="10" fill="white" transform="translate(0.508789 8.83594) rotate(-2.91488)"/>
</clipPath>
</defs>
</svg>
