<?xml version="1.0" encoding="UTF-8"?><svg id="Layer_1" xmlns="http://www.w3.org/2000/svg" viewBox="0 0 992.56 220"><defs><style>.cls-1{fill:#ff007a;fill-rule:evenodd;}</style></defs><path class="cls-1" d="M3.75,5.3c24.8,30.4,52.02,68.59,56.42,74.76,.23,.33,.4,.57,.51,.71,2.35,3.28,4.29,5.71,5.76,7.56h0c3.27,4.11,4.24,5.33,2.29,6.45-1.57,.9-3.19,1.2-4.81,1.2-1.83,0-3.89-.89-5.4-2.33-1.06-1.02-8.33-11.67-18.22-27.17-7.57-11.86-13.9-21.7-14.07-21.87q-.4-.38,13.3,24.38c8.6,15.54,14.48,27.03,14.48,27.76,0,1.49-.4,2.28-2.23,4.34-3.04,3.43-4.4,7.28-5.39,15.26-1.1,8.94-4.2,15.25-12.77,26.06-5.02,6.33-5.84,7.49-7.11,10.04-1.6,3.21-2.03,5.01-2.21,9.06-.19,4.29,.18,7.06,1.47,11.15,1.14,3.59,2.32,5.96,5.35,10.7,2.61,4.09,4.12,7.13,4.12,8.32,0,.95,.18,.95,4.23,.02,9.69-2.21,17.56-6.1,21.99-10.87,2.74-2.95,3.38-4.58,3.4-8.62,.01-2.64-.08-3.2-.79-4.72-1.15-2.48-3.25-4.53-7.87-7.73-6.06-4.18-8.64-7.55-9.36-12.18-.59-3.8,.09-6.48,3.44-13.57,3.47-7.34,4.33-10.47,4.91-17.87,.38-4.78,.9-6.67,2.26-8.18,1.42-1.58,2.69-2.11,6.2-2.6,5.72-.79,9.36-2.28,12.36-5.07,2.6-2.42,3.69-4.75,3.85-8.26l.13-2.66-1.45-1.71C73.29,81.49,.22,.44-.1,.44-.17,.44,1.56,2.63,3.75,5.3ZM38.19,166.36c1.19-2.13,.56-4.86-1.43-6.2-1.88-1.26-4.8-.67-4.8,.98,0,.5,.27,.87,.89,1.19,1.04,.54,1.12,1.15,.3,2.4-.83,1.26-.76,2.37,.19,3.12,1.54,1.21,3.71,.55,4.85-1.49ZM73.97,50.4c-2.35-.37-2.44-.41-1.34-.58,2.12-.33,7.11,.12,10.55,.95,8.04,1.93,15.35,6.87,23.15,15.65l2.07,2.33,2.97-.48c12.5-2.03,25.21-.42,35.84,4.54,2.93,1.37,7.54,4.08,8.11,4.78,.18,.22,.52,1.65,.75,3.18,.79,5.29,.4,9.34-1.21,12.37-.87,1.65-.92,2.17-.33,3.58,.47,1.13,1.77,1.96,3.06,1.96,2.64,0,5.49-4.32,6.8-10.32l.52-2.38,1.04,1.19c5.69,6.51,10.16,15.39,10.92,21.7l.2,1.65-.96-1.5c-1.65-2.58-3.3-4.33-5.42-5.75-3.82-2.55-7.85-3.42-18.54-3.99-9.65-.51-15.11-1.35-20.53-3.13-9.22-3.03-13.86-7.08-24.81-21.58-4.86-6.44-7.87-10.01-10.86-12.88-6.79-6.52-13.47-9.94-22.01-11.28Zm83.53,14.39c.24-4.32,.82-7.17,1.99-9.77,.46-1.03,.89-1.87,.96-1.87s-.13,.76-.45,1.69c-.85,2.52-.99,5.98-.4,9.99,.74,5.1,1.16,5.83,6.49,11.34,2.5,2.58,5.41,5.84,6.47,7.24l1.92,2.54-1.92-1.82c-2.35-2.22-7.74-6.56-8.93-7.17-.8-.42-.92-.41-1.41,.09-.45,.46-.55,1.14-.61,4.39-.1,5.05-.78,8.3-2.43,11.54-.89,1.75-1.03,1.38-.23-.6,.6-1.48,.66-2.13,.66-7.02,0-9.83-1.17-12.19-7.94-16.24-1.72-1.03-4.54-2.5-6.28-3.29-1.74-.78-3.12-1.46-3.07-1.51,.19-.19,6.8,1.76,9.46,2.79,3.96,1.54,4.61,1.74,5.09,1.55,.32-.12,.48-1.07,.63-3.86Zm-86.05-7.55c-.64,7.59,2.31,17.74,7.07,24.36,3.69,5.13,9.41,9.12,13.64,9.51,2.77,.25,3.6-.62,2.35-2.47-1.74-2.56-3.87-6.51-4.44-8.2-.35-1.05-1.11-4.15-1.7-6.89-1.99-9.35-3.94-13-8.45-15.76-1.64-1.01-5.15-2.33-7.19-2.7l-1.08-.2-.2,2.35Zm80.27,73.65c-22.25-9.05-30.09-16.91-30.09-30.16,0-1.95,.07-3.55,.15-3.55s.94,.64,1.91,1.43c4.51,3.66,9.57,5.22,23.56,7.28,8.23,1.21,12.86,2.19,17.14,3.63,13.58,4.55,21.99,13.78,23.99,26.36,.58,3.65,.24,10.51-.7,14.12-.75,2.85-3.02,7.99-3.62,8.19-.17,.05-.33-.59-.37-1.47-.23-4.72-2.59-9.32-6.56-12.76-4.51-3.92-10.57-7.03-25.39-13.06Zm-16.7-1c.31,.94,.8,3.08,1.07,4.76,1.78,10.71-3.79,19.37-14.62,22.73-1.15,.35-5.66,1.25-10.04,1.98-8.85,1.49-12.81,2.54-16.78,4.48-2.82,1.37-6.22,3.42-6.02,3.63,.07,.07,.71-.09,1.43-.34,5.01-1.78,10.58-2.69,19.04-3.14,3.36-.18,7.18-.46,8.49-.62,7.54-.96,12.77-3.27,16.83-7.45,2.26-2.33,3.61-4.49,4.7-7.55,.69-1.94,.78-2.66,.79-6.09,0-3.5-.08-4.14-.82-6.29-.98-2.82-2.13-4.94-3.59-6.59l-1.05-1.2,.57,1.71Zm11.28,23.05c-2.96-6.42-3.64-12.62-2.02-18.4,.17-.62,.45-1.12,.62-1.12s.86,.38,1.55,.85c1.36,.93,4.09,2.49,11.37,6.5,9.08,5,14.26,8.88,17.79,13.3,3.08,3.88,4.99,8.29,5.91,13.67,.52,3.05,.22,10.39-.56,13.46-2.44,9.68-8.12,17.29-16.22,21.72-1.19,.65-2.25,1.18-2.37,1.19-.11,0,.32-1.11,.96-2.47,2.72-5.75,3.03-11.35,.98-17.57-1.26-3.81-3.83-8.46-9.02-16.33-6.03-9.14-7.51-11.57-9-14.8Zm-55.69,21.06c-9.36,1.54-19.63,6.54-27.89,13.58l-2.46,2.1,2.16,.34c11.28,1.78,14.31,3.35,22.13,11.49,4.5,4.68,6.02,5.72,9.75,6.69,5.48,1.41,10.89-1.18,12.74-6.12,.83-2.21,.72-5.86-.23-7.7-2.26-4.37-8.85-5.78-12.03-2.58-2.65,2.67-1.88,6.68,1.42,7.37,.76,.16,.73,.13-.19-.3-1.44-.66-2.07-1.57-2.08-3.03-.02-3.41,3.85-5.33,7.44-3.69,2.63,1.2,3.68,2.77,3.68,5.52,0,4.23-3.57,7.42-7.72,6.9-2.22-.28-4.93-1.71-6.39-3.37-3.66-4.18-2.23-10.78,2.88-13.31,3.89-1.93,9.06-1.45,13.07,1.2,4.61,3.05,6.57,5.83,10.54,14.98,1.29,2.98,2.96,6.33,3.69,7.45,3.76,5.68,8.26,8.47,13.69,8.47,2.99,0,5.24-.55,8.08-1.98,2.1-1.06,5.09-3.08,4.87-3.3-.06-.06-.93,.21-1.94,.61-5.92,2.33-11.95,2.17-15.44-.41-2.2-1.63-3.98-4.87-4.89-8.93-.16-.7-.68-3.8-1.16-6.89-1.22-7.83-2.38-11.34-5.11-15.38-2.79-4.13-8.14-7.6-14.13-9.14-3.74-.97-10.45-1.23-14.49-.57Zm-13.11-60.5c.81-3.02,3.42-5.89,6.11-6.72,1.71-.53,5.24-.19,6.9,.66,3.22,1.65,5.55,5.42,5.05,8.13-.62,3.31-5.94,5.96-12.05,6.01-3.12,.02-4.28-.4-5.47-2.01-.74-1-1.02-4.22-.53-6.06Zm12.18-4.88c1.6,.99,2.02,2.45,1.07,3.81-.65,.93-2.66,1.82-4.13,1.82-2.21,0-4.62-1.58-4.62-3.03,0-2.91,4.62-4.48,7.68-2.59Zm479.48,8.35c-4.99-16.6,3.24-30.37,20.8-34.79,5.04-1.27,27.84-.7,31.75,.8,1.44,.55,2.06,2.65,2.07,6.97,0,3.4,.38,7.53,.82,9.18,.67,2.5,.28,2.99-2.36,2.95-2.38-.04-3.83-1.43-5.84-5.66-3.21-6.75-7.11-8.9-16.18-8.92-11.58-.03-20.05,7.76-18.68,17.19,.9,6.13,7.02,12.16,20.77,20.46,13.08,7.89,20.71,14.38,23.75,20.19,8.13,15.54,1.19,32.17-16.93,40.55-9.3,4.3-24.89,4.75-35.85,1.02l-7.02-2.38v-11.22c0-10.16,.24-11.22,2.56-11.22,1.94,0,2.77,1.28,3.45,5.29,1.69,9.97,9.27,16.02,20.06,16.02s17.96-5.78,20.79-16.25c1.21-4.46,1-6.11-1.39-11.03-2.87-5.9-7.8-9.82-24.56-19.49-9.3-5.37-15.88-12.54-18.02-19.65Zm-328.59-28.16c-2.29,0-3.18-.75-3.18-2.66,0-2.54,.89-2.66,18.82-2.66,16.64,0,18.76,.25,18.38,2.16-.24,1.19-2.54,2.84-5.11,3.66l-4.68,1.5-.4,33.97c-.27,22.67,.11,35.74,1.13,39.3,3.03,10.57,12.29,16.65,25.35,16.65,9.09,0,14.41-2.13,21.08-8.44,7.18-6.79,8.32-13.24,8.3-46.76-.02-33.06-.6-35.79-7.7-36.48-3.23-.31-4.31-1.07-4.31-3,0-2.41,1.07-2.58,16.04-2.58s16.04,.15,16.04,2.66c0,1.64-.9,2.67-2.34,2.68-6.19,.05-6.31,.64-7.14,36.9-.86,37.65-1.67,42.11-9.3,51.33-2.2,2.66-7.45,6.52-11.66,8.59-6.86,3.36-9.05,3.75-21.03,3.72-11.04-.02-14.53-.56-20.05-3.07-8.06-3.67-13.3-8.42-17.17-15.56-2.7-4.98-2.93-7.68-3.55-41.43-.72-38.64-1.06-40.5-7.52-40.5Zm125.1,0c-3.06,0-3.95-.6-3.95-2.66,0-2.5,.85-2.66,13.7-2.56l13.7,.11,6.56,7.55c3.6,4.15,15.35,17.14,26.11,28.87,10.76,11.72,23.1,25.36,27.44,30.31,4.34,4.95,8.42,8.99,9.07,8.99s1-13.97,.77-32.09l-.42-32.09-3.75-3.21c-2.06-1.77-5.22-3.21-7.02-3.21-2.39,0-3.27-.72-3.27-2.7,0-2.6,.68-2.69,18.38-2.33,15.05,.3,18.38,.72,18.38,2.31,0,1.13-1.86,2.32-4.47,2.85-2.46,.5-5.16,1.6-6.02,2.45-1.1,1.09-1.66,15.24-1.93,48.77l-.38,47.23h-3.87c-3.34,0-7.31-3.75-28.53-26.98-13.56-14.84-29.4-32.47-35.18-39.19-5.79-6.72-10.97-12.26-11.52-12.32-1.55-.17-1.18,59.83,.41,65.52,1.24,4.44,2.09,5.2,7.35,6.6,4.23,1.13,5.95,2.27,5.95,3.97,0,2.18-1.61,2.39-18.72,2.39s-18.72-.17-18.72-2.5c0-1.7,1.26-2.75,3.95-3.29,8.16-1.63,8.71-4.21,9.16-43.68,.26-22.11-.12-37.57-1-40.81-1.54-5.7-5.37-8.31-12.18-8.31Zm140.18,0c-2.86,0-3.76-.63-3.76-2.66,0-2.55,.89-2.66,20.05-2.66s20.05,.12,20.05,2.66c0,1.95-.89,2.66-3.34,2.66-1.84,0-4.57,1.22-6.07,2.72-2.65,2.64-2.72,3.95-2.34,44.74,.37,39.82,.52,42.12,2.98,43.91,1.43,1.04,3.98,1.89,5.68,1.89,2.2,0,3.09,.77,3.09,2.66,0,2.55-.89,2.66-20.05,2.66s-20.05-.17-20.05-2.49c0-1.88,1.31-2.7,5.3-3.34,7.91-1.26,8.32-3.84,7.82-49.9-.39-36.88-.56-39.18-3.01-40.97-1.43-1.04-4.28-1.89-6.35-1.89Zm139.89,0c-1.83,0-3.22-1.01-3.65-2.66-.67-2.58-.04-2.66,19.23-2.66s19.93,.12,19.93,2.66c0,2.05-.89,2.66-3.85,2.66-8.42,0-8.23,1.52,4.51,36.36,6.48,17.73,12.78,34.58,13.99,37.44l2.2,5.19,10.21-27.17c12.02-31.99,13.58-37.9,11.54-43.73-1.42-4.07-6.95-8.08-11.13-8.08-1.18,0-2.07-1.15-2.07-2.66,0-2.55,.89-2.66,20.72-2.66s20.72,.11,20.72,2.66c0,1.9-.89,2.66-3.09,2.66-5.62,0-8.1,2.99-7.29,8.79,.83,5.97,23.83,70.18,24.79,69.21,1.57-1.56,27.03-70.68,27.03-73.37,0-3.23-2.27-4.63-7.46-4.63-2.34,0-3.23-.73-3.23-2.66,0-2.52,.89-2.66,16.04-2.66,13.61,0,16.04,.31,16.04,2.07,0,1.14-1.67,2.65-3.7,3.35-4.58,1.59-5.73,3.41-11.48,18.13-2.52,6.46-10.43,26.69-17.56,44.95-7.13,18.26-13.28,34-13.65,34.97-.38,.97-2.59,1.77-4.91,1.77h-4.23l-9.6-24.98c-5.28-13.74-11.52-30.01-13.87-36.17-4.02-10.55-4.36-11-5.87-7.99-.88,1.76-7.23,18.06-14.1,36.23l-12.5,33.04-4.66-.4-4.66-.4-17.79-46.52c-9.94-25.99-19.08-47.89-20.71-49.62-1.61-1.71-4.25-3.1-5.88-3.1Zm267.32,.56c-.22-.51-.22-2.32-.22-2.32,0,0-.05-.66,.22-1.01,.27-.35,.37-.36,1.35-.45h0c3.61-.34,10.85-.92,16.9-1.19,.55-.02,1.17-.05,1.84-.08h.03c6.65-.3,18.55-.71,26.74-.3,15.7,.78,26.86,8.37,30.67,20.91,3.81,12.54,1.79,24.31-3.39,31.8-5.19,7.49-13.91,13.94-28.4,13.52-11.97-.35-15.17-2.59-17.73-4.38-.54-.38-1.05-.74-1.61-1.05v15.99c.13,10.9,.22,16.14,1.06,18.08,1.14,2.61,3.71,4.22,8.72,5.45,0,0,2.27,.53,2.85,1.1,.58,.57,.58,1.83,.58,1.83,0,0,.12,1.18-.35,1.78-.47,.6-1.38,.48-1.38,.48l-22.19-.18-13.38-.04s-1.4,.27-1.93-.3c-.53-.57-.48-1.74-.48-1.74,0,0,.12-1.27,.73-1.84,.61-.57,2.9-1.2,2.9-1.2,5.16-1.45,7.4-2.98,8.57-5.87,.94-2.33,.95-6.64,.94-41.87,0-33.4-.06-39.63-.82-41.42-1.13-2.65-3.97-3.36-8.01-4.36h0c-.8-.2-1.65-.41-2.54-.65,0,0-1.44-.19-1.66-.7Zm64.61,27.26c0,5.48-.1,14.05-5.93,19.53-5.83,5.48-17.31,6.98-25.11,5.46-2.46-.48-3.86-1.22-4.94-1.79l-.11-.06-1.99-1.05-.12-19.24c-.07-12.06,.05-19.91,.34-21.04,.26-6.36,9.64-7.15,14.22-6.91,19.6,0,23.06,16.52,23.64,25.11Zm-126.17-32.4s-.96,.37-2.41,.92l-5.23,2.7-3.77,9.41c-2.07,5.18-5.86,14.68-8.43,21.11-4.67,11.72-7.75,19.43-10.99,27.47-.95,2.36-3.83,9.57-6.4,16-2.57,6.44-5.13,12.56-5.7,13.61-.1,.17-.2,.36-.3,.56-1.43,2.7-3.93,7.38-8.33,8.09,0,0-2.42,.24-3.32,1.12-.9,.89-.81,1.61-.81,1.61v1.12s.08,.54,.59,.81c.51,.27,1.2,.29,1.2,.29l16.1-.18h16.64s1.18,.14,1.63-.24c.45-.38,.58-.93,.58-.93v-1.17s-.23-1.27-.89-1.77c-.66-.5-3.13-.84-3.13-.84-6.66-.88-7.81-5.91-6.99-10.45,.4-2.23,3.08-10.46,6.1-18.75l1.04-2.87,17.44-.13c9.59-.07,17.87-.02,18.4,.11,.76,.19,1.82,2.34,4.93,10.01,4.71,11.61,5.09,13.03,4.05,15.2-.06,.13-.13,.28-.2,.44-.98,2.1-2.88,6.18-7.67,6.6,0,0-2.54,.09-3.17,.85-.63,.76-.5,1.64-.5,1.64v1.16s.17,.68,.5,.95c.33,.27,.88,.2,.88,.2l15.83-.11h22.25s.87,.09,1.11-.24c.24-.34,.29-.73,.29-.73v-1.54s-.1-.82-.53-1.27c-.43-.45-3.31-.93-3.31-.93-3.69-.59-5.52-3.64-6.89-5.9-.35-.58-.67-1.11-.98-1.53-.63-.86-2.9-5.6-4.67-10.15-1.77-4.55-5.77-14.83-8.88-22.84-3.11-8.01-7.46-19.19-9.66-24.84-2.2-5.65-6.37-16.4-9.28-23.88-.48-1.23-.9-2.33-1.29-3.32h0c-1.95-5.03-2.73-7.06-2.95-7.34-.7-.89-2.87,0-2.87,0Zm-1.04,30.6c-.7-1.71-1.94-4.77-2.75-6.81-1.47-3.7-2.03-4.55-2.48-3.79-.13,.22-1.06,2.75-2.05,5.62-6.45,18.57-9.37,26.93-9.96,28.51-.37,.99-.67,2.01-.67,2.27,0,.3,5.25,.47,14.24,.47,7.83,0,14.24-.1,14.24-.22s-.7-1.89-1.55-3.94c-.85-2.05-2.94-7.16-4.65-11.37-1.7-4.2-3.67-9.04-4.37-10.75Z"/></svg>