<svg width="22" height="24" viewBox="0 0 22 24" fill="none" xmlns="http://www.w3.org/2000/svg">
<g clip-path="url(#clip0_523_31)">
<path d="M10.5735 5.87507C11.1546 5.87519 11.7227 5.70299 12.2059 5.38024C12.6891 5.05749 13.0658 4.59869 13.2882 4.06187C13.5107 3.52505 13.569 2.93431 13.4557 2.36438C13.3424 1.79444 13.0626 1.2709 12.6518 0.859969C12.2409 0.449037 11.7174 0.16917 11.1475 0.0557626C10.5776 -0.0576448 9.98685 0.000502538 9.44999 0.222848C8.91312 0.445194 8.45425 0.821754 8.1314 1.3049C7.80855 1.78805 7.63623 2.35609 7.63623 2.93717C7.63623 3.71625 7.94568 4.46343 8.49651 5.01438C9.04735 5.56532 9.79447 5.87492 10.5735 5.87507Z" fill="white"/>
<path fill-rule="evenodd" clip-rule="evenodd" d="M14.0422 4.88696C13.6958 5.50101 13.1924 6.01196 12.5836 6.36751C11.9748 6.72306 11.2825 6.91043 10.5775 6.91043C9.87244 6.91043 9.18009 6.72306 8.57129 6.36751C7.9625 6.01196 7.45913 5.50101 7.11273 4.88696C6.78704 5.12766 6.52251 5.44156 6.34051 5.80333C6.1585 6.1651 6.0641 6.5646 6.06495 6.96957V10.7757C6.0656 11.3672 6.26748 11.9408 6.63741 12.4023C7.00735 12.8639 7.52331 13.1857 8.10046 13.3151C8.41911 15.039 8.74189 16.7632 9.06878 18.4875C9.15725 18.8173 9.35207 19.1088 9.62303 19.3166C9.89399 19.5245 10.2259 19.6371 10.5675 19.6371C10.909 19.6371 11.2409 19.5245 11.5119 19.3166C11.7828 19.1088 11.9777 18.8173 12.0661 18.4875C12.3911 16.7634 12.7289 15.0392 13.0344 13.3151C13.6116 13.1857 14.1276 12.8639 14.4975 12.4023C14.8674 11.9408 15.0693 11.3672 15.07 10.7757V6.96957C15.0718 6.56652 14.98 6.16855 14.8016 5.80711C14.6232 5.44567 14.3632 5.13066 14.0422 4.88696Z" fill="white"/>
<path fill-rule="evenodd" clip-rule="evenodd" d="M20.866 9.27283C20.6876 8.91148 20.4276 8.59652 20.1067 8.35278C19.7122 9.05146 19.1157 9.61455 18.3955 9.96814C17.6753 10.3217 16.865 10.4493 16.071 10.3341V10.7756C16.0698 11.4749 15.8654 12.1587 15.4827 12.7439C15.1 13.3291 14.5555 13.7906 13.9154 14.072C13.7676 14.8861 13.614 15.7037 13.4609 16.5084C13.682 16.6324 13.9199 16.7234 14.1673 16.7786C14.4852 18.5025 14.8077 20.2266 15.135 21.951C15.2235 22.2808 15.4183 22.5722 15.6893 22.7801C15.9602 22.988 16.2922 23.1006 16.6337 23.1006C16.9752 23.1006 17.3072 22.988 17.5781 22.7801C17.8491 22.5722 18.0439 22.2808 18.1324 21.951C18.4573 20.2268 18.7958 18.5027 19.1007 16.7786C19.6778 16.649 20.1938 16.327 20.5637 15.8654C20.9336 15.4038 21.1355 14.8301 21.1362 14.2386V10.4324C21.137 10.0302 21.0446 9.63327 20.866 9.27283Z" fill="white"/>
<path d="M16.6383 3.46533C15.9422 3.46455 15.2687 3.71209 14.7388 4.16346C15.1573 4.50212 15.4944 4.93058 15.725 5.41712C15.9555 5.90365 16.0738 6.43581 16.0709 6.97422V9.28522C16.4732 9.36485 16.8877 9.35938 17.2877 9.26914C17.6878 9.17891 18.0645 9.00592 18.3937 8.76131C18.7229 8.51669 18.9972 8.20587 19.199 7.84885C19.4008 7.49182 19.5256 7.0965 19.5654 6.68833C19.6052 6.28016 19.5591 5.86818 19.43 5.4789C19.301 5.08962 19.0919 4.73166 18.8162 4.42807C18.5405 4.12448 18.2043 3.88197 17.8292 3.71616C17.4541 3.55035 17.0484 3.46491 16.6383 3.46533Z" fill="white"/>
<path fill-rule="evenodd" clip-rule="evenodd" d="M7.22321 14.0757C6.5822 13.795 6.03671 13.3339 5.65322 12.7486C5.26973 12.1633 5.06483 11.4791 5.06349 10.7793V10.3378C4.2723 10.4484 3.46614 10.3183 2.74993 9.96435C2.03371 9.61044 1.44061 9.04915 1.04779 8.35352C0.721811 8.59379 0.457058 8.90752 0.275011 9.26926C0.0929637 9.631 -0.0012525 10.0306 1.25734e-05 10.4355V14.2417C0.000740652 14.8332 0.202647 15.4069 0.572557 15.8685C0.942467 16.33 1.45838 16.6521 2.03553 16.7817C2.35418 18.5056 2.67695 20.2297 3.00384 21.954C3.09232 22.2839 3.28713 22.5753 3.55809 22.7832C3.82905 22.991 4.16102 23.1037 4.50252 23.1037C4.84402 23.1037 5.17598 22.991 5.44694 22.7832C5.7179 22.5753 5.91273 22.2839 6.0012 21.954C6.32613 20.2299 6.66401 18.5058 6.96951 16.7817C7.21694 16.7259 7.45491 16.6342 7.67588 16.5097C7.5244 15.6982 7.37351 14.8868 7.22321 14.0757Z" fill="white"/>
<path d="M5.06329 6.9695C5.06191 6.43067 5.18246 5.8985 5.4159 5.41286C5.64934 4.92722 5.98963 4.50069 6.41128 4.16521C6.03298 3.84299 5.57913 3.62199 5.09219 3.52289C4.60524 3.42378 4.10112 3.44981 3.62698 3.59854C3.15283 3.74726 2.72416 4.01382 2.38105 4.37329C2.03795 4.73276 1.79163 5.17337 1.66513 5.65393C1.53864 6.13449 1.53611 6.63928 1.65778 7.12108C1.77944 7.60288 2.02134 8.04595 2.36082 8.40884C2.7003 8.77173 3.12628 9.04257 3.59891 9.19605C4.07154 9.34952 4.57538 9.3806 5.06329 9.28638V6.9695Z" fill="white"/>
</g>
<defs>
<clipPath id="clip0_523_31">
<rect width="21.1345" height="23.1029" fill="white"/>
</clipPath>
</defs>
</svg>
