<svg id="visible" xmlns="http://www.w3.org/2000/svg" width="75.606" height="42.532" viewBox="0 0 75.606 42.532">
  <path id="Path_4" data-name="Path 4" d="M19.532,29.573l-5.08-5.08A59.14,59.14,0,0,0,.394,38.2c12.995,17.72,31.069,24.336,47.844,19.965l-6.025-6.025a23.608,23.608,0,0,1-4.017.236C27.683,52.373,17.76,47.411,9.49,38.2A51.982,51.982,0,0,1,19.532,29.573Z" transform="translate(-0.394 -16.933)" fill="#de4e54"/>
  <path id="Path_5" data-name="Path 5" d="M24.021,34.062A14.331,14.331,0,0,0,37.606,47.648Z" transform="translate(-0.394 -16.933)" fill="#de4e54"/>
  <path id="Path_6" data-name="Path 6" d="M76,38.2C65.6,24.021,51.9,16.933,38.2,16.933a41.821,41.821,0,0,0-10.041,1.3A63.556,63.556,0,0,0,20.9,20.823a41.994,41.994,0,0,0-6.575,3.764l5.147,5.018c1.465-1.061,7.119-3.8,7.119-3.8-3.245,4.575-2.557,8.522-2.557,8.522L37.092,47.731l4.766,5.057,6.337,5.382a29.431,29.431,0,0,0,4.3-1.335c2.571-.989,5.316-2.336,5.316-2.336a29.474,29.474,0,0,0,4.135-2.481A57.543,57.543,0,0,0,76,38.2ZM56.862,46.821c-1.418.827-2.835,1.654-4.371,2.363L47.53,44.222a12.608,12.608,0,0,0,2.953-3.662,13.488,13.488,0,0,0,1.772-5.316,4.524,4.524,0,0,1-2.245.591,5.932,5.932,0,0,1-1.418-.236,6.331,6.331,0,0,1-1.3-.591,3.135,3.135,0,0,1-.709-.591,5.206,5.206,0,0,1-1.3-3.308,4.716,4.716,0,0,1,3.308-4.489,5.927,5.927,0,0,1,1.418-.236h.473v-.118c.118,0,.118.118.236.118a20.785,20.785,0,0,1,2.363,1.063A45.206,45.206,0,0,1,67.022,38.2,48.7,48.7,0,0,1,56.862,46.821Z" transform="translate(-0.394 -16.933)" fill="#de4e54"/>
  <path id="Path_7" data-name="Path 7" d="M46.634,34.256a32.27,32.27,0,0,0,5.5-2.016l-4.97-4.991a10.037,10.037,0,0,1-4.515,2.858,23.472,23.472,0,0,1-6.136.575l4.414,4.657A40.085,40.085,0,0,0,46.634,34.256Z" fill="#fff"/>
</svg>
