<svg width="74" height="62" viewBox="0 0 74 62" fill="none" xmlns="http://www.w3.org/2000/svg">
<path d="M71.7595 52.3666L41.4295 3.28849C38.9854 -0.657453 35.0141 -0.66589 32.5701 3.28849L2.24007 52.3666C-1.0393 57.6654 1.34288 61.9376 7.55007 61.9376H66.4551C72.651 61.9376 75.0332 57.6569 71.7623 52.3666H71.7595ZM36.9998 53.5001C35.4445 53.5001 34.1873 52.2429 34.1873 50.6876C34.1873 49.1322 35.4445 47.8751 36.9998 47.8751C38.5551 47.8751 39.8123 49.1322 39.8123 50.6876C39.8123 52.2429 38.5551 53.5001 36.9998 53.5001ZM39.8123 39.446C39.8123 40.976 38.5551 42.2501 36.9998 42.2501C35.436 42.2501 34.1873 40.9929 34.1873 39.446V22.5541C34.1873 21.0241 35.4445 19.7501 36.9998 19.7501C38.5635 19.7501 39.8123 21.0072 39.8123 22.5541V39.446Z" fill="url(#paint0_linear)"/>
<defs>
<linearGradient id="paint0_linear" x1="36.9985" y1="0.325867" x2="36.9985" y2="61.9376" gradientUnits="userSpaceOnUse">
<stop stop-color="#FFAC2D"/>
<stop offset="1" stop-color="#FFA73F"/>
</linearGradient>
</defs>
</svg>
