<?xml version="1.0" encoding="utf-8"?>
<!-- Generator: Adobe Illustrator 26.4.0, SVG Export Plug-In . SVG Version: 6.00 Build 0)  -->
<svg version="1.1" id="Layer_1" xmlns="http://www.w3.org/2000/svg" xmlns:xlink="http://www.w3.org/1999/xlink" x="0px" y="0px"
	 viewBox="0 0 104 127" style="enable-background:new 0 0 104 127;" xml:space="preserve">
<style type="text/css">
	.st0{fill:#FFFFFF;}
	.st1{fill-rule:evenodd;clip-rule:evenodd;fill:url(#SVGID_1_);}
</style>
<rect y="0" class="st0" width="104" height="127"/>
<linearGradient id="SVGID_1_" gradientUnits="userSpaceOnUse" x1="-17.426" y1="51.1492" x2="118.2795" y2="82.7663" gradientTransform="matrix(1 0 0 -1 0 127.8898)">
	<stop  offset="0" style="stop-color:#2f1f49"/>
	<stop  offset="1" style="stop-color:#2f1f49"/>
	<stop  offset="1" style="stop-color:#2f1f49"/>
</linearGradient>
<path class="st1" d="M97.6,14.9l0.1-0.1v-0.1c-2.5-2.5-5.1-5-7.6-7.5c-2.4-2.3-4.8-4.7-7.2-7.1c-0.2,0.3-0.5,0.7-1,1.2
	c-9.5,9.7-19,19.3-28.6,28.9c-1.3,1.4-1.4,1.3-2.7,0C41,20.6,31.4,10.9,21.8,1.2c-0.3-0.3-0.6-0.6-1-0.9c0,0.1,0.1,0.3,0.2,0.4
	c-4.8,4.7-9.7,9.4-14.6,14.1c0.1,0.1,0.1,0.2,0.2,0.2c0.2,0.3,0.4,0.5,0.6,0.7l0,0c11.2,11.4,22.4,22.8,33.6,34.1
	c0.7,0.7,1,1.5,1,2.5v30.2c0,1.2,0.6,1.7,1.8,1.7h16.2c1.2,0,1.7,0.1,2-0.1c0.3-0.2,0.2-0.8,0.2-2c0-3.2,0-6.5,0-9.7
	c0-6.5,0-13,0-19.5c0-1.5,0.5-2.6,1.5-3.6C71.7,41.2,79.8,33,88,24.7c2.7-2.8,5.4-5.5,8.1-8.3C96.6,16,97.1,15.5,97.6,14.9z
	 M6.3,49.8L6,49.4c0,0.1-0.1,0.1-0.1,0.2c-0.1,0.2-0.3,0.4-0.3,0.6C0.6,60.3-1,71,0.6,82.1c0.8,6,2.9,11.8,5.8,17.2
	c10.1,18.8,31.4,30.4,53.4,26.8c12.3-2,22.7-7.6,30.9-17c9.5-10.9,13.9-23.6,13.1-38.1c-0.4-7.2-2.1-13.9-5.2-20.3
	c-0.1-0.2-0.2-0.5-0.4-0.7c-0.1-0.3-0.3-0.5-0.4-0.8c-0.1,0.1-0.2,0.2-0.3,0.3c-0.2,0.2-0.3,0.3-0.5,0.4c-1.8,1.8-3.6,3.7-5.4,5.5
	c-2.7,2.7-5.4,5.5-8.1,8.2c-0.9,0.9-1.2,1.8-0.9,3.1c0.4,1.9,0.7,3.9,0.8,5.9c0.2,7.2-1.4,13.9-5.7,19.7
	c-7.8,10.8-18.5,15.3-31.6,13.2c-8.1-1.3-14.4-5.7-19.4-12.1c-3.4-4.4-5.5-9.4-6.1-15c-0.5-3.9-0.5-7.7,0.5-11.6
	c0.3-1.2,0.1-2.1-0.7-3c-0.7-0.7-1.3-1.4-2-2.1c-1.1-1.2-2.2-2.3-3.4-3.4C12.2,55.4,9.3,52.6,6.3,49.8z"/>
</svg>
