<svg width="241" height="48" viewBox="0 0 241 48" fill="none" xmlns="http://www.w3.org/2000/svg">
<path d="M0.679654 36H19.2477L19.8197 29.048H18.4997C17.6637 33.184 15.4637 34.196 13.2637 34.196H5.34365L19.2917 13.78V12.988H3.75965L3.23165 11.888H1.77965L1.16365 19.368H2.61565C3.53965 15.54 4.99165 14.792 7.23565 14.792H14.8917L0.679654 35.252V36ZM34.5328 24.428L48.0848 36H51.7808V35.032L38.2728 23.46L46.8968 15.672C47.8208 14.836 48.4808 14.748 50.2848 14.264V12.988H40.4728V14.264C42.8048 14.572 43.5528 14.748 43.5528 15.76C43.5528 16.156 43.2888 16.464 42.9368 16.816L34.5328 24.428ZM34.2688 4.144L34.4888 0.359997H32.9928L27.4048 2.736V3.572L30.9248 4.276V32.216C30.9248 34.24 29.2088 34.46 27.1848 34.724V36H37.9648V34.724C35.9408 34.46 34.2688 34.24 34.2688 32.216V4.144ZM59.6335 33.668C59.6335 35.208 60.8655 36.44 62.4055 36.44C63.9455 36.44 65.2215 35.208 65.2215 33.668C65.2215 32.128 63.9455 30.852 62.4055 30.852C60.8655 30.852 59.6335 32.128 59.6335 33.668ZM97.6684 17.212C96.9644 14.176 94.8084 12.548 91.3764 12.548C87.3724 12.548 84.5124 14.968 82.5764 17.08L82.7964 12.636H81.3444L75.7124 14.748V15.628L79.2324 16.772V32.216C79.2324 34.24 77.5164 34.46 75.4924 34.724V36H86.3164V34.724C84.2924 34.46 82.5764 34.24 82.5764 32.216V18.84C84.6004 16.992 87.3284 15.364 90.0124 15.364C93.1364 15.364 94.5444 16.816 94.5444 20.248V32.216C94.5444 34.24 92.8284 34.46 90.8044 34.724V36H101.628V34.724C99.6044 34.46 97.8884 34.24 97.8884 32.216V18.84C99.9124 16.992 102.64 15.364 105.324 15.364C108.448 15.364 109.856 16.816 109.856 20.248V32.216C109.856 34.24 108.14 34.46 106.116 34.724V36H116.94V34.724C114.916 34.46 113.2 34.24 113.2 32.216V19.5C113.2 14.968 110.912 12.548 106.688 12.548C102.684 12.548 99.6044 15.1 97.6684 17.212ZM136.395 34.108C130.675 34.108 127.375 30.28 127.375 23.724C127.375 18.928 129.927 14.88 134.855 14.88C140.575 14.88 143.875 18.708 143.875 25.264C143.875 30.06 141.323 34.108 136.395 34.108ZM135.251 36.44C141.587 36.44 147.395 31.644 147.395 24.032C147.395 17.3 142.731 12.548 135.999 12.548C129.663 12.548 123.855 17.344 123.855 24.956C123.855 31.688 128.519 36.44 135.251 36.44ZM175.559 32.216C175.559 34.24 173.843 34.46 171.819 34.724V36H182.643V34.724C180.619 34.46 178.903 34.24 178.903 32.216V19.764C178.903 14.528 175.823 12.548 171.555 12.548C167.815 12.548 164.427 14.968 162.491 17.08L162.711 12.636H161.259L155.627 14.748V15.628L159.147 16.772V32.216C159.147 34.24 157.431 34.46 155.407 34.724V36H166.231V34.724C164.207 34.46 162.491 34.24 162.491 32.216V18.84C164.515 16.992 167.771 15.364 170.455 15.364C173.579 15.364 175.559 16.64 175.559 20.248V32.216ZM200.856 12.548C194.08 12.548 189.548 17.784 189.548 25.264C189.548 31.116 193.464 36.44 200.768 36.44C206.268 36.44 209.26 33.448 210.492 30.06L209.392 29.664C207.412 32.172 205.388 33.624 201.604 33.624C195.928 33.624 192.188 29.356 192.628 22.8H210.404V21.744C210.404 16.508 207.148 12.548 200.856 12.548ZM199.976 14.792C204.376 14.792 206.752 17.432 206.752 20.908H192.936C193.684 17.3 196.368 14.792 199.976 14.792ZM227.776 36.044L226.192 40.092C225.136 42.82 223.64 43.568 221.308 43.568H218.536V45.504C218.932 46.384 220.208 47.044 221.704 47.044C223.904 47.044 226.016 46.076 227.776 41.676L237.984 16.2C238.424 15.144 238.688 15.056 240.8 14.264V12.988H232.264V14.264C234.596 14.572 235.608 14.792 235.608 15.848C235.608 16.2 235.52 16.464 235.3 17.036L229.404 32.304L222.628 17.036C222.364 16.464 222.32 16.2 222.32 15.848C222.32 14.792 223.332 14.572 225.664 14.264V12.988H215.764V14.264C217.964 15.1 218.096 15.188 218.58 16.2L227.776 36.044Z" fill="#2F1F49"/>
</svg>
