<svg width="248" height="248" viewBox="0 0 248 248" fill="none" xmlns="http://www.w3.org/2000/svg">
<path fill-rule="evenodd" clip-rule="evenodd" d="M243.053 40.8908L206.24 4.78246C203.105 1.71949 198.863 0 194.44 0C190.018 0 185.776 1.71949 182.641 4.78246L159.374 27.6272C156.071 27.3688 152.801 26.8066 149.606 25.9478C140.179 23.2878 131.828 17.8349 125.702 10.3404C124.922 9.45414 123.955 8.74294 122.868 8.25546C121.781 7.76798 120.599 7.51565 119.403 7.51565C118.207 7.51565 117.026 7.76798 115.939 8.25546C114.851 8.74294 113.885 9.45414 113.104 10.3404C106.979 17.8349 98.6277 23.2878 89.2013 25.9478C82.0912 27.7368 74.6892 28.131 67.4224 27.1079C60.1556 26.0848 53.1679 23.6644 46.8627 19.9865C45.32 19.067 43.4942 18.7114 41.7089 18.9826C39.9236 19.2537 38.2942 20.1342 37.1093 21.4679C23.6246 36.6779 0.903669 68.7235 0.164778 112.547V112.908C-1.4261 143.047 8.54756 172.68 28.1318 196.003C50.9344 221.765 81.5846 239.695 115.58 247.161L117.168 247.631C118.011 247.912 118.901 248.034 119.791 247.992H120.124C121.22 247.98 122.302 247.746 123.301 247.305C157.376 239.922 188.123 222.025 211.007 196.256C230.604 172.94 240.58 143.302 238.974 113.161L238.937 112.547C238.723 99.6028 236.576 86.7617 232.568 74.4298L243.129 64.0609C246.248 60.9833 248 56.8179 248 52.4759C248 48.1338 246.248 43.9684 243.129 40.8908H243.053ZM220.194 86.5799L206.24 100.281C204.703 101.85 202.869 103.11 200.84 103.988C196.749 105.62 192.17 105.62 188.078 103.988C186.043 103.101 184.198 101.843 182.641 100.281L145.79 64.1352C142.67 61.0575 140.919 56.8922 140.919 52.5501C140.919 48.208 142.67 44.0426 145.79 40.965L146.261 40.5025L145.394 40.2906C135.704 37.5923 126.829 32.633 119.533 25.8393C112.222 32.6146 103.352 37.5711 93.6714 40.2906C77.4348 44.5247 60.1836 42.9223 45.0525 35.7746C26.9166 57.615 16.6229 84.6785 15.7555 112.8V113.161L15.7537 113.291C15.5677 126.55 15.1353 157.369 40.1388 186.538C60.8493 209.809 88.632 225.989 119.422 232.71H119.754C150.641 226.068 178.526 209.894 199.296 186.574C223.738 158.06 223.698 127.969 223.68 114.246C223.68 113.885 223.679 113.535 223.679 113.197V112.836C223.546 103.981 222.376 95.1712 220.194 86.5799ZM231.726 52.4944C231.71 52.9923 231.508 53.467 231.16 53.829L195.856 88.4914C195.49 88.8041 195.02 88.9754 194.535 88.9734C194.049 88.9607 193.588 88.7611 193.251 88.4174L157.948 53.7919C157.633 53.4321 157.471 52.9679 157.495 52.4944C157.494 52.2605 157.54 52.0287 157.631 51.8124C157.722 51.5962 157.855 51.3995 158.023 51.2339L193.327 16.5343C193.687 16.2404 194.142 16.0827 194.61 16.0895C194.848 16.0889 195.085 16.1343 195.305 16.2234C195.525 16.3125 195.725 16.4434 195.894 16.6085L231.122 51.1968C231.473 51.5456 231.687 52.0054 231.726 52.4944ZM193.967 35.7742L177.505 51.9377C177.38 52.0683 177.31 52.2406 177.31 52.4196C177.31 52.5987 177.38 52.771 177.505 52.9016L193.967 69.1393C194.1 69.2618 194.275 69.33 194.458 69.33C194.64 69.33 194.816 69.2618 194.949 69.1393L211.411 52.9387C211.536 52.8081 211.605 52.6358 211.605 52.4568C211.605 52.2777 211.536 52.1054 211.411 51.9748L195.062 35.7742C195.005 35.6822 194.924 35.6061 194.828 35.5534C194.732 35.5007 194.624 35.4731 194.515 35.4731C194.405 35.4731 194.297 35.5007 194.201 35.5534C194.105 35.6061 194.024 35.6822 193.967 35.7742Z" fill="url(#paint0_linear_136_66)"/>
<defs>
<linearGradient id="paint0_linear_136_66" x1="-31" y1="-22.5" x2="270" y2="277.5" gradientUnits="userSpaceOnUse">
<stop stop-color="#944AF2"/>
<stop offset="1" stop-color="#448FFF"/>
</linearGradient>
</defs>
</svg>
