<?xml version="1.0" standalone="no"?>
<!DOCTYPE svg PUBLIC "-//W3C//DTD SVG 20010904//EN"
 "http://www.w3.org/TR/2001/REC-SVG-20010904/DTD/svg10.dtd">
<svg version="1.0" xmlns="http://www.w3.org/2000/svg"
 width="316.000000pt" height="316.000000pt" viewBox="0 0 316.000000 316.000000"
 preserveAspectRatio="xMidYMid meet">
<metadata>
Created by potrace 1.11, written by Peter Selinger 2001-2013
</metadata>
<g transform="translate(0.000000,316.000000) scale(0.100000,-0.100000)"
fill="#000000" stroke="none">
<path d="M1469 3145 c-116 -31 -116 -31 -770 -684 -538 -538 -629 -634 -651
-681 -68 -149 -61 -302 18 -438 28 -47 1168 -1194 1247 -1254 129 -98 307
-113 467 -40 47 22 143 113 663 631 335 333 622 625 639 649 53 77 72 145 72
257 -1 116 -21 183 -82 262 -20 26 -303 314 -628 638 -526 526 -598 594 -655
623 -35 17 -83 35 -106 40 -58 13 -159 11 -214 -3z m153 -384 c34 -13 1137
-1119 1144 -1147 17 -67 20 -63 -574 -657 l-567 -567 -42 0 c-33 0 -50 7 -77
31 -111 97 -1107 1106 -1112 1125 -17 67 -20 63 574 657 511 510 571 567 599
567 17 0 42 -4 55 -9z"/>
<path d="M1228 1933 c-325 -325 -347 -348 -334 -368 16 -24 676 -685 685 -685
3 0 161 156 352 346 209 209 345 352 342 360 -6 15 -682 694 -691 694 -4 0
-163 -156 -354 -347z"/>
</g>
</svg>
