<svg id="Layer_1" data-name="Layer 1" xmlns="http://www.w3.org/2000/svg" xmlns:xlink="http://www.w3.org/1999/xlink" viewBox="0 0 554.22 416.61" class="home-top-blob2"><defs><linearGradient id="linear-gradient" x1="237.42" y1="158.39" x2="503.05" y2="158.39" gradientTransform="matrix(0.5, -0.87, 0.87, 0.5, -43.39, 459.53)" gradientUnits="userSpaceOnUse"><stop offset="0" stop-color="#74d0ed"></stop><stop offset="1" stop-color="#80f9a3"></stop></linearGradient><linearGradient id="linear-gradient-2" x1="245.56" y1="158.23" x2="494.72" y2="158.23" gradientTransform="matrix(0.5, -0.87, 0.87, 0.5, -43.39, 459.53)" gradientUnits="userSpaceOnUse"><stop offset="0" stop-color="#1c3225"></stop><stop offset="1" stop-color="#0d0e0d"></stop></linearGradient><linearGradient id="linear-gradient-3" x1="245.06" y1="158.23" x2="495.22" y2="158.23" gradientTransform="matrix(0.5, -0.87, 0.87, 0.5, -43.39, 459.53)" gradientUnits="userSpaceOnUse"><stop offset="0" stop-color="#7a5ba5"></stop><stop offset="1" stop-color="#5c85c4"></stop></linearGradient><linearGradient id="linear-gradient-4" x1="323.07" y1="391.41" x2="421.35" y2="334.67" gradientTransform="matrix(0.5, -0.87, 0.87, 0.5, -43.39, 459.53)" gradientUnits="userSpaceOnUse"><stop offset="0" stop-color="#83fba3"></stop><stop offset="1" stop-color="#73d1ee"></stop></linearGradient><linearGradient id="linear-gradient-5" x1="281.44" y1="127.37" x2="488.43" y2="7.86" gradientTransform="matrix(0.5, -0.87, 0.87, 0.5, -43.39, 459.53)" gradientUnits="userSpaceOnUse"><stop offset="0" stop-color="#5988f6"></stop><stop offset="0.78" stop-color="#8a4de9"></stop></linearGradient></defs><path id="blob-path-1" d="M332.14,198.22c-38.08-22.22-48.57-58-63.24-86.41-20.62-40-32.25-70.86-73.55-94.74C134.48-18.14,55.47,4.6,18.89,67.86S2,210.94,62.88,246.14c41.36,23.92,74,19.68,119,16.38,33.22-2.42,69.75-12.45,108.11,9.73h0C353.57,309,354.44,371,411.61,404c44.4,25.68,102,9.09,128.7-37s12.31-104.35-32.08-130c-57.17-33.06-112-1.69-176.09-38.74Z" fill="none" stroke-miterlimit="10" stroke-linecap="round" stroke="url(#linear-gradient)"></path><path id="blob-path-2" stroke-linecap="round" d="M328.58,202.5c-37.27-21.74-48-55.88-62.67-83.17-20.62-38.39-31-70.33-71.38-93.7A124.58,124.58,0,0,0,69.8,241.32c40.47,23.41,73.4,17.44,117,15,32.15-1.78,67.4-10.73,104.93,11h0s0,0,0,0c62.22,36,75.47,104.75,118.58,129.68a90.86,90.86,0,0,0,91-157.3c-43.11-24.93-110-.94-172.69-37.2Z" stroke-miterlimit="10" fill="url(#linear-gradient-2)" stroke="url(#linear-gradient-3)"></path><circle cx="457.22" cy="319.07" r="56.74" fill="url(#linear-gradient-4)"></circle><path d="M181,53.22a93.84,93.84,0,1,0-94,162.47c30.49,17.63,59.76,13.94,91.52,5.46,14.32-3.83,71.38-17.49,105.86,2.45l34.57,20h0c10.93,6.32,18.93,21.28,22.51,25.82,2.06,2.62,2.4,4.6,8.4,8.07A17,17,0,1,0,367,248c-6-3.47-7.88-2.79-11.42-3.25-7.09-.92-24.72-1.15-33.46-6l-35.14-20.32h0c-34.23-20.05-51.83-75-55.53-88.82C222.93,98,211.46,70.82,181,53.22Z" fill="url(#linear-gradient-5)"></path></svg>