<svg width="15" height="15" viewBox="0 0 15 15" fill="none" xmlns="http://www.w3.org/2000/svg">
<g clip-path="url(#clip0)">
<path d="M12.8125 15H5.31249C4.45124 15 3.74999 14.2994 3.74999 13.4375V4.0625C3.74999 3.20063 4.45124 2.5 5.31249 2.5H12.8125C13.6737 2.5 14.375 3.20063 14.375 4.0625V13.4375C14.375 14.2994 13.6737 15 12.8125 15ZM5.31249 3.125C4.79562 3.125 4.37499 3.54563 4.37499 4.0625V13.4375C4.37499 13.9544 4.79562 14.375 5.31249 14.375H12.8125C13.3294 14.375 13.75 13.9544 13.75 13.4375V4.0625C13.75 3.54563 13.3294 3.125 12.8125 3.125H5.31249Z" fill="white"/>
<path d="M2.8125 13.125H2.1875C1.32625 13.125 0.625 12.4244 0.625 11.5625V1.5625C0.625 0.700625 1.32625 0 2.1875 0H9.6875C10.5488 0 11.25 0.700625 11.25 1.5625C11.25 1.735 11.11 1.875 10.9375 1.875C10.765 1.875 10.625 1.735 10.625 1.5625C10.625 1.04562 10.2044 0.625 9.6875 0.625H2.1875C1.67063 0.625 1.25 1.04562 1.25 1.5625V11.5625C1.25 12.0794 1.67063 12.5 2.1875 12.5H2.8125C2.985 12.5 3.125 12.64 3.125 12.8125C3.125 12.985 2.985 13.125 2.8125 13.125Z" fill="white"/>
<path d="M11.5625 10.625H6.5625C6.39 10.625 6.25 10.485 6.25 10.3125C6.25 10.14 6.39 10 6.5625 10H11.5625C11.735 10 11.875 10.14 11.875 10.3125C11.875 10.485 11.735 10.625 11.5625 10.625Z" fill="white"/>
<path d="M11.5625 13.125H6.5625C6.39 13.125 6.25 12.985 6.25 12.8125C6.25 12.64 6.39 12.5 6.5625 12.5H11.5625C11.735 12.5 11.875 12.64 11.875 12.8125C11.875 12.985 11.735 13.125 11.5625 13.125Z" fill="white"/>
<path d="M11.5625 8.125H6.5625C6.39 8.125 6.25 7.985 6.25 7.8125C6.25 7.64 6.39 7.5 6.5625 7.5H11.5625C11.735 7.5 11.875 7.64 11.875 7.8125C11.875 7.985 11.735 8.125 11.5625 8.125Z" fill="white"/>
<path d="M11.5625 5.625H6.5625C6.39 5.625 6.25 5.485 6.25 5.3125C6.25 5.14 6.39 5 6.5625 5H11.5625C11.735 5 11.875 5.14 11.875 5.3125C11.875 5.485 11.735 5.625 11.5625 5.625Z" fill="white"/>
</g>
<defs>
<clipPath id="clip0">
<rect width="15" height="15" fill="white"/>
</clipPath>
</defs>
</svg>
