<svg xmlns="http://www.w3.org/2000/svg" width="2000" height="1705.26" viewBox="0 0 2000 1705.26"><path d="M239.66,0H929.34c419.52,0,737.52,225.49,855.82,553.6H2000V751.91H1830.4a908.33,908.33,0,0,1,5,95.71v4.87a908.89,908.89,0,0,1-6.34,107.58H2000v198.31H1781.07c-121.42,323.55-436.95,546.88-851.73,546.88H239.66V1158.38H0V960.07H239.66V751.91H0V553.6H239.66ZM432.47,1158.38v369H929.34c306.62,0,534.43-147.78,640.47-369ZM1628.88,960.07H432.47V751.91H1629.19a750.39,750.39,0,0,1,6.69,100.58v4.87A746,746,0,0,1,1628.88,960.07ZM929.34,177.61c308,0,536.52,151.68,641.93,376H432.47v-376Z" fill="#f4b731" fill-rule="evenodd"/></svg>