<svg width="116" height="116" viewBox="0 0 116 116" fill="none" xmlns="http://www.w3.org/2000/svg">
<path fill-rule="evenodd" clip-rule="evenodd" d="M43.965 114.264C75.0445 122.009 106.519 103.102 114.266 72.0309H114.265C122.009 40.9578 103.094 9.48128 72.025 1.73515C40.9563 -6.01097 9.48898 12.9057 1.73811 43.975C-6.01277 75.0443 12.8855 106.519 43.965 114.264ZM70.8198 35.1002C78.8562 37.868 84.7324 42.0172 83.5788 49.7361L83.5817 49.7419C82.7467 55.3915 79.6132 58.1271 75.4547 59.0858C81.1624 62.0591 84.0689 66.6176 81.3008 74.5206C77.8653 84.3369 69.7042 85.165 58.85 83.1114L56.2193 93.6672L49.853 92.0743L52.4535 81.6607C50.803 81.2506 49.1174 80.8161 47.3801 80.3445L44.7718 90.8078L38.4142 89.2218L41.045 78.6465C40.3767 78.4761 39.7037 78.3014 39.0252 78.1254C38.1942 77.9097 37.3551 77.6919 36.5065 77.4774L28.2246 75.413L31.3844 68.1267C31.3844 68.1267 36.0749 69.3737 36.0115 69.2811C37.8131 69.7273 38.613 68.5485 38.9277 67.7691L43.0901 51.0834C43.2503 51.122 43.4064 51.161 43.5569 51.1986C43.627 51.2161 43.6959 51.2333 43.7634 51.25C43.5479 51.1643 43.3269 51.0934 43.1018 51.0376L46.0764 39.1267C46.1534 37.7744 45.6877 36.0685 43.1096 35.4246C43.209 35.3583 38.4864 34.276 38.4864 34.276L40.1749 27.4777L48.9527 29.6698L48.9459 29.7029C50.2651 30.0312 51.6253 30.343 53.0099 30.6576L55.6182 20.21L61.9835 21.7911L59.4278 32.0391C61.1349 32.4288 62.8536 32.8224 64.5275 33.2394L67.0608 23.0586L73.4262 24.6447L70.8198 35.1002ZM50.6892 73.0099C55.8847 74.3815 67.2304 77.3767 69.0348 70.1268H69.0358C70.8838 62.7144 59.8795 60.2442 54.507 59.0382C53.9057 58.9032 53.375 58.7841 52.9407 58.6756L49.4448 72.6871C49.8018 72.7757 50.2205 72.8862 50.6892 73.0099ZM55.5845 52.5361C59.9172 53.6917 69.359 56.21 71.004 49.6211H71.002C72.6815 42.8819 63.5057 40.8499 59.0213 39.8568C58.5159 39.7448 58.0701 39.6461 57.7062 39.5553L54.5376 52.2623C54.8377 52.337 55.1899 52.4309 55.5845 52.5361Z" fill="white"/>
</svg>
