<svg width="14" height="15" viewBox="0 0 14 15" fill="none" xmlns="http://www.w3.org/2000/svg">
<path fill-rule="evenodd" clip-rule="evenodd" d="M7.93999 0.702393H12.3269C12.5325 0.703083 12.7294 0.785351 12.8746 0.931203C13.0198 1.07705 13.1015 1.27462 13.1018 1.48069V5.24722C13.0974 5.45035 13.0138 5.64365 12.8689 5.78573C12.724 5.92782 12.5294 6.00738 12.3268 6.00738C12.1241 6.00738 11.9295 5.92782 11.7846 5.78573C11.6397 5.64365 11.5561 5.45035 11.5517 5.24722V3.31324L7.21572 7.66154C7.07009 7.80681 6.87302 7.88836 6.66758 7.88836C6.46214 7.88836 6.26507 7.80681 6.11944 7.66154C5.97474 7.51552 5.89353 7.31805 5.89353 7.11222C5.89353 6.90639 5.97474 6.70892 6.11944 6.5629L10.4138 2.25637H7.93999C7.73466 2.25578 7.53792 2.17375 7.39273 2.0282C7.24754 1.88265 7.16571 1.68541 7.16512 1.47957C7.16571 1.27369 7.24753 1.07642 7.3927 0.930807C7.53788 0.785196 7.73463 0.703081 7.93999 0.702393ZM11.3087 6.71612C11.4512 6.84564 11.5406 7.02369 11.5594 7.21562H11.5631V12.9001C11.5631 13.2618 11.4198 13.6087 11.1647 13.8645C10.9095 14.1202 10.5635 14.2639 10.2027 14.2639H1.36039C1.18168 14.2639 1.00472 14.2286 0.839619 14.16C0.674521 14.0914 0.524519 13.9909 0.398185 13.8642C0.271852 13.7375 0.171662 13.587 0.10334 13.4215C0.0350181 13.2559 -9.73305e-05 13.0785 2.02616e-07 12.8994V4.03495C2.02616e-07 3.67325 0.143326 3.32637 0.398448 3.07061C0.653571 2.81485 0.999591 2.67117 1.36039 2.67117H6.40168V2.67452C6.59502 2.69102 6.77514 2.77967 6.90639 2.92293C7.03765 3.06619 7.11049 3.25363 7.11049 3.44815C7.11049 3.64268 7.03765 3.83011 6.90639 3.97338C6.77514 4.11664 6.59502 4.20529 6.40168 4.22179V4.22514H2.54482C2.28078 4.22514 2.02754 4.33027 1.84079 4.51741C1.65405 4.70455 1.54909 4.95838 1.54899 5.22309V11.712C1.54909 11.9767 1.65405 12.2305 1.84079 12.4177C2.02754 12.6048 2.28078 12.7099 2.54482 12.7099H9.01755C9.28156 12.7099 9.53476 12.6048 9.72145 12.4176C9.90813 12.2305 10.013 11.9766 10.013 11.712V7.21562H10.0171C10.0359 7.02369 10.1253 6.84564 10.2678 6.71612C10.4104 6.58659 10.5959 6.51485 10.7882 6.51485C10.9806 6.51485 11.1661 6.58659 11.3087 6.71612Z" fill="white"/>
</svg>
