<?xml version="1.0" encoding="UTF-8"?><svg id="Layer_1" xmlns="http://www.w3.org/2000/svg" xmlns:xlink="http://www.w3.org/1999/xlink" viewBox="0 0 800 220"><defs><style>.cls-1{fill:url(#linear-gradient);}.cls-2{fill:url(#linear-gradient-3);}.cls-3{fill:url(#linear-gradient-4);}.cls-4{fill:url(#linear-gradient-2);}</style><linearGradient id="linear-gradient" x1="653.79" y1="-214.22" x2="667.68" y2="-217.46" gradientTransform="translate(-36410.26 13319.34) scale(55.73 61.13)" gradientUnits="userSpaceOnUse"><stop offset="0" stop-color="#31bac6"/><stop offset="1" stop-color="#b6509e"/></linearGradient><linearGradient id="linear-gradient-2" x1="648.39" y1="-213.27" x2="666.73" y2="-216.55" gradientTransform="translate(-27331.02 13129.54) scale(42.21 60.24)" gradientUnits="userSpaceOnUse"><stop offset="0" stop-color="#31bac6"/><stop offset="1" stop-color="#b6509e"/></linearGradient><linearGradient id="linear-gradient-3" x1="654.6" y1="-214.65" x2="668.47" y2="-217.88" gradientTransform="translate(-36494.06 13322.4) scale(55.78 61.13)" gradientUnits="userSpaceOnUse"><stop offset="0" stop-color="#31bac6"/><stop offset="1" stop-color="#b6509e"/></linearGradient><linearGradient id="linear-gradient-4" x1="655.5" y1="-215.47" x2="669.38" y2="-218.71" gradientTransform="translate(-36559.8 13319.94) scale(55.78 61.13)" gradientUnits="userSpaceOnUse"><stop offset="0" stop-color="#31bac6"/><stop offset="1" stop-color="#b6509e"/></linearGradient></defs><g id="Group_4051"><path id="Path_2431" class="cls-1" d="M490.08,203.2L415.34,21.93c-.59-1.65-.9-3.39-.92-5.15-.15-3.72,1.17-7.34,3.67-10.1,2.59-2.65,6.21-4.06,9.91-3.85,2.78,.03,5.47,.93,7.71,2.57,2.35,1.75,4.19,4.09,5.33,6.79l71.07,177.42L583.19,12.19c1.13-2.7,2.97-5.05,5.32-6.79,2.24-1.64,4.93-2.54,7.71-2.57,3.71-.21,7.32,1.19,9.92,3.85,2.5,2.76,3.82,6.38,3.67,10.1-.02,1.75-.33,3.49-.92,5.14l-74.74,181.28c-4.21,9.37-10.47,14-18.73,14h-6.61c-8.26-.04-14.51-4.63-18.73-14Z"/><path id="Path_2432" class="cls-4" d="M641.58,211.65c-2.56-2.58-3.96-6.1-3.86-9.74V18.25c-.07-3.68,1.32-7.24,3.86-9.91,2.52-2.67,6.06-4.13,9.73-4h121.39c3.47-.1,6.82,1.31,9.18,3.85,2.52,2.39,3.92,5.72,3.86,9.19,.09,3.42-1.32,6.71-3.86,9-2.46,2.37-5.76,3.67-9.18,3.62h-107.43V96.87h96.59c3.47-.09,6.82,1.31,9.18,3.86,2.49,2.4,3.89,5.72,3.86,9.18,.09,3.42-1.32,6.71-3.86,9-2.45,2.4-5.75,3.72-9.18,3.67h-96.59v67.22h107.43c3.47-.1,6.82,1.3,9.18,3.86,2.52,2.38,3.92,5.71,3.86,9.18,.09,3.42-1.32,6.71-3.86,9-2.45,2.39-5.75,3.71-9.18,3.67h-121.39c-3.66,.27-7.25-1.15-9.73-3.86Z"/><path id="Path_2433" class="cls-2" d="M432.23,198.06L357.5,16.78c-4.21-9.36-10.5-13.95-18.73-13.95h-6.62c-8.27,0-14.51,4.59-18.73,14l-32.51,79h-24.6c-7.39,.04-13.37,6.02-13.41,13.41v.18c.04,7.39,6.02,13.37,13.41,13.41h13.22l-31,75.3c-.59,1.65-.9,3.39-.92,5.14-.15,3.72,1.17,7.34,3.67,10.1,2.59,2.66,6.21,4.07,9.92,3.86,2.77-.04,5.47-.94,7.71-2.57,2.35-1.75,4.19-4.1,5.33-6.8l34.15-85h23.49c7.39-.04,13.37-6.02,13.41-13.41v-.45c-.04-7.39-6.02-13.37-13.41-13.41h-12.7l26.27-65.2,71.07,177.42c1.13,2.7,2.97,5.05,5.32,6.79,2.24,1.64,4.94,2.54,7.72,2.57,3.7,.21,7.32-1.2,9.91-3.85,2.5-2.76,3.82-6.39,3.67-10.11,.08-1.76-.23-3.52-.91-5.15Z"/><path id="Path_2434" class="cls-3" d="M208.93,198.06L134.2,16.78c-4.2-9.36-10.48-13.95-18.75-13.95h-6.61c-8.26,0-14.5,4.59-18.73,14L57.61,95.83h-24.61c-7.39,.05-13.36,6.02-13.41,13.41v.18c.09,7.36,6.05,13.29,13.41,13.34h13.22L15.22,198.06c-.59,1.65-.9,3.39-.92,5.14-.15,3.72,1.17,7.35,3.67,10.1,2.59,2.66,6.21,4.07,9.92,3.86,2.77-.04,5.47-.94,7.71-2.57,2.35-1.75,4.19-4.1,5.33-6.8l34.15-85h23.66c7.39-.04,13.37-6.02,13.41-13.41v-.38c-.04-7.39-6.02-13.37-13.41-13.41h-12.67L112.15,30.38l71.07,177.41c1.13,2.7,2.97,5.05,5.33,6.8,2.24,1.63,4.94,2.53,7.71,2.57,3.71,.2,7.32-1.21,9.92-3.86,2.5-2.76,3.82-6.38,3.67-10.1,.07-1.76-.25-3.51-.92-5.14Z"/></g></svg>