<svg width="91" height="26" viewBox="0 0 91 26" fill="none" xmlns="http://www.w3.org/2000/svg">
<g transform="scale(0.45) translate(8, 18)">
<path d="M56.1015 23.7941L47.2887 2.27033C47.2192 2.07397 47.1825 1.86731 47.1803 1.65883C47.1629 1.21742 47.3183 0.7868 47.613 0.459566C47.7641 0.303882 47.9466 0.182547 48.1481 0.103702C48.3497 0.0248571 48.5656 -0.00967513 48.7815 0.00242188C49.1087 0.00621089 49.4266 0.112906 49.6906 0.307581C49.968 0.514864 50.185 0.79329 50.3191 1.11382L58.6991 22.1805L67.0802 1.11382C67.2135 0.793132 67.4302 0.514597 67.7075 0.307581C67.9716 0.112906 68.2894 0.00621089 68.6166 0.00242188C68.8327 -0.00984718 69.0489 0.0246009 69.2506 0.103451C69.4524 0.182301 69.635 0.303726 69.7863 0.459566C70.081 0.7868 70.2364 1.21742 70.2191 1.65883C70.2168 1.86692 70.1802 2.07319 70.1106 2.26915L61.2978 23.7941C60.8014 24.9067 60.0633 25.4565 59.0894 25.4565H58.31C57.336 25.4517 56.5991 24.9067 56.1015 23.7941Z" fill="white"/>
<path d="M73.965 24.7975C73.8154 24.6457 73.6979 24.465 73.6197 24.2662C73.5414 24.0674 73.5041 23.8547 73.5099 23.641V1.8334C73.502 1.39615 73.6655 0.973374 73.965 0.656698C74.1116 0.499832 74.2898 0.376311 74.4877 0.294401C74.6855 0.212491 74.8985 0.174082 75.1123 0.181743H89.4256C89.628 0.176048 89.8292 0.213878 90.0158 0.292709C90.2025 0.371541 90.3703 0.489559 90.5081 0.638888C90.6549 0.779035 90.7713 0.948424 90.8496 1.13628C90.928 1.32414 90.9666 1.52637 90.9632 1.7301C90.9685 1.93076 90.9306 2.1302 90.852 2.31468C90.7734 2.49916 90.6561 2.66431 90.5081 2.79875C90.2179 3.08049 89.8287 3.23504 89.4256 3.22858H76.7583V11.1686H88.1475C88.3499 11.1632 88.5511 11.2012 88.7378 11.2803C88.9244 11.3593 89.0922 11.4775 89.2299 11.627C89.3753 11.768 89.4907 11.9374 89.5689 12.1248C89.6472 12.3122 89.6867 12.5137 89.685 12.717C89.6903 12.9177 89.6524 13.1171 89.5738 13.3016C89.4953 13.4861 89.3779 13.6512 89.2299 13.7856C89.087 13.9267 88.9178 14.0379 88.732 14.1127C88.5462 14.1874 88.3475 14.2244 88.1475 14.2214H76.7583V22.203H89.4256C89.6281 22.197 89.8295 22.2347 90.0163 22.3138C90.203 22.3929 90.3707 22.5114 90.5081 22.6614C90.655 22.8012 90.7714 22.9704 90.8498 23.1581C90.9281 23.3457 90.9668 23.5478 90.9632 23.7514C90.9685 23.9521 90.9306 24.1515 90.852 24.336C90.7734 24.5205 90.6561 24.6856 90.5081 24.82C90.2188 25.104 89.8295 25.2607 89.4256 25.2558H75.1123C74.8991 25.2717 74.6851 25.2386 74.4864 25.1593C74.2877 25.0799 74.1094 24.9562 73.965 24.7975Z" fill="white"/>
<path d="M49.2801 23.1838L40.4686 1.65885C39.9722 0.547453 39.2305 0.00244141 38.2601 0.00244141H37.4795C36.5044 0.00244141 35.7686 0.547453 35.271 1.66478L31.4377 11.0452H28.5371C28.1185 11.0476 27.7177 11.2162 27.4217 11.5143C27.1257 11.8123 26.9584 12.2159 26.9559 12.6374V12.6588C26.9581 13.0804 27.1253 13.4842 27.4214 13.7823C27.7175 14.0805 28.1184 14.2489 28.5371 14.2511H30.0959L26.4406 23.1921C26.3711 23.3881 26.3345 23.5944 26.3321 23.8025C26.3147 24.2439 26.4701 24.6745 26.7649 25.0017C26.9161 25.1577 27.0987 25.2793 27.3005 25.3584C27.5022 25.4374 27.7184 25.4721 27.9346 25.46C28.2616 25.4552 28.5791 25.3486 28.8437 25.1549C29.1208 24.9469 29.3378 24.6682 29.4721 24.3475L33.4988 14.2547H36.2686C36.6871 14.2522 37.0879 14.0836 37.3839 13.7855C37.6799 13.4875 37.8473 13.0839 37.8497 12.6624V12.6089C37.8476 12.1873 37.6803 11.7836 37.3842 11.4854C37.0882 11.1873 36.6872 11.0188 36.2686 11.0167H34.7711L37.8686 3.27488L46.2486 24.3415C46.3818 24.6622 46.5986 24.9407 46.8759 25.1478C47.1402 25.3427 47.4585 25.4494 47.7862 25.4529C48.002 25.465 48.218 25.4305 48.4195 25.3516C48.6211 25.2728 48.8035 25.1515 48.9547 24.9958C49.2495 24.6682 49.4049 24.2371 49.3874 23.7953C49.3967 23.586 49.3601 23.3772 49.2801 23.1838Z" fill="white"/>
<path d="M22.9505 23.1839L14.139 1.65891C13.6438 0.547514 12.9033 0.00250244 11.9281 0.00250244H11.1487C10.1748 0.00250244 9.43902 0.547514 8.94026 1.66485L5.10812 11.0452H2.20631C1.78781 11.048 1.38724 11.2167 1.09131 11.5147C0.795381 11.8127 0.627898 12.2161 0.625117 12.6375V12.6589C0.630051 13.0789 0.798484 13.4801 1.09418 13.7763C1.38989 14.0726 1.78923 14.2401 2.20631 14.2428H3.76511L0.109842 23.1839C0.0403405 23.3799 0.00368096 23.5861 0.00136358 23.7942C-0.0163496 24.2357 0.139086 24.6664 0.4341 24.9935C0.585322 25.1495 0.767937 25.2711 0.969683 25.3501C1.17143 25.4292 1.38763 25.4638 1.60378 25.4518C1.93082 25.4469 2.24835 25.3403 2.51288 25.1466C2.79003 24.9386 3.007 24.6599 3.14135 24.3392L7.16804 14.2464H9.95783C10.3764 14.2439 10.7772 14.0754 11.0732 13.7773C11.3692 13.4792 11.5366 13.0757 11.539 12.6541V12.609C11.5369 12.1874 11.3696 11.7836 11.0735 11.4855C10.7775 11.1874 10.3765 11.0189 9.95783 11.0167H8.46389L11.539 3.27376L19.919 24.3392C20.0526 24.6604 20.2697 24.9393 20.5475 25.1466C20.812 25.3403 21.1296 25.4469 21.4566 25.4518C21.6727 25.4635 21.8888 25.4287 22.0905 25.3497C22.2922 25.2706 22.4749 25.1492 22.6263 24.9935C22.921 24.6662 23.0763 24.2356 23.059 23.7942C23.067 23.5853 23.03 23.3771 22.9505 23.1839Z" fill="white"/>
</g>
</svg>
