<?xml version="1.0" encoding="UTF-8"?><svg id="Layer_1" xmlns="http://www.w3.org/2000/svg" xmlns:xlink="http://www.w3.org/1999/xlink" viewBox="0 0 1513 363.91"><defs><style>.cls-1{fill:#fff;}.cls-2{fill:url(#radial-gradient-2);}.cls-3{fill:url(#radial-gradient);}</style><radialGradient id="radial-gradient" cx="638.57" cy="232.86" fx="-44.01" fy="294.4" r="830.06" gradientTransform="matrix(1, 0, 0, 1, 0, 0)" gradientUnits="userSpaceOnUse"><stop offset="0" stop-color="#fff" stop-opacity="0"/><stop offset="1" stop-color="#fff" stop-opacity=".3"/></radialGradient><radialGradient id="radial-gradient-2" cx="638.72" cy="199.56" fx="-43.86" fy="261.09" r="830.06" gradientTransform="matrix(1, 0, 0, 1, 0, 0)" gradientUnits="userSpaceOnUse"><stop offset="0" stop-color="#fff" stop-opacity=".3"/><stop offset=".6" stop-color="#fff"/></radialGradient></defs><path class="cls-3" d="M1511.92,224.34c-41.65-8.71-100.09-19.07-170.65-25.5-19.28-1.76-71.69-6.16-147.53-6.16-.44,0-.88,0-1.33,0-172.58,.12-367.13,23.02-435.93,31.61l-.2,.02h-.05c-142.91,15.55-290.45,31.6-435.6,31.6-116.81,0-221.07-10.33-318.72-31.57L0,223.94v33.17l1.9,.4c97.66,21.24,201.91,31.57,318.72,31.57,145.15,0,292.69-16.05,435.6-31.59h.05l.2-.03c68.8-8.59,263.36-31.49,435.93-31.61,.44,0,.88,0,1.33,0,75.84,0,128.25,4.4,147.53,6.16,70.56,6.43,129.01,16.79,170.65,25.5l1.08,.23v16.83h0v-50l-1.08-.23Z"/><path class="cls-2" d="M1512.07,191.03c-41.65-8.71-100.09-19.07-170.65-25.5-19.28-1.76-71.69-6.16-147.53-6.16-.44,0-.88,0-1.33,0-172.58,.12-367.13,23.02-435.93,31.61l-.2,.02h-.05c-142.91,15.55-290.45,31.6-435.6,31.6-116.81,0-221.07-10.33-318.72-31.57l-1.9-.4v33.17l1.9,.4c97.66,21.24,201.91,31.57,318.72,31.57,145.15,0,292.69-16.05,435.6-31.59h.05l.2-.03c68.8-8.59,263.36-31.49,435.93-31.61,.44,0,.88,0,1.33,0,75.84,0,128.25,4.4,147.53,6.16,70.56,6.43,129.01,16.79,170.65,25.5l1.08,.23v16.83h0v-50l-1.08-.23Z"/><path class="cls-1" d="M0,0V190.86l1.08,.24c97.9,21.29,202.41,31.65,319.5,31.65,145.36,0,293.08-16.07,435.93-31.61l.21-.02h.05c142.91-15.55,290.46-31.6,435.59-31.6,116.83,0,221.09,10.33,318.73,31.58l1.9,.4V0H0Z"/></svg>