<svg height="300px" width="300px"  fill="#000000" xmlns:dc="http://purl.org/dc/elements/1.1/" xmlns:cc="http://creativecommons.org/ns#" xmlns:rdf="http://www.w3.org/1999/02/22-rdf-syntax-ns#" xmlns:svg="http://www.w3.org/2000/svg" xmlns="http://www.w3.org/2000/svg" xmlns:sodipodi="http://sodipodi.sourceforge.net/DTD/sodipodi-0.dtd" xmlns:inkscape="http://www.inkscape.org/namespaces/inkscape" version="1.1" x="0px" y="0px" viewBox="0 0 100 100"><g transform="translate(0,-952.36218)"><path style="text-indent:0;text-transform:none;direction:ltr;block-progression:tb;baseline-shift:baseline;color:#000000;enable-background:accumulate;" d="m 50,957.36217 c -24.8291,0 -45,20.17101 -45,45.00003 0,24.8291 20.1709,45 45,45 24.8291,0 45,-20.1709 45,-45 0,-24.82902 -20.1709,-45.00003 -45,-45.00003 z m 0,4 c 22.6673,0 41,18.33279 41,41.00003 0,22.6673 -18.3327,41 -41,41 -22.6673,0 -41,-18.3327 -41,-41 0,-22.66724 18.3327,-41.00003 41,-41.00003 z m 0,9 c -1.1046,0 -2,0.8954 -2,2 l 0,30.00003 c 0,1.1046 0.8954,2 2,2 l 28,0 c 1.1046,0 2,-0.8954 2,-2 0,-1.1046 -0.8954,-2 -2,-2 l -26,0 0,-28.00003 c 0,-1.1046 -0.8954,-2 -2,-2 z" fill="#000000" fill-opacity="1" stroke="none" marker="none" visibility="visible" display="inline" overflow="visible"></path></g></svg>