<svg width="37" height="37" viewBox="0 0 37 37" fill="none" xmlns="http://www.w3.org/2000/svg">
<path fill-rule="evenodd" clip-rule="evenodd" d="M37 18.5C37 28.7173 28.7173 37 18.5 37C8.28273 37 0 28.7173 0 18.5C0 8.28273 8.28273 0 18.5 0C28.7173 0 37 8.28273 37 18.5ZM34.4186 18.5C34.4186 27.2916 27.2916 34.4186 18.5 34.4186C9.7084 34.4186 2.5814 27.2916 2.5814 18.5C2.5814 9.7084 9.7084 2.5814 18.5 2.5814C27.2916 2.5814 34.4186 9.7084 34.4186 18.5ZM17.0239 26.5117C17.7937 27.8451 19.7182 27.8451 20.488 26.5117L26.3387 16.378C27.1085 15.0447 26.1462 13.378 24.6066 13.378L12.9052 13.378C11.3656 13.378 10.4033 15.0447 11.1731 16.378L17.0239 26.5117Z" fill="white"/>
</svg>
