<svg height='300px' width='300px' fill="#0094ff" xmlns="http://www.w3.org/2000/svg" data-name="Layer 1" viewBox="0 0 64 64" x="0px" y="0px"><title>fast-man-speedily- soon-competition</title><path d="M55.591,39H46.515V29.659A1.693,1.693,0,0,1,48.236,28a3.717,3.717,0,0,0,3.15-1.711l9.433-14.75A1,1,0,0,0,59.977,10H54.364a1,1,0,0,0-.8.4l-4.829,6.518A7.7,7.7,0,0,1,42.556,20H32.193a9.688,9.688,0,0,0-8.311,4.682L16.867,36.489A1,1,0,0,0,17.727,38H22.9a1,1,0,0,0,.86-.488l5.5-9.237a.58.58,0,0,1,.5-.275.555.555,0,0,1,.572.535V41.6L16.277,56.31a1,1,0,0,0,.01,1.391l3.933,4a1,1,0,0,0,1.426,0L36.1,47H52.038l1.854,7.248A1,1,0,0,0,54.86,55H61a1,1,0,0,0,.982-1.187L59.953,43.186A4.334,4.334,0,0,0,55.591,39Zm.046,14-1.854-7.248A1,1,0,0,0,52.814,45H35.682a1,1,0,0,0-.713.3L20.933,59.573l-2.54-2.583,13.656-14.3a1,1,0,0,0,.277-.69V28.535A2.557,2.557,0,0,0,29.754,26a2.587,2.587,0,0,0-2.217,1.252L22.331,36H19.484L25.6,25.7A7.678,7.678,0,0,1,32.193,22H42.556a9.709,9.709,0,0,0,7.782-3.887L54.867,12H58.15L49.7,25.211A1.746,1.746,0,0,1,48.236,26a3.7,3.7,0,0,0-3.721,3.659V40a1,1,0,0,0,1,1H55.591a2.328,2.328,0,0,1,2.363,2.286.989.989,0,0,0,.017.188L59.791,53Z"></path><path d="M45,10a8,8,0,1,0-8,8A8.009,8.009,0,0,0,45,10ZM31,10a6,6,0,1,1,6,6A6.006,6.006,0,0,1,31,10Z"></path><path d="M6,22h4V20H6a4,4,0,0,0,0,8H19V26H6a2,2,0,0,1,0-4Z"></path><path d="M4,48a2,2,0,0,1,2-2H19V44H6a4,4,0,0,0,0,8h4V50H6A2,2,0,0,1,4,48Z"></path><rect x="5" y="31" width="6" height="2"></rect><rect x="5" y="39" width="6" height="2"></rect><rect x="9" y="35" width="6" height="2"></rect></svg>