<?xml version="1.0" encoding="UTF-8"?><svg id="Layer_1" xmlns="http://www.w3.org/2000/svg" viewBox="0 0 876.25 220"><defs><style>.cls-1{fill:#fff;}.cls-2{fill:gold;}.cls-3{fill:#cbe5ef;}.cls-4{fill:#162843;}</style></defs><path class="cls-4" d="M117.53,22.83c6.53,.43,13,1.55,19.3,3.34,3.35-6.35,6.16-12.98,8.41-19.8,3.02-9.28,16.9-8.07,18.28,1.59,.76,5.04,1.07,10.14,.93,15.23,37.42-7.77,65.31-14.33,64.29-.15l-.13,.52c-8.39,23.03-25.1,41.47-45.83,50.56-4.6,2.08-6.36,4.9-6.31,10.04,.26,20.13,0,39.73,0,59.63-39.6-17.22-84.57-17.22-124.16,0,0-19.91-.17-39.5,0-59.63,0-5.14-1.71-7.96-6.31-10.04C25.26,65.04,8.54,46.59,.17,23.57l-.15-.52c-1-14.18,26.89-7.63,64.29,.15-.14-5.1,.17-10.19,.93-15.23,1.37-9.67,15.25-10.93,18.29-1.59,2.23,6.83,5.04,13.45,8.41,19.8,6.3-1.79,12.77-2.91,19.3-3.34h6.29Z"/><path class="cls-1" d="M115.04,29.69c8.51,.39,16.93,1.98,24.99,4.73,4.94-8.11,8.89-16.77,11.78-25.81,.32-1.12,1.41-1.84,2.56-1.69,1.16,.07,2.11,.96,2.25,2.12,1.05,7.48,1.15,15.06,.32,22.56,4.47-.67,5.57-.83,11.47-2.15,37.55-8.26,49.87-8.61,53.23-7.16-7.85,20.74-23.01,37.28-41.71,45.48-6.73,2.6-10.96,9.3-10.43,16.49,.22,16.7,.11,33.05,0,49.48-35.56-13.24-74.69-13.24-110.25,0,0-16.44-.11-32.8,0-49.48,.54-7.2-3.7-13.9-10.43-16.49C30.12,59.56,14.98,43.03,7.13,22.29c3.36-1.45,15.66-1.09,53.21,7.16,5.88,1.32,7.02,1.49,11.47,2.15-.82-7.51-.71-15.08,.31-22.56,.19-1.36,1.45-2.3,2.81-2.11,.94,.13,1.71,.79,2.01,1.68,2.88,9.04,6.83,17.7,11.76,25.81,8.07-2.75,16.49-4.34,25.01-4.73h1.32Z"/><path class="cls-2" d="M83.32,93.72c-6.56-.04-11.85-5.37-11.84-11.93,.07-3.03,1.36-5.91,3.58-7.98,2.22-2.12,5.17-3.3,8.24-3.28,4.71,.32,9.31,1.47,13.62,3.39,4.81,2.1,8.81,4.99,8.79,8.2-.02,3.21-4.03,6.09-8.85,8.17-4.28,1.92-8.87,3.08-13.55,3.43h0Z"/><path class="cls-4" d="M83.2,96.89c-8.27-.14-14.89-6.91-14.84-15.18,.09-3.87,1.74-7.54,4.56-10.19,2.79-2.68,6.52-4.18,10.39-4.17,5.13,.35,10.15,1.6,14.84,3.71,7.02,3.06,10.73,6.9,10.71,11.13-.02,4.23-3.71,8-10.76,11.13-4.69,2.1-9.72,3.35-14.84,3.71h-.15l.09-.15Zm0-23.21c-2.25,0-4.41,.87-6.03,2.43-1.6,1.5-2.53,3.56-2.6,5.75,.04,4.77,3.88,8.63,8.65,8.7,4.26-.35,8.42-1.43,12.32-3.17,5.1-2.21,6.96-4.38,6.96-5.29s-1.86-3.06-6.92-5.27c-3.9-1.75-8.08-2.82-12.34-3.15h-.04ZM27.12,33.08l29,6.72c.8,.18,1.3,.98,1.12,1.78-.11,.47-.43,.86-.88,1.04-5.77,2.37-16.22,5.81-21.21,2.1-7.14-5.34-9.39-8.31-9.83-9.92-.17-.78,.32-1.55,1.1-1.73,.23-.05,.47-.04,.7,.02Z"/><path class="cls-2" d="M145.62,93.72c6.56-.05,11.85-5.37,11.86-11.93-.09-3.03-1.38-5.9-3.58-7.98-2.22-2.12-5.18-3.3-8.26-3.28-4.7,.32-9.3,1.47-13.6,3.39-4.81,2.1-8.83,4.99-8.81,8.2,.02,3.21,4.04,6.09,8.85,8.17,4.28,1.92,8.86,3.08,13.54,3.43Z"/><path class="cls-4" d="M145.73,96.89c3.97-.04,7.75-1.65,10.54-4.47,2.84-2.83,4.41-6.69,4.36-10.71-.09-3.87-1.73-7.55-4.57-10.19-2.79-2.68-6.52-4.18-10.39-4.17-5.13,.34-10.16,1.6-14.84,3.71-7.03,3.06-10.72,6.9-10.72,11.13s3.71,8,10.76,11.13c4.69,2.1,9.72,3.35,14.84,3.71h.13l-.11-.15Zm0-23.21c2.25,0,4.41,.87,6.03,2.43,1.6,1.49,2.54,3.56,2.6,5.75,.01,2.29-.91,4.5-2.54,6.1-1.61,1.64-3.8,2.58-6.1,2.6-4.26-.35-8.42-1.43-12.32-3.17-5.08-2.21-6.94-4.38-6.96-5.29s1.86-3.06,6.92-5.27c3.91-1.75,8.09-2.82,12.36-3.15h.02Zm56.11-40.6l-29,6.72c-.8,.18-1.3,.98-1.12,1.78,.11,.47,.43,.86,.88,1.05,5.77,2.37,16.2,5.81,21.19,2.1,7.16-5.34,9.39-8.31,9.85-9.92,.16-.79-.35-1.56-1.14-1.73-.22-.04-.44-.04-.66,.02Z"/><path class="cls-3" d="M182.84,148.42c-11.89-12.88-27.48-18.68-44.1-21.97-7.77-1.74-15.73-2.56-23.69-2.43h-1.13c-7.97-.13-15.92,.69-23.69,2.43-16.7,3.28-32.23,9.09-44.13,21.97-9.63,10.43-12.34,23.45-6.25,34.34,3.94,7.57,9.8,13.97,17,18.55,13.64,8.18,28.35,12.15,44.14,14.08,4.31,.52,8.65,.75,12.99,.69h1.13c4.34,.06,8.68-.17,12.99-.69,15.81-1.86,30.5-5.9,44.14-14.08,7.2-4.58,13.06-10.98,16.99-18.55,5.98-10.89,3.19-23.92-6.38-34.35h0Z"/><path class="cls-1" d="M176.25,146.82c-10.69-9.74-24.68-14.12-39.61-16.7-7.13-1.35-14.38-1.97-21.63-1.86h-1.06c-7.26-.12-14.52,.5-21.65,1.85-14.84,2.5-28.93,6.88-39.61,16.7-8.64,7.9-11.13,17.76-5.56,25.98,3.75,5.98,9.02,10.85,15.27,14.12,12.23,6.2,25.44,9.28,39.61,10.65,4.11,.41,8.23,.59,12.36,.52h.32c4.12,.07,8.24-.11,12.34-.52,14.17-1.45,27.38-4.45,39.63-10.65,6.24-3.28,11.51-8.15,15.27-14.12,5.42-8.22,3.08-18.07-5.66-25.98h0Z"/><path class="cls-4" d="M84.26,174.39c-6.75,3.3-12.99,0-14.25-7.42-1.3-8.01,9.48-27.05,11.95-12.65,2.47,14.4,13.53-5.73,13.6,3.28-.38,7.25-4.72,13.71-11.3,16.79Z"/><path class="cls-4" d="M185.64,145.84c-14.18-15.35-33.14-20.54-46.18-23.12h-.28c-6.82-1.53-13.78-2.33-20.76-2.41h-7.9c-6.99,.08-13.94,.89-20.76,2.41h-.28c-12.99,2.58-31.99,7.77-46.16,23.12-10.95,11.84-13.55,26.7-6.79,38.78,4.24,8.19,10.58,15.11,18.37,20.06,12.88,7.74,27.39,12.37,45.62,14.6,4.07,.49,8.17,.73,12.27,.72h3.38c4.1,0,8.2-.24,12.27-.72,18.26-2.23,32.75-6.87,45.62-14.6,7.8-4.94,14.14-11.86,18.37-20.06,6.77-12.08,4.16-26.94-6.77-38.78Zm.15,35.07c-3.6,7.02-8.99,12.97-15.64,17.22-11.93,7.18-25.47,11.49-42.67,13.58-4.14,.49-8.3,.7-12.47,.65h-1.13c-4.17,.05-8.33-.16-12.47-.65-17.16-2.1-30.71-6.4-42.67-13.58-6.65-4.26-12.05-10.21-15.64-17.24-5.18-9.28-3.04-20.41,5.72-29.91,9.78-10.58,22.75-17,42.06-20.82h.3c7.57-1.7,15.32-2.48,23.08-2.32h.3c7.76-.16,15.52,.62,23.1,2.32h.28c19.31,3.82,32.29,10.24,42.06,20.82,8.83,9.5,10.97,20.67,5.81,29.93Z"/><path class="cls-4" d="M144.67,174.39c6.75,3.3,12.99,0,14.25-7.42,1.32-8.01-9.46-27.05-11.95-12.65-2.49,14.4-13.53-5.73-13.6,3.28,.39,7.25,4.73,13.7,11.3,16.79Z"/><path class="cls-4" d="M345.41,74.57l-22.82,28.04c-4.69-4.95-8.79-8.12-12.32-9.52-2.85-1.33-6.06-1.68-9.13-.98-2.6,.77-4.87,2.37-6.46,4.57-1.65,2.18-3.05,4.54-4.17,7.03-1.23,3-2.18,6.11-2.86,9.28,0,.17,.19,1.3,.58,3.39,.54,2.46,1.47,4.81,2.75,6.98,1.38,2.47,3.53,4.43,6.12,5.57,2.65,1.24,6.26,1.06,10.83-.52,4.58-1.58,10.2-5.45,16.89-11.6l25.42,27.13c-1.71,2.99-4.02,5.6-6.77,7.68-3.55,2.82-7.4,5.23-11.49,7.18-4.68,2.26-9.57,4.07-14.6,5.4-5.3,1.44-10.75,2.27-16.23,2.49-5.49,.21-10.98-.38-16.29-1.76-5.39-1.4-10.44-3.89-14.84-7.31-5.99-4.43-10.94-10.13-14.47-16.7-3.04-5.84-4.93-12.22-5.57-18.78-.61-6.47-.1-13,1.5-19.3,1.54-6.29,3.82-12.37,6.77-18.13,2.8-5.49,6.25-10.61,10.3-15.25,3.52-4.13,7.58-7.78,12.06-10.83,3.1-1.75,6.38-3.17,9.78-4.23,3.52-.99,7.12-1.65,10.76-1.95,4.51-.37,9.05,.03,13.43,1.17,5.35,1.39,10.46,3.62,15.12,6.59,5.99,3.9,11.3,8.75,15.72,14.38h0Z"/><path class="cls-4" d="M430.56,117.6c.89,5.56,.6,11.25-.85,16.7-1.33,4.99-3.68,9.65-6.9,13.69-3.26,4.03-7.3,7.35-11.87,9.78-4.93,2.62-10.29,4.32-15.83,5.03-5.56,.79-11.21,.6-16.7-.54-5.1-1.03-9.94-3.09-14.21-6.05-4.22-2.97-7.78-6.8-10.43-11.23-2.88-4.84-4.7-10.25-5.34-15.85-.89-5.56-.6-11.25,.83-16.7,1.36-5,3.71-9.68,6.92-13.75,3.24-4.06,7.28-7.41,11.86-9.85,4.93-2.62,10.3-4.32,15.84-5.01,5.55-.8,11.21-.62,16.7,.52,5.08,1.05,9.89,3.11,14.16,6.07,4.24,2.98,7.79,6.82,10.43,11.28,2.85,4.88,4.69,10.29,5.4,15.9h0Zm-54.77,11.13c1.24,3.16,3.82,5.61,7.05,6.66,3.65,1,7.55,.63,10.95-1.06,3.52-1.3,6.45-3.83,8.28-7.11,1.53-2.99,1.6-6.52,.2-9.57-1.28-3.11-3.85-5.51-7.03-6.59-3.61-1.06-7.48-.7-10.83,.98-3.58,1.29-6.56,3.83-8.41,7.16-1.51,2.96-1.58,6.44-.2,9.46v.06Zm87.76-8.93l7.42-33.77,20.41-1.56,7.7,35.72h.26l7.68-36.89,28.43,2.34-20.08,75.24-27,2.1-7.29-36.38h-.26l-7.42,34.29-26.74,2.23-20.41-77.47,29.21-2.34,7.7,36.5h.39Z"/><path class="cls-4" d="M587.62,96.99c2.82,1.28,5.58,2.68,8.29,4.17,2.81,1.56,5.39,3.5,7.68,5.75,5.22,5.13,8.19,12.11,8.28,19.43,.38,5.62-.65,11.24-2.99,16.37-2.22,4.69-5.51,8.79-9.59,11.99-4.43,3.42-9.47,5.99-14.84,7.57-6.02,1.83-12.26,2.86-18.55,3.06-3.14,.09-6.28-.06-9.39-.46-3.21-.38-6.39-.97-9.52-1.74-3.09-.78-6.14-1.72-9.13-2.82-2.83-1.02-5.62-2.18-8.35-3.45l9.91-27.83c1.58,.64,3.14,1.32,4.69,2.02,1.91,.87,3.87,1.63,5.86,2.28,2.15,.71,4.33,1.33,6.53,1.86,2.18,.51,4.41,.72,6.64,.65,2.79-.09,5.55-.67,8.14-1.71,2.04-.69,3.37-2.67,3.21-4.82-.09-1.46-.96-2.75-2.28-3.38-1.67-.9-3.39-1.69-5.16-2.36-1.3-.35-3.03-.82-5.16-1.43-2.33-.68-4.62-1.52-6.85-2.49-2.55-1.08-5.03-2.32-7.42-3.71-2.48-1.49-4.76-3.29-6.77-5.36-2.08-2.12-3.79-4.56-5.08-7.23-1.4-2.95-2.14-6.18-2.15-9.44-.28-5.59,.8-11.16,3.14-16.24,2.2-4.66,5.36-8.79,9.28-12.13,4.03-3.41,8.67-6.02,13.68-7.68,5.39-1.81,11.02-2.85,16.7-3.08,5.44-.26,10.9,.03,16.29,.85,5.19,.78,10.27,2.16,15.14,4.12l-7.7,30.11c-3.13-1.35-6.3-2.58-9.52-3.71-3.26-1.09-6.62-1.86-10.04-2.28-1.51-.2-3.04-.29-4.57-.26-1.82,0-3.64,.19-5.42,.57-1.64,.32-3.21,.95-4.62,1.86-1.28,.8-2.07,2.2-2.1,3.71,0,.68,.38,1.31,.98,1.63,.74,.42,1.53,.73,2.36,.91,.92,.22,1.86,.4,2.8,.52l2.34,.33c2.52,.52,5.21,1.13,8.09,1.86,2.44,.44,4.84,1.11,7.16,2h0Z"/><path class="cls-4" d="M643.28,119.81l7.42-33.77,20.41-1.56,7.7,35.72h.26l7.68-36.89,28.43,2.34-19.95,75.24-27,2.1-7.29-36.38h-.26l-7.42,34.29-26.72,2.23-20.41-77.47,29.21-2.34,7.7,36.5h.24Zm114.55,33.79h-.26c-2.18,3.18-5.3,5.59-8.92,6.9-3.75,1.29-7.7,1.92-11.67,1.85-3.39,.02-6.75-.61-9.91-1.85-3.08-1.23-5.87-3.08-8.22-5.42-2.38-2.44-4.27-5.32-5.57-8.48-1.44-3.53-2.14-7.32-2.08-11.13-.04-3.4,.67-6.76,2.08-9.85,1.36-2.96,3.29-5.62,5.68-7.83,2.46-2.26,5.33-4.03,8.46-5.21,3.4-1.27,7-1.9,10.63-1.85,3.45-.1,6.89,.5,10.11,1.76,2.48,1.04,4.83,2.37,6.98,3.99v-3.91c0-4.01-1.3-6.66-3.91-7.96-3.2-1.42-6.67-2.09-10.17-1.95-3.6-.03-7.18,.37-10.69,1.17-3.3,.78-6.65,1.7-10.06,2.75l5.1-20.74c4.25-1.22,8.59-2.08,12.99-2.54,4.59-.49,9.21-.73,13.82-.72,4.22,0,8.42,.5,12.52,1.5,3.87,.91,7.53,2.57,10.76,4.9,3.13,2.29,5.67,5.28,7.42,8.74,1.93,4.1,2.83,8.62,2.6,13.15l-1.43,49.3-26.22,2.21-.06-8.76h0Zm-16.55-24.12c-2.68,.32-5.21,1.39-7.31,3.08-1.74,1.22-2.69,3.28-2.47,5.4,.36,2.05,1.77,3.76,3.71,4.51,2.63,1.05,5.51,1.29,8.28,.7,2.8-.25,5.45-1.39,7.57-3.25,1.54-1.33,2.28-3.36,1.95-5.36-.4-1.84-1.62-3.4-3.32-4.23-2.62-1.25-5.59-1.55-8.41-.85Zm80.84-44.99v8.87c2.43-2.77,5.37-5.05,8.66-6.72,3.38-1.51,7.06-2.25,10.76-2.15,4.98-.06,9.89,1.13,14.29,3.45,4.23,2.24,7.95,5.33,10.95,9.06,3.04,3.81,5.4,8.12,6.98,12.73,1.64,4.62,2.48,9.49,2.49,14.4,.01,5.14-.87,10.24-2.62,15.07-1.68,4.69-4.19,9.04-7.42,12.84-3.16,3.73-7.04,6.79-11.41,9-4.52,2.29-9.53,3.45-14.6,3.4-2.93-.03-5.84-.42-8.66-1.17-3.13-.81-5.99-2.43-8.29-4.69l.8,25.98-27.52,2.35-1.45-100.03,27.05-2.37h0Zm17.83,50.56c3.52-1.46,6.34-4.22,7.89-7.7,1.34-2.95,1.32-6.33-.06-9.26-1.38-2.93-3.98-5.1-7.11-5.94-3.66-.97-7.55-.52-10.89,1.24-3.57,1.48-6.46,4.25-8.09,7.75-1.38,2.95-1.34,6.37,.13,9.28,.67,1.44,1.65,2.71,2.88,3.71,1.24,1.01,2.68,1.75,4.23,2.15,1.7,.44,3.47,.57,5.21,.39,2.02-.2,3.98-.75,5.81-1.63Z"/></svg>