<svg width="116" height="98" viewBox="0 0 116 98" fill="none" xmlns="http://www.w3.org/2000/svg">
<path d="M59.3849 55.24H93.0986C93.817 55.24 94.1568 55.24 94.209 54.3043C94.4847 50.8951 94.4847 47.4694 94.209 44.0602C94.209 43.3969 93.8766 43.123 93.1538 43.123H26.0603C25.2301 43.123 25.0065 43.3969 25.0065 44.1713V53.9741C25.0065 55.24 25.0065 55.24 26.336 55.24H59.3849ZM90.4441 31.6649C90.5396 31.4176 90.5396 31.1439 90.4441 30.8965C89.8849 29.6808 89.2139 28.5191 88.4395 27.4261C87.277 25.5649 85.8995 23.8451 84.3348 22.3018C83.5982 21.3674 82.7402 20.534 81.7832 19.8233C76.9827 15.7643 71.2811 12.8949 65.147 11.4507C62.0533 10.7621 58.8902 10.4293 55.72 10.4587H25.944C25.1139 10.4587 25.0021 10.7874 25.0021 11.5055V31.0594C25.0021 31.884 25.0021 32.1061 26.0558 32.1061H90.0447C90.0447 32.1061 90.5992 31.9951 90.7109 31.662H90.4441V31.6649ZM90.4441 66.6981C89.5031 66.5947 88.5534 66.5947 87.6123 66.6981H26.1169C25.2867 66.6981 25.008 66.6981 25.008 67.8012V86.9168C25.008 87.8051 25.008 88.0198 26.1169 88.0198H54.5067C55.8613 88.1215 57.2236 88.0293 58.5518 87.7459C62.6727 87.4537 66.7282 86.5622 70.5886 85.1001C71.9972 84.6165 73.3526 83.9914 74.6336 83.2346H75.0211C81.6728 79.8017 87.0809 74.3932 90.4918 67.7627C90.4918 67.7627 90.8793 66.9306 90.4441 66.7115V66.6981ZM13.8625 97.9382V67.471C13.8625 66.7529 13.8625 66.6463 12.9757 66.6463H0.943446C0.275731 66.6463 0 66.6463 0 65.758V55.2992H12.864C13.5838 55.2992 13.8625 55.2992 13.8625 54.3635V44.0084C13.8625 43.3451 13.8625 43.1837 12.9757 43.1837H0.943446C0.275731 43.1837 0 43.1837 0 42.2954V32.6095C0 32.0025 -4.26417e-07 31.8396 0.886809 31.8396H12.8103C13.6405 31.8396 13.864 31.8396 13.864 30.7929V1.10303C13.864 0.222087 13.864 0 14.9744 0H56.5576C59.5718 0.117525 62.5738 0.449033 65.5404 0.991983C71.6538 2.11669 77.5268 4.27775 82.9025 7.38063C86.4596 9.45997 89.7381 11.9771 92.6604 14.8723C94.8518 17.1353 96.8369 19.5869 98.5924 22.1982C100.336 24.8457 101.789 27.6715 102.925 30.627C102.993 30.9972 103.205 31.3259 103.515 31.5425C103.824 31.7591 104.207 31.8461 104.581 31.7848H114.5C115.773 31.7848 115.773 31.7849 115.829 32.9974V42.0289C115.829 42.9084 115.498 43.1304 114.607 43.1304H106.957C106.182 43.1304 105.958 43.1305 106.015 44.1224C106.317 47.4751 106.317 50.848 106.015 54.2007C106.015 55.1364 106.015 55.2474 107.073 55.2474H115.828C116.215 55.7434 115.828 56.2394 115.828 56.7384C115.884 57.3787 115.884 58.0228 115.828 58.6631V65.3257C115.828 66.2629 115.552 66.5397 114.719 66.5397H104.238C103.886 66.4741 103.521 66.5464 103.221 66.7415C102.921 66.9366 102.709 67.2393 102.628 67.5865C100.131 74.0348 96.1414 79.8091 90.9822 84.4428C89.0971 86.1327 87.1166 87.7145 85.0503 89.1806C82.8295 90.4494 80.6699 91.7701 78.394 92.8168C74.2049 94.6863 69.8137 96.0719 65.3064 96.9462C61.0246 97.7048 56.6796 98.0553 52.3307 97.9929H13.8462V97.9367L13.8625 97.9382Z" fill="url(#paint0_linear_138_25)"/>
<defs>
<linearGradient id="paint0_linear_138_25" x1="-8" y1="16" x2="103.5" y2="98" gradientUnits="userSpaceOnUse">
<stop stop-color="#940DFF"/>
<stop offset="1" stop-color="#448FFF"/>
</linearGradient>
</defs>
</svg>
