<svg width="27" height="26" viewBox="0 0 27 26" fill="none" xmlns="http://www.w3.org/2000/svg">
<mask id="path-1-inside-1" fill="white">
<path fill-rule="evenodd" clip-rule="evenodd" d="M3.2354 0H12.5461C18.2096 0 22.5026 3.43798 24.0997 8.44065H27V11.4643H24.7104C24.7552 11.9422 24.7781 12.4289 24.7781 12.9235V12.9978C24.7781 13.5546 24.7492 14.102 24.6926 14.6381H27V17.6617H24.0445C22.4053 22.5948 18.1456 26 12.5461 26H3.2354V17.6617H0V14.6381H3.2354V11.4643H0V8.44065H3.2354V0ZM5.83832 17.6617V23.2875H12.5461C16.6855 23.2875 19.7609 21.0343 21.1925 17.6617H5.83832ZM21.9899 14.6381H5.83832V11.4643H21.994C22.0539 11.9638 22.0844 12.4758 22.0844 12.9978V13.072C22.0844 13.6061 22.0525 14.1289 21.9899 14.6381ZM12.5461 2.70799C16.7046 2.70799 19.7892 5.02064 21.2121 8.44065H5.83832V2.70799H12.5461Z"/>
</mask>
<path d="M3.2354 0V-12.1193H-8.88385V0H3.2354ZM24.0997 8.44065L12.5545 12.1265L15.2469 20.5599H24.0997V8.44065ZM27 8.44065H39.1193V-3.67861H27V8.44065ZM27 11.4643V23.5836H39.1193V11.4643H27ZM24.7104 11.4643V-0.654923H11.4015L12.6441 12.5959L24.7104 11.4643ZM24.6926 14.6381L12.6404 13.3651L11.2258 26.7573H24.6926V14.6381ZM27 14.6381H39.1193V2.51882H27V14.6381ZM27 17.6617V29.781H39.1193V17.6617H27ZM24.0445 17.6617V5.54248H15.3007L12.5435 13.8402L24.0445 17.6617ZM3.2354 26H-8.88385V38.1193H3.2354V26ZM3.2354 17.6617H15.3547V5.54248H3.2354V17.6617ZM0 17.6617H-12.1193V29.781H0V17.6617ZM0 14.6381V2.51882H-12.1193V14.6381H0ZM3.2354 14.6381V26.7573H15.3547V14.6381H3.2354ZM3.2354 11.4643H15.3547V-0.654923H3.2354V11.4643ZM0 11.4643H-12.1193V23.5836H0V11.4643ZM0 8.44065V-3.67861H-12.1193V8.44065H0ZM3.2354 8.44065V20.5599H15.3547V8.44065H3.2354ZM5.83832 17.6617V5.54248H-6.28094V17.6617H5.83832ZM5.83832 23.2875H-6.28094V35.4068H5.83832V23.2875ZM21.1925 17.6617L32.3483 22.3971L39.5027 5.54248H21.1925V17.6617ZM21.9899 14.6381V26.7573H32.7091L34.0184 16.1183L21.9899 14.6381ZM5.83832 14.6381H-6.28094V26.7573H5.83832V14.6381ZM5.83832 11.4643V-0.654923H-6.28094V11.4643H5.83832ZM21.994 11.4643L34.0271 10.0216L32.747 -0.654923H21.994V11.4643ZM21.2121 8.44065V20.5599H39.3809L32.4015 3.78514L21.2121 8.44065ZM5.83832 8.44065H-6.28094V20.5599H5.83832V8.44065ZM5.83832 2.70799V-9.41127H-6.28094V2.70799H5.83832ZM3.2354 12.1193H12.5461V-12.1193H3.2354V12.1193ZM12.5461 12.1193C12.5935 12.1193 12.6317 12.121 12.6614 12.1233C12.6911 12.1256 12.7129 12.1285 12.7276 12.1308C12.7423 12.133 12.7506 12.1349 12.7532 12.1356C12.7557 12.1362 12.7535 12.1357 12.747 12.1336C12.7405 12.1315 12.7307 12.128 12.7182 12.1227C12.7056 12.1174 12.6912 12.1108 12.6754 12.1026C12.6597 12.0944 12.6433 12.085 12.6267 12.0746C12.6101 12.0641 12.5941 12.0531 12.5787 12.0416C12.5633 12.0301 12.5493 12.0186 12.5367 12.0074C12.5241 11.9962 12.5134 11.9859 12.5045 11.9766C12.4865 11.9579 12.478 11.9461 12.4772 11.9449C12.4764 11.9438 12.4848 11.9556 12.4988 11.984C12.5128 12.0125 12.533 12.059 12.5545 12.1265L35.6449 4.75479C32.5198 -5.0337 23.7283 -12.1193 12.5461 -12.1193V12.1193ZM24.0997 20.5599H27V-3.67861H24.0997V20.5599ZM14.8807 8.44065V11.4643H39.1193V8.44065H14.8807ZM27 -0.654923H24.7104V23.5836H27V-0.654923ZM12.6441 12.5959C12.6533 12.6939 12.6589 12.803 12.6589 12.9235H36.8974C36.8974 12.0549 36.8572 11.1905 36.7767 10.3328L12.6441 12.5959ZM12.6589 12.9235V12.9978H36.8974V12.9235H12.6589ZM12.6589 12.9978C12.6589 13.1349 12.6517 13.2573 12.6404 13.3651L36.7448 15.9111C36.8467 14.9467 36.8974 13.9743 36.8974 12.9978H12.6589ZM24.6926 26.7573H27V2.51882H24.6926V26.7573ZM14.8807 14.6381V17.6617H39.1193V14.6381H14.8807ZM27 5.54248H24.0445V29.781H27V5.54248ZM12.5435 13.8402C12.5205 13.9094 12.4986 13.9588 12.4825 13.9908C12.4664 14.0228 12.4555 14.0387 12.4534 14.0416C12.4514 14.0445 12.4568 14.0364 12.4719 14.0209C12.4871 14.0052 12.5093 13.985 12.5385 13.9632C12.5679 13.9413 12.5999 13.9213 12.6324 13.9044C12.665 13.8874 12.6918 13.877 12.7089 13.8714C12.7261 13.8658 12.726 13.8675 12.7041 13.871C12.6821 13.8744 12.6308 13.8807 12.5461 13.8807V38.1193C23.6708 38.1193 32.3581 31.0755 35.5454 21.4833L12.5435 13.8402ZM12.5461 13.8807H3.2354V38.1193H12.5461V13.8807ZM15.3547 26V17.6617H-8.88385V26H15.3547ZM3.2354 5.54248H0V29.781H3.2354V5.54248ZM12.1193 17.6617V14.6381H-12.1193V17.6617H12.1193ZM0 26.7573H3.2354V2.51882H0V26.7573ZM15.3547 14.6381V11.4643H-8.88385V14.6381H15.3547ZM3.2354 -0.654923H0V23.5836H3.2354V-0.654923ZM12.1193 11.4643V8.44065H-12.1193V11.4643H12.1193ZM0 20.5599H3.2354V-3.67861H0V20.5599ZM15.3547 8.44065V0H-8.88385V8.44065H15.3547ZM-6.28094 17.6617V23.2875H17.9576V17.6617H-6.28094ZM5.83832 35.4068H12.5461V11.1683H5.83832V35.4068ZM12.5461 35.4068C21.686 35.4068 29.0707 30.1187 32.3483 22.3971L10.0366 12.9264C10.1703 12.6115 10.4983 12.1016 11.1239 11.6812C11.7744 11.2439 12.3523 11.1683 12.5461 11.1683V35.4068ZM21.1925 5.54248H5.83832V29.781H21.1925V5.54248ZM21.9899 2.51882H5.83832V26.7573H21.9899V2.51882ZM17.9576 14.6381V11.4643H-6.28094V14.6381H17.9576ZM5.83832 23.5836H21.994V-0.654923H5.83832V23.5836ZM9.96093 12.907C9.9623 12.9185 9.96519 12.9485 9.96519 12.9978H34.2037C34.2037 12.003 34.1455 11.0091 34.0271 10.0216L9.96093 12.907ZM9.96519 12.9978V13.072H34.2037V12.9978H9.96519ZM9.96519 13.072C9.96519 13.1231 9.96213 13.1514 9.96133 13.1578L34.0184 16.1183C34.1429 15.1065 34.2037 14.0891 34.2037 13.072H9.96519ZM12.5461 14.8272C12.3066 14.8272 11.7065 14.7356 11.0582 14.2918C10.4421 13.8699 10.1386 13.3746 10.0227 13.0961L32.4015 3.78514C29.1894 -3.93505 21.8324 -9.41127 12.5461 -9.41127V14.8272ZM21.2121 -3.67861H5.83832V20.5599H21.2121V-3.67861ZM17.9576 8.44065V2.70799H-6.28094V8.44065H17.9576ZM5.83832 14.8272H12.5461V-9.41127H5.83832V14.8272Z" fill="white" mask="url(#path-1-inside-1)"/>
</svg>
