<svg width="340" height="446" viewBox="0 0 340 446" fill="none" xmlns="http://www.w3.org/2000/svg">
<path fill-rule="evenodd" clip-rule="evenodd" d="M0 19.1006C0 8.54754 7.68434 0 17.1717 0H322.828C332.316 0 340 8.54754 340 19.1006V426.899C340 437.452 332.316 446 322.828 446H17.1717C7.68434 446 0 437.452 0 426.899V19.1006Z" fill="url(#paint0_linear_1891_17049)"/>
<path fill-rule="evenodd" clip-rule="evenodd" d="M268.78 69.7173C235.699 69.7173 202.085 77.1975 169.571 84.4414H169.519C137.005 91.6944 103.417 99.1746 70.3869 99.1746C44.6551 99.1655 21.6106 94.6483 0 85.3866V427.822C0 437.865 7.68434 446 17.1717 446H322.828C332.316 446 340 437.865 340 427.822V83.8233C318.149 74.3436 294.838 69.7173 268.78 69.7173Z" fill="url(#paint1_radial_1891_17049)"/>
<path fill-rule="evenodd" clip-rule="evenodd" d="M269.192 86.908H269.184C236.326 86.908 202.935 94.0932 170.644 101.043H170.592C138.292 108.01 104.945 115.195 72.1298 115.195C45.7283 115.195 22.1601 110.578 0.0858586 101.07L0 101.034V427.855C0 437.88 7.68434 446 17.1717 446H322.828C332.316 446 340 437.88 340 427.855V100.489C318.278 91.3625 295.096 86.908 269.192 86.908Z" fill="white"/>
<path d="M142.018 360.114H153.711V356.727H145.485V337.755H142.018V360.114Z" fill="#293147"/>
<path d="M159.81 343.439H156.445V360.114H159.81V343.439ZM158.144 340.691C159.266 340.691 160.252 339.637 160.252 338.357C160.252 337.077 159.266 336.061 158.144 336.061C156.989 336.061 156.003 337.077 156.003 338.357C156.003 339.637 156.989 340.691 158.144 340.691Z" fill="#293147"/>
<path d="M177.066 344.304C175.537 343.589 173.429 343.062 171.355 343.062C166.019 343.062 162.688 346.45 162.688 351.795C162.688 357.329 166.019 360.491 170.88 360.491C172.07 360.491 173.157 360.227 173.735 359.964V366.89H177.066V344.304ZM173.735 356.727C172.885 357.065 172.171 357.254 171.084 357.254C168.058 357.254 166.087 355.108 166.087 351.795C166.087 348.332 168.092 346.375 171.355 346.375C172.273 346.375 173.055 346.563 173.735 346.789V356.727Z" fill="#293147"/>
<path d="M193.246 343.439H189.915V357.178C189.031 357.329 188.079 357.404 187.332 357.404C185.122 357.404 183.762 356.501 183.762 354.016V343.439H180.431V354.28C180.431 358.948 183.082 360.491 187.4 360.491C189.167 360.491 191.478 360.227 193.246 359.738V343.439Z" fill="#293147"/>
<path d="M200.924 343.439H197.559V360.114H200.924V343.439ZM199.259 340.691C200.38 340.691 201.366 339.637 201.366 338.357C201.366 337.077 200.38 336.061 199.259 336.061C198.103 336.061 197.117 337.077 197.117 338.357C197.117 339.637 198.103 340.691 199.259 340.691Z" fill="#293147"/>
<path d="M203.475 346.563H205.753V355.334C205.753 359.136 207.826 360.491 210.274 360.491C211.701 360.491 212.925 360.152 213.911 359.587V356.237C212.993 356.84 212.143 357.178 211.158 357.178C209.866 357.178 209.084 356.501 209.084 354.506V346.563H213.367V343.439H209.084V339.373H205.753V343.439H203.475V346.563Z" fill="#293147"/>
<path d="M218.122 343.439H214.519L220.74 360.867L218.632 366.89H221.929L230.087 343.439H226.62L222.405 356.576L218.122 343.439Z" fill="#293147"/>
<path d="M111.25 367.75C119.811 367.75 126.751 359.999 126.751 350.437C126.751 340.876 119.811 333.125 111.25 333.125C102.688 333.125 95.748 340.876 95.748 350.437C95.748 359.999 102.688 367.75 111.25 367.75Z" fill="#2EB6EA"/>
<path d="M111.165 367.75C95.7477 367.75 89.6629 345.098 103.281 335.552C101.662 354.484 110.277 354.903 118.271 354.484C131.667 353.782 131.676 367.75 131.676 367.75H111.165Z" fill="#1542CD"/>
<path d="M245.077 268.394C245.077 265.935 243.744 264.083 241.637 264.083C239.53 264.083 238.197 265.935 238.197 268.394C238.197 270.853 239.53 272.705 241.637 272.705C243.744 272.705 245.077 270.853 245.077 268.394ZM244.977 262.433V255.99C244.977 255.569 245.235 255.196 245.622 255.087L248.761 254.169V275.958H245.278V274.106C244.404 275.491 242.827 276.3 240.849 276.3C236.807 276.3 234.428 272.767 234.428 268.378C234.428 263.989 236.793 260.456 240.849 260.456C242.813 260.456 244.26 261.375 244.977 262.417V262.433ZM223.52 260.814V262.666C224.165 261.359 225.598 260.472 227.677 260.472C231.031 260.472 232.822 262.9 232.822 266.511V275.973H229.038V266.977C229.038 265.219 228.35 263.989 226.673 263.989C224.839 263.989 223.821 265.265 223.821 267.289V275.958H220.037V260.814H223.52V260.814ZM211.193 276.316C207.122 276.316 204.858 274.401 204.858 269.483V260.799H208.642V269.53C208.642 271.646 209.516 272.627 211.193 272.627C212.87 272.627 213.744 271.646 213.744 269.53V260.799H217.529V269.468C217.529 274.386 215.264 276.3 211.193 276.3V276.316ZM192.359 268.394C192.359 271.117 193.907 272.705 195.899 272.705C197.892 272.705 199.44 271.117 199.44 268.394C199.44 265.67 197.892 264.083 195.899 264.083C193.907 264.083 192.359 265.67 192.359 268.394ZM195.899 276.316C191.427 276.316 188.575 272.705 188.575 268.394C188.575 264.083 191.427 260.472 195.899 260.472C200.371 260.472 203.224 264.083 203.224 268.394C203.224 272.705 200.371 276.316 195.899 276.316ZM177.051 268.394C177.051 270.853 178.384 272.705 180.491 272.705C182.598 272.705 183.931 270.853 183.931 268.394C183.931 265.935 182.598 264.083 180.491 264.083C178.384 264.083 177.051 265.935 177.051 268.394ZM177.166 274.355V280.658C177.166 281.078 176.908 281.451 176.521 281.56L173.382 282.463V260.814H176.865V262.666C177.739 261.281 179.316 260.472 181.294 260.472C185.336 260.472 187.715 264.005 187.715 268.394C187.715 272.783 185.35 276.316 181.294 276.316C179.316 276.316 177.882 275.397 177.166 274.355V274.355ZM162.144 267.351V275.973H158.36V266.977C158.36 265.297 157.801 263.989 156.124 263.989C154.447 263.989 153.401 265.234 153.401 267.258V275.973H149.617V260.814H153.1V262.666C153.745 261.359 155.121 260.472 157.128 260.472C159.02 260.472 160.381 261.281 161.17 262.604C162.402 261.126 163.807 260.472 165.799 260.472C169.153 260.472 170.859 262.993 170.859 266.511V275.973H167.075V266.977C167.075 265.297 166.516 263.989 164.839 263.989C163.047 263.989 162.13 265.234 162.13 267.351H162.144ZM137.003 268.394C137.003 271.117 138.551 272.705 140.544 272.705C142.536 272.705 144.084 271.117 144.084 268.394C144.084 265.67 142.536 264.083 140.544 264.083C138.551 264.083 137.003 265.67 137.003 268.394V268.394ZM140.544 276.316C136.072 276.316 133.219 272.705 133.219 268.394C133.219 264.083 136.072 260.472 140.544 260.472C145.016 260.472 147.868 264.083 147.868 268.394C147.868 272.705 145.016 276.316 140.544 276.316ZM113.597 265.67C113.597 259.258 117.668 254.994 123.1 254.994C127.816 254.994 131.542 258.028 132.259 263.04H128.102C127.543 260.472 125.623 259.025 123.1 259.025C119.631 259.025 117.696 261.624 117.696 265.67C117.696 269.717 119.646 272.316 123.1 272.316C125.623 272.316 127.543 270.868 128.102 268.3H132.259C131.542 273.296 127.816 276.347 123.1 276.347C117.668 276.347 113.597 272.098 113.597 265.686V265.67Z" fill="#0C0C0C"/>
<path fill-rule="evenodd" clip-rule="evenodd" d="M76.373 277.234C75.4126 276.596 74.825 275.46 74.825 274.23V267.398C74.825 267.133 74.8966 266.884 75.0113 266.666C75.384 265.966 76.2153 265.733 76.8603 266.137L91.0647 275.133C91.8961 275.662 92.4121 276.627 92.4121 277.67V284.751C92.4121 285.078 92.3261 285.389 92.1684 285.669C91.6954 286.494 90.7064 286.759 89.9324 286.261L76.373 277.234ZM97.5578 264.254C98.3891 264.783 98.9051 265.748 98.9051 266.791V281.156C98.9051 281.576 98.6901 281.981 98.3604 282.183L95.2501 284.082C95.2501 284.082 95.1641 284.129 95.1211 284.144V276.16C95.1211 275.133 94.6194 274.168 93.8024 273.639L81.318 265.546V256.535C81.318 256.27 81.3897 256.021 81.5043 255.803C81.877 255.103 82.7083 254.869 83.3533 255.274L97.5578 264.27V264.254ZM103.778 253.64C104.61 254.169 105.126 255.134 105.126 256.177V277.172C105.126 277.608 104.911 277.997 104.552 278.199L101.6 279.926V265.328C101.6 264.301 101.098 263.336 100.281 262.807L87.5387 254.496V245.951C87.5387 245.687 87.6104 245.438 87.725 245.22C88.0977 244.52 88.929 244.286 89.574 244.691L103.778 253.655V253.64Z" fill="#00D395"/>
<path fill-rule="evenodd" clip-rule="evenodd" d="M125.902 356.101C123.57 362.777 117.835 367.551 111.078 367.763C111.237 367.768 111.397 367.771 111.557 367.771H131.94C131.94 367.771 131.935 359.584 125.902 356.101Z" fill="#745DDF"/>
<path d="M180.863 195.511L168.75 161.674C168.655 161.365 168.604 161.04 168.601 160.713C168.578 160.019 168.791 159.342 169.196 158.827C169.404 158.582 169.655 158.392 169.932 158.268C170.209 158.144 170.505 158.09 170.802 158.109C171.252 158.115 171.689 158.282 172.052 158.588C172.433 158.914 172.731 159.352 172.915 159.856L184.433 192.974L195.952 159.856C196.135 159.352 196.433 158.914 196.814 158.588C197.177 158.282 197.614 158.115 198.064 158.109C198.361 158.089 198.658 158.143 198.935 158.267C199.212 158.391 199.463 158.582 199.671 158.827C200.076 159.342 200.29 160.019 200.266 160.713C200.263 161.04 200.212 161.364 200.117 161.672L188.005 195.511C187.322 197.26 186.308 198.124 184.969 198.124H183.898C182.559 198.117 181.547 197.26 180.863 195.511Z" fill="url(#paint2_linear_1891_17049)"/>
<path d="M205.414 197.088C205.209 196.849 205.047 196.565 204.94 196.253C204.832 195.94 204.781 195.606 204.789 195.27V160.987C204.778 160.3 205.003 159.635 205.414 159.137C205.616 158.89 205.861 158.696 206.133 158.568C206.405 158.439 206.697 158.378 206.991 158.39H226.663C226.942 158.381 227.218 158.441 227.475 158.565C227.731 158.689 227.962 158.874 228.151 159.109C228.353 159.329 228.513 159.596 228.621 159.891C228.728 160.186 228.781 160.504 228.777 160.825C228.784 161.14 228.732 161.454 228.624 161.744C228.516 162.034 228.355 162.293 228.151 162.505C227.752 162.947 227.217 163.19 226.663 163.18H209.254V175.663H224.907C225.185 175.654 225.462 175.714 225.718 175.838C225.975 175.962 226.205 176.148 226.394 176.383C226.594 176.605 226.753 176.871 226.86 177.166C226.968 177.46 227.022 177.777 227.02 178.097C227.027 178.412 226.975 178.726 226.867 179.016C226.759 179.306 226.598 179.565 226.394 179.777C226.198 179.998 225.966 180.173 225.71 180.291C225.455 180.408 225.182 180.466 224.907 180.462H209.254V193.009H226.663C226.942 193 227.219 193.059 227.475 193.183C227.732 193.308 227.962 193.494 228.151 193.73C228.353 193.95 228.513 194.216 228.621 194.511C228.729 194.806 228.782 195.123 228.777 195.443C228.784 195.759 228.732 196.072 228.624 196.363C228.516 196.653 228.355 196.912 228.151 197.123C227.754 197.57 227.219 197.816 226.663 197.809H206.991C206.698 197.833 206.404 197.782 206.131 197.657C205.858 197.532 205.613 197.338 205.414 197.088V197.088Z" fill="url(#paint3_linear_1891_17049)"/>
<path d="M171.488 194.551L159.377 160.713C158.695 158.965 157.675 158.109 156.342 158.109H155.269C153.929 158.109 152.917 158.965 152.233 160.722L146.965 175.469H142.978C142.403 175.472 141.852 175.737 141.445 176.206C141.039 176.675 140.809 177.309 140.805 177.972V178.005C140.808 178.668 141.038 179.303 141.445 179.772C141.852 180.24 142.403 180.505 142.978 180.508H145.121L140.097 194.564C140.001 194.872 139.951 195.197 139.948 195.524C139.924 196.218 140.137 196.895 140.543 197.409C140.75 197.654 141.001 197.846 141.279 197.97C141.556 198.094 141.853 198.149 142.15 198.13C142.6 198.122 143.036 197.954 143.4 197.65C143.781 197.323 144.079 196.885 144.263 196.381L149.798 180.514H153.605C154.18 180.51 154.731 180.245 155.137 179.777C155.544 179.308 155.774 178.674 155.778 178.011V177.927C155.775 177.264 155.545 176.629 155.138 176.161C154.731 175.692 154.18 175.427 153.605 175.424H151.546L155.804 163.253L167.321 196.371C167.504 196.875 167.802 197.313 168.183 197.639C168.547 197.945 168.984 198.113 169.434 198.118C169.731 198.138 170.028 198.083 170.305 197.959C170.582 197.835 170.833 197.645 171.04 197.4C171.446 196.885 171.659 196.207 171.635 195.513C171.648 195.184 171.598 194.855 171.488 194.551V194.551Z" fill="url(#paint4_linear_1891_17049)"/>
<path d="M135.3 194.552L123.189 160.713C122.509 158.966 121.491 158.109 120.151 158.109H119.08C117.741 158.109 116.73 158.966 116.044 160.722L110.777 175.469H106.789C106.214 175.473 105.663 175.738 105.257 176.207C104.85 176.675 104.62 177.309 104.616 177.972V178.006C104.623 178.666 104.854 179.297 105.261 179.762C105.667 180.228 106.216 180.491 106.789 180.496H108.932L103.908 194.552C103.812 194.86 103.762 195.184 103.759 195.511C103.734 196.205 103.948 196.882 104.353 197.396C104.561 197.642 104.812 197.833 105.09 197.957C105.367 198.081 105.664 198.136 105.961 198.117C106.411 198.109 106.847 197.942 107.211 197.637C107.591 197.31 107.89 196.872 108.074 196.368L113.609 180.501H117.443C118.018 180.497 118.569 180.232 118.976 179.764C119.383 179.295 119.613 178.661 119.616 177.998V177.927C119.613 177.264 119.383 176.63 118.976 176.161C118.569 175.692 118.018 175.427 117.443 175.424H115.39L119.616 163.252L131.134 196.368C131.317 196.873 131.616 197.311 131.997 197.637C132.361 197.942 132.797 198.109 133.247 198.117C133.544 198.135 133.841 198.081 134.118 197.956C134.395 197.832 134.646 197.641 134.854 197.396C135.259 196.882 135.473 196.205 135.449 195.511C135.46 195.183 135.409 194.855 135.3 194.552V194.552Z" fill="url(#paint5_linear_1891_17049)"/>
<path d="M54.074 36.4296L50.5659 46.7859H48.6252L45.1172 36.4296V46.7859H42.8966V33.388H46.1808L49.6329 43.651L53.085 33.388H56.2945V46.7859H54.074V36.4296ZM66.8657 38.2956C67.2762 38.7434 67.5872 39.2783 67.7987 39.9003C68.0102 40.5099 68.1159 41.1754 68.1159 41.897C68.1159 42.6185 68.0102 43.2902 67.7987 43.9122C67.5872 44.5218 67.2762 45.0505 66.8657 45.4983C66.4303 45.9835 65.914 46.3567 65.3169 46.6179C64.7322 46.8667 64.0916 46.9911 63.3949 46.9911C62.6983 46.9911 62.0514 46.8667 61.4543 46.6179C60.8696 46.3567 60.3596 45.9835 59.9242 45.4983C59.5136 45.0505 59.2026 44.5218 58.9912 43.9122C58.7797 43.2902 58.6739 42.6185 58.6739 41.897C58.6739 41.1754 58.7797 40.5099 58.9912 39.9003C59.2026 39.2783 59.5136 38.7434 59.9242 38.2956C60.3596 37.8104 60.8696 37.4434 61.4543 37.1946C62.0514 36.9334 62.6983 36.8028 63.3949 36.8028C64.0916 36.8028 64.7322 36.9334 65.3169 37.1946C65.914 37.4434 66.4303 37.8104 66.8657 38.2956ZM63.3949 38.6874C62.6361 38.6874 62.0327 38.9736 61.5849 39.5458C61.1495 40.118 60.9318 40.9018 60.9318 41.897C60.9318 42.8922 61.1495 43.6759 61.5849 44.2481C62.0327 44.8204 62.6361 45.1065 63.3949 45.1065C64.1538 45.1065 64.7509 44.8204 65.1863 44.2481C65.6341 43.6759 65.858 42.8922 65.858 41.897C65.858 40.9018 65.6341 40.118 65.1863 39.5458C64.7509 38.9736 64.1538 38.6874 63.3949 38.6874ZM75.3449 36.9334C75.4444 36.9334 75.5439 36.9396 75.6435 36.9521C75.743 36.9521 75.8549 36.9583 75.9793 36.9707V39.2099C75.8301 39.185 75.6932 39.1726 75.5688 39.1726C75.4444 39.1602 75.3076 39.1539 75.1583 39.1539C74.4119 39.1539 73.8086 39.3841 73.3483 39.8444C72.888 40.2922 72.6579 40.8893 72.6579 41.6357V46.7859H70.4187V36.9894H72.6579V38.4449C72.8818 37.9846 73.2301 37.6176 73.7028 37.3439C74.188 37.0702 74.7353 36.9334 75.3449 36.9334ZM81.754 46.9911C81.0574 46.9911 80.4105 46.8667 79.8134 46.6179C79.2163 46.3567 78.7 45.9897 78.2646 45.517C77.8541 45.0567 77.5369 44.5218 77.3129 43.9122C77.1015 43.2902 76.9957 42.6185 76.9957 41.897C76.9957 41.2128 77.1015 40.5659 77.3129 39.9563C77.5369 39.3343 77.8479 38.7932 78.2459 38.3329C78.6813 37.8353 79.1914 37.4559 79.7761 37.1946C80.3607 36.9334 80.989 36.8028 81.6607 36.8028C82.9918 36.8028 84.0492 37.2506 84.8329 38.1463C85.6166 39.0295 86.0085 40.1927 86.0085 41.6357V42.3821H79.1416C79.2287 43.2156 79.5024 43.8749 79.9627 44.3601C80.4354 44.8452 81.0325 45.0878 81.754 45.0878C82.3138 45.0878 82.7928 44.951 83.1908 44.6773C83.6014 44.3912 83.8813 44.0055 84.0305 43.5204L85.9525 44.2481C85.6042 45.1065 85.0568 45.7782 84.3104 46.2634C83.5765 46.7486 82.7243 46.9911 81.754 46.9911ZM81.6421 38.6874C81.0449 38.6874 80.5349 38.8616 80.1119 39.2099C79.7014 39.5582 79.4153 40.0558 79.2536 40.7027H83.7506C83.7382 40.0932 83.5454 39.608 83.1722 39.2472C82.799 38.874 82.2889 38.6874 81.6421 38.6874ZM100.938 45.4237C100.553 45.9337 100.08 46.3256 99.5201 46.5993C98.9727 46.8605 98.3694 46.9911 97.7101 46.9911C97.1254 46.9911 96.5905 46.8854 96.1053 46.6739C95.6326 46.4624 95.2283 46.1577 94.8924 45.7596V50.1447H92.6532V36.9894H94.8924V38.0343C95.2283 37.6363 95.6326 37.3315 96.1053 37.12C96.5905 36.9085 97.1254 36.8028 97.7101 36.8028C98.3694 36.8028 98.9727 36.9396 99.5201 37.2133C100.08 37.4745 100.553 37.8602 100.938 38.3702C101.287 38.8305 101.554 39.3654 101.741 39.975C101.927 40.5721 102.021 41.2128 102.021 41.897C102.021 42.5812 101.927 43.228 101.741 43.8376C101.554 44.4347 101.287 44.9634 100.938 45.4237ZM97.2622 38.7621C96.5283 38.7621 95.9374 39.0233 95.4895 39.5458C95.0541 40.0558 94.8364 40.7463 94.8364 41.6171V42.1955C94.8364 43.0539 95.0603 43.7443 95.5082 44.2668C95.956 44.7768 96.5407 45.0318 97.2622 45.0318C98.0459 45.0318 98.6555 44.7519 99.0909 44.1921C99.5387 43.6323 99.7627 42.8673 99.7627 41.897C99.7627 40.9266 99.5387 40.1616 99.0909 39.6018C98.6555 39.042 98.0459 38.7621 97.2622 38.7621ZM109.237 36.9334C109.336 36.9334 109.436 36.9396 109.535 36.9521C109.635 36.9521 109.747 36.9583 109.871 36.9707V39.2099C109.722 39.185 109.585 39.1726 109.461 39.1726C109.336 39.1602 109.2 39.1539 109.05 39.1539C108.304 39.1539 107.701 39.3841 107.24 39.8444C106.78 40.2922 106.55 40.8893 106.55 41.6357V46.7859H104.311V36.9894H106.55V38.4449C106.774 37.9846 107.122 37.6176 107.595 37.3439C108.08 37.0702 108.627 36.9334 109.237 36.9334ZM119.079 38.2956C119.49 38.7434 119.801 39.2783 120.012 39.9003C120.224 40.5099 120.33 41.1754 120.33 41.897C120.33 42.6185 120.224 43.2902 120.012 43.9122C119.801 44.5218 119.49 45.0505 119.079 45.4983C118.644 45.9835 118.128 46.3567 117.531 46.6179C116.946 46.8667 116.305 46.9911 115.609 46.9911C114.912 46.9911 114.265 46.8667 113.668 46.6179C113.083 46.3567 112.573 45.9835 112.138 45.4983C111.727 45.0505 111.416 44.5218 111.205 43.9122C110.993 43.2902 110.888 42.6185 110.888 41.897C110.888 41.1754 110.993 40.5099 111.205 39.9003C111.416 39.2783 111.727 38.7434 112.138 38.2956C112.573 37.8104 113.083 37.4434 113.668 37.1946C114.265 36.9334 114.912 36.8028 115.609 36.8028C116.305 36.8028 116.946 36.9334 117.531 37.1946C118.128 37.4434 118.644 37.8104 119.079 38.2956ZM115.609 38.6874C114.85 38.6874 114.246 38.9736 113.799 39.5458C113.363 40.118 113.146 40.9018 113.146 41.897C113.146 42.8922 113.363 43.6759 113.799 44.2481C114.246 44.8204 114.85 45.1065 115.609 45.1065C116.367 45.1065 116.965 44.8204 117.4 44.2481C117.848 43.6759 118.072 42.8922 118.072 41.897C118.072 40.9018 117.848 40.118 117.4 39.5458C116.965 38.9736 116.367 38.6874 115.609 38.6874ZM125.711 46.8978C124.679 46.8978 123.939 46.6988 123.491 46.3007C123.055 45.8902 122.838 45.2309 122.838 44.3228V38.8927H121.475V36.9894H122.838V34.1157H125.04V36.9894H127.092V38.8927H125.04V43.9682C125.04 44.3165 125.127 44.5653 125.301 44.7146C125.475 44.8639 125.823 44.9385 126.346 44.9385C126.495 44.9385 126.632 44.9385 126.756 44.9385C126.881 44.9261 127.049 44.9074 127.26 44.8826V46.7672C127.036 46.8045 126.787 46.8356 126.514 46.8605C126.24 46.8854 125.973 46.8978 125.711 46.8978ZM136.982 38.2956C137.393 38.7434 137.704 39.2783 137.915 39.9003C138.127 40.5099 138.232 41.1754 138.232 41.897C138.232 42.6185 138.127 43.2902 137.915 43.9122C137.704 44.5218 137.393 45.0505 136.982 45.4983C136.547 45.9835 136.03 46.3567 135.433 46.6179C134.849 46.8667 134.208 46.9911 133.511 46.9911C132.815 46.9911 132.168 46.8667 131.571 46.6179C130.986 46.3567 130.476 45.9835 130.041 45.4983C129.63 45.0505 129.319 44.5218 129.108 43.9122C128.896 43.2902 128.79 42.6185 128.79 41.897C128.79 41.1754 128.896 40.5099 129.108 39.9003C129.319 39.2783 129.63 38.7434 130.041 38.2956C130.476 37.8104 130.986 37.4434 131.571 37.1946C132.168 36.9334 132.815 36.8028 133.511 36.8028C134.208 36.8028 134.849 36.9334 135.433 37.1946C136.03 37.4434 136.547 37.8104 136.982 38.2956ZM133.511 38.6874C132.752 38.6874 132.149 38.9736 131.701 39.5458C131.266 40.118 131.048 40.9018 131.048 41.897C131.048 42.8922 131.266 43.6759 131.701 44.2481C132.149 44.8204 132.752 45.1065 133.511 45.1065C134.27 45.1065 134.867 44.8204 135.303 44.2481C135.751 43.6759 135.974 42.8922 135.974 41.897C135.974 40.9018 135.751 40.118 135.303 39.5458C134.867 38.9736 134.27 38.6874 133.511 38.6874ZM144.734 38.7248C143.95 38.7248 143.322 39.0109 142.849 39.5831C142.389 40.1554 142.158 40.9266 142.158 41.897C142.158 42.8673 142.389 43.6386 142.849 44.2108C143.322 44.7706 143.95 45.0505 144.734 45.0505C145.281 45.0505 145.747 44.8888 146.133 44.5653C146.519 44.2419 146.786 43.7816 146.935 43.1845L148.857 44.1548C148.584 45.0132 148.074 45.7036 147.327 46.2261C146.593 46.7361 145.729 46.9911 144.734 46.9911C144.037 46.9911 143.384 46.8667 142.774 46.6179C142.177 46.3567 141.661 45.9897 141.225 45.517C140.803 45.0567 140.479 44.5218 140.255 43.9122C140.031 43.2902 139.919 42.6185 139.919 41.897C139.919 41.1754 140.031 40.5099 140.255 39.9003C140.479 39.2783 140.803 38.7372 141.225 38.2769C141.661 37.8042 142.177 37.4434 142.774 37.1946C143.384 36.9334 144.037 36.8028 144.734 36.8028C145.716 36.8028 146.568 37.0516 147.29 37.5492C148.024 38.0468 148.534 38.7185 148.82 39.5645L146.935 40.5908C146.786 40.0061 146.519 39.552 146.133 39.2286C145.747 38.8927 145.281 38.7248 144.734 38.7248ZM158.347 38.2956C158.758 38.7434 159.069 39.2783 159.28 39.9003C159.492 40.5099 159.597 41.1754 159.597 41.897C159.597 42.6185 159.492 43.2902 159.28 43.9122C159.069 44.5218 158.758 45.0505 158.347 45.4983C157.912 45.9835 157.395 46.3567 156.798 46.6179C156.214 46.8667 155.573 46.9911 154.876 46.9911C154.18 46.9911 153.533 46.8667 152.936 46.6179C152.351 46.3567 151.841 45.9835 151.406 45.4983C150.995 45.0505 150.684 44.5218 150.473 43.9122C150.261 43.2902 150.155 42.6185 150.155 41.897C150.155 41.1754 150.261 40.5099 150.473 39.9003C150.684 39.2783 150.995 38.7434 151.406 38.2956C151.841 37.8104 152.351 37.4434 152.936 37.1946C153.533 36.9334 154.18 36.8028 154.876 36.8028C155.573 36.8028 156.214 36.9334 156.798 37.1946C157.395 37.4434 157.912 37.8104 158.347 38.2956ZM154.876 38.6874C154.117 38.6874 153.514 38.9736 153.066 39.5458C152.631 40.118 152.413 40.9018 152.413 41.897C152.413 42.8922 152.631 43.6759 153.066 44.2481C153.514 44.8204 154.117 45.1065 154.876 45.1065C155.635 45.1065 156.232 44.8204 156.668 44.2481C157.115 43.6759 157.339 42.8922 157.339 41.897C157.339 40.9018 157.115 40.118 156.668 39.5458C156.232 38.9736 155.635 38.6874 154.876 38.6874ZM161.9 33.388H164.139V46.7859H161.9V33.388ZM170.523 46.9911C169.565 46.9911 168.682 46.8045 167.873 46.4313C167.064 46.0581 166.449 45.5543 166.026 44.9199L167.705 43.5764C167.991 44.0491 168.395 44.4347 168.918 44.7333C169.44 45.0194 169.982 45.1625 170.541 45.1625C171.101 45.1625 171.543 45.0567 171.866 44.8452C172.202 44.6338 172.37 44.3352 172.37 43.9496C172.37 43.7132 172.302 43.5266 172.165 43.3898C172.028 43.2405 171.785 43.1161 171.437 43.0166C171.362 42.9917 171.201 42.9544 170.952 42.9046C170.716 42.8548 170.398 42.7864 170 42.6993C169.366 42.5625 168.887 42.4443 168.563 42.3448C168.24 42.2328 167.96 42.1022 167.724 41.9529C167.375 41.7166 167.114 41.4305 166.94 41.0946C166.766 40.7587 166.679 40.3606 166.679 39.9003C166.679 38.9922 167.033 38.252 167.742 37.6798C168.464 37.0951 169.384 36.8028 170.504 36.8028C171.338 36.8028 172.115 36.9707 172.837 37.3066C173.558 37.6425 174.099 38.0903 174.46 38.6501L172.948 40.0123C172.662 39.5769 172.295 39.241 171.848 39.0047C171.4 38.7559 170.908 38.6315 170.373 38.6315C169.913 38.6315 169.546 38.731 169.272 38.93C168.999 39.1166 168.862 39.3716 168.862 39.6951C168.862 39.8941 168.918 40.0558 169.03 40.1802C169.154 40.3046 169.347 40.4166 169.608 40.5161C169.708 40.541 169.826 40.5721 169.963 40.6094C170.112 40.6467 170.392 40.7089 170.803 40.796C171.611 40.9702 172.171 41.1132 172.482 41.2252C172.793 41.3247 173.067 41.4367 173.303 41.5611C173.726 41.7974 174.037 42.096 174.236 42.4568C174.448 42.8175 174.553 43.2467 174.553 43.7443C174.553 44.6897 174.168 45.4672 173.396 46.0768C172.637 46.6864 171.68 46.9911 170.523 46.9911ZM185.436 38.7248C184.652 38.7248 184.024 39.0109 183.551 39.5831C183.091 40.1554 182.861 40.9266 182.861 41.897C182.861 42.8673 183.091 43.6386 183.551 44.2108C184.024 44.7706 184.652 45.0505 185.436 45.0505C185.983 45.0505 186.45 44.8888 186.835 44.5653C187.221 44.2419 187.488 43.7816 187.638 43.1845L189.56 44.1548C189.286 45.0132 188.776 45.7036 188.029 46.2261C187.295 46.7361 186.431 46.9911 185.436 46.9911C184.739 46.9911 184.086 46.8667 183.476 46.6179C182.879 46.3567 182.363 45.9897 181.928 45.517C181.505 45.0567 181.181 44.5218 180.957 43.9122C180.733 43.2902 180.621 42.6185 180.621 41.897C180.621 41.1754 180.733 40.5099 180.957 39.9003C181.181 39.2783 181.505 38.7372 181.928 38.2769C182.363 37.8042 182.879 37.4434 183.476 37.1946C184.086 36.9334 184.739 36.8028 185.436 36.8028C186.418 36.8028 187.271 37.0516 187.992 37.5492C188.726 38.0468 189.236 38.7185 189.522 39.5645L187.638 40.5908C187.488 40.0061 187.221 39.552 186.835 39.2286C186.45 38.8927 185.983 38.7248 185.436 38.7248ZM199.049 38.2956C199.46 38.7434 199.771 39.2783 199.982 39.9003C200.194 40.5099 200.299 41.1754 200.299 41.897C200.299 42.6185 200.194 43.2902 199.982 43.9122C199.771 44.5218 199.46 45.0505 199.049 45.4983C198.614 45.9835 198.098 46.3567 197.5 46.6179C196.916 46.8667 196.275 46.9911 195.578 46.9911C194.882 46.9911 194.235 46.8667 193.638 46.6179C193.053 46.3567 192.543 45.9835 192.108 45.4983C191.697 45.0505 191.386 44.5218 191.175 43.9122C190.963 43.2902 190.857 42.6185 190.857 41.897C190.857 41.1754 190.963 40.5099 191.175 39.9003C191.386 39.2783 191.697 38.7434 192.108 38.2956C192.543 37.8104 193.053 37.4434 193.638 37.1946C194.235 36.9334 194.882 36.8028 195.578 36.8028C196.275 36.8028 196.916 36.9334 197.5 37.1946C198.098 37.4434 198.614 37.8104 199.049 38.2956ZM195.578 38.6874C194.82 38.6874 194.216 38.9736 193.768 39.5458C193.333 40.118 193.115 40.9018 193.115 41.897C193.115 42.8922 193.333 43.6759 193.768 44.2481C194.216 44.8204 194.82 45.1065 195.578 45.1065C196.337 45.1065 196.934 44.8204 197.37 44.2481C197.818 43.6759 198.042 42.8922 198.042 41.897C198.042 40.9018 197.818 40.118 197.37 39.5458C196.934 38.9736 196.337 38.6874 195.578 38.6874ZM206.782 38.8927C206.235 38.8927 205.774 39.0917 205.401 39.4898C205.028 39.8879 204.841 40.4042 204.841 41.0386V46.7859H202.602V36.9894H204.841V38.0343C205.177 37.6238 205.569 37.319 206.017 37.12C206.477 36.9085 206.981 36.8028 207.528 36.8028C208.088 36.8028 208.586 36.921 209.021 37.1573C209.469 37.3812 209.836 37.7171 210.122 38.165C210.558 37.7047 211.024 37.3626 211.522 37.1387C212.032 36.9147 212.579 36.8028 213.164 36.8028C214.159 36.8028 214.961 37.1262 215.571 37.7731C216.18 38.42 216.485 39.2721 216.485 40.3295V46.7859H214.246V40.9826C214.246 40.2984 214.103 39.7822 213.817 39.4338C213.543 39.0731 213.139 38.8927 212.604 38.8927C212.057 38.8927 211.596 39.0917 211.223 39.4898C210.85 39.8879 210.663 40.4042 210.663 41.0386V46.7859H208.424V40.9826C208.424 40.2984 208.281 39.7822 207.995 39.4338C207.721 39.0731 207.317 38.8927 206.782 38.8927ZM221.602 35.6832H219.288V33.388H221.602V35.6832ZM219.325 36.9894H221.565V46.7859H219.325V36.9894ZM226.717 46.7859H224.477V36.9894H226.717V38.0343C227.065 37.6363 227.463 37.3315 227.911 37.12C228.371 36.9085 228.875 36.8028 229.422 36.8028C230.43 36.8028 231.226 37.1262 231.811 37.7731C232.408 38.4075 232.706 39.2597 232.706 40.3295V46.7859H230.467V40.9826C230.467 40.3109 230.318 39.7946 230.019 39.4338C229.733 39.0731 229.31 38.8927 228.75 38.8927C228.178 38.8927 227.693 39.0917 227.295 39.4898C226.909 39.8879 226.717 40.4042 226.717 41.0386V46.7859ZM244.266 36.9894V45.7969C244.266 47.1902 243.83 48.2973 242.96 49.1184C242.101 49.9394 240.944 50.3499 239.489 50.3499C238.332 50.3499 237.374 50.1074 236.615 49.6222C235.856 49.137 235.328 48.428 235.029 47.495L237.119 46.7486C237.268 47.3208 237.548 47.7624 237.959 48.0734C238.382 48.3844 238.892 48.5399 239.489 48.5399C240.31 48.5399 240.938 48.3222 241.374 47.8868C241.809 47.4639 242.027 46.8356 242.027 46.0022V45.3117C241.741 45.6974 241.349 46.0022 240.851 46.2261C240.366 46.4376 239.837 46.5433 239.265 46.5433C238.618 46.5433 238.021 46.4189 237.474 46.1701C236.926 45.9213 236.46 45.5543 236.074 45.0692C235.713 44.6338 235.44 44.1237 235.253 43.539C235.066 42.9544 234.973 42.3324 234.973 41.673C234.973 41.0137 235.066 40.3917 235.253 39.807C235.44 39.2224 235.713 38.7123 236.074 38.2769C236.46 37.7918 236.926 37.4248 237.474 37.176C238.021 36.9272 238.618 36.8028 239.265 36.8028C239.837 36.8028 240.366 36.9147 240.851 37.1387C241.349 37.3626 241.741 37.6611 242.027 38.0343V36.9894H244.266ZM242.064 41.8037V41.5797C242.064 40.7089 241.846 40.0247 241.411 39.5271C240.988 39.0171 240.416 38.7621 239.694 38.7621C238.923 38.7621 238.32 39.0171 237.884 39.5271C237.449 40.0372 237.231 40.7525 237.231 41.673C237.231 42.5812 237.449 43.2965 237.884 43.8189C238.32 44.329 238.923 44.584 239.694 44.584C240.416 44.584 240.988 44.3352 241.411 43.8376C241.846 43.34 242.064 42.662 242.064 41.8037ZM255.066 46.9911C254.108 46.9911 253.225 46.8045 252.417 46.4313C251.608 46.0581 250.992 45.5543 250.569 44.9199L252.249 43.5764C252.535 44.0491 252.939 44.4347 253.462 44.7333C253.984 45.0194 254.525 45.1625 255.085 45.1625C255.645 45.1625 256.086 45.0567 256.41 44.8452C256.746 44.6338 256.914 44.3352 256.914 43.9496C256.914 43.7132 256.845 43.5266 256.708 43.3898C256.572 43.2405 256.329 43.1161 255.981 43.0166C255.906 42.9917 255.744 42.9544 255.496 42.9046C255.259 42.8548 254.942 42.7864 254.544 42.6993C253.909 42.5625 253.43 42.4443 253.107 42.3448C252.784 42.2328 252.504 42.1022 252.267 41.9529C251.919 41.7166 251.658 41.4305 251.484 41.0946C251.309 40.7587 251.222 40.3606 251.222 39.9003C251.222 38.9922 251.577 38.252 252.286 37.6798C253.008 37.0951 253.928 36.8028 255.048 36.8028C255.881 36.8028 256.659 36.9707 257.38 37.3066C258.102 37.6425 258.643 38.0903 259.004 38.6501L257.492 40.0123C257.206 39.5769 256.839 39.241 256.391 39.0047C255.943 38.7559 255.452 38.6315 254.917 38.6315C254.457 38.6315 254.09 38.731 253.816 38.93C253.542 39.1166 253.406 39.3716 253.406 39.6951C253.406 39.8941 253.462 40.0558 253.574 40.1802C253.698 40.3046 253.891 40.4166 254.152 40.5161C254.252 40.541 254.37 40.5721 254.507 40.6094C254.656 40.6467 254.936 40.7089 255.346 40.796C256.155 40.9702 256.715 41.1132 257.026 41.2252C257.337 41.3247 257.61 41.4367 257.847 41.5611C258.27 41.7974 258.581 42.096 258.78 42.4568C258.991 42.8175 259.097 43.2467 259.097 43.7443C259.097 44.6897 258.711 45.4672 257.94 46.0768C257.181 46.6864 256.223 46.9911 255.066 46.9911ZM268.952 38.2956C269.363 38.7434 269.674 39.2783 269.885 39.9003C270.096 40.5099 270.202 41.1754 270.202 41.897C270.202 42.6185 270.096 43.2902 269.885 43.9122C269.674 44.5218 269.363 45.0505 268.952 45.4983C268.517 45.9835 268 46.3567 267.403 46.6179C266.819 46.8667 266.178 46.9911 265.481 46.9911C264.785 46.9911 264.138 46.8667 263.541 46.6179C262.956 46.3567 262.446 45.9835 262.01 45.4983C261.6 45.0505 261.289 44.5218 261.077 43.9122C260.866 43.2902 260.76 42.6185 260.76 41.897C260.76 41.1754 260.866 40.5099 261.077 39.9003C261.289 39.2783 261.6 38.7434 262.01 38.2956C262.446 37.8104 262.956 37.4434 263.541 37.1946C264.138 36.9334 264.785 36.8028 265.481 36.8028C266.178 36.8028 266.819 36.9334 267.403 37.1946C268 37.4434 268.517 37.8104 268.952 38.2956ZM265.481 38.6874C264.722 38.6874 264.119 38.9736 263.671 39.5458C263.236 40.118 263.018 40.9018 263.018 41.897C263.018 42.8922 263.236 43.6759 263.671 44.2481C264.119 44.8204 264.722 45.1065 265.481 45.1065C266.24 45.1065 266.837 44.8204 267.273 44.2481C267.72 43.6759 267.944 42.8922 267.944 41.897C267.944 40.9018 267.72 40.118 267.273 39.5458C266.837 38.9736 266.24 38.6874 265.481 38.6874ZM280.081 38.2956C280.491 38.7434 280.802 39.2783 281.014 39.9003C281.225 40.5099 281.331 41.1754 281.331 41.897C281.331 42.6185 281.225 43.2902 281.014 43.9122C280.802 44.5218 280.491 45.0505 280.081 45.4983C279.646 45.9835 279.129 46.3567 278.532 46.6179C277.947 46.8667 277.307 46.9911 276.61 46.9911C275.914 46.9911 275.267 46.8667 274.67 46.6179C274.085 46.3567 273.575 45.9835 273.139 45.4983C272.729 45.0505 272.418 44.5218 272.206 43.9122C271.995 43.2902 271.889 42.6185 271.889 41.897C271.889 41.1754 271.995 40.5099 272.206 39.9003C272.418 39.2783 272.729 38.7434 273.139 38.2956C273.575 37.8104 274.085 37.4434 274.67 37.1946C275.267 36.9334 275.914 36.8028 276.61 36.8028C277.307 36.8028 277.947 36.9334 278.532 37.1946C279.129 37.4434 279.646 37.8104 280.081 38.2956ZM276.61 38.6874C275.851 38.6874 275.248 38.9736 274.8 39.5458C274.365 40.118 274.147 40.9018 274.147 41.897C274.147 42.8922 274.365 43.6759 274.8 44.2481C275.248 44.8204 275.851 45.1065 276.61 45.1065C277.369 45.1065 277.966 44.8204 278.402 44.2481C278.849 43.6759 279.073 42.8922 279.073 41.897C279.073 40.9018 278.849 40.118 278.402 39.5458C277.966 38.9736 277.369 38.6874 276.61 38.6874ZM285.873 46.7859H283.634V36.9894H285.873V38.0343C286.221 37.6363 286.62 37.3315 287.067 37.12C287.528 36.9085 288.031 36.8028 288.579 36.8028C289.586 36.8028 290.383 37.1262 290.967 37.7731C291.564 38.4075 291.863 39.2597 291.863 40.3295V46.7859H289.624V40.9826C289.624 40.3109 289.475 39.7946 289.176 39.4338C288.89 39.0731 288.467 38.8927 287.907 38.8927C287.335 38.8927 286.85 39.0917 286.452 39.4898C286.066 39.8879 285.873 40.4042 285.873 41.0386V46.7859ZM296.462 42.7367H294.783L294.204 33.388H297.041L296.462 42.7367ZM296.985 46.7859H294.279V44.0802H296.985V46.7859Z" fill="white"/>
<defs>
<linearGradient id="paint0_linear_1891_17049" x1="16.0641" y1="194.416" x2="203.532" y2="222.551" gradientUnits="userSpaceOnUse">
<stop stop-color="#940DFF"/>
<stop offset="1" stop-color="#0094FF"/>
</linearGradient>
<radialGradient id="paint1_radial_1891_17049" cx="0" cy="0" r="1" gradientUnits="userSpaceOnUse" gradientTransform="translate(357.661 62.1553) scale(333.947 353.515)">
<stop offset="0.39" stop-color="white"/>
<stop offset="0.96" stop-color="white" stop-opacity="0"/>
</radialGradient>
<linearGradient id="paint2_linear_1891_17049" x1="105.534" y1="199.003" x2="233.448" y2="175.387" gradientUnits="userSpaceOnUse">
<stop stop-color="#31BAC6"/>
<stop offset="1" stop-color="#B6509E"/>
</linearGradient>
<linearGradient id="paint3_linear_1891_17049" x1="107.557" y1="210.535" x2="235.509" y2="196.614" gradientUnits="userSpaceOnUse">
<stop stop-color="#31BAC6"/>
<stop offset="1" stop-color="#B6509E"/>
</linearGradient>
<linearGradient id="paint4_linear_1891_17049" x1="104.611" y1="195.238" x2="232.439" y2="171.656" gradientUnits="userSpaceOnUse">
<stop stop-color="#31BAC6"/>
<stop offset="1" stop-color="#B6509E"/>
</linearGradient>
<linearGradient id="paint5_linear_1891_17049" x1="102.002" y1="184.851" x2="229.934" y2="161.194" gradientUnits="userSpaceOnUse">
<stop stop-color="#31BAC6"/>
<stop offset="1" stop-color="#B6509E"/>
</linearGradient>
</defs>
</svg>
