<?xml version="1.0" encoding="utf-8"?>
<!-- Generator: Adobe Illustrator 26.3.1, SVG Export Plug-In . SVG Version: 6.00 Build 0)  -->
<svg version="1.1" id="Layer_1" xmlns="http://www.w3.org/2000/svg" xmlns:xlink="http://www.w3.org/1999/xlink" x="0px" y="0px"
	 viewBox="0 0 259.5 334.5" style="enable-background:new 0 0 259.5 334.5;" xml:space="preserve">
<style type="text/css">
	.st0{fill-rule:evenodd;clip-rule:evenodd;fill:url(#SVGID_1_);}
	.st1{fill-rule:evenodd;clip-rule:evenodd;fill:url(#SVGID_00000177479832363754125680000009943871952134799024_);}
	.st2{fill-rule:evenodd;clip-rule:evenodd;fill:#FFFFFF;}
	.st3{fill:#0C0C0C;}
	.st4{fill-rule:evenodd;clip-rule:evenodd;fill:#00D395;}
	.st5{fill:#293147;}
	.st6{fill:#2EB6EA;}
	.st7{fill:#1542CD;}
	.st8{fill-rule:evenodd;clip-rule:evenodd;fill:#745DDF;}
	.st9{fill:url(#SVGID_00000168831089729876063450000017513971472200298415_);}
	.st10{fill:url(#SVGID_00000096760429664792861800000002354289100713580946_);}
	.st11{fill:url(#SVGID_00000159459790436815828940000008668708584994367393_);}
	.st12{fill:url(#SVGID_00000173135272898763928660000012350193015063061673_);}
	.st13{fill:#FFFFFF;}
</style>
<g>
	
		<linearGradient id="SVGID_1_" gradientUnits="userSpaceOnUse" x1="12.2607" y1="210.0998" x2="154.5991" y2="186.3386" gradientTransform="matrix(1 0 0 -1 0 343.5)">
		<stop  offset="0" style="stop-color:#940DFF"/>
		<stop  offset="1" style="stop-color:#0094FF"/>
	</linearGradient>
	<path class="st0" d="M0,13.1C0,5.9,5.9,0,13.1,0h233.3c7.2,0,13.1,5.9,13.1,13.1v279.8c0,7.2-5.9,13.1-13.1,13.1H13.1
		C5.9,306,0,300.2,0,292.9V13.1z"/>
</g>
<radialGradient id="SVGID_00000141439616533556386400000013630582750352090300_" cx="-14.6442" cy="451.5722" r="0.6553" gradientTransform="matrix(388.95 0 0 -370.16 5968.8579 167196.6094)" gradientUnits="userSpaceOnUse">
	<stop  offset="0.39" style="stop-color:#FFFFFF"/>
	<stop  offset="0.96" style="stop-color:#FFFFFF;stop-opacity:0"/>
</radialGradient>
<path style="fill-rule:evenodd;clip-rule:evenodd;fill:url(#SVGID_00000141439616533556386400000013630582750352090300_);" d="
	M205.1,47.8c-25.2,0-50.9,5.1-75.7,10.1h0C104.6,62.9,78.9,68,53.7,68C34.1,68,16.5,64.9,0,58.6v235c0,6.9,5.9,12.5,13.1,12.5h233.3
	c7.2,0,13.1-5.6,13.1-12.5v-236C242.8,51,225,47.8,205.1,47.8z"/>
<path class="st2" d="M205.5,59.6L205.5,59.6c-25.1,0-50.6,4.9-75.2,9.7h0C105.5,74.1,80.1,79,55.1,79c-20.2,0-38.1-3.2-55-9.7
	l-0.1,0V87v10.7v195.8V322v0c0,6.9,5.9,12.5,13.1,12.5h233.3c7.2,0,13.1-5.6,13.1-12.5v0v-28.4V97.4V86V69
	C242.9,62.7,225.2,59.6,205.5,59.6z"/>
<g>
	<g>
		<path class="st3" d="M193.1,201.4c0-1.7-1-3-2.6-3c-1.6,0-2.6,1.3-2.6,3c0,1.7,1,3,2.6,3C192,204.4,193.1,203.1,193.1,201.4z
			 M193,197.3v-4.4c0-0.3,0.2-0.5,0.5-0.6l2.4-0.6v15h-2.7v-1.3c-0.7,1-1.9,1.5-3.4,1.5c-3.1,0-4.9-2.4-4.9-5.4c0-3,1.8-5.4,4.9-5.4
			C191.3,196,192.4,196.6,193,197.3L193,197.3z M176.6,196.2v1.3c0.5-0.9,1.6-1.5,3.2-1.5c2.6,0,3.9,1.7,3.9,4.1v6.5h-2.9v-6.2
			c0-1.2-0.5-2.1-1.8-2.1c-1.4,0-2.2,0.9-2.2,2.3v5.9h-2.9v-10.4H176.6L176.6,196.2z M167.2,206.8c-3.1,0-4.8-1.3-4.8-4.7v-6h2.9v6
			c0,1.5,0.7,2.1,1.9,2.1c1.3,0,1.9-0.7,1.9-2.1v-6h2.9v5.9C172,205.5,170.3,206.8,167.2,206.8L167.2,206.8z M152.8,201.4
			c0,1.9,1.2,3,2.7,3c1.5,0,2.7-1.1,2.7-3c0-1.9-1.2-3-2.7-3C154,198.4,152.8,199.5,152.8,201.4z M155.5,206.8
			c-3.4,0-5.6-2.5-5.6-5.4c0-3,2.2-5.4,5.6-5.4c3.4,0,5.6,2.5,5.6,5.4C161.1,204.4,158.9,206.8,155.5,206.8z M141.1,201.4
			c0,1.7,1,3,2.6,3c1.6,0,2.6-1.3,2.6-3c0-1.7-1-3-2.6-3C142.1,198.4,141.1,199.7,141.1,201.4z M141.2,205.5v4.3
			c0,0.3-0.2,0.5-0.5,0.6l-2.4,0.6v-14.9h2.7v1.3c0.7-1,1.9-1.5,3.4-1.5c3.1,0,4.9,2.4,4.9,5.4s-1.8,5.4-4.9,5.4
			C142.9,206.8,141.8,206.2,141.2,205.5L141.2,205.5z M129.8,200.7v5.9h-2.9v-6.2c0-1.2-0.4-2.1-1.7-2.1s-2.1,0.9-2.1,2.2v6h-2.9
			v-10.4h2.7v1.3c0.5-0.9,1.5-1.5,3.1-1.5c1.4,0,2.5,0.6,3.1,1.5c0.9-1,2-1.5,3.5-1.5c2.6,0,3.9,1.7,3.9,4.1v6.5h-2.9v-6.2
			c0-1.2-0.4-2.1-1.7-2.1C130.4,198.4,129.7,199.2,129.8,200.7L129.8,200.7z M110.6,201.4c0,1.9,1.2,3,2.7,3c1.5,0,2.7-1.1,2.7-3
			c0-1.9-1.2-3-2.7-3C111.7,198.4,110.6,199.5,110.6,201.4L110.6,201.4z M113.3,206.8c-3.4,0-5.6-2.5-5.6-5.4c0-3,2.2-5.4,5.6-5.4
			c3.4,0,5.6,2.5,5.6,5.4C118.9,204.4,116.7,206.8,113.3,206.8z M92.7,199.5c0-4.4,3.1-7.3,7.3-7.3c3.6,0,6.4,2.1,7,5.5h-3.2
			c-0.4-1.8-1.9-2.8-3.8-2.8c-2.6,0-4.1,1.8-4.1,4.6s1.5,4.6,4.1,4.6c1.9,0,3.4-1,3.8-2.8h3.2c-0.5,3.4-3.4,5.5-7,5.5
			C95.8,206.9,92.7,203.9,92.7,199.5L92.7,199.5z"/>
		<path class="st4" d="M64.3,207.5c-0.7-0.4-1.2-1.2-1.2-2.1v-4.7c0-0.2,0.1-0.4,0.1-0.5c0.3-0.5,0.9-0.6,1.4-0.4l10.8,6.2
			c0.6,0.4,1,1,1,1.7v4.9c0,0.2-0.1,0.4-0.2,0.6c-0.4,0.6-1.1,0.7-1.7,0.4L64.3,207.5z M80.5,198.6c0.6,0.4,1,1,1,1.7v9.9
			c0,0.3-0.2,0.6-0.4,0.7l-2.4,1.3c0,0-0.1,0-0.1,0v-5.5c0-0.7-0.4-1.4-1-1.7l-9.5-5.6v-6.2c0-0.2,0.1-0.4,0.1-0.5
			c0.3-0.5,0.9-0.6,1.4-0.4L80.5,198.6L80.5,198.6z M85.2,191.3c0.6,0.4,1,1,1,1.7v14.4c0,0.3-0.2,0.6-0.4,0.7l-2.3,1.2v-10
			c0-0.7-0.4-1.4-1-1.7l-9.7-5.7V186c0-0.2,0.1-0.4,0.1-0.5c0.3-0.5,0.9-0.6,1.4-0.4L85.2,191.3L85.2,191.3z"/>
	</g>
	<g>
		<path class="st5" d="M114.4,264.3h8.9V262H117v-13h-2.6V264.3z"/>
		<path class="st5" d="M128,252.9h-2.6v11.4h2.6V252.9z M126.7,251c0.9,0,1.6-0.7,1.6-1.6c0-0.9-0.8-1.6-1.6-1.6
			c-0.9,0-1.6,0.7-1.6,1.6C125.1,250.3,125.8,251,126.7,251z"/>
		<path class="st5" d="M141.1,253.5c-1.2-0.5-2.8-0.9-4.4-0.9c-4.1,0-6.6,2.3-6.6,6c0,3.8,2.5,6,6.3,6c0.9,0,1.7-0.2,2.2-0.4v4.8
			h2.5V253.5z M138.6,262c-0.6,0.2-1.2,0.4-2,0.4c-2.3,0-3.8-1.5-3.8-3.7c0-2.4,1.5-3.7,4-3.7c0.7,0,1.3,0.1,1.8,0.3V262z"/>
		<path class="st5" d="M153.5,252.9h-2.5v9.4c-0.7,0.1-1.4,0.2-2,0.2c-1.7,0-2.7-0.6-2.7-2.3v-7.3h-2.5v7.4c0,3.2,2,4.3,5.3,4.3
			c1.3,0,3.1-0.2,4.5-0.5V252.9z"/>
		<path class="st5" d="M159.4,252.9h-2.6v11.4h2.6V252.9z M158.1,251c0.9,0,1.6-0.7,1.6-1.6c0-0.9-0.8-1.6-1.6-1.6
			c-0.9,0-1.6,0.7-1.6,1.6C156.4,250.3,157.2,251,158.1,251z"/>
		<path class="st5" d="M161.3,255h1.7v6c0,2.6,1.6,3.5,3.5,3.5c1.1,0,2-0.2,2.8-0.6v-2.3c-0.7,0.4-1.3,0.6-2.1,0.6
			c-1,0-1.6-0.5-1.6-1.8V255h3.3v-2.1h-3.3v-2.8H163v2.8h-1.7V255z"/>
		<path class="st5" d="M172.5,252.9h-2.7l4.7,12l-1.6,4.1h2.5l6.2-16.1H179l-3.2,9L172.5,252.9z"/>
		<path class="st6" d="M90.9,269.6c6.5,0,11.8-5.3,11.8-11.9c0-6.6-5.3-11.9-11.8-11.9c-6.5,0-11.8,5.3-11.8,11.9
			C79.1,264.3,84.4,269.6,90.9,269.6z"/>
		<path class="st7" d="M90.8,269.6c-11.8,0-16.4-15.5-6-22.1c-1.2,13,5.3,13.3,11.4,13c10.2-0.5,10.2,9.1,10.2,9.1H90.8z"/>
		<path class="st8" d="M102.1,261.6c-1.8,4.6-6.2,7.9-11.3,8c0.1,0,0.2,0,0.4,0h15.6C106.7,269.6,106.7,264,102.1,261.6z"/>
	</g>
	<g>
		
			<linearGradient id="SVGID_00000026866392370395643300000004100060499835096491_" gradientUnits="userSpaceOnUse" x1="82.9583" y1="192.5866" x2="179.8285" y2="212.4803" gradientTransform="matrix(1 0 0 -1 0 343.5)">
			<stop  offset="0" style="stop-color:#31BAC6"/>
			<stop  offset="1" style="stop-color:#B6509E"/>
		</linearGradient>
		<path style="fill:url(#SVGID_00000026866392370395643300000004100060499835096491_);" d="M141,151.4l-9.2-23.2
			c-0.1-0.2-0.1-0.4-0.1-0.7c0-0.5,0.1-0.9,0.5-1.3c0.2-0.2,0.3-0.3,0.6-0.4c0.2-0.1,0.4-0.1,0.7-0.1c0.3,0,0.7,0.1,1,0.3
			c0.3,0.2,0.5,0.5,0.7,0.9l8.8,22.7l8.8-22.7c0.1-0.3,0.4-0.6,0.7-0.9c0.3-0.2,0.6-0.3,1-0.3c0.2,0,0.5,0,0.7,0.1
			c0.2,0.1,0.4,0.2,0.6,0.4c0.3,0.4,0.5,0.8,0.5,1.3c0,0.2,0,0.4-0.1,0.7l-9.2,23.2c-0.5,1.2-1.3,1.8-2.3,1.8h-0.8
			C142.3,153.2,141.6,152.6,141,151.4z"/>
		
			<linearGradient id="SVGID_00000012450192341759750170000004318224598450253202_" gradientUnits="userSpaceOnUse" x1="83.6401" y1="193.7929" x2="181.028" y2="205.5785" gradientTransform="matrix(1 0 0 -1 0 343.5)">
			<stop  offset="0" style="stop-color:#31BAC6"/>
			<stop  offset="1" style="stop-color:#B6509E"/>
		</linearGradient>
		<path style="fill:url(#SVGID_00000012450192341759750170000004318224598450253202_);" d="M159.8,152.5c-0.2-0.2-0.3-0.4-0.4-0.6
			c-0.1-0.2-0.1-0.4-0.1-0.7v-23.5c0-0.5,0.2-0.9,0.5-1.3c0.2-0.2,0.3-0.3,0.5-0.4c0.2-0.1,0.4-0.1,0.7-0.1h15c0.2,0,0.4,0,0.6,0.1
			c0.2,0.1,0.4,0.2,0.5,0.4c0.2,0.2,0.3,0.3,0.4,0.5c0.1,0.2,0.1,0.4,0.1,0.6c0,0.2,0,0.4-0.1,0.6c-0.1,0.2-0.2,0.4-0.4,0.5
			c-0.3,0.3-0.7,0.5-1.1,0.5h-13.3v8.6h11.9c0.2,0,0.4,0,0.6,0.1c0.2,0.1,0.4,0.2,0.5,0.4c0.2,0.2,0.3,0.3,0.4,0.5
			c0.1,0.2,0.1,0.4,0.1,0.6c0,0.2,0,0.4-0.1,0.6c-0.1,0.2-0.2,0.4-0.4,0.5c-0.2,0.2-0.3,0.3-0.5,0.4c-0.2,0.1-0.4,0.1-0.6,0.1h-11.9
			v8.6H176c0.2,0,0.4,0,0.6,0.1c0.2,0.1,0.4,0.2,0.5,0.4c0.2,0.2,0.3,0.3,0.4,0.5c0.1,0.2,0.1,0.4,0.1,0.6c0,0.2,0,0.4-0.1,0.6
			c-0.1,0.2-0.2,0.4-0.4,0.5c-0.3,0.3-0.7,0.5-1.1,0.5h-15c-0.2,0-0.4,0-0.7-0.1C160.1,152.8,159.9,152.6,159.8,152.5L159.8,152.5z"
			/>
		
			<linearGradient id="SVGID_00000096775124226596051780000002596892136130124432_" gradientUnits="userSpaceOnUse" x1="82.3099" y1="194.8959" x2="179.1171" y2="214.7614" gradientTransform="matrix(1 0 0 -1 0 343.5)">
			<stop  offset="0" style="stop-color:#31BAC6"/>
			<stop  offset="1" style="stop-color:#B6509E"/>
		</linearGradient>
		<path style="fill:url(#SVGID_00000096775124226596051780000002596892136130124432_);" d="M133.9,150.7l-9.2-23.2
			c-0.5-1.2-1.3-1.8-2.3-1.8h-0.8c-1,0-1.8,0.6-2.3,1.8l-4,10.1h-3c-0.4,0-0.9,0.2-1.2,0.5c-0.3,0.3-0.5,0.8-0.5,1.2v0
			c0,0.5,0.2,0.9,0.5,1.2c0.3,0.3,0.7,0.5,1.2,0.5h1.6l-3.8,9.6c-0.1,0.2-0.1,0.4-0.1,0.7c0,0.5,0.1,0.9,0.5,1.3
			c0.2,0.2,0.3,0.3,0.6,0.4s0.4,0.1,0.7,0.1c0.3,0,0.7-0.1,1-0.3c0.3-0.2,0.5-0.5,0.7-0.9l4.2-10.9h2.9c0.4,0,0.9-0.2,1.2-0.5
			c0.3-0.3,0.5-0.8,0.5-1.2v-0.1c0-0.5-0.2-0.9-0.5-1.2c-0.3-0.3-0.7-0.5-1.2-0.5h-1.6l3.2-8.4l8.8,22.7c0.1,0.3,0.4,0.6,0.7,0.9
			c0.3,0.2,0.6,0.3,1,0.3c0.2,0,0.5,0,0.7-0.1c0.2-0.1,0.4-0.2,0.6-0.4c0.3-0.4,0.5-0.8,0.5-1.3C134,151.2,134,150.9,133.9,150.7
			L133.9,150.7z"/>
		
			<linearGradient id="SVGID_00000059304157802201900940000006549940645887282833_" gradientUnits="userSpaceOnUse" x1="80.6881" y1="200.2227" x2="177.5701" y2="220.1505" gradientTransform="matrix(1 0 0 -1 0 343.5)">
			<stop  offset="0" style="stop-color:#31BAC6"/>
			<stop  offset="1" style="stop-color:#B6509E"/>
		</linearGradient>
		<path style="fill:url(#SVGID_00000059304157802201900940000006549940645887282833_);" d="M106.3,150.7L97,127.5
			c-0.5-1.2-1.3-1.8-2.3-1.8h-0.8c-1,0-1.8,0.6-2.3,1.8l-4,10.1h-3c-0.4,0-0.9,0.2-1.2,0.5c-0.3,0.3-0.5,0.8-0.5,1.2v0
			c0,0.5,0.2,0.9,0.5,1.2c0.3,0.3,0.7,0.5,1.2,0.5h1.6l-3.8,9.6c-0.1,0.2-0.1,0.4-0.1,0.7c0,0.5,0.1,0.9,0.5,1.3
			c0.2,0.2,0.3,0.3,0.6,0.4c0.2,0.1,0.4,0.1,0.7,0.1c0.3,0,0.7-0.1,1-0.3c0.3-0.2,0.5-0.5,0.7-0.9l4.2-10.9h2.9
			c0.4,0,0.9-0.2,1.2-0.5c0.3-0.3,0.5-0.8,0.5-1.2v0c0-0.5-0.2-0.9-0.5-1.2c-0.3-0.3-0.7-0.5-1.2-0.5h-1.6l3.2-8.4l8.8,22.7
			c0.1,0.3,0.4,0.6,0.7,0.9c0.3,0.2,0.6,0.3,1,0.3c0.2,0,0.5,0,0.7-0.1c0.2-0.1,0.4-0.2,0.6-0.4c0.3-0.4,0.5-0.8,0.5-1.3
			C106.4,151.2,106.3,150.9,106.3,150.7L106.3,150.7z"/>
	</g>
</g>
<path class="st13" d="M53.1,25.3l-2.3,6.8h-1.3l-2.3-6.8v6.8h-1.5v-8.8h2.2l2.3,6.7l2.3-6.7h2.1v8.8h-1.5V25.3z M61.5,26.5
	c0.3,0.3,0.5,0.6,0.6,1.1c0.1,0.4,0.2,0.8,0.2,1.3c0,0.5-0.1,0.9-0.2,1.3c-0.1,0.4-0.3,0.7-0.6,1c-0.3,0.3-0.6,0.6-1,0.7
	c-0.4,0.2-0.8,0.2-1.3,0.2c-0.5,0-0.9-0.1-1.3-0.2c-0.4-0.2-0.7-0.4-1-0.7c-0.3-0.3-0.5-0.6-0.6-1c-0.1-0.4-0.2-0.8-0.2-1.3
	c0-0.5,0.1-0.9,0.2-1.3c0.1-0.4,0.3-0.8,0.6-1.1c0.3-0.3,0.6-0.6,1-0.7c0.4-0.2,0.8-0.3,1.3-0.3c0.5,0,0.9,0.1,1.3,0.3
	C60.9,26,61.2,26.2,61.5,26.5z M59.2,26.8c-0.5,0-0.9,0.2-1.2,0.6c-0.3,0.4-0.4,0.9-0.4,1.5s0.1,1.2,0.4,1.5
	c0.3,0.4,0.7,0.6,1.2,0.6c0.5,0,0.9-0.2,1.2-0.6c0.3-0.4,0.4-0.9,0.4-1.5s-0.1-1.2-0.4-1.5C60.1,27,59.7,26.8,59.2,26.8z M67,25.7
	c0.1,0,0.1,0,0.2,0c0.1,0,0.1,0,0.2,0v1.5c-0.1,0-0.2,0-0.3,0c-0.1,0-0.2,0-0.3,0c-0.5,0-0.9,0.2-1.2,0.5c-0.3,0.3-0.5,0.7-0.5,1.2
	v3.4h-1.5v-6.4h1.5v1c0.1-0.3,0.4-0.5,0.7-0.7C66.3,25.7,66.6,25.7,67,25.7z M71.2,32.2c-0.5,0-0.9-0.1-1.3-0.2
	c-0.4-0.2-0.7-0.4-1-0.7c-0.3-0.3-0.5-0.7-0.6-1.1c-0.1-0.4-0.2-0.8-0.2-1.3c0-0.4,0.1-0.9,0.2-1.3c0.1-0.4,0.4-0.8,0.6-1.1
	c0.3-0.3,0.6-0.6,1-0.7c0.4-0.2,0.8-0.3,1.2-0.3c0.9,0,1.6,0.3,2.1,0.9c0.5,0.6,0.8,1.3,0.8,2.3v0.5h-4.5c0.1,0.5,0.2,1,0.5,1.3
	c0.3,0.3,0.7,0.5,1.2,0.5c0.4,0,0.7-0.1,0.9-0.3c0.3-0.2,0.5-0.4,0.6-0.8l1.3,0.5c-0.2,0.6-0.6,1-1.1,1.3
	C72.4,32.1,71.9,32.2,71.2,32.2z M71.2,26.8c-0.4,0-0.7,0.1-1,0.3c-0.3,0.2-0.5,0.6-0.6,1h2.9c0-0.4-0.1-0.7-0.4-1
	C71.9,26.9,71.6,26.8,71.2,26.8z M83.8,31.2c-0.3,0.3-0.6,0.6-0.9,0.8c-0.4,0.2-0.8,0.3-1.2,0.3c-0.4,0-0.7-0.1-1.1-0.2
	c-0.3-0.1-0.6-0.3-0.8-0.6v2.9h-1.5v-8.6h1.5v0.7c0.2-0.3,0.5-0.5,0.8-0.6c0.3-0.1,0.7-0.2,1.1-0.2c0.4,0,0.8,0.1,1.2,0.3
	c0.4,0.2,0.7,0.4,0.9,0.8c0.2,0.3,0.4,0.7,0.5,1.1c0.1,0.4,0.2,0.8,0.2,1.3c0,0.4-0.1,0.9-0.2,1.3C84.2,30.6,84,30.9,83.8,31.2z
	 M81.4,26.9c-0.5,0-0.9,0.2-1.2,0.5c-0.3,0.3-0.4,0.8-0.4,1.4v0.4c0,0.6,0.1,1,0.4,1.4c0.3,0.3,0.7,0.5,1.1,0.5
	c0.5,0,0.9-0.2,1.2-0.6c0.3-0.4,0.4-0.9,0.4-1.5s-0.1-1.1-0.4-1.5C82.3,27,81.9,26.9,81.4,26.9z M89.2,25.7c0.1,0,0.1,0,0.2,0
	c0.1,0,0.1,0,0.2,0v1.5c-0.1,0-0.2,0-0.3,0c-0.1,0-0.2,0-0.3,0c-0.5,0-0.9,0.2-1.2,0.5c-0.3,0.3-0.5,0.7-0.5,1.2v3.4H86v-6.4h1.5v1
	c0.1-0.3,0.4-0.5,0.7-0.7C88.5,25.7,88.8,25.7,89.2,25.7z M95.7,26.5c0.3,0.3,0.5,0.6,0.6,1.1c0.1,0.4,0.2,0.8,0.2,1.3
	c0,0.5-0.1,0.9-0.2,1.3c-0.1,0.4-0.3,0.7-0.6,1c-0.3,0.3-0.6,0.6-1,0.7c-0.4,0.2-0.8,0.2-1.3,0.2c-0.5,0-0.9-0.1-1.3-0.2
	c-0.4-0.2-0.7-0.4-1-0.7c-0.3-0.3-0.5-0.6-0.6-1c-0.1-0.4-0.2-0.8-0.2-1.3c0-0.5,0.1-0.9,0.2-1.3c0.1-0.4,0.3-0.8,0.6-1.1
	c0.3-0.3,0.6-0.6,1-0.7c0.4-0.2,0.8-0.3,1.3-0.3c0.5,0,0.9,0.1,1.3,0.3C95.1,26,95.4,26.2,95.7,26.5z M93.4,26.8
	c-0.5,0-0.9,0.2-1.2,0.6c-0.3,0.4-0.4,0.9-0.4,1.5s0.1,1.2,0.4,1.5c0.3,0.4,0.7,0.6,1.2,0.6c0.5,0,0.9-0.2,1.2-0.6
	c0.3-0.4,0.4-0.9,0.4-1.5s-0.1-1.2-0.4-1.5C94.3,27,93.9,26.8,93.4,26.8z M100,32.2c-0.7,0-1.2-0.1-1.5-0.4
	c-0.3-0.3-0.4-0.7-0.4-1.3v-3.6h-0.9v-1.2h0.9v-1.9h1.4v1.9h1.3v1.2h-1.3v3.3c0,0.2,0.1,0.4,0.2,0.5c0.1,0.1,0.3,0.1,0.7,0.1
	c0.1,0,0.2,0,0.3,0c0.1,0,0.2,0,0.3,0v1.2c-0.1,0-0.3,0-0.5,0.1C100.4,32.2,100.2,32.2,100,32.2z M107.4,26.5
	c0.3,0.3,0.5,0.6,0.6,1.1c0.1,0.4,0.2,0.8,0.2,1.3c0,0.5-0.1,0.9-0.2,1.3c-0.1,0.4-0.3,0.7-0.6,1c-0.3,0.3-0.6,0.6-1,0.7
	c-0.4,0.2-0.8,0.2-1.3,0.2c-0.5,0-0.9-0.1-1.3-0.2c-0.4-0.2-0.7-0.4-1-0.7c-0.3-0.3-0.5-0.6-0.6-1c-0.1-0.4-0.2-0.8-0.2-1.3
	c0-0.5,0.1-0.9,0.2-1.3c0.1-0.4,0.3-0.8,0.6-1.1c0.3-0.3,0.6-0.6,1-0.7c0.4-0.2,0.8-0.3,1.3-0.3c0.5,0,0.9,0.1,1.3,0.3
	C106.8,26,107.1,26.2,107.4,26.5z M105.2,26.8c-0.5,0-0.9,0.2-1.2,0.6c-0.3,0.4-0.4,0.9-0.4,1.5s0.1,1.2,0.4,1.5
	c0.3,0.4,0.7,0.6,1.2,0.6c0.5,0,0.9-0.2,1.2-0.6c0.3-0.4,0.4-0.9,0.4-1.5s-0.1-1.2-0.4-1.5C106,27,105.6,26.8,105.2,26.8z
	 M112.5,26.8c-0.5,0-0.9,0.2-1.2,0.6c-0.3,0.4-0.5,0.9-0.5,1.5s0.2,1.1,0.5,1.5c0.3,0.4,0.7,0.6,1.2,0.6c0.4,0,0.7-0.1,0.9-0.3
	c0.3-0.2,0.4-0.5,0.5-0.9l1.3,0.6c-0.2,0.6-0.5,1-1,1.4c-0.5,0.3-1,0.5-1.7,0.5c-0.5,0-0.9-0.1-1.3-0.2c-0.4-0.2-0.7-0.4-1-0.7
	c-0.3-0.3-0.5-0.7-0.6-1.1c-0.1-0.4-0.2-0.8-0.2-1.3c0-0.5,0.1-0.9,0.2-1.3c0.1-0.4,0.4-0.8,0.6-1.1c0.3-0.3,0.6-0.5,1-0.7
	c0.4-0.2,0.8-0.3,1.3-0.3c0.6,0,1.2,0.2,1.7,0.5c0.5,0.3,0.8,0.8,1,1.3l-1.2,0.7c-0.1-0.4-0.3-0.7-0.5-0.9
	C113.2,26.9,112.9,26.8,112.5,26.8z M121.4,26.5c0.3,0.3,0.5,0.6,0.6,1.1c0.1,0.4,0.2,0.8,0.2,1.3c0,0.5-0.1,0.9-0.2,1.3
	c-0.1,0.4-0.3,0.7-0.6,1c-0.3,0.3-0.6,0.6-1,0.7c-0.4,0.2-0.8,0.2-1.3,0.2c-0.5,0-0.9-0.1-1.3-0.2c-0.4-0.2-0.7-0.4-1-0.7
	c-0.3-0.3-0.5-0.6-0.6-1c-0.1-0.4-0.2-0.8-0.2-1.3c0-0.5,0.1-0.9,0.2-1.3c0.1-0.4,0.3-0.8,0.6-1.1c0.3-0.3,0.6-0.6,1-0.7
	c0.4-0.2,0.8-0.3,1.3-0.3c0.5,0,0.9,0.1,1.3,0.3C120.8,26,121.1,26.2,121.4,26.5z M119.2,26.8c-0.5,0-0.9,0.2-1.2,0.6
	c-0.3,0.4-0.4,0.9-0.4,1.5s0.1,1.2,0.4,1.5c0.3,0.4,0.7,0.6,1.2,0.6c0.5,0,0.9-0.2,1.2-0.6c0.3-0.4,0.4-0.9,0.4-1.5
	s-0.1-1.2-0.4-1.5C120,27,119.6,26.8,119.2,26.8z M123.8,23.3h1.5v8.8h-1.5V23.3z M129.4,32.2c-0.6,0-1.2-0.1-1.7-0.4
	c-0.5-0.2-0.9-0.6-1.2-1l1.1-0.9c0.2,0.3,0.5,0.6,0.8,0.8c0.3,0.2,0.7,0.3,1.1,0.3c0.4,0,0.7-0.1,0.9-0.2c0.2-0.1,0.3-0.3,0.3-0.6
	c0-0.2,0-0.3-0.1-0.4c-0.1-0.1-0.2-0.2-0.5-0.2c0,0-0.2,0-0.3-0.1c-0.2,0-0.4-0.1-0.6-0.1c-0.4-0.1-0.7-0.2-0.9-0.2
	c-0.2-0.1-0.4-0.2-0.6-0.3c-0.2-0.2-0.4-0.3-0.5-0.6s-0.2-0.5-0.2-0.8c0-0.6,0.2-1.1,0.7-1.5c0.5-0.4,1.1-0.6,1.8-0.6
	c0.5,0,1.1,0.1,1.5,0.3c0.5,0.2,0.8,0.5,1.1,0.9l-1,0.9c-0.2-0.3-0.4-0.5-0.7-0.7c-0.3-0.2-0.6-0.2-1-0.2c-0.3,0-0.5,0.1-0.7,0.2
	c-0.2,0.1-0.3,0.3-0.3,0.5c0,0.1,0,0.2,0.1,0.3c0.1,0.1,0.2,0.2,0.4,0.2c0.1,0,0.1,0,0.2,0.1c0.1,0,0.3,0.1,0.6,0.1
	c0.5,0.1,0.9,0.2,1.1,0.3c0.2,0.1,0.4,0.1,0.5,0.2c0.3,0.2,0.5,0.4,0.6,0.6c0.1,0.2,0.2,0.5,0.2,0.8c0,0.6-0.3,1.1-0.8,1.5
	C130.8,32,130.2,32.2,129.4,32.2z M139.2,26.8c-0.5,0-0.9,0.2-1.2,0.6c-0.3,0.4-0.5,0.9-0.5,1.5s0.2,1.1,0.5,1.5
	c0.3,0.4,0.7,0.6,1.2,0.6c0.4,0,0.7-0.1,0.9-0.3c0.3-0.2,0.4-0.5,0.5-0.9l1.3,0.6c-0.2,0.6-0.5,1-1,1.4c-0.5,0.3-1,0.5-1.7,0.5
	c-0.5,0-0.9-0.1-1.3-0.2c-0.4-0.2-0.7-0.4-1-0.7c-0.3-0.3-0.5-0.7-0.6-1.1c-0.1-0.4-0.2-0.8-0.2-1.3c0-0.5,0.1-0.9,0.2-1.3
	c0.1-0.4,0.4-0.8,0.6-1.1c0.3-0.3,0.6-0.5,1-0.7c0.4-0.2,0.8-0.3,1.3-0.3c0.6,0,1.2,0.2,1.7,0.5c0.5,0.3,0.8,0.8,1,1.3l-1.2,0.7
	c-0.1-0.4-0.3-0.7-0.5-0.9C139.8,26.9,139.5,26.8,139.2,26.8z M148.1,26.5c0.3,0.3,0.5,0.6,0.6,1.1c0.1,0.4,0.2,0.8,0.2,1.3
	c0,0.5-0.1,0.9-0.2,1.3c-0.1,0.4-0.3,0.7-0.6,1c-0.3,0.3-0.6,0.6-1,0.7c-0.4,0.2-0.8,0.2-1.3,0.2c-0.5,0-0.9-0.1-1.3-0.2
	c-0.4-0.2-0.7-0.4-1-0.7c-0.3-0.3-0.5-0.6-0.6-1c-0.1-0.4-0.2-0.8-0.2-1.3c0-0.5,0.1-0.9,0.2-1.3c0.1-0.4,0.3-0.8,0.6-1.1
	c0.3-0.3,0.6-0.6,1-0.7c0.4-0.2,0.8-0.3,1.3-0.3c0.5,0,0.9,0.1,1.3,0.3C147.5,26,147.8,26.2,148.1,26.5z M145.8,26.8
	c-0.5,0-0.9,0.2-1.2,0.6c-0.3,0.4-0.4,0.9-0.4,1.5s0.1,1.2,0.4,1.5c0.3,0.4,0.7,0.6,1.2,0.6s0.9-0.2,1.2-0.6
	c0.3-0.4,0.4-0.9,0.4-1.5s-0.1-1.2-0.4-1.5C146.7,27,146.3,26.8,145.8,26.8z M153.2,26.9c-0.4,0-0.7,0.1-0.9,0.4
	c-0.2,0.3-0.4,0.6-0.4,1v3.8h-1.5v-6.4h1.5v0.7c0.2-0.3,0.5-0.5,0.8-0.6c0.3-0.1,0.6-0.2,1-0.2c0.4,0,0.7,0.1,1,0.2
	c0.3,0.1,0.5,0.4,0.7,0.7c0.3-0.3,0.6-0.5,0.9-0.7c0.3-0.1,0.7-0.2,1.1-0.2c0.7,0,1.2,0.2,1.6,0.6c0.4,0.4,0.6,1,0.6,1.7v4.2h-1.5
	v-3.8c0-0.4-0.1-0.8-0.3-1c-0.2-0.2-0.4-0.4-0.8-0.4c-0.4,0-0.7,0.1-0.9,0.4c-0.2,0.3-0.4,0.6-0.4,1v3.8h-1.5v-3.8
	c0-0.4-0.1-0.8-0.3-1C153.8,27.1,153.5,26.9,153.2,26.9z M162.9,24.8h-1.5v-1.5h1.5V24.8z M161.4,25.7h1.5v6.4h-1.5V25.7z
	 M166.2,32.1h-1.5v-6.4h1.5v0.7c0.2-0.3,0.5-0.5,0.8-0.6c0.3-0.1,0.6-0.2,1-0.2c0.7,0,1.2,0.2,1.6,0.6c0.4,0.4,0.6,1,0.6,1.7v4.2
	h-1.5v-3.8c0-0.4-0.1-0.8-0.3-1c-0.2-0.2-0.5-0.4-0.8-0.4c-0.4,0-0.7,0.1-1,0.4c-0.3,0.3-0.4,0.6-0.4,1V32.1z M177.7,25.7v5.8
	c0,0.9-0.3,1.6-0.9,2.2c-0.6,0.5-1.3,0.8-2.3,0.8c-0.8,0-1.4-0.2-1.9-0.5c-0.5-0.3-0.8-0.8-1-1.4l1.4-0.5c0.1,0.4,0.3,0.7,0.6,0.9
	c0.3,0.2,0.6,0.3,1,0.3c0.5,0,0.9-0.1,1.2-0.4c0.3-0.3,0.4-0.7,0.4-1.2v-0.5c-0.2,0.3-0.4,0.5-0.8,0.6c-0.3,0.1-0.7,0.2-1,0.2
	c-0.4,0-0.8-0.1-1.2-0.2c-0.4-0.2-0.7-0.4-0.9-0.7c-0.2-0.3-0.4-0.6-0.5-1c-0.1-0.4-0.2-0.8-0.2-1.2c0-0.4,0.1-0.8,0.2-1.2
	c0.1-0.4,0.3-0.7,0.5-1c0.3-0.3,0.6-0.6,0.9-0.7c0.4-0.2,0.7-0.2,1.2-0.2c0.4,0,0.7,0.1,1,0.2c0.3,0.1,0.6,0.3,0.8,0.6v-0.7H177.7z
	 M176.3,28.8v-0.1c0-0.6-0.1-1-0.4-1.3c-0.3-0.3-0.7-0.5-1.1-0.5c-0.5,0-0.9,0.2-1.2,0.5c-0.3,0.3-0.4,0.8-0.4,1.4
	c0,0.6,0.1,1.1,0.4,1.4c0.3,0.3,0.7,0.5,1.2,0.5c0.5,0,0.8-0.2,1.1-0.5C176.1,29.9,176.3,29.4,176.3,28.8z M184.8,32.2
	c-0.6,0-1.2-0.1-1.7-0.4c-0.5-0.2-0.9-0.6-1.2-1L183,30c0.2,0.3,0.5,0.6,0.8,0.8c0.3,0.2,0.7,0.3,1.1,0.3c0.4,0,0.7-0.1,0.9-0.2
	c0.2-0.1,0.3-0.3,0.3-0.6c0-0.2,0-0.3-0.1-0.4c-0.1-0.1-0.2-0.2-0.5-0.2c0,0-0.2,0-0.3-0.1c-0.2,0-0.4-0.1-0.6-0.1
	c-0.4-0.1-0.7-0.2-0.9-0.2c-0.2-0.1-0.4-0.2-0.5-0.3c-0.2-0.2-0.4-0.3-0.5-0.6c-0.1-0.2-0.2-0.5-0.2-0.8c0-0.6,0.2-1.1,0.7-1.5
	c0.5-0.4,1.1-0.6,1.8-0.6c0.5,0,1.1,0.1,1.5,0.3c0.5,0.2,0.8,0.5,1.1,0.9l-1,0.9c-0.2-0.3-0.4-0.5-0.7-0.7c-0.3-0.2-0.6-0.2-1-0.2
	c-0.3,0-0.5,0.1-0.7,0.2c-0.2,0.1-0.3,0.3-0.3,0.5c0,0.1,0,0.2,0.1,0.3c0.1,0.1,0.2,0.2,0.4,0.2c0.1,0,0.1,0,0.2,0.1
	c0.1,0,0.3,0.1,0.6,0.1c0.5,0.1,0.9,0.2,1.1,0.3c0.2,0.1,0.4,0.1,0.5,0.2c0.3,0.2,0.5,0.4,0.6,0.6c0.1,0.2,0.2,0.5,0.2,0.8
	c0,0.6-0.3,1.1-0.8,1.5C186.2,32,185.6,32.2,184.8,32.2z M193.9,26.5c0.3,0.3,0.5,0.6,0.6,1.1c0.1,0.4,0.2,0.8,0.2,1.3
	c0,0.5-0.1,0.9-0.2,1.3c-0.1,0.4-0.3,0.7-0.6,1c-0.3,0.3-0.6,0.6-1,0.7c-0.4,0.2-0.8,0.2-1.3,0.2c-0.5,0-0.9-0.1-1.3-0.2
	c-0.4-0.2-0.7-0.4-1-0.7c-0.3-0.3-0.5-0.6-0.6-1c-0.1-0.4-0.2-0.8-0.2-1.3c0-0.5,0.1-0.9,0.2-1.3c0.1-0.4,0.3-0.8,0.6-1.1
	c0.3-0.3,0.6-0.6,1-0.7c0.4-0.2,0.8-0.3,1.3-0.3c0.5,0,0.9,0.1,1.3,0.3C193.3,26,193.6,26.2,193.9,26.5z M191.6,26.8
	c-0.5,0-0.9,0.2-1.2,0.6c-0.3,0.4-0.4,0.9-0.4,1.5s0.1,1.2,0.4,1.5c0.3,0.4,0.7,0.6,1.2,0.6c0.5,0,0.9-0.2,1.2-0.6
	c0.3-0.4,0.4-0.9,0.4-1.5s-0.1-1.2-0.4-1.5C192.5,27,192.1,26.8,191.6,26.8z M201.2,26.5c0.3,0.3,0.5,0.6,0.6,1.1
	c0.1,0.4,0.2,0.8,0.2,1.3c0,0.5-0.1,0.9-0.2,1.3c-0.1,0.4-0.3,0.7-0.6,1c-0.3,0.3-0.6,0.6-1,0.7c-0.4,0.2-0.8,0.2-1.3,0.2
	c-0.5,0-0.9-0.1-1.3-0.2c-0.4-0.2-0.7-0.4-1-0.7c-0.3-0.3-0.5-0.6-0.6-1c-0.1-0.4-0.2-0.8-0.2-1.3c0-0.5,0.1-0.9,0.2-1.3
	c0.1-0.4,0.3-0.8,0.6-1.1c0.3-0.3,0.6-0.6,1-0.7c0.4-0.2,0.8-0.3,1.3-0.3c0.5,0,0.9,0.1,1.3,0.3C200.6,26,200.9,26.2,201.2,26.5z
	 M198.9,26.8c-0.5,0-0.9,0.2-1.2,0.6c-0.3,0.4-0.4,0.9-0.4,1.5s0.1,1.2,0.4,1.5c0.3,0.4,0.7,0.6,1.2,0.6c0.5,0,0.9-0.2,1.2-0.6
	c0.3-0.4,0.4-0.9,0.4-1.5s-0.1-1.2-0.4-1.5C199.8,27,199.4,26.8,198.9,26.8z M205,32.1h-1.5v-6.4h1.5v0.7c0.2-0.3,0.5-0.5,0.8-0.6
	c0.3-0.1,0.6-0.2,1-0.2c0.7,0,1.2,0.2,1.6,0.6c0.4,0.4,0.6,1,0.6,1.7v4.2h-1.5v-3.8c0-0.4-0.1-0.8-0.3-1c-0.2-0.2-0.5-0.4-0.8-0.4
	c-0.4,0-0.7,0.1-1,0.4c-0.3,0.3-0.4,0.6-0.4,1V32.1z M211.9,29.5h-1.1l-0.4-6.1h1.9L211.9,29.5z M212.3,32.1h-1.8v-1.8h1.8V32.1z"/>
<text transform="matrix(1 0 0 1 -62.2148 -83.6456)" style="font-family:'MyriadPro-Regular'; font-size:43.8165px;">346x446</text>
</svg>
