<svg width="30" height="30" viewBox="0 0 30 30" fill="none" xmlns="http://www.w3.org/2000/svg">
<path fill-rule="evenodd" clip-rule="evenodd" d="M29.4016 4.94647L24.9484 0.578524C24.5692 0.208003 24.056 0 23.521 0C22.9861 0 22.4729 0.208003 22.0937 0.578524L19.2791 3.342C18.8796 3.31075 18.484 3.24274 18.0975 3.13885C16.9572 2.81707 15.9469 2.15745 15.2059 1.25085C15.1115 1.14365 14.9946 1.05761 14.8631 0.998644C14.7316 0.939674 14.5886 0.909151 14.444 0.909151C14.2993 0.909151 14.1563 0.939674 14.0248 0.998644C13.8933 1.05761 13.7764 1.14365 13.682 1.25085C12.941 2.15745 11.9308 2.81707 10.7905 3.13885C9.9304 3.35526 9.03499 3.40295 8.15594 3.27918C7.2769 3.15541 6.43161 2.86263 5.66889 2.41773C5.48227 2.3065 5.2614 2.26348 5.04544 2.29628C4.82948 2.32908 4.63237 2.43559 4.48904 2.59693C2.85781 4.43684 0.109315 8.31333 0.0199329 13.6146V13.6583C-0.172512 17.3041 1.03398 20.8888 3.40305 23.7101C6.16143 26.8264 9.86912 28.9954 13.9814 29.8985L14.1736 29.9553C14.2756 29.9893 14.3833 30.0042 14.4909 29.999H14.5311C14.6637 29.9976 14.7946 29.9693 14.9155 29.916C19.0374 29.0228 22.7568 26.8579 25.5251 23.7407C27.8957 20.9202 29.1024 17.3349 28.9082 13.6889L28.9038 13.6146C28.8778 12.0487 28.6181 10.4954 28.1333 9.0036L29.4108 7.74931C29.7882 7.37701 30 6.87314 30 6.34789C30 5.82263 29.7882 5.31876 29.4108 4.94647H29.4016ZM26.6364 10.4734L24.9484 12.1307C24.7625 12.3206 24.5407 12.473 24.2952 12.5792C23.8003 12.7766 23.2464 12.7766 22.7514 12.5792C22.5053 12.4719 22.2821 12.3197 22.0937 12.1307L17.6359 7.75828C17.2585 7.38599 17.0467 6.88211 17.0467 6.35686C17.0467 5.83161 17.2585 5.32774 17.6359 4.95544L17.6929 4.8995L17.588 4.87386C16.4158 4.54745 15.3423 3.94755 14.4596 3.12572C13.5752 3.94531 12.5023 4.54489 11.3312 4.87386C9.36712 5.38605 7.28029 5.19222 5.44991 4.32757C3.25605 6.96955 2.01084 10.2434 1.90591 13.6452V13.6889L1.90569 13.7045C1.88319 15.3084 1.83089 19.0366 4.85551 22.565C7.36081 25.3802 10.7216 27.3374 14.4462 28.1504H14.4864C18.2227 27.347 21.5959 25.3904 24.1084 22.5694C27.0651 19.1202 27.0603 15.4801 27.0581 13.8201C27.0581 13.7765 27.058 13.7341 27.058 13.6932V13.6495C27.0419 12.5783 26.9004 11.5126 26.6364 10.4734ZM28.0314 6.35013C28.0294 6.41036 28.005 6.46778 27.9629 6.51157L23.6923 10.7046C23.648 10.7424 23.5912 10.7632 23.5325 10.7629C23.4737 10.7614 23.4179 10.7372 23.3772 10.6957L19.1066 6.50708C19.0686 6.46356 19.049 6.40741 19.0518 6.35013C19.0517 6.32184 19.0573 6.2938 19.0683 6.26763C19.0793 6.24147 19.0954 6.21769 19.1157 6.19764L23.3863 2.00012C23.4299 1.96457 23.4849 1.94548 23.5416 1.9463C23.5704 1.94623 23.599 1.95174 23.6256 1.96251C23.6523 1.97328 23.6765 1.98912 23.6969 2.00909L27.9583 6.19315C28.0008 6.23536 28.0267 6.29098 28.0314 6.35013ZM23.4638 4.32753L21.4724 6.28278C21.4573 6.29858 21.4489 6.31943 21.4489 6.34108C21.4489 6.36274 21.4573 6.38359 21.4724 6.39938L23.4638 8.36362C23.4799 8.37844 23.5011 8.38669 23.5232 8.38669C23.5452 8.38669 23.5664 8.37844 23.5825 8.36362L25.5739 6.40387C25.589 6.38808 25.5974 6.36723 25.5974 6.34557C25.5974 6.32391 25.589 6.30307 25.5739 6.28727L23.5962 4.32753C23.5893 4.3164 23.5796 4.30719 23.568 4.30081C23.5564 4.29443 23.5433 4.2911 23.53 4.2911C23.5167 4.2911 23.5036 4.29443 23.492 4.30081C23.4804 4.30719 23.4707 4.3164 23.4638 4.32753Z" fill="url(#paint0_linear_1485_39374)"/>
<path fill-rule="evenodd" clip-rule="evenodd" d="M14.3941 8.46953L14.3951 8.46774L14.3936 8.46869L14.3941 8.46953ZM14.3941 8.46953L10.1778 15.6053L10.1614 15.6334L10.1966 15.6167L14.3997 18.1452V18.1474H14.4016V18.1452L18.5991 15.6201L18.6276 15.6334L18.6143 15.611L18.6236 15.6053L18.6063 15.5974L14.3941 8.46953ZM14.3951 18.9817L18.6032 16.4368L14.3951 22.5L10.1874 16.4368L14.3951 18.9817Z" fill="url(#paint1_linear_1485_39374)"/>
<defs>
<linearGradient id="paint0_linear_1485_39374" x1="-6.07274e-07" y1="0.967742" x2="28.8508" y2="30" gradientUnits="userSpaceOnUse">
<stop stop-color="#940DFF"/>
<stop offset="1" stop-color="#0094FF"/>
</linearGradient>
<linearGradient id="paint1_linear_1485_39374" x1="7.56056" y1="8.46774" x2="21.4707" y2="22.2587" gradientUnits="userSpaceOnUse">
<stop stop-color="#940DFF"/>
<stop offset="1" stop-color="#0094FF"/>
</linearGradient>
</defs>
</svg>
