<svg width="22" height="36" viewBox="0 0 22 36" fill="none" xmlns="http://www.w3.org/2000/svg">
<path d="M10.9968 0L10.7566 0.820144V24.6188L10.9968 24.8597L21.9935 18.3298L10.9968 0Z" fill="url(#paint0_linear)"/>
<path d="M10.9967 0L0 18.3298L10.9967 24.8598V13.3086V0Z" fill="url(#paint1_linear)"/>
<path d="M10.9969 26.9514L10.8616 27.1171V35.5948L10.9969 35.992L22.0002 20.4248L10.9969 26.9514Z" fill="url(#paint2_linear)"/>
<path d="M10.9967 35.9918V26.9512L0 20.4246L10.9967 35.9918Z" fill="url(#paint3_linear)"/>
<path d="M10.9968 24.8597L21.9934 18.3299L10.9968 13.3087V24.8597Z" fill="url(#paint4_linear)"/>
<path d="M0 18.3298L10.9966 24.8596V13.3087L0 18.3298Z" fill="url(#paint5_linear)"/>
<defs>
<linearGradient id="paint0_linear" x1="16.3751" y1="0" x2="16.3751" y2="24.8597" gradientUnits="userSpaceOnUse">
<stop stop-color="#00B3EC"/>
<stop offset="1" stop-color="#3523FF"/>
</linearGradient>
<linearGradient id="paint1_linear" x1="5.49837" y1="0" x2="5.49837" y2="24.8598" gradientUnits="userSpaceOnUse">
<stop stop-color="#00B3EC"/>
<stop offset="1" stop-color="#3523FF"/>
</linearGradient>
<linearGradient id="paint2_linear" x1="16.4309" y1="20.4248" x2="16.4309" y2="35.992" gradientUnits="userSpaceOnUse">
<stop stop-color="#00B3EC"/>
<stop offset="1" stop-color="#3523FF"/>
</linearGradient>
<linearGradient id="paint3_linear" x1="5.49837" y1="20.4246" x2="5.49837" y2="35.9918" gradientUnits="userSpaceOnUse">
<stop stop-color="#00B3EC"/>
<stop offset="1" stop-color="#3523FF"/>
</linearGradient>
<linearGradient id="paint4_linear" x1="16.4951" y1="13.3087" x2="16.4951" y2="24.8597" gradientUnits="userSpaceOnUse">
<stop stop-color="#00B3EC"/>
<stop offset="1" stop-color="#3523FF"/>
</linearGradient>
<linearGradient id="paint5_linear" x1="5.49828" y1="13.3087" x2="5.49828" y2="24.8596" gradientUnits="userSpaceOnUse">
<stop stop-color="#00B3EC"/>
<stop offset="1" stop-color="#3523FF"/>
</linearGradient>
</defs>
</svg>
