<svg height="300px" width="300px"  fill="#ffffff" xmlns="http://www.w3.org/2000/svg" xmlns:xlink="http://www.w3.org/1999/xlink" version="1.1" x="0px" y="0px" viewBox="0 0 100 100" enable-background="new 0 0 100 100" xml:space="preserve"><path d="M57.72,87.282c0,4.263-3.458,7.718-7.721,7.718c-4.264,0-7.719-3.455-7.719-7.718c0-4.267,3.455-7.721,7.719-7.721  C54.262,79.562,57.72,83.016,57.72,87.282L57.72,87.282z"></path><path d="M60.605,15.265c-0.191-2.194-1.036-4.26-2.324-5.955C56.312,6.72,53.304,4.995,50,5c-3.206-0.004-6.132,1.619-8.102,4.08  c-1.39,1.736-2.304,3.89-2.504,6.185c-0.053,0.606-0.047,1.263,0,1.852l4.391,50.294c0.133,1.518,0.799,2.859,1.796,3.857  c1.14,1.141,2.712,1.834,4.419,1.832c1.536,0.002,2.963-0.56,4.063-1.503c1.193-1.022,2.003-2.496,2.151-4.187l4.391-50.294  C60.653,16.527,60.658,15.871,60.605,15.265z"></path></svg>