<svg width="47" height="38" viewBox="0 0 47 38" fill="none" xmlns="http://www.w3.org/2000/svg">
<path fill-rule="evenodd" clip-rule="evenodd" d="M8.0614 0C5.92065 0 3.86926 0.855438 2.35803 2.37532C0.84729 3.8949 0 5.95407 0 8.09938V24.9278C0 27.0731 0.84729 29.1323 2.35803 30.6519C3.86926 32.1717 5.92065 33.0272 8.0614 33.0272H33.4976L45.0045 37.0035C45.5548 37.1937 46.1655 37.0482 46.5709 36.6303C46.9764 36.2125 47.1034 35.5977 46.8967 35.0533L43.2441 25.4333C43.2869 25.2931 43.3201 25.1226 43.3201 24.9278V8.09938C43.3201 5.95407 42.4728 3.8949 40.9619 2.37532C39.4508 0.855438 37.3994 0 35.2585 0H8.0614ZM4.48547 4.49051C5.43542 3.53514 6.7218 3 8.0614 3H35.2585C36.5981 3 37.8846 3.53514 38.8345 4.49051C39.7847 5.44618 40.3201 6.74416 40.3201 8.09938V24.5849C40.3146 24.5956 40.3091 24.6067 40.3036 24.618C40.2267 24.7769 40.1232 25.0454 40.1232 25.3898C40.1232 25.5717 40.1562 25.7521 40.2208 25.9222L42.9541 33.1209L34.2394 30.1094C34.0818 30.055 33.9161 30.0272 33.7495 30.0272H8.0614C6.7218 30.0272 5.43542 29.492 4.48547 28.5367C3.5354 27.581 3 26.283 3 24.9278V8.09938C3 6.74416 3.5354 5.44617 4.48547 4.49051ZM10.3593 22.0238V17.6682L14.7225 17.8002V15.8864H10.3593V13.1477H15.5756V11.0688H8.16113V22.0238H10.3593ZM14.8213 22.0238L18.8894 11.0688H21.4155L25.5165 22.0238H23.2527L22.3998 19.747H17.9052L17.0521 22.0898L14.8213 22.0238ZM21.678 17.7672L20.1361 13.5766L18.5941 17.7672H21.678ZM25.7463 18.757C25.9677 19.4115 26.313 20.0167 26.7634 20.5389C27.2148 20.9418 27.738 21.2553 28.3053 21.4628C28.9663 21.7561 29.6825 21.9024 30.405 21.8918H31.0939C31.3124 21.9077 31.5316 21.9077 31.7501 21.8918C32.0132 22.3381 32.3584 22.73 32.7671 23.0466C33.2377 23.4082 33.772 23.6769 34.3418 23.8386L35.6542 22.2217C35.2291 22.1285 34.8202 21.9729 34.4403 21.7598C34.1234 21.5725 33.8451 21.3261 33.6201 21.0338C34.2871 20.5322 34.8082 19.86 35.1293 19.087C35.5024 18.2579 35.6927 17.3574 35.6869 16.4473C35.6891 15.7061 35.5671 14.9699 35.326 14.2695C35.1079 13.6053 34.7566 12.9933 34.2938 12.4711C33.8311 11.949 33.2668 11.5278 32.6359 11.2337C31.9717 10.9506 31.2576 10.8047 30.5363 10.8047C29.8148 10.8047 29.1007 10.9506 28.4365 11.2337C27.7888 11.5139 27.2156 11.9435 26.7634 12.4876C26.2992 12.9999 25.9521 13.608 25.7463 14.2695C25.5054 14.9699 25.3833 15.7061 25.3855 16.4473C25.3741 17.2322 25.4962 18.0134 25.7463 18.757ZM31.7007 19.9598C31.3365 20.1315 30.9382 20.2167 30.5363 20.2089C30.156 20.1993 29.7825 20.1056 29.4424 19.9345C29.1022 19.7635 28.8036 19.5192 28.5677 19.219C27.9957 18.4501 27.7059 17.5057 27.7476 16.5462C27.7112 15.5875 28.0005 14.6449 28.5677 13.8735C28.8173 13.5559 29.137 13.301 29.5013 13.1292C29.8658 12.9574 30.265 12.8733 30.6675 12.8836C31.0695 12.8758 31.4678 12.961 31.8319 13.1327C32.1959 13.3043 32.5159 13.5578 32.7671 13.8735C33.2511 14.64 33.4808 15.5411 33.4232 16.4473C33.4866 17.4349 33.2084 18.4141 32.6359 19.219C32.3846 19.5347 32.0647 19.7882 31.7007 19.9598Z" fill="white"/>
</svg>
