<svg width="135" height="110" viewBox="0 0 135 110" fill="none" xmlns="http://www.w3.org/2000/svg">
<path fill-rule="evenodd" clip-rule="evenodd" d="M105.65 13.1979C104.168 16.3663 103.961 19.9832 105.072 23.3C106.183 26.6167 108.527 29.3793 111.618 31.016C114.709 32.6527 118.311 33.0382 121.679 32.0926C125.047 31.147 127.922 28.9428 129.709 25.9362C130.93 24.9212 131.964 23.7022 132.768 22.3335C133.226 21.5496 136.171 16.3131 134.153 10.5591C131.943 4.25329 125.586 2.49605 124.451 2.21418C123.102 1.87848 122.383 1.94841 121.589 2.02569C120.708 2.11133 119.735 2.206 117.708 1.76781C116.326 1.46841 115.225 1.08624 114.268 0.753898C112.487 0.135212 111.202 -0.310834 109.524 0.271049C107.991 0.800912 106.973 1.87287 106.441 2.43334L106.432 2.44295C105.73 3.18319 103.862 5.1563 103.873 7.70174C103.879 8.75182 104.204 9.36394 104.586 10.083C104.889 10.6546 105.229 11.2938 105.472 12.2743C105.548 12.5788 105.607 12.8871 105.65 13.1979ZM108.385 11.5263C108.911 11.0484 109.501 10.6449 110.137 10.3269L110.16 10.3157C110.961 9.91879 111.906 9.45026 113.149 9.52665C114.62 9.61736 115.844 10.4267 117.404 11.458C118.305 12.0535 119.318 12.723 120.555 13.371C120.94 13.5731 121.729 13.9707 122.727 13.8996C123.307 13.8576 123.747 13.6708 124.242 13.4566C125.005 13.1235 125.714 12.6753 126.342 12.1278C125.297 13.4635 124.254 15.2447 124.8 16.7543C125.056 17.4633 125.56 17.836 126.084 18.2239C126.178 18.2935 126.273 18.3635 126.367 18.4361C126.482 18.247 126.609 18.0655 126.748 17.8929C127.655 16.7586 128.894 16.1606 129.862 16.2925C129.899 16.2976 129.935 16.3036 129.971 16.3105C129.987 16.3136 130.002 16.3169 130.018 16.3204L130.042 16.326L130.073 16.3336H130.082C130.102 16.339 130.122 16.3448 130.142 16.3508L130.166 16.3584L130.176 16.3619L130.193 16.3679C130.221 16.3773 130.249 16.3876 130.278 16.3987L130.304 16.4099L130.332 16.4221C130.347 16.4288 130.362 16.4359 130.377 16.4433L130.413 16.4621L130.473 16.4938L130.523 16.5255L130.566 16.553C130.597 16.5747 130.627 16.5969 130.656 16.6198C131.63 17.3994 131.46 19.2321 130.275 20.7125C130.245 20.7498 130.215 20.7864 130.184 20.8234C130.167 20.8434 130.15 20.8635 130.133 20.8839L130.115 20.9053C130.07 20.9567 130.024 21.0073 129.977 21.0561C129.436 21.6233 128.813 22.0191 128.21 22.2076C128.3 23.1792 128.258 24.3709 128.024 25.8368C127.6 26.4523 127.122 27.0278 126.593 27.5563C124.408 29.7432 121.472 31.0152 118.382 31.1137C115.292 31.2121 112.28 30.1295 109.96 28.0861C107.64 26.0428 106.186 23.1922 105.894 20.1146C105.601 17.0369 106.492 13.9634 108.385 11.5195L108.385 11.5263ZM21.6552 64.4443L21.6555 64.4447L21.6718 64.4744L21.6879 64.5034L21.7282 64.5737C12.4554 63.9354 7.38684 62.7702 5.55251 62.2699C4.19711 61.8997 2.66521 61.3951 1.64567 60.0834C1.00481 59.26 0.658681 58.2474 0.38623 57.0436V47.8882V47.4187V46.1173H0.478757C0.791475 43.2377 1.8273 40.078 3.38404 36.9791C5.03588 38.1588 6.8942 38.7783 8.80563 38.7783C8.86307 38.7783 8.92007 38.7766 8.97677 38.7748L8.97696 38.7748H8.97714H8.97732H8.9775H8.97768H8.97786H8.97804H8.97822H8.97839H8.97857H8.97874H8.97891C9.03567 38.7731 9.09211 38.7714 9.14834 38.7714C12.7759 38.6309 15.2099 36.2851 16.0881 35.2836L16.5293 34.7798V32.0604C18.6829 32.4875 20.9044 32.4322 23.034 31.8985C25.1636 31.3647 27.1486 30.3658 28.8461 28.9735C28.5644 28.3924 28.3445 27.7833 28.1899 27.1563C26.3774 28.7356 24.18 29.808 21.8199 30.2651C19.4598 30.7222 17.0208 30.5476 14.7498 29.7591V34.1038C14.2795 34.641 12.2258 36.8643 9.07894 36.9868C5.26206 37.1359 2.09805 34.103 1.1616 31.19C0.50247 29.139 1.07334 27.5405 2.05362 24.7956C2.42017 23.7693 2.84396 22.5826 3.28209 21.1521C4.43243 17.3846 5.20559 13.5122 5.5902 9.59184H5.63647C6.41184 6.91017 8.27701 4.5755 10.831 2.9091C14.8955 0.257417 18.8889 0.199151 20.1534 0.24713L20.1746 0.247924C21.5763 0.300466 29.1943 0.586033 32.4231 6.66772C34.8006 11.1469 33.2396 15.8308 32.8592 16.8829C32.8592 17.1742 32.8489 17.4629 32.8309 17.7499C32.8335 20.1052 33.5326 21.4263 34.2523 22.2145C34.6972 22.7018 35.1462 22.9834 35.5724 23.2507C35.8956 23.4535 36.2058 23.648 36.491 23.9178C37.8473 24.8748 38.7478 26.5497 38.7478 28.4586C38.7478 30.9749 37.1842 33.0868 35.0723 33.672C39.6414 35.359 43.0898 37.2344 44.6748 39.0002L33.1745 41.8935C32.6957 42.0134 32.2841 42.3187 32.0303 42.742C31.7764 43.1653 31.7011 43.6722 31.8208 44.1511L33.2773 49.977C32.3272 50.1612 31.7437 50.761 31.2211 51.3033L31.2163 51.3082C30.859 51.6775 30.3191 52.2356 29.3876 53.0391C28.6256 53.6958 27.9302 54.4262 27.3117 55.2196C27.2517 55.2992 27.1926 55.3789 27.1343 55.4603V55.4663C27.0735 55.5468 27.017 55.6248 26.963 55.7105V55.7165C26.9082 55.7987 26.855 55.8801 26.8045 55.9658C26.7531 56.0515 26.7034 56.1371 26.6563 56.2228L24.9428 56.2571L24.7448 56.3119L24.6763 56.3308C24.6137 56.3488 24.5521 56.3676 24.4904 56.3873C21.8464 56.216 19.1947 56.0112 16.573 55.7876C14.9889 55.6522 13.3807 55.5049 11.7914 55.3506C11.2424 55.1383 10.75 54.8017 10.3528 54.3673C9.95562 53.9328 9.66447 53.4122 9.50218 52.8463L9.75921 43.5693C9.76455 43.3809 9.69484 43.1981 9.56541 43.0612C9.43599 42.9242 9.25745 42.8442 9.06908 42.8389C8.88071 42.8336 8.69794 42.9033 8.56097 43.0327C8.42399 43.1621 8.34403 43.3407 8.33869 43.529L8.07224 53.0125L8.09709 53.1102C8.31074 53.9331 8.72165 54.6917 9.29429 55.3201C9.86693 55.9486 10.584 56.4281 11.3836 56.7172L11.4693 56.7472L11.555 56.7557C13.1794 56.9142 14.8252 57.065 16.4454 57.203C18.4382 57.3734 20.4473 57.5294 22.4573 57.6725L22.3622 57.777L22.3339 57.8087C22.3048 57.843 22.2762 57.8772 22.2482 57.9115L22.2165 57.95L22.1309 58.0563L22.1077 58.0871C22.0152 58.2088 21.9278 58.3344 21.8455 58.4641L21.8267 58.4941C21.8027 58.5318 21.7796 58.5695 21.7573 58.6081L21.729 58.6569L21.7134 58.684L21.6944 58.7173C21.6847 58.7345 21.6751 58.7518 21.6656 58.7691L21.6382 58.8197L21.6223 58.85L21.6222 58.8503C21.607 58.8792 21.592 58.9079 21.5774 58.937C21.5714 58.9473 21.5662 58.9585 21.5611 58.9696C21.5269 59.0386 21.4939 59.1109 21.4619 59.1807L21.4619 59.1808L21.4618 59.1809L21.4377 59.2335L21.4266 59.2592C21.4103 59.2977 21.3949 59.3363 21.3795 59.3749C21.3764 59.3819 21.3734 59.389 21.3704 59.3961L21.3586 59.4258L21.3529 59.44L21.3118 59.5505L21.2861 59.6224L21.2654 59.6825L21.2484 59.7321L21.2439 59.7455L21.2368 59.7682L21.2355 59.7724C21.2326 59.7819 21.2292 59.7929 21.2244 59.8075C21.2124 59.8442 21.2013 59.8809 21.1902 59.9176L21.1901 59.918L21.1747 59.9729C21.155 60.0448 21.1353 60.1177 21.1182 60.1905C21.1114 60.2167 21.106 60.2403 21.0996 60.2682L21.0967 60.2804L21.0935 60.2946L21.0934 60.2947L21.0842 60.3352C21.0806 60.3511 21.0773 60.3668 21.0745 60.3815L21.0691 60.4088L21.0651 60.4289L21.065 60.4291L21.0605 60.4514L21.0556 60.4766L21.0376 60.576C21.0316 60.6094 21.0265 60.6454 21.0214 60.6771C21.0163 60.7083 21.0129 60.7312 21.0071 60.7701L21.007 60.7708L21.0068 60.7722C21.0016 60.8067 20.9972 60.8436 20.9927 60.8798L20.9927 60.88L20.9905 60.8982L20.9777 61.0164L20.9764 61.0294L20.9748 61.0444L20.9724 61.0646C20.9686 61.0962 20.9648 61.1276 20.9648 61.1595L20.9596 61.2452C20.9537 61.2836 20.9537 61.3357 20.9537 61.3615V61.3617V61.4474V61.5647V61.6504V61.7841V61.8543C20.9562 61.9203 20.9605 61.9863 20.9648 62.0531C20.9708 62.0745 20.9708 62.0959 20.9708 62.1173L20.9709 62.1185L20.9709 62.1187C20.9752 62.1653 20.9794 62.212 20.9845 62.2587C20.9855 62.2688 20.9871 62.2789 20.9887 62.289C20.9913 62.3056 20.9939 62.3222 20.9939 62.3392L20.9957 62.3534L21.0009 62.3961L21.0057 62.4334L21.0102 62.4669L21.0231 62.5483C21.0283 62.5843 21.034 62.6167 21.0399 62.6499L21.0399 62.65L21.0453 62.6811C21.0496 62.7059 21.0539 62.7299 21.059 62.7548C21.071 62.8165 21.0839 62.8781 21.0976 62.9398V62.9578V62.9681C21.1164 63.0504 21.1379 63.1318 21.1601 63.2123C21.1678 63.2431 21.1756 63.2706 21.1841 63.298C21.2004 63.3537 21.2184 63.4111 21.2373 63.4693C21.2467 63.4976 21.2552 63.5267 21.2647 63.555C21.2878 63.6227 21.3118 63.6895 21.3375 63.7555L21.3433 63.7717C21.3478 63.7838 21.3525 63.796 21.3572 63.8077C21.3855 63.8814 21.4163 63.9551 21.448 64.0271C21.4609 64.0536 21.4746 64.0828 21.4883 64.1128C21.5106 64.1607 21.5328 64.2087 21.5568 64.2567C21.5714 64.2875 21.5868 64.3184 21.6022 64.3492C21.6206 64.3812 21.638 64.4129 21.6552 64.4443ZM21.6933 28.7922C24.0165 28.3108 26.1485 27.1612 27.8275 25.4848C28.9604 24.358 29.8585 23.0175 30.4696 21.5411C31.0806 20.0647 31.3926 18.4816 31.3873 16.8837C31.3878 16.1418 31.3206 15.4014 31.1868 14.6716C30.8449 14.3984 30.4476 14.2031 30.0225 14.0993C28.5559 13.7532 27.2986 14.7335 25.8218 15.885C24.3007 17.0711 22.5466 18.4389 20.0909 18.7258C17.8924 18.9828 16.0033 18.4311 14.7498 17.9238V21.4777C14.7036 21.412 14.6558 21.3495 14.6061 21.2844L14.5639 21.2292C13.4022 19.7779 11.6869 19.221 10.7316 19.9852C9.77634 20.7495 9.94341 22.5452 11.1052 23.9966C12.1941 25.3562 13.7706 25.9311 14.7498 25.3674V28.1947C16.9567 29.0659 19.37 29.2736 21.6933 28.7922ZM21.4737 39.7165L15.0617 40.7009H15.0643C14.6336 40.7715 14.248 41.0089 13.991 41.3616C13.7339 41.7144 13.6261 42.1541 13.6909 42.5858L14.6265 49.1383C14.6541 49.3509 14.7238 49.5558 14.8314 49.7412C14.939 49.9267 15.0824 50.0888 15.2532 50.2183C15.4241 50.3478 15.619 50.442 15.8266 50.4954C16.0342 50.5489 16.2504 50.5605 16.4625 50.5296L22.8737 49.5452C23.304 49.4742 23.6891 49.2366 23.9456 48.8839C24.2022 48.5312 24.3095 48.0916 24.2445 47.6604L23.3098 41.1087C23.2821 40.8961 23.2125 40.6911 23.1049 40.5056C22.9973 40.3202 22.8539 40.1579 22.6831 40.0284C22.5122 39.8988 22.3173 39.8045 22.1097 39.751C21.9021 39.6974 21.6859 39.6857 21.4737 39.7165ZM62.8292 56.1832L63.3338 56.1661C63.8052 56.1494 64.2639 56.3205 64.6093 56.6417C64.9547 56.963 65.1584 57.4082 65.1758 57.8796L65.4954 66.9347C65.5116 67.4061 65.3404 67.8646 65.0192 68.21C64.6981 68.5554 64.2532 68.7595 63.7819 68.7776L54.7268 69.0963C54.2553 69.113 53.7965 68.9419 53.4509 68.6207C53.1054 68.2994 52.9015 67.8542 52.8839 67.3828L52.5652 58.3277C52.5483 57.8561 52.7192 57.3972 53.0405 57.0516C53.3618 56.7061 53.8072 56.5022 54.2787 56.4848L54.7842 56.4668L54.6985 54.085C54.664 53.0191 55.0527 51.9829 55.7798 51.2027C56.5068 50.4225 57.5131 49.9618 58.5788 49.9211H58.583C58.8149 49.9181 59.0466 49.933 59.2762 49.9657C59.5464 50.0038 59.8126 50.0669 60.0712 50.1542C60.8295 50.4265 61.489 50.9192 61.9651 51.5691C62.4413 52.219 62.7123 52.9964 62.7435 53.8014L62.8292 56.1832ZM59.8613 63.2609L59.8074 61.735V61.7316C60.054 61.5505 60.2363 61.2954 60.3277 61.0034C60.4192 60.7114 60.415 60.3979 60.3158 60.1085C60.2165 59.8191 60.0274 59.5689 59.7761 59.3945C59.5247 59.22 59.2242 59.1305 58.9184 59.1388C58.6125 59.1471 58.3173 59.2529 58.0758 59.4408C57.8343 59.6286 57.6591 59.8887 57.5758 60.1831C57.4925 60.4775 57.5054 60.7908 57.6126 61.0774C57.7198 61.3639 57.9157 61.6087 58.1718 61.7761L58.2258 63.3183L58.2798 64.8348L58.3029 65.4962C58.3105 65.7131 58.4039 65.9181 58.5627 66.066C58.7214 66.214 58.9325 66.2929 59.1494 66.2853C59.3663 66.2777 59.5712 66.1842 59.7192 66.0255C59.8672 65.8667 59.9461 65.6557 59.9385 65.4388L59.9145 64.7765L59.8613 63.2609ZM56.3058 54.8372L56.3615 56.4145L61.251 56.2423L61.1953 54.665L61.167 53.8605C61.1594 53.6388 61.1217 53.4192 61.0548 53.2077C60.8141 52.4486 60.2452 52.0245 60.0019 51.8625C59.5671 51.6749 59.1068 51.5534 58.6362 51.5018C58.3016 51.5141 57.973 51.5946 57.6706 51.7383C57.5789 51.7829 56.7222 52.2087 56.4232 53.1177C56.2904 53.5204 56.2904 53.9488 56.2904 54.396C56.2904 54.5802 56.2989 54.7327 56.3058 54.8372ZM21.487 97.4228C19.7392 98.7028 16.6532 100.457 12.8612 100.457C12.0466 100.457 11.2341 100.375 10.4357 100.214C9.01856 99.924 7.66137 99.394 6.42258 98.6471C6.61114 99.2469 6.89181 99.8137 7.25451 100.327C7.47812 103.343 10.2532 106.605 14.3048 108.251C19.2432 110.258 24.1987 109.099 25.3733 105.662C26.2926 102.973 24.6228 99.6872 21.487 97.4228ZM27.9283 92.2797C32.5129 91.9507 35.3959 88.689 36.7667 86.6593C40.9357 88.8552 43.3663 92.7911 42.2971 95.92C41.1225 99.3565 36.167 100.516 31.2286 98.5083C27.9069 97.158 25.4403 94.718 24.5381 92.2197L24.5379 92.2196C24.4343 92.1639 24.3307 92.1083 24.2271 92.0483C24.0558 91.9489 23.8913 91.8436 23.7302 91.7339C24.8501 92.1073 26.0222 92.3002 27.2027 92.3054C27.446 92.3054 27.6876 92.2977 27.9283 92.2797ZM36.9151 54.3997C36.8654 53.5905 36.5127 52.8298 35.9272 52.269C35.3652 51.7189 34.6506 51.3891 33.9652 51.3651H33.8881C33.177 51.3651 32.8351 51.7189 32.2688 52.3075C31.6569 52.9488 31.0129 53.5587 30.3394 54.135C30.0987 54.3432 27.9739 56.2083 27.6243 57.6546L25.1509 57.7043L25.0652 57.7291C24.7522 57.8149 24.4537 57.9466 24.1793 58.1198C22.8162 58.9765 22.1188 60.8794 22.5215 62.6332C22.7785 63.7736 23.4408 64.7169 24.3258 65.2215C24.6059 65.3802 24.907 65.4984 25.2203 65.5727L25.3119 65.5942L31.9527 65.4614C32.6482 65.5882 33.3534 65.6539 34.0603 65.6576H34.1006C35.6269 65.6409 37.1451 65.4319 38.6192 65.0356C41.4173 64.249 43.2457 62.7729 43.9139 60.7672C44.3158 59.5583 44.3192 58.1018 43.9242 56.7729C43.4958 55.3353 42.6845 54.2721 41.6375 53.7794C41.2751 53.6047 40.8781 53.5136 40.4758 53.513C39.6242 53.513 38.7855 53.9156 37.6256 54.4724L37.6253 54.4726C37.4008 54.5805 37.1607 54.6947 36.9048 54.8153C36.9206 54.6773 36.9241 54.5383 36.9151 54.3997ZM20.2956 96.523C19.6719 96.9538 19.0179 97.3392 18.3388 97.6762C15.7822 98.939 13.2179 99.3246 10.7136 98.8208C9.10021 98.4866 7.57774 97.8086 6.24988 96.8331C6.17555 96.245 6.26447 95.6477 6.50691 95.1068C6.51703 95.0847 6.52839 95.0631 6.53985 95.0413L6.54 95.041L6.55489 95.0125L9.22285 72.1061C9.25916 72.0704 9.29121 72.0347 9.32358 71.9987L9.35736 71.9613L9.86027 67.645C9.15741 66.6603 8.65495 65.5471 8.3815 64.3687C11.3802 64.9539 16.1489 65.6615 23.003 66.0762C23.1922 66.227 23.3927 66.363 23.6027 66.4832C24.0026 66.7103 24.4327 66.8793 24.8802 66.9852L25.1526 67.0503L31.8354 66.9158C32.5673 67.0412 33.3083 67.1062 34.0509 67.1103H34.0981C34.1957 67.1103 34.3919 67.1086 34.6627 67.0975C34.2366 67.7906 33.7327 68.4328 33.1608 69.0115C33.5914 71.2042 34.0218 73.397 34.4519 75.5897C34.8495 78.4519 35.2467 81.314 35.6437 84.1762C35.7769 84.4997 35.8464 84.8459 35.8484 85.1957C35.8484 85.3045 35.8424 85.4168 35.8322 85.5307L35.8424 85.6061C35.3181 86.4271 34.7102 87.1916 34.0287 87.8876C32.2021 89.7451 30.1133 90.7698 27.8326 90.9343C26.3555 91.0397 24.8185 90.7681 23.3337 90.1469C23.2024 84.839 23.0707 79.5314 22.9387 74.224C22.4664 77.0947 22.034 80.0706 21.6416 83.1515C21.0487 87.814 20.6109 92.2803 20.2956 96.523ZM127.003 63.8419C126.719 64.7483 126.301 65.6073 125.764 66.3908C126.839 74.9693 127.916 83.5469 128.992 92.1236C129.118 93.2597 129.246 94.3958 129.373 95.5318L128.292 97.2128C128.069 100.101 125.29 103.225 121.242 104.801C116.304 106.724 111.348 105.613 110.173 102.323C109.143 99.4344 111.366 95.83 115.261 93.6881C114.946 89.5893 114.505 85.273 113.906 80.7647C113.51 77.814 113.078 74.9653 112.608 72.2185C112.472 77.5235 112.334 82.8292 112.196 88.1354L112.111 88.7874L111.009 89.4479C110.107 91.8409 107.64 94.1773 104.317 95.4701C99.3791 97.3927 94.4236 96.2832 93.249 92.9915C92.094 89.759 95.025 85.6182 99.8178 83.6528C100.097 80.4845 100.507 77.0977 101.094 73.5268C101.585 70.5444 102.152 67.7231 102.762 65.0722C102.117 63.7751 101.776 62.3906 101.841 60.9983C101.855 60.7079 101.887 60.4187 101.936 60.1321L101.927 60.1407C101.941 59.4553 101.955 58.7699 101.97 58.0845C102.279 58.123 102.6 58.1667 102.942 58.219L109.947 60.0182L110.799 60.4886L110.783 60.5194C111.046 60.6565 111.311 60.7893 111.576 60.9178L112.476 61.4147L112.555 61.4387C112.637 61.4627 112.741 61.4893 112.86 61.5124C116.658 63.1754 120.484 64.0321 124.112 64.0321C124.735 64.0321 125.354 64.0073 125.964 63.9559C126.337 63.9276 126.682 63.8865 127.003 63.8419ZM17.7785 47.2045L20.671 46.7599L21.6657 48.5591L23.0767 48.3423L19.0799 41.1052L17.7383 41.3108L15.9391 49.4389L17.3433 49.223L17.7785 47.2045ZM18.6653 43.1195L20.013 45.5604L18.0715 45.8585L18.6653 43.1195ZM127.937 31.2292C129.594 32.5329 131.02 34.1051 132.156 35.8806C133.032 37.598 133.749 39.3914 134.301 41.2387C134.496 41.9079 134.646 42.5256 134.762 43.0851C134.608 46.0999 134.26 49.1017 133.72 52.0717C132.578 58.3166 131.37 60.2571 129.909 61.2493C129.229 61.7111 128.215 62.2097 125.842 62.4068C122.511 62.6844 118.946 62.1429 115.357 60.8346C115.453 60.7626 115.547 60.6881 115.638 60.6076C116.205 60.0964 116.674 59.4869 117.024 58.8084C117.277 58.3313 117.47 57.8244 117.597 57.2996C117.724 56.7885 117.762 56.2591 117.708 55.7352C117.672 55.4146 117.587 55.1015 117.455 54.8073C118.36 54.9604 119.267 55.0763 120.176 55.1551C121.138 55.2382 122.115 55.2794 123.089 55.2794C123.534 55.2794 123.977 55.2708 124.419 55.2537C124.604 55.2465 124.78 55.1742 124.916 55.0497C125.052 54.9251 125.14 54.7564 125.163 54.5734L126.61 43.2838C126.623 43.1822 126.616 43.0791 126.589 42.9802C126.563 42.8814 126.517 42.7888 126.454 42.7077C126.391 42.6266 126.313 42.5587 126.224 42.5077C126.136 42.4568 126.038 42.4239 125.936 42.4108C125.834 42.3978 125.731 42.4048 125.632 42.4317C125.533 42.4585 125.441 42.5045 125.36 42.5671C125.279 42.6297 125.211 42.7077 125.16 42.7966C125.109 42.8854 125.076 42.9835 125.063 43.0851L123.7 53.7141C120.552 53.7736 117.412 53.3733 114.379 52.5257C114.319 52.4683 114.26 52.4101 114.2 52.3484C113.814 51.955 113.474 51.5183 113.188 51.047C113.007 50.7466 112.86 50.4563 112.711 50.1613C112.661 50.0626 112.611 49.9633 112.559 49.8629C112.419 49.581 112.259 49.3088 112.082 49.0481C111.81 48.659 111.492 48.3043 111.135 47.9917C110.769 47.6681 110.367 47.3894 109.935 47.1615C109.601 46.9826 109.246 46.8448 108.878 46.7512C108.508 46.6549 108.124 46.623 107.743 46.6569C107.266 46.6999 106.81 46.8723 106.425 47.1555C106.267 47.2707 106.121 47.4006 105.989 47.5437C105.776 47.7756 105.592 48.0329 105.442 48.3096C105.281 48.1974 105.108 48.0869 104.919 47.9798L104.832 47.9329C104.804 47.9178 104.776 47.9029 104.747 47.8881C104.151 47.578 103.517 47.3435 102.863 47.1898C102.773 47.1693 102.684 47.1495 102.593 47.1307L103.863 44.3891C103.935 44.2345 103.954 44.0607 103.918 43.8942C103.881 43.7277 103.792 43.5777 103.662 43.4672C103.601 43.4151 103.531 43.3729 103.457 43.3421L88.9693 51.9294C89.4293 51.1446 89.6648 50.2484 89.6499 49.3387C89.635 48.4291 89.3704 47.5411 88.8849 46.7717C88.3994 46.0023 87.7117 45.3812 86.897 44.9763C86.0824 44.5713 85.1721 44.3981 84.2656 44.4756L102.124 34.1019C104.167 32.1528 105.859 31.0758 107.252 30.5326C110.038 33.1207 113.664 34.6162 117.464 34.7441C121.265 34.8721 124.984 33.624 127.937 31.2292ZM122.962 46.2954L124.247 39.8054H124.25C124.427 38.9092 123.902 38.1433 123.074 38.1013L117.104 37.7749C116.281 37.7312 115.469 38.4209 115.292 39.317L114.007 45.807C113.831 46.7023 114.355 47.4657 115.179 47.5103L121.149 47.8375C121.973 47.8812 122.785 47.1915 122.962 46.2954ZM119.929 39.0509L117.338 38.9096L115.854 46.4191L118.696 46.5742L118.721 46.5744L118.743 46.5749L118.773 46.576L118.801 46.5772H118.801C118.836 46.5787 118.87 46.5802 118.904 46.5802C119.528 46.5802 120.066 46.4199 120.506 46.1021C120.999 45.7465 121.315 45.2299 121.449 44.5659C121.544 44.0861 121.501 43.6603 121.323 43.3013C121.215 43.0802 121.054 42.8887 120.855 42.7436C121.051 42.6346 121.226 42.4932 121.375 42.3255C121.635 42.0248 121.81 41.6592 121.879 41.2674C122.011 40.6025 121.902 40.0679 121.556 39.6815C121.209 39.2951 120.667 39.0921 119.929 39.0509ZM120.205 44.368C120.158 44.6668 119.996 44.9351 119.752 45.1143C119.511 45.2907 119.212 45.3661 118.841 45.3456L117.372 45.265L117.77 43.2525L119.299 43.3382C119.654 43.357 119.913 43.4598 120.07 43.6423C120.227 43.8248 120.266 44.0553 120.205 44.368ZM120.606 41.2177C120.545 41.5304 120.409 41.7523 120.193 41.8963C119.977 42.0402 119.654 42.1087 119.255 42.0864L118.014 42.0188L118.372 40.2033L119.674 40.2752C120.064 40.2958 120.336 40.3884 120.485 40.5477C120.633 40.7071 120.665 40.9187 120.606 41.2177ZM58.5293 48.4649C57.121 48.5139 55.786 49.1051 54.8033 50.1151L34.6445 43.0014L74.6236 32.9841L59.8873 48.5986C59.7545 48.5695 59.62 48.5446 59.4863 48.5249C59.2079 48.4852 58.9271 48.4652 58.6459 48.4649H58.5293ZM96.6003 55.2082C96.6123 55.2202 96.6251 55.233 96.6397 55.2459C96.7152 55.3129 96.7987 55.3705 96.8882 55.4172C96.9903 55.4698 97.0973 55.5123 97.2077 55.544C97.4899 55.6212 97.7783 55.673 98.0696 55.6991C98.4215 55.7374 98.8402 55.7646 99.3282 55.7964L99.3285 55.7964C99.5818 55.8128 99.8538 55.8305 100.145 55.8516C100.996 55.9133 102.011 56.0058 103.212 56.1943L103.25 56.2003L103.286 56.2097L110.424 58.0432L110.519 58.068L113.066 59.474C113.205 59.5092 113.35 59.52 113.494 59.5057C113.671 59.4839 113.843 59.4305 114.001 59.348C114.318 59.1797 114.603 58.9564 114.842 58.6883C115.129 58.3735 115.374 58.0227 115.572 57.6448C115.818 57.1875 115.984 56.6909 116.062 56.1772C116.091 55.9674 116.095 55.7548 116.074 55.544C116.057 55.3776 116.011 55.2152 115.939 55.0642C115.874 54.9361 115.787 54.8202 115.682 54.7215L113.381 53.4509L113.311 53.385C113.209 53.2907 113.106 53.1896 113.001 53.0817C112.673 52.7459 112.372 52.3846 112.101 52.0013C111.795 51.5577 111.522 51.0914 111.287 50.6065L111.254 50.5407L111.254 50.5407L111.254 50.54L111.253 50.5394C111.164 50.3623 111.082 50.1986 111.001 50.047C110.916 49.8871 110.822 49.7318 110.721 49.5818C110.519 49.2977 110.285 49.0388 110.021 48.8107C109.749 48.5686 109.449 48.3595 109.127 48.1879C108.837 48.0286 108.522 47.9194 108.195 47.8649C108.066 47.845 107.936 47.8409 107.806 47.8529C107.698 47.8622 107.593 47.8876 107.493 47.9283C107.418 47.9595 107.347 47.9998 107.282 48.0482C107.173 48.1287 107.076 48.2239 106.994 48.3309C106.901 48.4494 106.82 48.5762 106.751 48.7096C106.635 48.9358 106.54 49.1728 106.47 49.4173L106.086 50.717L105.144 49.7951C104.823 49.4794 104.462 49.2072 104.07 48.9855C104.028 48.9615 103.984 48.9375 103.939 48.9144C103.515 48.6943 103.068 48.5219 102.605 48.4003C101.817 48.1824 100.994 48.1241 100.183 48.229C99.7702 48.2873 99.3668 48.4005 98.9838 48.5657C98.579 48.7422 98.2034 48.9795 97.87 49.2691C97.3762 49.7017 96.9679 50.223 96.6663 50.8061C96.4427 51.2324 96.2721 51.6844 96.1582 52.1521C96.0122 52.7778 96.0078 53.4282 96.1453 54.0558C96.2339 54.4495 96.3781 54.8286 96.5737 55.1816L96.6003 55.2082ZM51.1067 58.3793L51.4246 67.4345C51.4473 68.1512 51.7083 68.84 52.1664 69.3918C52.6244 69.9436 53.2534 70.3269 53.9538 70.4811L40.7648 73.7865L38.9279 66.4586L39.0135 66.4346C43.1628 65.2677 44.7204 62.9562 45.2962 61.2229C45.7897 59.7373 45.7982 57.963 45.3202 56.354C44.7735 54.5136 43.6855 53.1291 42.2564 52.4574C41.7 52.1919 41.0916 52.0535 40.4752 52.0522C39.6056 52.0522 38.8345 52.3126 37.9777 52.6939C37.7292 52.1453 37.3805 51.6479 36.9496 51.2271C36.3563 50.6403 35.6167 50.2232 34.8077 50.0191L33.3932 44.3756L53.7841 51.5724C53.3986 52.3706 53.2137 53.2508 53.2452 54.1367L53.2829 55.205C52.6288 55.4325 52.0648 55.8634 51.6732 56.4346C51.2816 57.0058 51.0831 57.6872 51.1067 58.3793ZM80.8488 56.974L80.8351 56.9989L80.8351 56.999C80.6885 57.2681 80.3004 57.9807 79.5012 58.2163C79.3289 58.2667 79.1503 58.2918 78.9708 58.2909C78.4139 58.2908 77.8789 58.0739 77.4792 57.686C76.5214 56.7188 77.0396 55.0936 77.235 54.4809L77.235 54.4808C77.8493 52.5557 79.4198 51.3751 80.519 50.7574L79.0796 44.9391C79.0616 44.8668 79.0584 44.7916 79.07 44.718C79.0816 44.6444 79.1079 44.5739 79.1473 44.5107L76.4057 33.581L61.5965 49.2812C62.3671 49.7523 63.0084 50.4077 63.4629 51.1882C63.9174 51.9687 64.1708 52.8499 64.2003 53.7526L64.2379 54.8193C64.9082 54.9975 65.5032 55.387 65.9346 55.9302C66.366 56.4733 66.6107 57.141 66.6326 57.8342L66.9513 66.8893C66.9513 67.0024 66.9513 67.1146 66.9462 67.226L83.7824 63.0056L81.9558 55.7163C81.4434 56.1473 81.0725 56.5679 80.8488 56.974ZM83.9682 46.62C84.3414 46.5686 84.7143 46.5173 85.2279 46.6467C86.2337 46.9003 87.303 47.7168 87.5497 48.744C87.919 50.2776 86.6638 52.2482 84.3797 52.7622C84.2718 52.8496 84.1641 52.9379 84.0567 53.027C81.8651 54.1922 80.4952 55.3094 79.8757 56.436L79.8594 56.4643C79.7661 56.6408 79.5459 57.0443 79.1886 57.1497C79.0276 57.1876 78.8598 57.185 78.7001 57.142C78.5404 57.0991 78.3939 57.0173 78.2736 56.9038C77.7911 56.417 78.1722 55.2195 78.2996 54.8193L78.3001 54.8176C78.8673 53.0398 80.496 52.004 81.4153 51.5456L81.7075 50.9133L80.3589 45.4643C81.2337 46.1189 82.2575 46.7752 83.6001 46.6638C83.726 46.6533 83.8471 46.6366 83.9682 46.62Z" fill="#E9E6E6"/>
</svg>
