<svg width="783" height="577" viewBox="0 0 783 577" fill="none" xmlns="http://www.w3.org/2000/svg">
<mask id="mask0_1788_16113" style="mask-type:alpha" maskUnits="userSpaceOnUse" x="0" y="0" width="783" height="577">
<rect width="783" height="577" rx="22" fill="#D9D9D9"/>
</mask>
<g mask="url(#mask0_1788_16113)">
<path d="M0 21C0 9.40201 9.40202 0 21 0H762C773.598 0 783 9.40202 783 21V556C783 567.598 773.598 577 762 577H21C9.40204 577 0 567.598 0 556V21Z" fill="url(#paint0_linear_1788_16113)"/>
<rect x="599" y="488" width="134.468" height="49" rx="10" fill="url(#paint1_linear_1788_16113)"/>
<path d="M635.219 518.155C634.342 518.155 633.516 517.964 632.741 517.581C631.967 517.189 631.388 516.676 631.005 516.041L632.377 514.907C632.732 515.458 633.161 515.882 633.665 516.181C634.169 516.48 634.706 516.629 635.275 516.629C635.882 516.629 636.363 516.498 636.717 516.237C637.081 515.966 637.263 515.602 637.263 515.145C637.263 514.949 637.221 514.781 637.137 514.641C637.063 514.492 636.941 514.366 636.773 514.263C636.661 514.188 636.526 514.123 636.367 514.067C636.209 514.002 636.008 513.936 635.765 513.871C635.635 513.843 635.448 513.801 635.205 513.745C634.963 513.68 634.799 513.638 634.715 513.619C634.127 513.479 633.675 513.348 633.357 513.227C633.049 513.106 632.783 512.97 632.559 512.821C632.233 512.597 631.985 512.322 631.817 511.995C631.659 511.668 631.579 511.286 631.579 510.847C631.579 510.38 631.673 509.956 631.859 509.573C632.055 509.181 632.34 508.845 632.713 508.565C633.031 508.313 633.404 508.122 633.833 507.991C634.263 507.86 634.72 507.795 635.205 507.795C635.999 507.795 636.727 507.963 637.389 508.299C638.061 508.635 638.579 509.088 638.943 509.657L637.627 510.791C637.301 510.287 636.937 509.918 636.535 509.685C636.134 509.442 635.672 509.321 635.149 509.321C634.608 509.321 634.169 509.447 633.833 509.699C633.497 509.942 633.329 510.264 633.329 510.665C633.329 510.908 633.39 511.108 633.511 511.267C633.633 511.426 633.833 511.561 634.113 511.673C634.235 511.72 634.384 511.771 634.561 511.827C634.748 511.874 635.047 511.944 635.457 512.037C636.213 512.205 636.745 512.345 637.053 512.457C637.371 512.569 637.641 512.695 637.865 512.835C638.257 513.068 638.547 513.362 638.733 513.717C638.929 514.062 639.027 514.478 639.027 514.963C639.027 515.448 638.925 515.896 638.719 516.307C638.514 516.708 638.22 517.058 637.837 517.357C637.492 517.609 637.095 517.805 636.647 517.945C636.199 518.085 635.723 518.155 635.219 518.155ZM641.895 518.001H640.215V507.949H641.895V511.435C642.156 511.136 642.455 510.908 642.791 510.749C643.136 510.59 643.514 510.511 643.925 510.511C644.681 510.511 645.278 510.754 645.717 511.239C646.165 511.715 646.389 512.354 646.389 513.157V518.001H644.709V513.647C644.709 513.143 644.597 512.756 644.373 512.485C644.158 512.214 643.841 512.079 643.421 512.079C642.992 512.079 642.628 512.228 642.329 512.527C642.04 512.826 641.895 513.213 641.895 513.689V518.001ZM649.812 509.671H648.076V507.949H649.812V509.671ZM648.104 510.651H649.784V518.001H648.104V510.651ZM654.657 518.155C654.134 518.155 653.649 518.062 653.201 517.875C652.753 517.679 652.366 517.404 652.039 517.049C651.731 516.704 651.493 516.302 651.325 515.845C651.166 515.378 651.087 514.874 651.087 514.333C651.087 513.82 651.166 513.334 651.325 512.877C651.493 512.41 651.726 512.004 652.025 511.659C652.352 511.286 652.734 511.001 653.173 510.805C653.612 510.609 654.083 510.511 654.587 510.511C655.586 510.511 656.379 510.847 656.967 511.519C657.555 512.182 657.849 513.054 657.849 514.137V514.697H652.697C652.762 515.322 652.968 515.817 653.313 516.181C653.668 516.545 654.116 516.727 654.657 516.727C655.077 516.727 655.436 516.624 655.735 516.419C656.043 516.204 656.253 515.915 656.365 515.551L657.807 516.097C657.546 516.741 657.135 517.245 656.575 517.609C656.024 517.973 655.385 518.155 654.657 518.155ZM654.573 511.925C654.125 511.925 653.742 512.056 653.425 512.317C653.117 512.578 652.902 512.952 652.781 513.437H656.155C656.146 512.98 656.001 512.616 655.721 512.345C655.441 512.065 655.058 511.925 654.573 511.925ZM659.11 507.949H660.79V518.001H659.11V507.949ZM665.327 518.155C664.832 518.155 664.375 518.057 663.955 517.861C663.544 517.656 663.194 517.362 662.905 516.979C662.644 516.634 662.443 516.237 662.303 515.789C662.163 515.332 662.093 514.846 662.093 514.333C662.093 513.82 662.163 513.339 662.303 512.891C662.443 512.434 662.644 512.032 662.905 511.687C663.194 511.304 663.544 511.015 663.955 510.819C664.375 510.614 664.832 510.511 665.327 510.511C665.766 510.511 666.162 510.59 666.517 510.749C666.881 510.908 667.189 511.136 667.441 511.435V507.949H669.121V518.001H667.441V517.231C667.189 517.53 666.881 517.758 666.517 517.917C666.162 518.076 665.766 518.155 665.327 518.155ZM667.483 514.557V514.123C667.483 513.47 667.315 512.952 666.979 512.569C666.652 512.177 666.214 511.981 665.663 511.981C665.075 511.981 664.613 512.191 664.277 512.611C663.95 513.031 663.787 513.605 663.787 514.333C663.787 515.061 663.95 515.635 664.277 516.055C664.613 516.475 665.075 516.685 665.663 516.685C666.204 516.685 666.643 516.494 666.979 516.111C667.315 515.719 667.483 515.201 667.483 514.557ZM680.388 507.949H682.11V518.001H680.542L675.558 510.623V518.001H673.836V507.949H675.684L680.388 514.991V507.949ZM689.622 511.631C689.93 511.967 690.163 512.368 690.322 512.835C690.48 513.292 690.56 513.792 690.56 514.333C690.56 514.874 690.48 515.378 690.322 515.845C690.163 516.302 689.93 516.699 689.622 517.035C689.295 517.399 688.908 517.679 688.46 517.875C688.021 518.062 687.54 518.155 687.018 518.155C686.495 518.155 686.01 518.062 685.562 517.875C685.123 517.679 684.74 517.399 684.414 517.035C684.106 516.699 683.872 516.302 683.714 515.845C683.555 515.378 683.476 514.874 683.476 514.333C683.476 513.792 683.555 513.292 683.714 512.835C683.872 512.368 684.106 511.967 684.414 511.631C684.74 511.267 685.123 510.992 685.562 510.805C686.01 510.609 686.495 510.511 687.018 510.511C687.54 510.511 688.021 510.609 688.46 510.805C688.908 510.992 689.295 511.267 689.622 511.631ZM687.018 511.925C686.448 511.925 685.996 512.14 685.66 512.569C685.333 512.998 685.17 513.586 685.17 514.333C685.17 515.08 685.333 515.668 685.66 516.097C685.996 516.526 686.448 516.741 687.018 516.741C687.587 516.741 688.035 516.526 688.362 516.097C688.698 515.668 688.866 515.08 688.866 514.333C688.866 513.586 688.698 512.998 688.362 512.569C688.035 512.14 687.587 511.925 687.018 511.925ZM693.929 515.523L695.231 510.651H696.617L697.933 515.523L699.235 510.651H700.901L698.689 518.001H697.233L695.889 513.185L694.545 518.001H693.089L690.877 510.651H692.599L693.929 515.523Z" fill="white"/>
<path fill-rule="evenodd" clip-rule="evenodd" d="M564.4 -46C657.139 -46 739.907 -37.7955 817.449 -20.9246L818.307 -20.7423V113.899V523.258V657.9L816.801 657.584C739.471 640.749 656.898 632.569 564.37 632.569C449.411 632.569 332.554 645.28 219.371 657.592L219.334 657.596L219.171 657.614C106.028 669.921 -10.9654 682.647 -126.092 682.647C-218.832 682.647 -301.6 674.442 -379.141 657.584L-380 657.389L-380 522.748V-21.2407L-378.494 -20.9246C-301.148 -4.10236 -218.576 4.07784 -126.062 4.07784C-11.1034 4.07784 105.753 -8.63334 218.936 -20.9449L218.973 -20.9489L219.134 -20.9665C332.278 -33.2739 449.272 -46 564.4 -46Z" fill="url(#paint2_radial_1788_16113)"/>
<path fill-rule="evenodd" clip-rule="evenodd" d="M587.133 -17.4878C681.405 -17.4878 765.54 -9.59542 844.363 6.63363L845.236 6.80898V136.328V530.114V659.633L843.705 659.329C765.096 643.135 681.16 635.266 587.102 635.266C470.243 635.266 351.455 647.494 236.401 659.337L236.366 659.341L236.201 659.358C121.188 671.197 2.26101 683.439 -114.769 683.439C-209.041 683.439 -293.176 675.547 -371.999 659.329L-372.872 659.142V135.849L-372.872 6.32962L-371.341 6.63363C-292.717 22.8159 -208.78 30.6849 -114.738 30.6849C2.12035 30.6849 120.908 18.4573 235.96 6.6141L235.998 6.61023L236.162 6.59333C351.176 -5.24582 470.103 -17.4878 587.133 -17.4878Z" fill="url(#paint3_diamond_1788_16113)"/>
<g opacity="0.5">
<path fill-rule="evenodd" clip-rule="evenodd" d="M649.4 76C742.139 76 824.907 84.2045 902.449 101.075L903.307 101.258V235.899V645.258V779.9L901.801 779.584C824.471 762.749 741.898 754.569 649.37 754.569C534.411 754.569 417.554 767.28 304.371 779.592L304.334 779.596L304.171 779.614C191.028 791.921 74.0346 804.647 -41.0925 804.647C-133.832 804.647 -216.6 796.442 -294.141 779.584L-295 779.389L-295 644.748V100.759L-293.494 101.075C-216.148 117.898 -133.576 126.078 -41.0623 126.078C73.8966 126.078 190.753 113.367 303.936 101.055L303.973 101.051L304.134 101.034C417.278 88.7261 534.272 76 649.4 76Z" fill="url(#paint4_radial_1788_16113)"/>
<path fill-rule="evenodd" clip-rule="evenodd" d="M672.133 104.512C766.405 104.512 850.54 112.405 929.363 128.634L930.236 128.809V258.328V652.114V781.633L928.705 781.329C850.096 765.135 766.16 757.266 672.102 757.266C555.243 757.266 436.455 769.494 321.401 781.337L321.366 781.341L321.201 781.358C206.188 793.197 87.261 805.439 -29.7688 805.439C-124.041 805.439 -208.176 797.547 -286.999 781.329L-287.872 781.142V257.849L-287.872 128.33L-286.341 128.634C-207.717 144.816 -123.78 152.685 -29.7382 152.685C87.1204 152.685 205.908 140.457 320.96 128.614L320.998 128.61L321.162 128.593C436.176 116.754 555.103 104.512 672.133 104.512Z" fill="url(#paint5_diamond_1788_16113)"/>
<mask id="path-9-inside-1_1788_16113" fill="white">
<path fill-rule="evenodd" clip-rule="evenodd" d="M672.133 104.512C766.405 104.512 850.54 112.405 929.363 128.634L930.236 128.809V258.328V652.114V781.633L928.705 781.329C850.096 765.135 766.16 757.266 672.102 757.266C555.243 757.266 436.455 769.494 321.401 781.337L321.366 781.341L321.201 781.358C206.188 793.197 87.261 805.439 -29.7688 805.439C-124.041 805.439 -208.176 797.547 -286.999 781.329L-287.872 781.142V257.849L-287.872 128.33L-286.341 128.634C-207.717 144.816 -123.78 152.685 -29.7382 152.685C87.1204 152.685 205.908 140.457 320.96 128.614L320.998 128.61L321.162 128.593C436.176 116.754 555.103 104.512 672.133 104.512Z"/>
</mask>
<path fill-rule="evenodd" clip-rule="evenodd" d="M672.133 104.512C766.405 104.512 850.54 112.405 929.363 128.634L930.236 128.809V258.328V652.114V781.633L928.705 781.329C850.096 765.135 766.16 757.266 672.102 757.266C555.243 757.266 436.455 769.494 321.401 781.337L321.366 781.341L321.201 781.358C206.188 793.197 87.261 805.439 -29.7688 805.439C-124.041 805.439 -208.176 797.547 -286.999 781.329L-287.872 781.142V257.849L-287.872 128.33L-286.341 128.634C-207.717 144.816 -123.78 152.685 -29.7382 152.685C87.1204 152.685 205.908 140.457 320.96 128.614L320.998 128.61L321.162 128.593C436.176 116.754 555.103 104.512 672.133 104.512Z" fill="url(#paint6_diamond_1788_16113)"/>
<path d="M929.363 128.634L929.161 129.613L929.166 129.614L929.363 128.634ZM930.236 128.809H931.236V127.99L930.433 127.829L930.236 128.809ZM930.236 781.633L930.041 782.614L931.236 782.851V781.633H930.236ZM928.705 781.329L928.503 782.309L928.51 782.31L928.705 781.329ZM321.401 781.337L321.299 780.343L321.297 780.343L321.401 781.337ZM321.366 781.341L321.468 782.336L321.469 782.336L321.366 781.341ZM321.201 781.358L321.099 780.363L321.099 780.363L321.201 781.358ZM-286.999 781.329L-287.209 782.307L-287.201 782.309L-286.999 781.329ZM-287.872 781.142H-288.872V781.951L-288.081 782.12L-287.872 781.142ZM-287.872 257.849L-288.872 257.849V257.849H-287.872ZM-287.872 128.33L-287.677 127.349L-288.872 127.112L-288.872 128.33L-287.872 128.33ZM-286.341 128.634L-286.139 127.654L-286.146 127.653L-286.341 128.634ZM320.96 128.614L320.858 127.619L320.858 127.619L320.96 128.614ZM320.998 128.61L321.1 129.605L321.101 129.605L320.998 128.61ZM321.162 128.593L321.06 127.599L321.06 127.599L321.162 128.593ZM929.565 127.654C850.666 111.409 766.461 103.512 672.133 103.512V105.512C766.348 105.512 850.415 113.4 929.161 129.613L929.565 127.654ZM930.433 127.829L929.56 127.653L929.166 129.614L930.039 129.789L930.433 127.829ZM931.236 258.328V128.809H929.236V258.328H931.236ZM931.236 652.114V258.328H929.236V652.114H931.236ZM931.236 781.633V652.114H929.236V781.633H931.236ZM928.51 782.31L930.041 782.614L930.43 780.652L928.899 780.348L928.51 782.31ZM672.102 758.266C766.103 758.266 849.971 766.131 928.503 782.309L928.907 780.35C850.222 764.14 766.216 756.266 672.102 756.266V758.266ZM321.503 782.332C436.566 770.488 555.303 758.266 672.102 758.266V756.266C555.183 756.266 436.343 768.5 321.299 780.343L321.503 782.332ZM321.469 782.336L321.505 782.332L321.297 780.343L321.262 780.346L321.469 782.336ZM321.303 782.353L321.468 782.336L321.264 780.346L321.099 780.363L321.303 782.353ZM-29.7688 806.439C87.321 806.439 206.299 794.191 321.304 782.353L321.099 780.363C206.076 792.203 87.201 804.439 -29.7688 804.439V806.439ZM-287.201 782.309C-208.302 798.542 -124.097 806.439 -29.7688 806.439V804.439C-123.984 804.439 -208.051 796.551 -286.798 780.35L-287.201 782.309ZM-288.081 782.12L-287.209 782.307L-286.789 780.352L-287.662 780.164L-288.081 782.12ZM-288.872 257.849V781.142H-286.872V257.849H-288.872ZM-288.872 128.33L-288.872 257.849L-286.872 257.849L-286.872 128.33L-288.872 128.33ZM-286.146 127.653L-287.677 127.349L-288.067 129.31L-286.535 129.614L-286.146 127.653ZM-29.7382 151.685C-123.724 151.685 -207.592 143.821 -286.139 127.654L-286.542 129.613C-207.842 145.811 -123.837 153.685 -29.7382 153.685V151.685ZM320.858 127.619C205.796 139.463 87.0603 151.685 -29.7382 151.685V153.685C87.1804 153.685 206.019 141.451 321.063 129.609L320.858 127.619ZM320.896 127.615L320.858 127.619L321.063 129.609L321.1 129.605L320.896 127.615ZM321.06 127.599L320.896 127.615L321.101 129.605L321.265 129.588L321.06 127.599ZM672.133 103.512C555.043 103.512 436.065 115.76 321.06 127.599L321.265 129.588C436.287 117.748 555.163 105.512 672.133 105.512V103.512Z" fill="white" mask="url(#path-9-inside-1_1788_16113)"/>
</g>
</g>
<defs>
<linearGradient id="paint0_linear_1788_16113" x1="81.0682" y1="86.55" x2="493.119" y2="196.634" gradientUnits="userSpaceOnUse">
<stop stop-color="#940DFF"/>
<stop offset="1" stop-color="#0094FF"/>
<stop offset="1" stop-color="#0094FF"/>
</linearGradient>
<linearGradient id="paint1_linear_1788_16113" x1="612.922" y1="495.35" x2="671.607" y2="527.055" gradientUnits="userSpaceOnUse">
<stop stop-color="#940DFF"/>
<stop offset="1" stop-color="#0094FF"/>
<stop offset="1" stop-color="#0094FF"/>
</linearGradient>
<radialGradient id="paint2_radial_1788_16113" cx="0" cy="0" r="1" gradientUnits="userSpaceOnUse" gradientTransform="translate(-319.411 230.411) rotate(-12.0934) scale(1130.33 1858.9)">
<stop offset="0.386528" stop-color="white"/>
<stop offset="0.955867" stop-color="white" stop-opacity="0"/>
</radialGradient>
<radialGradient id="paint3_diamond_1788_16113" cx="0" cy="0" r="1" gradientUnits="userSpaceOnUse" gradientTransform="translate(480.516 777.292) rotate(-62.4586) scale(997.74 1565.95)">
<stop offset="0.515804" stop-color="white"/>
<stop offset="0.700933" stop-color="white" stop-opacity="0.792388"/>
<stop offset="1" stop-color="white" stop-opacity="0"/>
</radialGradient>
<radialGradient id="paint4_radial_1788_16113" cx="0" cy="0" r="1" gradientUnits="userSpaceOnUse" gradientTransform="translate(-234.411 352.411) rotate(-12.0934) scale(1130.33 1858.9)">
<stop offset="0.386528" stop-color="white"/>
<stop offset="0.955867" stop-color="white" stop-opacity="0"/>
</radialGradient>
<radialGradient id="paint5_diamond_1788_16113" cx="0" cy="0" r="1" gradientUnits="userSpaceOnUse" gradientTransform="translate(565.516 899.292) rotate(-62.4586) scale(997.74 1565.95)">
<stop offset="0.515804" stop-color="white"/>
<stop offset="0.700933" stop-color="white" stop-opacity="0.792388"/>
<stop offset="1" stop-color="white" stop-opacity="0"/>
</radialGradient>
<radialGradient id="paint6_diamond_1788_16113" cx="0" cy="0" r="1" gradientUnits="userSpaceOnUse" gradientTransform="translate(565.516 899.292) rotate(-62.4586) scale(997.74 1565.95)">
<stop offset="0.515804" stop-color="white"/>
<stop offset="0.700933" stop-color="white" stop-opacity="0.792388"/>
<stop offset="1" stop-color="white" stop-opacity="0"/>
</radialGradient>
</defs>
</svg>
