<svg width="69" height="69" viewBox="0 0 69 69" fill="none" xmlns="http://www.w3.org/2000/svg">
<path d="M43.125 34.5C43.125 36.8805 41.1973 38.8125 38.8125 38.8125H17.25C14.8695 38.8125 12.9375 36.8805 12.9375 34.5C12.9375 32.1195 14.8695 30.1875 17.25 30.1875H38.8125C41.1973 30.1875 43.125 32.1195 43.125 34.5Z" fill="#FF5C00"/>
<path d="M69 21.5625C69 23.943 67.0723 25.875 64.6875 25.875H51.75C49.3652 25.875 47.4375 23.943 47.4375 21.5625C47.4375 19.182 49.3652 17.25 51.75 17.25H64.6875C67.0723 17.25 69 19.1777 69 21.5625Z" fill="#FF5C00"/>
<path d="M0 21.5625C0 23.943 1.932 25.875 4.3125 25.875H12.9375C15.318 25.875 17.25 23.943 17.25 21.5625C17.25 19.182 15.318 17.25 12.9375 17.25H4.3125C1.932 17.25 0 19.1777 0 21.5625Z" fill="#FF5C00"/>
<path d="M60.375 47.4375C60.375 49.8223 58.4473 51.75 56.0625 51.75H43.125C40.7402 51.75 38.8125 49.8223 38.8125 47.4375C38.8125 45.0527 40.7402 43.125 43.125 43.125H56.0625C58.4473 43.125 60.375 45.0527 60.375 47.4375Z" fill="#FF5C00"/>
<path d="M43.125 60.375C43.125 62.7598 41.1973 64.6875 38.8125 64.6875H17.25C14.8695 64.6875 12.9375 62.7598 12.9375 60.375C12.9375 57.9902 14.8695 56.0625 17.25 56.0625H38.8125C41.1973 56.0625 43.125 57.9902 43.125 60.375Z" fill="#FF5C00"/>
<path d="M43.125 10.7812C43.125 11.9715 42.159 12.9375 40.9688 12.9375H23.7188C22.5285 12.9375 21.5625 11.9715 21.5625 10.7812C21.5625 9.58669 22.5285 8.625 23.7188 8.625H40.9688C42.159 8.625 43.125 9.58669 43.125 10.7812Z" fill="#FF5C00"/>
<path d="M64.6875 6.46875C64.6875 7.659 63.7215 8.625 62.5312 8.625H49.5938C48.4035 8.625 47.4375 7.659 47.4375 6.46875C47.4375 5.27419 48.4035 4.3125 49.5938 4.3125H62.5312C63.7215 4.3125 64.6875 5.27419 64.6875 6.46875Z" fill="#FF5C00"/>
<path d="M69 32.3438C69 33.534 68.034 34.5 66.8438 34.5H53.9062C52.716 34.5 51.75 33.534 51.75 32.3438C51.75 31.1535 52.716 30.1875 53.9062 30.1875H66.8438C68.034 30.1875 69 31.1535 69 32.3438Z" fill="#FF5C00"/>
<path d="M17.25 6.46875C17.25 7.659 16.2883 8.625 15.0938 8.625H6.46875C5.2785 8.625 4.3125 7.659 4.3125 6.46875C4.3125 5.27419 5.2785 4.3125 6.46875 4.3125H15.0938C16.2883 4.3125 17.25 5.27419 17.25 6.46875Z" fill="#FF5C00"/>
<path d="M30.1875 45.2812C30.1875 46.4715 29.2258 47.4375 28.0312 47.4375H6.46875C5.2785 47.4375 4.3125 46.4715 4.3125 45.2812C4.3125 44.091 5.2785 43.125 6.46875 43.125H28.0312C29.2258 43.125 30.1875 44.091 30.1875 45.2812Z" fill="#FF5C00"/>
<path d="M38.8125 23.7188C38.8125 24.909 37.8465 25.875 36.6562 25.875H23.7188C22.5285 25.875 21.5625 24.909 21.5625 23.7188C21.5625 22.5242 22.5285 21.5625 23.7188 21.5625H36.6562C37.8465 21.5625 38.8125 22.5242 38.8125 23.7188Z" fill="#FF5C00"/>
</svg>
