<svg width="14" height="14" viewBox="0 0 14 14" fill="none" xmlns="http://www.w3.org/2000/svg">
<path fill-rule="evenodd" clip-rule="evenodd" d="M7.9395 0.000976562H12.3264C12.532 0.00166653 12.7289 0.0839349 12.8741 0.229787C13.0193 0.375638 13.101 0.573202 13.1013 0.77927V4.54581C13.0969 4.74893 13.0133 4.94224 12.8684 5.08432C12.7235 5.2264 12.5289 5.30596 12.3263 5.30596C12.1236 5.30596 11.929 5.2264 11.7841 5.08432C11.6393 4.94224 11.5556 4.74893 11.5512 4.54581V2.61182L7.21523 6.96012C7.0696 7.10539 6.87253 7.18694 6.66709 7.18694C6.46166 7.18694 6.26458 7.10539 6.11895 6.96012C5.97425 6.8141 5.89304 6.61663 5.89304 6.4108C5.89304 6.20498 5.97425 6.00751 6.11895 5.86149L10.4133 1.55495H7.9395C7.73418 1.55436 7.53743 1.47233 7.39224 1.32678C7.24705 1.18123 7.16523 0.983991 7.16464 0.778152C7.16523 0.572279 7.24704 0.375001 7.39222 0.229391C7.53739 0.0837804 7.73414 0.00166525 7.9395 0.000976562ZM11.3082 6.0147C11.4507 6.14423 11.5401 6.32228 11.5589 6.51421H11.5626V12.1987C11.5626 12.5604 11.4193 12.9073 11.1642 13.163C10.9091 13.4188 10.563 13.5625 10.2022 13.5625H1.3599C1.18119 13.5625 1.00423 13.5272 0.839131 13.4586C0.674032 13.39 0.52403 13.2895 0.397697 13.1628C0.271363 13.0361 0.171174 12.8856 0.102852 12.7201C0.0345298 12.5545 -0.000585612 12.3771 -0.000488079 12.1979V3.33354C-0.000488079 2.97184 0.142838 2.62495 0.39796 2.36919C0.653082 2.11344 0.999102 1.96975 1.3599 1.96975H6.40119V1.97311C6.59453 1.9896 6.77465 2.07825 6.90591 2.22152C7.03717 2.36478 7.11 2.55221 7.11 2.74674C7.11 2.94126 7.03717 3.1287 6.90591 3.27196C6.77465 3.41522 6.59453 3.50387 6.40119 3.52037V3.52373H2.54434C2.28029 3.52373 2.02705 3.62885 1.84031 3.816C1.65356 4.00314 1.5486 4.25697 1.5485 4.52167V11.0106C1.5486 11.2753 1.65356 11.5291 1.84031 11.7162C2.02705 11.9034 2.28029 12.0085 2.54434 12.0085H9.01706C9.28107 12.0085 9.53427 11.9034 9.72096 11.7162C9.90764 11.5291 10.0125 11.2752 10.0125 11.0106V6.51421H10.0166C10.0354 6.32228 10.1248 6.14423 10.2674 6.0147C10.4099 5.88517 10.5954 5.81343 10.7878 5.81343C10.9801 5.81343 11.1656 5.88517 11.3082 6.0147Z" fill="white"/>
</svg>
