<svg width="73" height="50" viewBox="0 0 73 50" fill="none" xmlns="http://www.w3.org/2000/svg">
<path fill-rule="evenodd" clip-rule="evenodd" d="M48.5144 21.5551C48.2964 14.5457 45.642 7.83142 41.008 2.56774C39.0004 3.7508 36.7344 4.4262 34.4067 4.53535C33.1378 4.57212 31.8707 4.41622 30.6486 4.07296C28.293 3.39664 26.2083 1.99992 24.6868 0.0787211L24.6375 0L24.5785 0.0787211C23.057 1.99992 20.9722 3.39664 18.6167 4.07296C17.3945 4.41622 16.1274 4.57212 14.8585 4.53535C12.5308 4.4262 10.2649 3.7508 8.25724 2.56774C3.62327 7.83142 0.968867 14.5457 0.750816 21.5551C0.383937 27.8196 2.38558 33.993 6.35851 38.8504C10.3442 43.4785 15.5545 46.8884 21.391 48.6884H21.4894C22.0797 48.8753 22.5224 49.0131 23.5357 49.259L24.0964 49.3967H24.3031H24.3817H24.5293C24.7131 49.3981 24.8954 49.3628 25.0655 49.2931C25.2356 49.2233 25.3901 49.1205 25.5201 48.9905C25.6501 48.8605 25.7529 48.706 25.8227 48.5359C25.8924 48.3658 25.9276 48.1836 25.9263 47.9998C25.9222 47.6997 25.8255 47.4081 25.6494 47.1651C25.4733 46.9221 25.2264 46.7394 24.9425 46.6421C24.8472 46.6108 24.7477 46.5942 24.6474 46.5929L24.2834 46.4945C23.6439 46.3273 23.0044 46.16 22.3846 45.9633H22.2666C16.9196 44.3243 12.1449 41.2071 8.49334 36.9713C4.98173 32.641 3.22597 27.149 3.57433 21.5846C3.72801 15.9253 5.65508 10.4572 9.0836 5.95203C10.9093 6.70789 12.8545 7.13424 14.829 7.21129H15.3209C16.7187 7.21238 18.1096 7.01696 19.4529 6.63082C20.9427 6.20218 22.3542 5.53792 23.6341 4.66322L24.6179 3.81716L25.7886 4.66322C27.0685 5.53792 28.48 6.20218 29.9698 6.63082C31.313 7.0176 32.7039 7.21304 34.1017 7.21129H34.5838C36.5616 7.1354 38.5103 6.70903 40.339 5.95203C43.7585 10.432 45.6855 15.8724 45.8483 21.5059C45.9753 24.2927 45.6429 27.0813 44.8645 29.76L48.5636 25.2739C48.6138 24.0343 48.5973 22.7929 48.5144 21.5551ZM68.5447 19.3513L67.0001 16.6557L68.22 14.1667L70.9845 14.3733L72.5291 17.0689L71.3091 19.5579L68.5447 19.3513ZM36.8367 19.0857C37.4554 19.0662 38.0646 19.2417 38.578 19.5875C39.0554 19.9488 39.4011 20.4569 39.5619 21.0336L38.3517 21.5649C38.2586 21.2045 38.0473 20.8858 37.7516 20.6598C37.4697 20.4437 37.123 20.3293 36.7678 20.3352C36.482 20.333 36.2002 20.402 35.9477 20.5359C35.6952 20.6699 35.4801 20.8646 35.3217 21.1025C34.917 21.6782 34.7036 22.3665 34.7117 23.0701C34.9415 22.7512 35.25 22.497 35.6069 22.3323C36.1288 22.0777 36.7175 21.9939 37.2897 22.0928C37.8618 22.1917 38.3883 22.4683 38.7945 22.8832C39.0454 23.1401 39.2428 23.4445 39.3749 23.7785C39.5053 24.1278 39.5719 24.4976 39.5716 24.8705C39.5767 25.272 39.4997 25.6704 39.3454 26.0412C39.2066 26.4142 38.9845 26.7507 38.6961 27.025C38.4125 27.2948 38.0781 27.5055 37.7123 27.6448C37.3342 27.7834 36.9344 27.8533 36.5317 27.8514C36.024 27.8606 35.5225 27.7386 35.0757 27.4972C34.6468 27.2606 34.282 26.9229 34.0132 26.5134C33.7734 26.1101 33.5975 25.672 33.4917 25.2148C33.3668 24.6961 33.304 24.1644 33.3048 23.6309C33.3007 23.0668 33.3702 22.5046 33.5114 21.9584C33.6381 21.4752 33.8442 21.0164 34.1214 20.6008C34.4098 20.1519 34.8076 19.7836 35.2774 19.5307C35.7472 19.2777 36.2736 19.1483 36.8072 19.1546L36.8367 19.0857ZM36.5612 26.6118C36.7798 26.6178 36.9973 26.5789 37.2003 26.4977C37.4034 26.4165 37.5876 26.2946 37.7418 26.1396C37.8975 25.988 38.0199 25.8055 38.1012 25.604C38.1825 25.4024 38.221 25.1861 38.214 24.9689C38.2183 24.7505 38.1786 24.5335 38.0975 24.3307C38.0164 24.128 37.8954 23.9435 37.7418 23.7883C37.5891 23.634 37.4065 23.5125 37.2052 23.4313C37.0039 23.3501 36.7881 23.3109 36.5711 23.3161C36.3527 23.3119 36.1357 23.3515 35.9329 23.4326C35.7302 23.5137 35.5457 23.6346 35.3905 23.7883C35.2337 23.9416 35.11 24.1256 35.0271 24.3286C34.9442 24.5317 34.9038 24.7496 34.9084 24.9689C34.9015 25.1861 34.9399 25.4024 35.0212 25.604C35.1025 25.8055 35.225 25.988 35.3807 26.1396C35.5349 26.2946 35.7191 26.4165 35.9221 26.4977C36.1251 26.5789 36.3426 26.6178 36.5612 26.6118ZM11.921 27.5283C12.3455 27.7337 12.813 27.8344 13.2845 27.8219C13.755 27.8378 14.2223 27.7386 14.6458 27.5328C15.0693 27.3271 15.4361 27.0211 15.7144 26.6414C16.2994 25.6829 16.6089 24.5817 16.6089 23.4588C16.6089 22.3359 16.2994 21.2347 15.7144 20.2762C15.4255 19.9062 15.0561 19.6068 14.6342 19.401C14.2123 19.1951 13.749 19.0881 13.2795 19.0881C12.8101 19.0881 12.3468 19.1951 11.9249 19.401C11.503 19.6068 11.1336 19.9062 10.8447 20.2762C10.2597 21.2347 9.9502 22.3359 9.9502 23.4588C9.9502 24.5817 10.2597 25.6829 10.8447 26.6414C11.1274 27.0188 11.4965 27.3229 11.921 27.5283ZM12.4952 20.6049C12.7334 20.4623 13.0069 20.3893 13.2845 20.3942C13.5604 20.3912 13.8317 20.465 14.0681 20.6075C14.3044 20.75 14.4963 20.9555 14.6224 21.201C14.934 21.9112 15.0949 22.6783 15.0949 23.4539C15.0949 24.2294 14.934 24.9966 14.6224 25.7068C14.4919 25.9493 14.2982 26.152 14.0617 26.2933C13.8253 26.4346 13.555 26.5092 13.2795 26.5092C13.0041 26.5092 12.7338 26.4346 12.4974 26.2933C12.2609 26.152 12.0672 25.9493 11.9367 25.7068C11.6251 24.9966 11.4642 24.2294 11.4642 23.4539C11.4642 22.6783 11.6251 21.9112 11.9367 21.201C12.0635 20.954 12.257 20.7475 12.4952 20.6049ZM16.954 27.694H18.6658V25.9822H16.954V27.694ZM24.5195 25.6281V27.6941H23.1422V25.6281H19.1381V24.4475L22.6306 19.2137H24.5392V24.3787H26.1034V25.6281H24.5195ZM23.1126 20.7091L20.6433 24.418H23.1126V20.7091ZM28.9171 23.4342C29.1543 23.3235 29.4129 23.2664 29.6746 23.267C29.8942 23.2623 30.112 23.3077 30.3114 23.3998C30.5109 23.4918 30.6868 23.6281 30.8257 23.7982C31.1175 24.1286 31.2723 24.5579 31.2586 24.9985C31.2604 25.3195 31.1682 25.634 30.9933 25.9031C30.8184 26.1723 30.5685 26.3843 30.2744 26.5131C29.9803 26.6418 29.655 26.6815 29.3386 26.6274C29.0222 26.5733 28.7286 26.4277 28.4941 26.2086C28.1879 25.9033 27.9909 25.5057 27.9333 25.0772L26.4871 25.333C26.5643 26.0616 26.9161 26.7335 27.4709 27.212C28.0737 27.6728 28.8181 27.9093 29.5762 27.881C29.9789 27.8829 30.3787 27.813 30.7568 27.6744C31.1227 27.54 31.4575 27.3324 31.7406 27.0645C32.0349 26.7911 32.2635 26.4548 32.4096 26.0807C32.5668 25.7173 32.6471 25.3254 32.6457 24.9296C32.6468 24.5439 32.5802 24.1609 32.4489 23.7982C32.3284 23.4624 32.141 23.1544 31.898 22.8931C31.6467 22.628 31.3415 22.42 31.0028 22.2832C30.6479 22.1343 30.266 22.0606 29.8812 22.0667C29.5885 22.0638 29.2979 22.1173 29.0253 22.2241C28.7709 22.32 28.5372 22.4636 28.3366 22.6472L28.5236 20.5714H32.1341V19.2137H27.3627L26.9888 23.6998L28.3563 23.8966C28.4981 23.6947 28.6919 23.535 28.9171 23.4342ZM53.7581 28.6778L55.1944 28.786L69.1349 20.8074L67.6986 20.6991L65.4161 16.7049L66.0458 15.4161L52.1053 23.3948L51.4756 24.6934L53.7581 28.6778ZM52.5284 29.3862L53.9647 29.4846L45.2875 30.8816L50.8756 24.1032L50.2459 25.392L52.5284 29.3862ZM46.9797 31.7375C46.9783 31.767 46.9783 31.7965 46.9797 31.826L46.7535 31.7375H46.9797Z" fill="#C4C4C4"/>
</svg>
