<?xml version="1.0" encoding="utf-8"?>
<!-- Generator: Adobe Illustrator 26.3.1, SVG Export Plug-In . SVG Version: 6.00 Build 0)  -->
<svg version="1.1" id="Layer_1" xmlns="http://www.w3.org/2000/svg" xmlns:xlink="http://www.w3.org/1999/xlink" x="0px" y="0px"
	 viewBox="0 0 783 577" style="enable-background:new 0 0 783 577;" xml:space="preserve">
<style type="text/css">
	.st0{clip-path:url(#SVGID_00000109740894571570681740000015514316637823650994_);}
	.st1{fill:url(#SVGID_00000025420913624971218970000016187783986916862870_);}
	.st2{fill-rule:evenodd;clip-rule:evenodd;fill:url(#SVGID_00000020378148440592298580000014750267153545132449_);}
	.st3{fill-rule:evenodd;clip-rule:evenodd;fill:url(#SVGID_00000036948913955818106780000017072979971586938289_);}
	.st4{fill-rule:evenodd;clip-rule:evenodd;fill:url(#SVGID_00000030465218684944209680000017447606476866876802_);}
	.st5{fill-rule:evenodd;clip-rule:evenodd;fill:url(#SVGID_00000075880099788430120470000016274282498700122043_);}
</style>
<g>
	<defs>
		<rect id="SVGID_1_" x="0" width="783" height="577"/>
	</defs>
	<clipPath id="SVGID_00000087408964469204652500000005349134688919746445_">
		<use xlink:href="#SVGID_1_"  style="overflow:visible;"/>
	</clipPath>
	<g style="clip-path:url(#SVGID_00000087408964469204652500000005349134688919746445_);">
		
			<linearGradient id="SVGID_00000040548475115967076880000012057621113102802844_" gradientUnits="userSpaceOnUse" x1="47.8195" y1="196.6819" x2="464.1964" y2="307.9217">
			<stop  offset="0" style="stop-color:#940DFF"/>
			<stop  offset="1" style="stop-color:#0094FF"/>
			<stop  offset="1" style="stop-color:#0094FF"/>
		</linearGradient>
		<polygon style="fill:url(#SVGID_00000040548475115967076880000012057621113102802844_);" points="762,0 756.4,0 26,0 21,0 0,0 
			0,21 0,29.3 0,400.2 0,556 0,577 21,577 107.9,577 743.1,577 762,577 783,577 783,556 783,532 783,26.6 783,21 783,0 		"/>
		
			<linearGradient id="SVGID_00000109747291291220903050000001681677492648679610_" gradientUnits="userSpaceOnUse" x1="-313.7444" y1="311.4022" x2="904.3636" y2="311.4022">
			<stop  offset="0.103" style="stop-color:#FFFFFF"/>
			<stop  offset="0.4792" style="stop-color:#FFFFFF"/>
			<stop  offset="1" style="stop-color:#FFFFFF;stop-opacity:0"/>
		</linearGradient>
		<path style="fill-rule:evenodd;clip-rule:evenodd;fill:url(#SVGID_00000109747291291220903050000001681677492648679610_);" d="
			M903.5-39.9c-78.8-16.2-163-24.1-257.2-24.1c-117,0-236,12.2-351,24.1l-0.2,0l0,0C180-28.1,61.2-15.9-55.6-15.9
			c-94,0-178-7.9-256.6-24.1l-1.5-0.3v50v79.5v50v473.3v50l0.9,0.2c78.8,16.2,163,24.1,257.2,24.1c117,0,236-12.2,351-24.1l0.2,0
			l0,0c115.1-11.8,233.8-24.1,350.7-24.1c94.1,0,178,7.9,256.6,24.1l1.5,0.3v-50v-79.5v-50V139.8v-50V10.2v-50L903.5-39.9z"/>
		
			<radialGradient id="SVGID_00000070830485742873218650000014180559319548248494_" cx="247.8447" cy="568.9401" r="1" gradientTransform="matrix(1105.245 -236.8108 -389.4506 -1817.6462 -52574.7812 1093209.25)" gradientUnits="userSpaceOnUse">
			<stop  offset="0.3865" style="stop-color:#FFFFFF"/>
			<stop  offset="0.9559" style="stop-color:#FFFFFF;stop-opacity:0"/>
		</radialGradient>
		<path style="fill-rule:evenodd;clip-rule:evenodd;fill:url(#SVGID_00000070830485742873218650000014180559319548248494_);" d="
			M664.1,108.7c92.7,0,175.5,8.2,253,25.1l0.9,0.2v134.6V678v134.6l-1.5-0.3c-77.3-16.8-159.9-25-252.4-25c-115,0-231.8,12.7-345,25
			l0,0l-0.2,0c-113.1,12.3-230.1,25-345.3,25c-92.7,0-175.5-8.2-253-25.1l-0.9-0.2V677.4v-544l1.5,0.3c77.3,16.8,159.9,25,252.4,25
			c115,0,231.8-12.7,345-25l0,0l0.2,0C432,121.4,548.9,108.7,664.1,108.7z"/>
		
			<radialGradient id="SVGID_00000111896624432583263340000014374336947569610673_" cx="247.8391" cy="568.9243" r="1" gradientTransform="matrix(1105.245 -236.8108 -389.4506 -1817.6462 -52574.7812 1093209.25)" gradientUnits="userSpaceOnUse">
			<stop  offset="0.3865" style="stop-color:#FFFFFF"/>
			<stop  offset="0.9559" style="stop-color:#FFFFFF;stop-opacity:0"/>
		</radialGradient>
		<path style="fill-rule:evenodd;clip-rule:evenodd;fill:url(#SVGID_00000111896624432583263340000014374336947569610673_);" d="
			M664.1,138.7c92.7,0,175.5,8.2,253,25.1l0.9,0.2v134.6V708v134.6l-1.5-0.3c-77.3-16.8-159.9-25-252.4-25c-115,0-231.8,12.7-345,25
			l0,0l-0.2,0c-113.1,12.3-230.1,25-345.3,25c-92.7,0-175.5-8.2-253-25.1l-0.9-0.2V707.4v-544l1.5,0.3c77.3,16.8,159.9,25,252.4,25
			c115,0,231.8-12.7,345-25l0,0l0.2,0C432,151.4,548.9,138.7,664.1,138.7z"/>
		
			<radialGradient id="SVGID_00000083768441113567403510000011949147794318521510_" cx="707.533" cy="713.6202" r="570.7668" gradientUnits="userSpaceOnUse">
			<stop  offset="0.4702" style="stop-color:#FFFFFF"/>
			<stop  offset="0.9559" style="stop-color:#FFFFFF;stop-opacity:0"/>
		</radialGradient>
		<path style="fill-rule:evenodd;clip-rule:evenodd;fill:url(#SVGID_00000083768441113567403510000011949147794318521510_);" d="
			M663.7,138.7c92.7,0,175.5,8.2,253,25.1l0.9,0.2v134.6V708v134.6l-1.5-0.3c-77.3-16.8-159.9-25-252.4-25c-115,0-231.8,12.7-345,25
			l0,0l-0.2,0c-113.1,12.3-230.1,25-345.3,25c-92.7,0-175.5-8.2-253-25.1l-0.9-0.2V707.4v-544l1.5,0.3c77.3,16.8,159.9,25,252.4,25
			c115,0,231.8-12.7,345-25l0,0l0.2,0C431.6,151.4,548.6,138.7,663.7,138.7z"/>
	</g>
</g>
</svg>
