<svg width="15" height="15" viewBox="0 0 15 15" fill="none" xmlns="http://www.w3.org/2000/svg">
<path d="M7.49993 0.887695C11.152 0.887695 14.1124 3.84836 14.1124 7.50018C14.1124 11.1523 11.1518 14.1127 7.49993 14.1127C3.84811 14.1127 0.887451 11.152 0.887451 7.50018C0.887451 3.84836 3.84811 0.887695 7.49993 0.887695ZM7.49993 2.21022C4.57837 2.21022 2.21 4.57855 2.21 7.50015C2.21 10.4217 4.57834 12.7901 7.49993 12.7901C10.4215 12.7901 12.7899 10.4217 12.7899 7.50015C12.7899 4.57864 10.4214 2.21022 7.49993 2.21022ZM8.45769 5.88326L7.71264 9.63505C7.69551 9.69581 7.68471 9.75657 7.68002 9.81559C7.67479 9.87514 7.67217 9.93318 7.67217 9.9911C7.67217 10.1457 7.70598 10.2523 7.7734 10.3118C7.84136 10.3709 7.94772 10.4007 8.09248 10.4007C8.19054 10.4007 8.26167 10.3935 8.30573 10.3792C8.34926 10.3643 8.38973 10.3482 8.42715 10.3306C8.41362 10.5282 8.37217 10.6982 8.30312 10.8401C8.23363 10.9814 8.14647 11.0995 8.04219 11.1928C7.93736 11.2861 7.819 11.3556 7.68723 11.4003C7.55545 11.4451 7.42215 11.4677 7.28722 11.4677C7.13156 11.4677 6.98638 11.4423 6.85144 11.3926C6.71651 11.3424 6.5988 11.2629 6.49922 11.1552C6.39952 11.0477 6.32119 10.9113 6.2636 10.7457C6.206 10.58 6.17753 10.3809 6.17753 10.1473C6.17753 10.0463 6.18429 9.93589 6.19771 9.81557C6.20677 9.73539 6.21877 9.65074 6.23371 9.56162L6.25847 9.42472L6.96303 5.88321L8.45769 5.88326ZM7.99136 3.53272C8.10601 3.53272 8.21335 3.55595 8.31295 3.60286C8.41266 3.64976 8.5008 3.7138 8.57661 3.79441C8.65231 3.87502 8.71253 3.96829 8.7566 4.07486C8.80023 4.18079 8.82249 4.29456 8.82249 4.41706C8.82249 4.53957 8.80023 4.65334 8.7566 4.75926C8.71253 4.86529 8.65231 4.95692 8.57661 5.03416C8.5008 5.1115 8.41266 5.17269 8.31295 5.21742C8.21336 5.26214 8.10602 5.28483 7.99136 5.28483C7.87661 5.28483 7.76927 5.26214 7.66966 5.21742C7.56996 5.17269 7.4828 5.1115 7.40862 5.03416C7.33445 4.95692 7.2763 4.86529 7.23376 4.75926C7.19177 4.65334 7.17049 4.53957 7.17049 4.41706C7.17049 4.29456 7.19177 4.18079 7.23376 4.07486C7.2763 3.96829 7.33445 3.87502 7.40862 3.79441C7.4828 3.71379 7.56996 3.64976 7.66966 3.60286C7.76926 3.55595 7.8766 3.53272 7.99136 3.53272Z" fill="url(#paint0_linear_1347_41157)"/>
<defs>
<linearGradient id="paint0_linear_1347_41157" x1="2.2567" y1="2.87144" x2="9.43481" y2="4.28462" gradientUnits="userSpaceOnUse">
<stop stop-color="#940DFF"/>
<stop offset="1" stop-color="#0094FF"/>
<stop offset="1" stop-color="#0094FF"/>
</linearGradient>
</defs>
</svg>
