<svg width="76" height="76" viewBox="0 0 76 76" fill="none" xmlns="http://www.w3.org/2000/svg">
<path d="M19.5318 29.5732L14.452 24.4934C9.37226 27.9193 4.64689 32.5265 0.394043 38.197C13.3888 55.9172 31.4634 62.5327 48.2385 58.1617L42.2137 52.1369C40.796 52.3731 39.4966 52.3731 38.1971 52.3731C27.6831 52.3731 17.7598 47.4115 9.4904 38.197C12.68 34.7711 15.9878 31.8177 19.5318 29.5732Z" fill="url(#paint0_linear)"/>
<path d="M24.0208 34.0623C24.3752 41.3866 30.2819 47.2933 37.6062 47.6477L24.0208 34.0623Z" fill="url(#paint1_linear)"/>
<path d="M76.0001 38.197C65.6043 24.0208 51.9007 16.9328 38.1971 16.9328C34.8893 16.9328 31.4634 17.4053 28.1557 18.2322C26.5018 18.7048 24.8479 19.1773 23.194 19.8861L3.70181 0.393921L0.394043 3.70169L24.966 28.2737L43.2769 46.5845L47.5297 50.8374L53.082 56.3897L72.6924 76L76.0001 72.6922L57.8074 54.4995C59.225 53.7907 60.6426 52.9638 61.9421 52.0187C67.0219 48.5928 71.7473 43.9855 76.0001 38.197ZM56.8623 46.8208C55.4447 47.6477 54.0271 48.4747 52.4914 49.1835L47.5297 44.2218C48.7111 43.1586 49.7743 41.9773 50.4831 40.5597C51.4281 39.0239 52.0188 37.1338 52.2551 35.2436C51.6644 35.598 50.8375 35.8343 50.0105 35.8343C49.538 35.8343 49.0655 35.7161 48.5929 35.598C48.1204 35.4799 47.766 35.2436 47.2934 35.0073C47.0572 34.8892 46.8209 34.6529 46.5846 34.4167C45.8758 33.5897 45.2852 32.4084 45.2852 31.1089C45.2852 28.9825 46.7028 27.2105 48.5929 26.6198C49.0655 26.5016 49.538 26.3835 50.0105 26.3835C50.1287 26.3835 50.3649 26.3835 50.4831 26.3835C50.4831 26.3835 50.4831 26.3835 50.4831 26.2654C50.6012 26.2654 50.6012 26.3835 50.7193 26.3835C51.5463 26.7379 52.2551 26.9742 53.082 27.4467C58.0437 29.8094 62.7691 33.4716 67.0219 38.197C63.8323 41.741 60.4064 44.5762 56.8623 46.8208Z" fill="url(#paint2_linear)"/>
<defs>
<linearGradient id="paint0_linear" x1="5.34764" y1="29.7391" x2="30.4981" y2="36.5132" gradientUnits="userSpaceOnUse">
<stop stop-color="#940DFF"/>
<stop offset="1" stop-color="#0094FF"/>
<stop offset="1" stop-color="#0094FF"/>
</linearGradient>
<linearGradient id="paint1_linear" x1="25.4273" y1="36.1001" x2="32.8011" y2="37.5518" gradientUnits="userSpaceOnUse">
<stop stop-color="#940DFF"/>
<stop offset="1" stop-color="#0094FF"/>
<stop offset="1" stop-color="#0094FF"/>
</linearGradient>
<linearGradient id="paint2_linear" x1="8.22194" y1="11.7348" x2="49.2586" y2="19.8139" gradientUnits="userSpaceOnUse">
<stop stop-color="#940DFF"/>
<stop offset="1" stop-color="#0094FF"/>
<stop offset="1" stop-color="#0094FF"/>
</linearGradient>
</defs>
</svg>
