<svg width="442" height="192" viewBox="0 0 442 192" fill="none" xmlns="http://www.w3.org/2000/svg">
<path d="M152 74.3594H160.625V111.375H181.828V119.641H152V74.3594Z" fill="white"/>
<path d="M219.531 74.3594H228.156V119.641H219.531V74.3594Z" fill="white"/>
<path d="M269.444 74.3594H283.819C286.79 74.3594 289.617 74.9823 292.3 76.2281C294.984 77.426 297.356 79.0552 299.416 81.1156C301.476 83.176 303.106 85.5719 304.304 88.3031C305.501 91.0344 306.1 93.9333 306.1 97C306.1 100.067 305.501 102.966 304.304 105.697C303.106 108.428 301.476 110.824 299.416 112.884C297.356 114.945 294.984 116.598 292.3 117.844C289.617 119.042 286.79 119.641 283.819 119.641H269.444V74.3594ZM283.819 111.375C285.592 111.375 287.293 110.992 288.922 110.225C290.599 109.458 292.061 108.428 293.307 107.134C294.6 105.841 295.607 104.331 296.325 102.606C297.092 100.833 297.475 98.9646 297.475 97C297.475 95.0354 297.092 93.1906 296.325 91.4656C295.607 89.6927 294.6 88.1594 293.307 86.8656C292.061 85.5719 290.599 84.5417 288.922 83.775C287.293 83.0083 285.592 82.625 283.819 82.625H278.069V111.375H283.819Z" fill="white"/>
<path d="M364.313 120C361.342 120 358.515 119.425 355.832 118.275C353.196 117.077 350.872 115.448 348.86 113.388C346.895 111.279 345.314 108.835 344.116 106.056C342.966 103.277 342.391 100.258 342.391 97C342.391 93.7896 342.966 90.7948 344.116 88.0156C345.314 85.1885 346.895 82.7448 348.86 80.6844C350.872 78.576 353.196 76.9469 355.832 75.7969C358.515 74.599 361.342 74 364.313 74C367.284 74 370.087 74.599 372.722 75.7969C375.406 76.9469 377.73 78.576 379.694 80.6844C381.707 82.7448 383.288 85.1885 384.438 88.0156C385.636 90.7948 386.235 93.7896 386.235 97C386.235 100.258 385.636 103.277 384.438 106.056C383.288 108.835 381.707 111.279 379.694 113.388C377.73 115.448 375.406 117.077 372.722 118.275C370.087 119.425 367.284 120 364.313 120ZM364.313 111.734C366.086 111.734 367.787 111.375 369.416 110.656C371.045 109.938 372.459 108.931 373.657 107.637C374.855 106.296 375.813 104.739 376.532 102.966C377.25 101.145 377.61 99.1563 377.61 97C377.61 94.8438 377.25 92.8792 376.532 91.1063C375.813 89.2854 374.855 87.7281 373.657 86.4344C372.459 85.0927 371.045 84.0625 369.416 83.3438C367.787 82.625 366.086 82.2656 364.313 82.2656C362.492 82.2656 360.767 82.625 359.138 83.3438C357.557 84.0625 356.167 85.0927 354.969 86.4344C353.771 87.7281 352.813 89.2854 352.094 91.1063C351.375 92.8792 351.016 94.8438 351.016 97C351.016 99.1563 351.375 101.145 352.094 102.966C352.813 104.739 353.771 106.296 354.969 107.637C356.167 108.931 357.557 109.938 359.138 110.656C360.767 111.375 362.492 111.734 364.313 111.734Z" fill="white"/>
<path fill-rule="evenodd" clip-rule="evenodd" d="M84.0263 56L103.825 86.9909L84.0253 98.5295L64.2282 86.9905L84.0263 56ZM70.2889 85.525L84.0263 64.0214L97.7639 85.5251L84.0254 93.5316L70.2889 85.525Z" fill="white"/>
<path d="M83.997 105.341L61.0304 91.9549L60.4032 92.9366C53.3296 104.009 54.9093 118.51 64.2014 127.801C75.1359 138.733 92.8641 138.733 103.799 127.801C113.091 118.51 114.67 104.009 107.597 92.9366L106.969 91.9546L83.998 105.342L83.997 105.341Z" fill="white"/>
</svg>
