<svg width="29" height="17" viewBox="0 0 29 17" fill="none" xmlns="http://www.w3.org/2000/svg">
<path d="M27.5792 7.22401L21.0542 2.84501C20.0102 2.14901 18.6472 2.90301 18.6472 4.12101V6.09301C15.4282 6.06401 12.2382 5.33901 9.33822 3.94701L3.33522 1.07601C2.87122 0.84401 2.32022 1.04701 2.08822 1.51101L0.812216 4.17901C0.580216 4.64301 0.783216 5.19401 1.24722 5.42601L7.74322 8.50001L1.24722 11.574C0.783216 11.806 0.580216 12.357 0.812216 12.821L2.08822 15.489C2.32022 15.953 2.87122 16.156 3.33522 15.924L9.33822 13.053C12.2382 11.661 15.4282 10.936 18.6472 10.907V12.879C18.6472 14.126 20.0392 14.851 21.0542 14.155L27.5792 9.77601C28.5072 9.16701 28.5072 7.83301 27.5792 7.22401Z" fill="#333333" fill-opacity="0.17"/>
</svg>
