<svg width="69" height="38" viewBox="0 0 69 38" fill="none" xmlns="http://www.w3.org/2000/svg">
<path d="M66.6953 15.5033L50.4953 4.63133C47.9033 2.90333 44.5193 4.77533 44.5193 7.79933V12.6953C36.5273 12.6233 28.6073 10.8233 21.4073 7.36733L6.50333 0.239327C5.35133 -0.336673 3.98333 0.167327 3.40733 1.31933L0.239327 7.94333C-0.336673 9.09532 0.167328 10.4633 1.31933 11.0393L17.4473 18.6713L1.31933 26.3033C0.167328 26.8793 -0.336673 28.2473 0.239327 29.3993L3.40733 36.0233C3.98333 37.1753 5.35133 37.6793 6.50333 37.1033L21.4073 29.9753C28.6073 26.5193 36.5273 24.7193 44.5193 24.6473V29.5433C44.5193 32.6393 47.9753 34.4393 50.4953 32.7113L66.6953 21.8393C68.9993 20.3273 68.9993 17.0153 66.6953 15.5033Z" fill="url(#paint0_linear)"/>
<defs>
<linearGradient id="paint0_linear" x1="7.08423" y1="5.6014" x2="41.2198" y2="17.9152" gradientUnits="userSpaceOnUse">
<stop stop-color="#940DFF"/>
<stop offset="1" stop-color="#0094FF"/>
<stop offset="1" stop-color="#0094FF"/>
</linearGradient>
</defs>
</svg>
