<?xml version="1.0" encoding="UTF-8"?><svg id="Layer_1" xmlns="http://www.w3.org/2000/svg" viewBox="0 0 88.36 68.66">
    <path
        d="M88.21,2.88c-.03-2.1-1.96-3.43-3.85-2.66L52.17,12.38c-2.62,.99-2.9,4.7-.4,5.69l9.66,3.98-14.78,21.41c0-.08,0-.15-.01-.16-.02,0-.04,.1-.06,.26l-.27,.39c-.59,.66-1.68,1.65-3.32,2.07-1.79,.46-3.4,.03-4.61-.55l-13.46-9.26h0l-.69-.48c-.95-.57-2.76-1.38-4.97-.84-2.36,.57-3.61,2.28-4.08,3.07l-.21,.38h0C9.96,47.23,.38,64.39,.19,65.11c-.06,.22-.08,.45-.08,.45-.01,.14-.04,.66,.18,1.23,.3,.78,.9,1.18,1.12,1.34,.91,.61,1.86,.55,2.13,.53,0,0,.77-.08,1.5-.53,1-.63,5.33-4.97,11.44-11.43,.34-.3,1.45-1.18,3.11-1.26,1.17-.06,2.11,.29,2.75,.65l.92,.63h0l2.91,2c.09,.1,.18,.21,.3,.29l8.71,6.01c6.71,4.63,16.23,2.55,21.18-4.63l19.55-28.32,7.15,7.62c1.82,1.99,5.18,.41,5.18-2.4l-.04-34.4Z" />
</svg>