<svg width="11" height="24" viewBox="0 0 11 24" fill="none" xmlns="http://www.w3.org/2000/svg">
<path d="M5.67374 7.39535C7.54629 7.39535 9.06429 5.87735 9.06429 4.0048C9.06429 2.13226 7.54629 0.614258 5.67374 0.614258C3.8012 0.614258 2.2832 2.13226 2.2832 4.0048C2.2832 5.87735 3.8012 7.39535 5.67374 7.39535Z" fill="white"/>
<path fill-rule="evenodd" clip-rule="evenodd" d="M9.676 6.24731C9.27603 6.95586 8.695 7.54541 7.99234 7.95564C7.28969 8.36587 6.49066 8.58207 5.67702 8.58207C4.86337 8.58207 4.06435 8.36587 3.36169 7.95564C2.65904 7.54541 2.078 6.95586 1.67803 6.24731C1.30331 6.52612 0.998866 6.88858 0.788927 7.3058C0.578988 7.72302 0.469342 8.18349 0.46875 8.65056V13.082C0.469575 13.7647 0.702646 14.4269 1.12966 14.9596C1.55667 15.4923 2.15222 15.8639 2.81841 16.0133C3.18578 18.0032 3.55823 19.9932 3.93581 21.9831C4.0404 22.3605 4.26585 22.6932 4.57756 22.9303C4.88927 23.1674 5.27007 23.2957 5.6617 23.2957C6.05332 23.2957 6.43416 23.1674 6.74588 22.9303C7.05759 22.6932 7.28299 22.3605 7.38759 21.9831C7.76516 19.9932 8.13766 18.0032 8.50503 16.0133C9.17122 15.8639 9.76677 15.4923 10.1938 14.9596C10.6208 14.4269 10.8539 13.7647 10.8547 13.082V8.68881C10.8637 8.2179 10.7616 7.7515 10.5568 7.32734C10.3521 6.90318 10.0503 6.53319 9.676 6.24731Z" fill="white"/>
</svg>
