<svg width="46" height="47" viewBox="0 0 46 47" fill="none" xmlns="http://www.w3.org/2000/svg">
<path d="M45.3437 3.77518L45.368 3.74969L41.8007 42.2597L41.8006 42.2597L41.8001 42.2659C41.7734 42.6002 41.6721 42.9221 41.5058 43.2055C41.3396 43.4889 41.1135 43.7251 40.8474 43.8968C40.5815 44.0685 40.2825 44.1713 39.9745 44.1987C39.6665 44.2261 39.3562 44.1775 39.068 44.0559L39.068 44.0559L39.0614 44.0532L26.8466 39.1025L26.5425 38.9793L26.3085 39.2091L19.4586 45.9358L19.4585 45.9358L19.4541 45.9402C19.0952 46.3016 18.6216 46.4994 18.1335 46.4998L18.1275 46.4999C17.8699 46.5031 17.6136 46.4528 17.3733 46.351C17.133 46.2492 16.9128 46.0978 16.7261 45.9041C16.5395 45.7105 16.3902 45.4786 16.2881 45.2214C16.186 44.9642 16.1334 44.6875 16.134 44.4076V44.4066V39.8188L32.5305 18.3488L32.1337 18.0446L32.5311 18.3481L32.5308 18.3484C32.7136 18.1099 32.8266 17.8244 32.8594 17.5254C32.8923 17.2263 32.8439 16.9228 32.7187 16.6494C32.5934 16.3758 32.3952 16.1415 32.1441 15.976C31.8927 15.8104 31.5995 15.7213 31.2984 15.7215L31.2935 15.7215C30.9149 15.7255 30.5544 15.8725 30.2771 16.1294L11.4886 32.8719L1.75207 28.9234L1.75171 28.9233C1.40798 28.7842 1.10592 28.5434 0.883558 28.2261C0.661059 27.9085 0.528523 27.5285 0.504105 27.1308C0.479686 26.7331 0.564629 26.3375 0.747193 25.9913C0.929667 25.6453 1.20101 25.3647 1.52624 25.1798L1.52626 25.1799L1.53238 25.1763L43.1917 0.710833L43.194 0.709485C43.4407 0.562856 43.7192 0.491382 43.9991 0.500829C44.2792 0.510276 44.5531 0.600415 44.791 0.763839C45.0291 0.927426 45.2225 1.15876 45.3472 1.43468C45.4719 1.71072 45.5221 2.01888 45.491 2.3247L45.3437 3.77518Z" fill="url(#paint0_linear_1497_18397)" stroke="url(#paint1_linear_1497_18397)"/>
<defs>
<linearGradient id="paint0_linear_1497_18397" x1="4.76263" y1="7.05" x2="29.7693" y2="11.8684" gradientUnits="userSpaceOnUse">
<stop stop-color="#940DFF"/>
<stop offset="1" stop-color="#0094FF"/>
<stop offset="1" stop-color="#0094FF"/>
</linearGradient>
<linearGradient id="paint1_linear_1497_18397" x1="4.76263" y1="7.05" x2="29.7693" y2="11.8684" gradientUnits="userSpaceOnUse">
<stop stop-color="#940DFF"/>
<stop offset="1" stop-color="#0094FF"/>
<stop offset="1" stop-color="#0094FF"/>
</linearGradient>
</defs>
</svg>
