<svg width="71" height="71" viewBox="0 0 71 71" fill="none" xmlns="http://www.w3.org/2000/svg">
<g clip-path="url(#clip0)">
<path d="M42.66 30.12C41.58 34.48 34.85 32.26 32.66 31.72L34.6 24C36.78 24.54 43.8 25.56 42.66 30.11V30.12ZM41.47 42.56C40.28 47.36 32.2 44.76 29.58 44.11L31.7 35.61C34.32 36.26 42.7 37.61 41.47 42.61V42.56ZM50.29 30.24C51 25.5 47.43 23 42.55 21.3L44.13 15L40.27 14L38.73 20.17C37.73 19.92 36.67 19.68 35.64 19.45L37.19 13.23L33.33 12.23L31.74 18.57C30.9 18.38 30.08 18.19 29.28 17.99L24 16.68L23 20.8C23 20.8 25.86 21.46 25.8 21.5C26.3357 21.5628 26.8251 21.8343 27.162 22.2554C27.499 22.6766 27.6563 23.2136 27.6 23.75L25.73 31C25.8669 31.027 26.0009 31.0672 26.13 31.12L25.72 31.02L23.2 41.13C23.1443 41.3067 23.0543 41.4706 22.9351 41.6125C22.816 41.7544 22.6701 41.8714 22.5057 41.9568C22.3413 42.0422 22.1617 42.0944 21.9771 42.1104C21.7926 42.1264 21.6067 42.1059 21.43 42.05C21.43 42.1 18.62 41.34 18.62 41.34L16.7 45.77L21.7 47.02C22.64 47.25 23.55 47.5 24.45 47.73L22.86 54.15L26.71 55.15L28.3 48.8C29.3 49.08 30.35 49.34 31.37 49.6L29.8 55.92L33.66 56.92L35.26 50.51C41.84 51.76 46.8 51.26 48.88 45.3C50.56 40.51 48.8 37.74 45.33 35.94C47.86 35.35 49.76 33.69 50.26 30.27L50.29 30.24ZM70.37 35.27C70.3562 42.2302 68.2792 49.03 64.4017 54.8101C60.5241 60.5901 55.02 65.0909 48.5851 67.7435C42.1502 70.3961 35.0733 71.0814 28.249 69.7129C21.4247 68.3443 15.1592 64.9834 10.2446 60.0548C5.33003 55.1262 1.98687 48.8513 0.637724 42.0231C-0.711423 35.1949 -0.00598931 28.12 2.66486 21.6926C5.33571 15.2653 9.85207 9.774 15.6431 5.91287C21.4341 2.05174 28.2398 -0.00590549 35.2 1.27307e-05C44.5357 1.27307e-05 53.4889 3.70857 60.0902 10.3099C66.6915 16.9111 70.4 25.8644 70.4 35.2" fill="white"/>
</g>
<defs>
<clipPath id="clip0">
<rect width="70.4" height="70.4" fill="white"/>
</clipPath>
</defs>
</svg>
