<svg width="56" height="54" viewBox="0 0 56 54" fill="none" xmlns="http://www.w3.org/2000/svg">
<path fill-rule="evenodd" clip-rule="evenodd" d="M47.479 17.2365L44.1144 13.9014L40.799 10.6056L43.0519 10.1236C42.7956 8.62726 42.1662 7.21969 41.222 6.03096C40.2188 4.74506 38.91 3.73048 37.4147 3.07955C36.1642 2.57845 34.8265 2.33099 33.4795 2.35154C32.4548 2.35302 31.433 2.4585 30.4297 2.66637L29.6131 2.86311C31.2731 1.59341 33.2309 0.770349 35.2995 0.472476C37.1864 0.154388 39.1226 0.306458 40.9367 0.9152C42.4038 1.42733 43.7452 2.24556 44.8719 3.31565C45.4912 3.92625 46.0421 4.60253 46.5148 5.33247C46.921 5.93311 47.2733 6.56849 47.5675 7.2312C47.8161 7.80152 48.0201 8.3903 48.1775 8.99222L50.1451 8.55934L48.817 12.8979L47.479 17.2365ZM10.7831 1.05296H13.1246V9.12998L17.0598 4.82092H19.903L16.0465 8.75613L20.2178 15.023H17.5025L14.4429 10.3991L13.0951 11.7666V15.023H10.7536L10.7831 1.05296ZM3.45383 13.0652H8.8549V15.0329H0.512207V13.2719L6.01169 6.77876H0.58108V4.81116H8.79587V6.58199L3.45383 13.0652ZM8.5794 34.1383L5.20497 30.8032L3.86701 35.1417L2.53884 39.4803L4.50644 39.0474C4.66385 39.6493 4.86778 40.2381 5.1164 40.8084C5.41062 41.4712 5.76289 42.1065 6.16907 42.7072C6.64185 43.4371 7.1928 44.1134 7.81207 44.724C8.93842 45.7969 10.2797 46.6184 11.7473 47.1343C13.5634 47.7329 15.4971 47.8847 17.3845 47.577C19.4526 47.2712 21.4091 46.4452 23.0708 45.1765C23.0257 45.1878 22.976 45.2006 22.9221 45.2145C22.7408 45.2613 22.5122 45.3202 22.2543 45.3733C21.251 45.5811 20.2291 45.6866 19.2045 45.6881C17.8584 45.7084 16.5214 45.4644 15.2693 44.9699C13.7752 44.3169 12.4668 43.3027 11.4619 42.0185C10.5177 40.8298 9.88837 39.4222 9.63208 37.9259L11.885 37.4438L8.5794 34.1383ZM24.9106 23.9953L42.8945 34.9745L45.2851 33.5185C42.619 31.9936 32.4956 26.1891 27.5766 22.6966C26.9667 22.2638 25.8648 21.4275 25.8648 20.3847C25.8648 18.6237 28.3243 17.207 31.3741 17.207C32.8463 17.2221 34.2911 17.6078 35.575 18.3285C41.6647 21.7423 50.9026 27.6157 52.8702 28.8848L55.2412 27.4091L38.0542 16.9021C36.0324 15.7242 33.723 15.1316 31.3839 15.1902C26.4649 15.1902 22.4018 17.512 22.4018 20.3847C22.3821 21.7915 23.3463 23.0606 24.9106 23.9953ZM50.696 46.2195V44.1732L50.7059 43.5731V32.5151V31.9937C50.6506 31.5612 50.5002 31.1464 50.2654 30.7789C50.0307 30.4115 49.7174 30.1006 49.3482 29.8687L34.3845 20.7882C34.2147 20.6873 34.0213 20.633 33.8238 20.6308C33.7139 20.6327 33.6047 20.6493 33.4991 20.68L33.3811 20.7488L29.6328 23.0313C34.8273 26.5041 43.3273 31.4034 45.9049 32.8693L46.5444 33.2432V48.7577L50.696 46.2195ZM43.2486 35.7419V36.7257V38.4178V48.1279V49.0035V53.4798L45.6589 51.9845V49.0035V46.6522V36.9519V36.7257V34.2662L43.2486 35.7419ZM53.2244 29.9867V29.6522L55.6347 28.1568V31.3148H55.6249V40.5724V44.6945V45.9046L53.2244 47.3705V44.6945V42.0382V32.3576V29.9867ZM51.5913 46.426L52.3783 46.8687V29.5636C51.6208 29.0717 41.645 22.677 35.1618 19.0566C34.0022 18.415 32.6993 18.0766 31.3741 18.0728C28.6195 18.0728 26.701 19.3026 26.701 20.4143C26.701 21.0734 27.6848 21.8014 28.0587 22.0375L28.7769 22.5393C30.0209 21.7704 31.2497 21.0243 32.43 20.3076L32.9187 20.0109L33.1056 19.8928C33.3182 19.8071 33.5454 19.7636 33.7746 19.7649C34.1392 19.7686 34.4961 19.8706 34.8076 20.0601L49.7614 29.1308C50.2608 29.4433 50.6814 29.8669 50.9902 30.3686C51.2991 30.8703 51.4879 31.4365 51.5421 32.0232V32.3183V44.0157V46.4654L51.5913 46.426ZM22.3822 22.854C22.6669 23.2459 22.9971 23.6025 23.366 23.9164L42.4026 35.6631V53.0469L24.7729 42.2742L23.4053 41.4478C23.1288 41.2374 22.8979 40.9729 22.7265 40.6706C22.462 40.2081 22.342 39.677 22.3822 39.1457V22.854Z" fill="#C4C4C4"/>
</svg>
