<svg height="300px" width="300px" fill="#ffffff" xmlns="http://www.w3.org/2000/svg" xmlns:xlink="http://www.w3.org/1999/xlink" version="1.1" x="0px" y="0px" viewBox="0 0 95 95" enable-background="new 0 0 95 95" xml:space="preserve"><path d="M47.498,62.272c17.455,0,30.213,13.729,30.213,20.874h4.542c0-7.95-9.773-19.245-23.371-23.601  c8.196-4.166,13.829-12.676,13.829-22.482c0-13.9-11.31-25.209-25.211-25.209c-13.899,0-25.209,11.309-25.209,25.209  c0,9.805,5.631,18.315,13.827,22.481C22.521,63.9,12.747,75.196,12.747,83.146h4.541C17.288,76,30.046,62.272,47.498,62.272z   M26.833,37.063c0-11.396,9.271-20.668,20.667-20.668s20.669,9.271,20.669,20.668S58.896,57.731,47.5,57.731  S26.833,48.46,26.833,37.063z"></path></svg>