<svg width="60" height="65" viewBox="0 0 60 65" fill="none" xmlns="http://www.w3.org/2000/svg">
<path fill-rule="evenodd" clip-rule="evenodd" d="M31.2817 4.72006H10.4617C8.41089 4.71414 6.3891 5.20496 4.56927 6.15057C2.74944 7.09619 1.1857 8.46846 0.0117188 10.1501C0.264309 7.37035 1.54937 4.7862 3.6134 2.90728C5.67743 1.02837 8.3706 -0.00889428 11.1617 5.74614e-05H30.5817C33.366 0.00110597 36.0492 1.04286 38.1048 2.9208C40.1604 4.79875 41.4397 7.37723 41.6917 10.1501C40.5216 8.47402 38.9642 7.10519 37.1519 6.15985C35.3395 5.21451 33.3258 4.72059 31.2817 4.72006ZM56.0123 35.3801C57.5328 37.7876 58.5247 40.4905 58.9223 43.3101C59.3743 46.7447 58.9724 50.2378 57.7523 53.4801C56.4915 57.0515 54.3403 60.2421 51.5023 62.7501C51.6623 62.4101 51.8823 61.9301 52.1323 61.3501C52.8528 59.6454 53.4022 57.8734 53.7723 56.0601C54.2794 53.6493 54.3099 51.1626 53.8623 48.7401C53.2422 45.8682 51.9194 43.195 50.0123 40.9601C48.2227 38.8585 45.9321 37.242 43.3524 36.2601L41.7123 40.1001L36.9323 32.9201L32.1523 25.7501L40.3623 24.9001L48.5623 24.0701L47.0923 27.5101C48.1092 28.0022 49.0856 28.574 50.0123 29.2201C51.0853 29.9729 52.0892 30.8195 53.0123 31.7501C54.1435 32.8454 55.1496 34.0629 56.0123 35.3801ZM28.1728 23.8801L40.1128 22.6501H40.5328C39.6751 20.8134 38.4388 19.1788 36.905 17.8535C35.3712 16.5282 33.5745 15.5422 31.6328 14.9601L10.1228 9.22007C9.9286 9.1657 9.74047 9.12943 9.54899 9.09251L9.54895 9.0925C9.49391 9.08189 9.4386 9.07123 9.38279 9.06007H10.1228H31.6328C33.7855 9.06271 35.8493 9.91907 37.3716 11.4413C38.8938 12.9635 39.7501 15.0273 39.7528 17.1801V17.4901C40.0328 17.8001 40.3228 18.1301 40.5928 18.4901C41.0112 19.0275 41.3984 19.5884 41.7528 20.1701V17.1701C41.7501 14.4869 40.6831 11.9144 38.7858 10.0171C36.8885 8.11977 34.316 7.0527 31.6328 7.05006H10.1228C8.51558 7.04795 6.93117 7.42983 5.50138 8.16386C4.07159 8.89789 2.83782 9.96283 1.90281 11.2701C0.627429 12.7715 -0.0491343 14.6908 0.00278068 16.6601V45.5001C0.00278068 51.0901 4.53278 56.8301 10.1228 58.3201L31.6328 64.0601C37.2128 65.5601 41.7528 62.2401 41.7528 56.6501V44.3201L35.0128 34.1801L28.1728 23.8801ZM32.1728 51.8801V51.9601L31.5628 52.5801L26.4928 56.5801C24.7833 57.3979 22.9076 57.8086 21.0128 57.7801C19.7019 57.7737 18.3974 57.5955 17.1328 57.2501C9.03279 55.0901 2.67276 47.0201 2.67276 38.8801C2.61257 36.0395 3.53055 33.2644 5.2728 31.0201L6.7728 29.4001L9.01279 27.4001C9.24279 27.1801 9.49277 26.9601 9.74277 26.7601L10.6028 26.1201C12.5811 24.8269 14.8995 24.1516 17.2628 24.1801C18.5737 24.1864 19.8782 24.3646 21.1428 24.7101C29.2428 26.8701 35.5928 34.9401 35.5928 43.0801C35.6377 44.7031 35.3573 46.3187 34.7682 47.8317C34.1792 49.3448 33.2933 50.7246 32.1628 51.8901L32.1728 51.8801ZM15.7548 26.5724C17.3562 26.3153 18.9957 26.4378 20.5411 26.9301C27.6011 28.7801 33.3211 36.0601 33.2011 43.0701C33.2531 44.5049 32.9879 45.9336 32.4244 47.2542C31.8609 48.5748 31.013 49.7548 29.9411 50.7101V50.8501L26.9411 53.5301C25.6275 54.4972 24.1034 55.1392 22.4938 55.4034C20.8842 55.6677 19.2348 55.5465 17.681 55.05C10.621 53.17 4.90108 45.9201 4.90108 38.8701C4.84748 37.4104 5.12353 35.9575 5.7087 34.6192C6.29386 33.281 7.17311 32.0918 8.28108 31.14V31.0901L10.5611 29.0901C10.7511 28.9001 10.961 28.7201 11.171 28.5401L11.3211 28.4101C12.6348 27.4589 14.1534 26.8294 15.7548 26.5724ZM7.07478 40.3975C7.28147 40.6635 7.56732 40.857 7.89107 40.9501L9.27107 41.3201C9.39266 40.5067 9.71581 39.7366 10.2111 39.08L8.02107 38.5001C7.86771 38.4516 7.70488 38.4408 7.54646 38.4687C7.38805 38.4965 7.23867 38.5622 7.11104 38.6601C6.99098 38.7573 6.89514 38.8811 6.83095 39.0216C6.76675 39.1621 6.73595 39.3156 6.74104 39.4701C6.75124 39.8068 6.8681 40.1315 7.07478 40.3975ZM11.0411 48.6701C11.2529 48.6708 11.4595 48.6043 11.6311 48.4801L11.921 48.2701C11.2651 47.6313 10.7059 46.9003 10.2611 46.1001L9.95107 46.33C9.74605 46.4931 9.6132 46.7301 9.58107 46.9901C9.53961 47.3814 9.65466 47.7732 9.90108 48.08C10.0366 48.2556 10.2088 48.3994 10.4057 48.5013C10.6027 48.6032 10.8195 48.6608 11.0411 48.6701ZM18.7567 52.7899C18.8227 52.6493 18.855 52.4953 18.8511 52.3401V50.5101C18.0586 50.7382 17.2256 50.7894 16.4111 50.6601V51.86C16.4207 52.1981 16.5372 52.5244 16.7438 52.7921C16.9504 53.0597 17.2365 53.2551 17.5611 53.3501C17.6642 53.3592 17.7679 53.3592 17.871 53.3501C18.0874 53.3501 18.298 53.2799 18.4711 53.1501C18.593 53.0538 18.6908 52.9305 18.7567 52.7899ZM25.5571 51.7899C25.6209 51.6761 25.6597 51.55 25.671 51.4201L25.6911 51.3801C25.7279 50.9969 25.617 50.6142 25.3811 50.3101L23.0411 47.3101C23.7107 46.7938 24.2231 46.1013 24.5211 45.3101L27.2611 46.0301C27.3639 46.0441 27.4682 46.0441 27.5711 46.0301C27.7874 46.0301 27.9979 45.9599 28.171 45.83C28.2929 45.7338 28.3907 45.6105 28.4567 45.4699C28.5226 45.3293 28.5549 45.1753 28.551 45.0201C28.5387 44.6825 28.4198 44.3575 28.2114 44.0917C28.0031 43.8258 27.7159 43.6327 27.3911 43.5401L24.8311 42.86C24.7338 41.6252 24.3577 40.4285 23.731 39.36L25.3311 38.1601C25.4351 38.0817 25.5217 37.9825 25.5854 37.8689C25.6491 37.7553 25.6885 37.6297 25.7011 37.5001C25.7425 37.1087 25.6275 36.7169 25.3811 36.4101C25.2005 36.1355 24.922 35.9402 24.6024 35.864C24.2827 35.7878 23.9461 35.8365 23.6611 36.0001L22.0411 37.2201C21.1377 36.3537 20.0606 35.689 18.8811 35.2701V32.6601C18.8687 32.3225 18.7498 31.9975 18.5414 31.7317C18.333 31.4658 18.0459 31.2727 17.7211 31.1801C17.5677 31.1316 17.4049 31.1208 17.2465 31.1487C17.0881 31.1765 16.9387 31.2422 16.8111 31.3401C16.691 31.4373 16.5951 31.5611 16.5309 31.7016C16.4667 31.8421 16.436 31.9956 16.4411 32.1501V34.9001C15.5593 34.9398 14.7052 35.2199 13.9711 35.7101L11.7011 32.8101C11.5206 32.5353 11.2413 32.3404 10.9211 32.266C10.6009 32.1915 10.2642 32.2431 9.98103 32.4101C9.77602 32.5731 9.64317 32.8101 9.61104 33.0701C9.59076 33.2623 9.60862 33.4566 9.66353 33.6419C9.71844 33.8273 9.80932 33.9999 9.93105 34.1501L12.2811 37.1501L11.1611 38.1501C11.8195 37.714 12.5668 37.4302 13.3488 37.3195C14.1307 37.2088 14.9275 37.2739 15.681 37.5101C17.4769 38.0336 19.065 39.1036 20.2245 40.5714C21.3841 42.0392 22.0575 43.8319 22.1511 45.7001C22.1753 46.4269 22.0381 47.1501 21.7493 47.8175C21.4662 48.4717 21.0445 49.0565 20.5134 49.5314L21.361 48.7801L23.5811 51.6701C23.7115 51.8493 23.8811 51.9965 24.0769 52.1004C24.2726 52.2044 24.4895 52.2624 24.7111 52.2701C24.9229 52.2708 25.1295 52.2043 25.301 52.08C25.406 52.0026 25.4933 51.9036 25.5571 51.7899ZM29.0111 51.2001C29.0078 51.2233 29.0078 51.2468 29.0111 51.2701V51.2301C29.0105 51.2201 29.0105 51.2101 29.0111 51.2001ZM29.5811 50.1501C29.5621 50.2117 29.5387 50.2718 29.5111 50.33L29.5311 50.2901C29.5503 50.2444 29.567 50.1976 29.5811 50.1501ZM29.9692 49.1095C29.9404 49.1836 29.9111 49.2589 29.9111 49.33L29.931 49.2601C30.011 49.1501 30.0111 49.0301 30.0111 48.9901C30.0005 49.0289 29.9849 49.069 29.9692 49.1095ZM30.4611 45.7801C30.4611 46.2067 30.4411 46.6267 30.4011 47.0401L30.421 46.9701C30.461 46.5634 30.4744 46.1667 30.4611 45.7801ZM30.2661 47.8532C30.2383 47.9805 30.2111 48.1053 30.2111 48.2301L30.231 48.1601C30.271 47.9601 30.3011 47.7801 30.3111 47.6201C30.2998 47.699 30.2828 47.7766 30.2661 47.8532Z" fill="url(#paint0_linear_1497_18532)"/>
<defs>
<linearGradient id="paint0_linear_1497_18532" x1="4.93108" y1="41.0001" x2="33.3211" y2="41.0001" gradientUnits="userSpaceOnUse">
<stop stop-color="#940DFF"/>
<stop offset="1" stop-color="#0094FF"/>
</linearGradient>
</defs>
</svg>
