<svg width="32" height="13" viewBox="0 0 32 13" fill="none" xmlns="http://www.w3.org/2000/svg">
<path fill-rule="evenodd" clip-rule="evenodd" d="M16.0777 1.58141C16.0766 1.16234 15.9091 0.760735 15.6119 0.464394C15.3147 0.16806 14.9119 0.00109863 14.4915 0H14.4249H14.3625C14.1566 0.00223541 13.9536 0.0481873 13.767 0.134789C13.5803 0.22139 13.4144 0.346649 13.2801 0.502228L5.84488 8.86176L2.82666 5.47894L2.72675 5.38762C2.66847 5.33781 2.61435 5.28799 2.5519 5.24234C2.31717 5.06561 2.03766 4.95763 1.74478 4.93052C1.45189 4.90341 1.15723 4.95825 0.893875 5.08889C0.630524 5.21953 0.40892 5.42078 0.253952 5.67005C0.0989838 5.91932 0.0167999 6.20673 0.0166016 6.5C0.0167389 6.89373 0.165329 7.27302 0.432907 7.56258C0.495972 7.68565 0.572784 7.80122 0.66188 7.90708L4.76248 12.4978C4.89497 12.6528 5.05962 12.7772 5.24506 12.8625C5.4305 12.9479 5.63231 12.9921 5.83655 12.9921C6.04079 12.9921 6.2426 12.9479 6.42804 12.8625C6.61348 12.7772 6.77812 12.6528 6.91061 12.4978L15.4615 2.91379C15.5267 2.84267 15.5839 2.76473 15.6322 2.68135C15.919 2.3867 16.0788 1.99197 16.0777 1.58141ZM23.9999 1.58556C23.9999 1.16615 23.8328 0.763901 23.5353 0.467331C23.2379 0.170753 22.8344 0.00415039 22.4138 0.00415039H22.3097C22.1039 0.0063858 21.9008 0.0523224 21.7142 0.138924C21.5276 0.225525 21.3616 0.3508 21.2273 0.506378L13.7754 8.85759L12.7139 7.6705L10.5491 10.0945L10.803 10.3851L12.6681 12.4604C12.8844 12.707 13.1777 12.8737 13.5007 12.9336C13.5975 12.9567 13.6967 12.9678 13.7962 12.9668C14.0023 12.9656 14.2056 12.9202 14.3924 12.8335C14.5792 12.7468 14.7451 12.621 14.8786 12.4646L23.4004 2.91794C23.4871 2.81711 23.5625 2.70715 23.6252 2.59003C23.8645 2.30943 23.9971 1.95386 23.9999 1.58556ZM31.5353 0.467331C31.8328 0.763901 31.9999 1.16615 31.9999 1.58556C31.9971 1.95386 31.8645 2.30943 31.6252 2.59003C31.5625 2.70715 31.4871 2.81711 31.4004 2.91794L22.8786 12.4646C22.7451 12.621 22.5792 12.7468 22.3924 12.8335C22.2056 12.9202 22.0023 12.9656 21.7962 12.9668C21.6967 12.9678 21.5975 12.9567 21.5007 12.9336C21.1777 12.8737 20.8844 12.707 20.6681 12.4604L18.803 10.3851L18.5491 10.0945L20.7139 7.6705L21.7754 8.85759L29.2273 0.506378C29.3616 0.3508 29.5276 0.225525 29.7142 0.138924C29.9008 0.0523224 30.1039 0.0063858 30.3097 0.00415039H30.4138C30.8344 0.00415039 31.2379 0.170753 31.5353 0.467331Z" fill="#00E2CA"/>
</svg>
