<?xml version="1.0" encoding="UTF-8"?><svg id="Layer_1" xmlns="http://www.w3.org/2000/svg" viewBox="0 0 1556.63 222.8"><defs><style>.cls-1{fill-rule:evenodd;}</style></defs><path class="cls-1" d="M700.09,171.22c28.94,0,50.03-22.27,50.03-60.08s-21.12-60.02-50.03-60.02h-2.23c-28.94,0-50.09,22.27-50.09,60.08s21.15,60.08,50.09,60.08l2.23-.06Zm-74.5-60.08c0-50.06,31.17-80.1,73.38-80.1s73.38,30.07,73.38,80.1-31.17,80.1-73.38,80.1-73.38-30.07-73.38-80.1Zm-69.38,77.87V53.3h-55.59v-20.03h133.41v20.03h-55.59V189.02h-22.24Zm283.96-75.65l51.81,75.65h27.79l-63.59-92.11,62.48-63.64h-28.91l-76.71,77.2V33.27h-22.24V189.02h22.24v-48.06l27.12-27.59Zm98.28-80.1h113.41v20.03h-91.17v45.61h77.84v20.02h-77.84v50.06h93.4v20.03h-115.63V33.27Zm307.98,0h-36.69l-45.59,134.83-46.47-134.83h-36.92V189.02h22.24V52.85l46.92,136.17h28.46l45.8-136.83V189.02h22.24V33.27Zm119.19,95.67l-29.35-75.2-29.35,75.2h58.7Zm23.35,60.08l-15.58-40.09h-74.27l-15.58,40.09h-22.68l61.64-155.71h28.46l61.15,155.75-23.13-.03Zm60.93-78.54l76.71-77.2h28.92l-62.49,63.64,63.59,92.11h-27.79l-51.81-75.65-27.13,27.59v48.06h-22.24V33.27h22.24V110.48Z"/><path class="cls-1" d="M100.13,1.01h20.03V101.13H380.48v20.03h-100.13v100.13h-20.03V121.16H0v-20.03H100.13V1.01Z"/></svg>