<svg width="13" height="13" viewBox="0 0 13 13" fill="none" xmlns="http://www.w3.org/2000/svg">
<path d="M12.7592 0.425398L12.4903 0.549522C12.4826 0.532816 12.4714 0.52035 12.4593 0.512263L12.7374 0.0988141L12.4593 0.512262C12.4474 0.504257 12.4348 0.500493 12.4228 0.500096C12.4108 0.499701 12.3982 0.502622 12.3862 0.509606L12.384 0.51092L0.610669 7.27796L0.604592 7.28145L0.604568 7.28141C0.573218 7.29885 0.545532 7.32619 0.526351 7.36179L0.0861714 7.12464L0.52635 7.36179C0.507113 7.3975 0.497787 7.43913 0.500445 7.4815C0.503102 7.52385 0.517502 7.56341 0.540538 7.59559C0.563491 7.62765 0.593622 7.65056 0.626148 7.66344L0.6265 7.66358L3.17626 8.67558L8.31969 4.18978C8.46202 4.062 8.64649 3.98889 8.84014 3.98689L8.84494 3.98684C8.99893 3.98676 9.1489 4.03136 9.27743 4.11424L12.7592 0.425398ZM12.7592 0.425398L12.4903 0.549526C12.4981 0.566318 12.5015 0.585774 12.4994 0.605429L12.351 2.03555L12.3683 2.01785M12.7592 0.425398L12.3683 2.01785M12.3683 2.01785L11.4562 11.6545L11.4561 11.6545L11.4556 11.6609C11.4526 11.6979 11.4411 11.7331 11.4229 11.7634C11.4048 11.7937 11.3807 11.818 11.3534 11.8352C11.3263 11.8524 11.2964 11.8623 11.2663 11.8649C11.2362 11.8675 11.2056 11.8629 11.1768 11.851L11.1769 11.851L11.1704 11.8484L7.71837 10.479L7.41941 10.3605L7.18753 10.5833L5.25169 12.4439L5.25166 12.4439L5.24723 12.4482C5.21213 12.4828 5.16792 12.5 5.12444 12.5V12.5L5.11858 12.5C5.09412 12.5004 5.06956 12.4957 5.0462 12.486C5.0228 12.4763 5.00067 12.4616 4.98144 12.4421C4.96218 12.4225 4.94624 12.3985 4.93516 12.3712C4.92406 12.3439 4.91823 12.3141 4.91829 12.2838V12.2827V11.139L9.47492 5.29941C9.47503 5.29926 9.47515 5.29911 9.47527 5.29896L9.47546 5.29872L9.08126 4.99113M12.3683 2.01785L9.57099 4.45088M9.08126 4.99113C9.11697 4.94554 9.13938 4.89052 9.1459 4.83242C9.15242 4.77432 9.14279 4.71552 9.11812 4.6628M9.08126 4.99113L4.41829 10.967L9.08126 4.99113ZM9.11812 4.6628L9.57099 4.45088M9.11812 4.6628C9.09344 4.61008 9.05474 4.56558 9.00646 4.53445M9.11812 4.6628L9.57098 4.45087C9.57098 4.45088 9.57099 4.45088 9.57099 4.45088M9.57099 4.45088L9.00646 4.53445M9.00646 4.53445C8.95819 4.50332 8.90231 4.48682 8.84529 4.48687L9.00646 4.53445Z" fill="url(#paint0_linear_11_4002)" stroke="url(#paint1_linear_11_4002)"/>
<defs>
<linearGradient id="paint0_linear_11_4002" x1="1.34596" y1="1.95006" x2="8.40196" y2="3.3392" gradientUnits="userSpaceOnUse">
<stop stop-color="#940DFF"/>
<stop offset="1" stop-color="#0094FF"/>
<stop offset="1" stop-color="#0094FF"/>
</linearGradient>
<linearGradient id="paint1_linear_11_4002" x1="1.34596" y1="1.95006" x2="8.40196" y2="3.3392" gradientUnits="userSpaceOnUse">
<stop stop-color="#940DFF"/>
<stop offset="1" stop-color="#0094FF"/>
<stop offset="1" stop-color="#0094FF"/>
</linearGradient>
</defs>
</svg>
