<svg width="314" height="366" viewBox="0 0 314 366" fill="none" xmlns="http://www.w3.org/2000/svg">
<path fill-rule="evenodd" clip-rule="evenodd" d="M42.9855 261.313C31.7575 255.085 24.2881 250.105 22.8985 248.26C22.1651 247.264 21.5344 246.197 21.0159 245.074C20.4644 243.832 20.0765 242.524 19.8619 241.183V136.749C19.8619 126.654 28.0451 113.505 38.1405 107.381L209.706 3.30773C212.558 1.50621 215.861 0.54729 219.234 0.541504C221.359 0.554723 223.464 0.955845 225.446 1.72514L242.056 11.8009C239.575 12.3861 236.995 13.4758 234.423 15.0353L62.8517 119.113C51.4143 126.054 42.453 140.608 42.453 152.249V256.683C42.4444 258.242 42.6232 259.797 42.9855 261.313ZM127 115.053C127.664 114.654 128.193 114.569 128.589 114.799C128.985 115.027 129.182 115.545 129.182 116.354V116.621C129.184 117.407 128.979 118.18 128.589 118.863C128.213 119.542 127.665 120.111 127 120.511C126.285 120.94 125.727 121.032 125.325 120.788C124.923 120.544 124.722 119.995 124.722 119.14C124.714 118.313 124.922 117.499 125.325 116.777C125.72 116.064 126.298 115.468 127 115.053ZM99.6173 137.394C98.8898 137.831 98.3215 137.91 97.9127 137.631C97.505 137.356 97.3011 136.761 97.3011 135.844C97.2934 134.969 97.5036 134.106 97.9127 133.332C98.3023 132.581 98.8924 131.954 99.6173 131.518C100.295 131.114 100.838 131.028 101.246 131.261C101.654 131.494 101.858 132.02 101.858 132.837V133.391C101.858 134.201 101.648 134.996 101.246 135.699C100.862 136.398 100.3 136.983 99.6173 137.394ZM87.1008 143.234C86.8815 143.529 86.7579 143.884 86.7464 144.252C86.7464 144.596 86.8634 144.794 87.1008 144.843C87.3382 144.893 87.658 144.796 88.0669 144.55C88.6778 144.189 89.209 143.708 89.628 143.136C90.0434 142.568 90.2506 142.029 90.2495 141.517V140.483L88.2713 142.069C87.8263 142.398 87.432 142.791 87.1008 143.234ZM275.137 155.773C273.19 157.721 270.548 158.815 267.794 158.815C265.108 158.813 262.527 157.771 260.593 155.908C258.659 154.044 257.522 151.504 257.421 148.82C257.555 148.899 257.69 148.976 257.83 149.052C260.347 150.424 263.656 151.177 267.149 151.177C270.642 151.177 273.951 150.424 276.468 149.052C277.066 148.73 277.635 148.356 278.168 147.935C278.179 148.099 278.179 148.264 278.179 148.429C278.179 151.184 277.085 153.825 275.137 155.773ZM267.147 149.501C273.794 149.501 279.181 146.566 279.181 142.949V139.238V138.83C279.181 138.538 279.141 138.247 279.062 137.966C278.296 133.901 273.929 130.786 268.655 130.786C263.112 130.786 258.57 134.227 258.159 138.594C256.265 139.748 255.113 141.278 255.113 142.951C255.113 146.566 260.5 149.501 267.147 149.501ZM223.321 244.121H223.365V229.095L121.29 291.026L79.4504 265.639V280.69L121.29 306.077L223.365 244.139L223.321 244.121ZM171.575 240.202V204.459L181.412 198.491L223.358 223.941L121.282 285.878L79.3261 260.415L105.399 244.599L134.66 262.594L171.575 240.202ZM207.625 150.242L221.881 159.046L236.709 150.051C241.412 147.199 245.239 141.05 245.239 136.347V31.9064C245.239 27.2031 241.412 25.698 236.709 28.5516L65.1375 132.631C60.4343 135.483 56.6064 141.632 56.6064 146.335V250.77C56.6064 255.473 60.4343 256.978 65.1375 254.124L204.995 169.283L254.554 199.884C253.565 198.295 253.16 196.248 253.982 194.627L250.608 192.545L209.001 166.853L197.549 159.781L195.187 167.235L185.333 173.393L210.856 92.8128L220.715 86.6292L198.896 155.518L207.625 150.242ZM111.586 122.237L114.266 120.628V121.664C114.597 121.07 115.002 120.521 115.471 120.03C115.93 119.547 116.452 119.128 117.023 118.784C118.058 118.164 118.882 117.995 119.495 118.278C120.109 118.56 120.415 119.257 120.414 120.37V127.013L117.733 128.622V122.743C117.733 122.119 117.596 121.721 117.321 121.555C117.046 121.388 116.648 121.461 116.124 121.774C115.578 122.107 115.121 122.568 114.794 123.118C114.457 123.644 114.275 124.255 114.268 124.88V130.701L111.587 132.31L111.586 122.237ZM106.665 121.512L109.403 119.863V122.353L106.665 124.001V121.512ZM109.383 123.558V133.63L106.703 135.238V125.167L109.383 123.558ZM94.877 135.312C95.0634 134.58 95.3367 133.873 95.6909 133.207C96.0732 132.452 96.5562 131.754 97.1267 131.129C97.6694 130.534 98.2951 130.02 98.9846 129.603C99.4762 129.289 100.022 129.07 100.594 128.955C101.004 128.862 101.435 128.929 101.799 129.141V124.43L104.481 122.823V136.56L101.799 138.167V137.133C101.472 137.734 101.067 138.289 100.594 138.782C100.117 139.282 99.576 139.716 98.9846 140.073C98.4232 140.436 97.7891 140.673 97.1267 140.765C96.6217 140.836 96.1085 140.713 95.6909 140.421C95.308 140.128 95.0239 139.725 94.8765 139.267C94.6799 138.683 94.5863 138.069 94.5996 137.453C94.6032 136.731 94.6963 136.011 94.877 135.312ZM89.87 137.638C89.6151 137.561 89.226 137.679 88.7029 137.992C88.2534 138.249 87.8608 138.595 87.5489 139.008C87.2563 139.418 87.054 139.885 86.9555 140.379L84.4085 141.428C84.6989 140.271 85.2303 139.188 85.968 138.251C86.7391 137.233 87.6982 136.371 88.7935 135.714C90.1124 134.926 91.1207 134.621 91.8186 134.799C92.5164 134.977 92.8675 135.637 92.8719 136.777V140.899C92.8719 141.167 92.9346 141.311 93.0632 141.329C93.1918 141.347 93.4011 141.251 93.6946 141.037V143.047C92.8659 143.66 92.1862 144.049 91.6553 144.214C91.1262 144.379 90.7454 144.313 90.5162 144.016C90.1659 144.596 89.7408 145.128 89.2518 145.597C88.7312 146.102 88.153 146.545 87.5292 146.916C86.5203 147.522 85.696 147.742 85.0564 147.575C84.4168 147.408 84.0975 146.884 84.0986 146.004C84.0986 145.137 84.3953 144.258 84.9888 143.366C85.5822 142.475 86.4983 141.553 87.7369 140.599L90.2442 138.62V138.467C90.2541 137.982 90.1272 137.714 89.8717 137.631L89.87 137.638ZM77.5771 142.638L80.2576 141.029V142.447C80.5087 141.816 80.8686 141.234 81.3209 140.727C81.7845 140.19 82.3303 139.73 82.938 139.364C82.951 139.356 82.964 139.348 82.9771 139.34C83.0047 139.324 83.0328 139.308 83.0611 139.291L83.0627 139.29L83.0634 139.29L83.0935 139.272L83.129 139.252C83.158 139.235 83.1872 139.217 83.2166 139.199L83.5892 139.003V141.626C83.4673 141.682 83.3577 141.739 83.2594 141.789L83.2566 141.791L83.2505 141.794L83.2062 141.817L83.1731 141.833L83.1309 141.855C83.0201 141.91 82.9057 141.979 82.7865 142.051L82.7864 142.051L82.7851 142.052L82.7844 142.052L82.7287 142.086C82.0053 142.512 81.3921 143.103 80.9384 143.81C80.5051 144.451 80.2684 145.205 80.2576 145.979V151.09L77.5771 152.697V142.638ZM75.9698 153.635C75.7148 153.84 75.4434 154.041 75.1555 154.238C74.8675 154.436 74.5642 154.631 74.2455 154.822C73.1465 155.481 72.3552 155.739 71.8716 155.595C71.3881 155.451 71.1452 154.902 71.143 153.947V148.739L69.8028 149.542V147.302L71.143 146.499V143.625L73.7806 142.041V144.913L75.8297 143.685V145.925L73.7806 147.153V151.807C73.7806 152.165 73.868 152.364 74.0394 152.407C74.2109 152.45 74.5472 152.323 75.045 152.025C75.1983 151.932 75.3318 151.85 75.4472 151.774C75.5626 151.698 75.7341 151.579 75.9649 151.416L75.9698 153.635ZM90.2789 230.526L81.2632 235.944V220.227L90.2756 214.787L90.2789 230.526ZM81.2632 217.657L76.799 214.977L85.7718 209.55L90.2789 212.206L81.2632 217.657ZM101.917 223.528L92.9016 228.948V203.17L101.914 197.73L101.917 223.528ZM92.9016 200.602L88.4375 197.921L97.4119 192.494L101.917 195.152L92.9016 200.602ZM113.493 216.569L104.477 221.99V183.093L113.49 177.652L113.493 216.569ZM104.477 180.524L100.013 177.842L108.986 172.417L113.493 175.073L104.477 180.524ZM111.652 154.351L120.626 148.925L125.132 151.581L116.114 157.031L111.652 154.351ZM125.132 209.576L116.114 214.99V159.599L125.127 154.159L125.132 209.576ZM123.686 127.91C122.883 127.888 122.339 127.476 122.059 126.675L124.568 124.443C124.721 124.862 124.988 125.102 125.372 125.147C125.756 125.191 126.226 125.056 126.788 124.718C127.499 124.313 128.103 123.744 128.551 123.058C128.955 122.426 129.167 121.69 129.162 120.94V120.239C128.849 120.822 128.457 121.357 127.995 121.83C127.515 122.341 126.967 122.785 126.368 123.149C125.812 123.506 125.19 123.749 124.538 123.863C124.045 123.954 123.536 123.856 123.112 123.589C122.73 123.327 122.441 122.95 122.288 122.513C122.083 121.955 121.985 121.364 121.999 120.77C122.003 120.068 122.1 119.369 122.288 118.693C122.482 117.979 122.758 117.289 123.112 116.639C123.499 115.92 123.979 115.255 124.538 114.661C125.077 114.084 125.692 113.585 126.368 113.177C126.863 112.859 127.416 112.641 127.995 112.536C128.493 112.46 128.882 112.523 129.162 112.725V111.69L131.844 110.083V119.044C131.844 120.511 131.384 121.94 130.464 123.33C129.508 124.761 128.238 125.955 126.75 126.822C125.513 127.567 124.491 127.928 123.686 127.905V127.91ZM136.709 202.61L127.693 208.03V158.871L136.709 153.419V202.61ZM127.693 156.301V150.922L132.204 148.195L136.709 150.851L127.693 156.301ZM148.348 195.613L139.333 201.034V162.137L148.348 156.685V195.613ZM139.333 159.568V154.182L143.842 151.456L148.348 154.112L139.333 159.568ZM159.932 188.653L150.916 194.072V131.551L159.927 126.103L159.932 188.653ZM150.916 128.977L146.447 126.299L155.42 120.874L159.932 123.536L150.916 128.977ZM158.092 104.024L167.065 98.5991L171.57 101.255L162.556 106.707L158.092 104.024ZM171.57 181.647L162.556 187.067V109.282L171.567 103.832L171.57 181.647ZM182.968 174.796L173.952 180.216V90.9318L182.965 85.4835L182.968 174.796ZM173.952 88.3568L169.488 85.6747L178.462 80.2494L182.968 82.9052L173.952 88.3568ZM185.327 156.771V152.765C192.079 131.878 198.831 110.991 205.582 90.1043L206.736 90.9796C199.601 112.914 192.465 134.848 185.328 156.782L185.327 156.771ZM209.952 91.222L206.131 88.2299L216.838 81.499L220.715 84.4663L209.952 91.222ZM134.878 156.881L135.928 156.246V157.512L134.878 156.881ZM65.1377 122.877C55.0423 129.001 46.8591 142.148 46.8591 152.244V256.678C46.8591 266.773 55.0423 269.993 65.1377 263.869L105.422 239.431L134.677 257.428L167.169 237.716V205.227L134.677 224.939V251.572L110.18 236.546L210.839 175.483L205.531 172.206L65.1328 257.373C58.6377 261.313 53.3525 259.236 53.3525 252.741V148.305C53.3525 141.81 58.6377 133.32 65.1328 129.38L236.709 25.3007C243.205 21.3607 248.488 23.4395 248.488 29.9347V134.37C248.488 140.864 243.205 149.354 236.709 153.294L222.422 161.962L207.607 152.817L198.937 158.06L213.761 167.212L219.07 170.491L254.792 192.549L257.055 191.179C257.196 190.295 257.667 189.497 258.374 188.948C258.788 188.626 259.297 188.452 259.822 188.454C260.155 188.465 260.486 188.509 260.811 188.585C260.931 188.61 261.064 188.637 261.213 188.663L263.465 187.303L227.732 165.244L236.709 159.804C246.803 153.68 254.988 140.533 254.988 130.437V25.9931C254.988 15.8975 246.803 12.678 236.709 18.8022L65.1377 122.877ZM299.766 266.409L304.209 263.722L304.227 263.732L308.433 261.188V266.566L305.399 268.4L305.383 268.39L299.768 271.786L243.92 237.301H243.912L243.775 237.205V232.347L247.921 234.871L295.436 264.215L299.766 266.889V266.409ZM301.596 252.25L314 244.591L305.33 239.348L293.016 246.951L301.596 252.25ZM252.446 224.487L308.297 258.976L299.63 264.218L243.775 229.729L252.446 224.487ZM264.712 252.733L256.132 247.436L233.383 261.48L242.052 266.722L264.712 252.733ZM257.979 281.771L262.337 279.079L284.859 265.169L288.824 267.617L258.007 286.656L252.39 283.26L252.375 283.268L249.341 281.434V276.567L252.375 278.402L252.39 278.394L257.979 281.771ZM266.81 254.029L246.251 266.722L241.846 269.431L236.276 266.061L236.259 266.071L233.226 264.236V269.068L236.259 270.903L236.276 270.893L241.891 274.289V274.272L241.919 274.289L270.768 256.472L266.81 254.029ZM274.19 258.582L282.762 263.878L258.15 279.08L249.478 273.837L274.19 258.582ZM283.547 241.104L297.912 232.233L289.242 226.991L274.966 235.806L283.547 241.104ZM303.694 253.544L309.854 249.739L313.936 247.209L314 252.072L313.252 252.53L307.658 255.992L303.694 253.544ZM297.911 239.724C297.888 238.102 297.866 236.481 297.845 234.859L293.765 237.383L285.643 242.395L289.608 244.843L297.163 240.178L297.911 239.724ZM78.3932 332.099L4.55821 286.867L12.2485 282.2L85.4917 326.658V347.635L78.3932 351.943V332.099ZM74.6791 352.594C74.6692 352.572 74.661 352.549 74.6511 352.526V334.099L62.1472 326.516L68.2384 345.263L55.7526 337.615L49.6911 318.954L40.4215 313.328V313.319L39.0434 312.484L45.0835 331.079L32.5977 323.43L26.5856 304.924L15.5653 298.235L21.5527 316.663L9.06687 309.015L3.10919 290.675L0.160023 288.883V304.16L0.12207 307.34L0.138571 307.35C0.138571 307.692 0.132993 308.034 0.127422 308.376L0.127417 308.376C0.125566 308.49 0.123715 308.603 0.12207 308.717L74.6824 353.975C74.6725 353.952 74.6643 353.929 74.6544 353.908V352.581L74.6791 352.594ZM59.9975 364.033V348.685H60.3469L66.7299 352.561V364.033C66.3533 364.64 65.8205 365.136 65.1873 365.467C64.554 365.798 63.8434 365.954 63.1296 365.917C61.1382 365.8 60.0947 364.19 59.9975 364.033ZM8.03403 331.816C8.13294 331.981 9.1748 333.583 11.1662 333.7C11.88 333.737 12.5907 333.582 13.224 333.25C13.8573 332.919 14.39 332.423 14.7666 331.816V321.02L8.03568 316.935L8.03403 331.816ZM148.446 326.597L221.69 282.138L229.381 286.806L155.545 332.038V351.878L148.446 347.571V346.44V326.597ZM233.781 304.096V288.819L230.832 290.608L224.875 308.947L212.39 316.597L218.376 298.168L207.356 304.857L201.342 323.364L188.856 331.013L194.898 312.418L193.52 313.255L184.247 318.886L178.186 337.548L165.7 345.197L171.791 326.446L159.287 334.03V352.458C159.281 352.471 159.276 352.484 159.271 352.497C159.267 352.507 159.263 352.516 159.259 352.526L159.287 352.51V353.828C159.283 353.838 159.279 353.847 159.275 353.857L159.275 353.857C159.27 353.87 159.265 353.884 159.259 353.896L233.818 308.652L233.801 307.284L233.818 307.274L233.781 304.096ZM167.218 363.972V352.498L173.604 348.624H173.952V363.972C173.852 364.129 172.808 365.739 170.82 365.856C170.106 365.893 169.395 365.737 168.762 365.406C168.128 365.074 167.595 364.579 167.218 363.972ZM219.172 331.753C219.548 332.361 220.081 332.857 220.714 333.188C221.348 333.52 222.058 333.676 222.772 333.639C224.762 333.52 225.806 331.911 225.905 331.753V316.872L219.174 320.959L219.172 331.753ZM257.112 200.239C255.602 199.106 254.739 196.693 255.549 195.293C255.989 194.53 256.729 194.41 258.126 194.185C258.873 194.065 259.809 193.914 260.987 193.618L260.969 193.617C260.011 193.55 259.351 193.504 258.978 192.906C258.419 192.006 258.73 190.799 259.39 190.305C259.674 190.092 259.866 190.13 260.481 190.252C260.926 190.34 261.592 190.472 262.674 190.585C262.674 190.585 265 190.829 265.786 191.53C265.863 191.597 265.939 191.67 265.939 191.67C265.99 191.719 266.04 191.767 266.088 191.816L266.281 191.734L268.125 190.506C268.319 190.437 268.522 190.397 268.727 190.389C269.826 190.341 270.921 191.2 271.346 192.258C271.416 192.428 271.806 193.404 271.358 194.344C271.27 194.528 271.155 194.699 271.018 194.851L266.534 197.835C266.143 198.236 265.715 198.599 265.257 198.92C264.881 199.184 260.089 202.468 257.112 200.239ZM251.91 198.259C251.544 200.616 251.179 202.974 250.814 205.331C250.691 205.594 250.627 205.88 250.625 206.17C250.625 206.261 250.625 206.353 250.639 206.447L250.625 206.546L250.654 206.569C250.696 206.84 250.764 207.106 250.859 207.364C250.71 207.411 250.562 207.462 250.413 207.517C245.773 209.203 242.906 212.913 244.011 215.801C245.115 218.689 249.771 219.663 254.411 217.975C257.873 216.717 260.346 214.337 260.919 212.011C261.056 211.948 261.192 211.884 261.327 211.815C261.492 211.727 261.656 211.635 261.813 211.539L262.268 202.263C261.405 202.542 260.505 202.69 259.597 202.703C258.279 202.703 256.744 202.044 256.096 201.592C255.542 201.184 255.091 200.652 254.777 200.039L251.91 198.259ZM261.855 158.952C263.668 159.976 265.713 160.514 267.794 160.516C270.854 160.52 273.801 159.357 276.035 157.265C280.176 161.863 283.128 167.934 283.278 172.774V173.157V189.777C283.11 190.28 282.871 190.756 282.568 191.19C282.564 191.257 282.545 191.321 282.511 191.379C282.477 191.436 282.43 191.485 282.373 191.52L282.264 191.587C282.001 191.899 281.704 192.18 281.378 192.425C280.912 192.774 280.391 193.045 279.838 193.226L278.354 194.002L276.697 195.025L276.678 194.875L275.077 195.699L277.596 215.043C277.612 215.069 277.627 215.094 277.642 215.122C278.184 216.165 277.86 217.504 276.922 218.684C277.288 221.426 274.536 224.632 270.316 226.167C265.675 227.853 261.018 226.881 259.916 223.992C258.913 221.378 261.159 218.097 265.026 216.244L263.409 201.846C264.399 201.43 265.344 200.914 266.229 200.305C266.721 199.959 267.184 199.573 267.612 199.151L272.141 196.144L272.286 195.979C272.53 195.707 272.734 195.402 272.891 195.072C273.134 194.531 273.262 193.945 273.267 193.352C273.273 192.759 273.156 192.171 272.924 191.625C272.23 189.898 270.542 188.691 268.819 188.691H268.654C268.283 188.707 267.916 188.779 267.566 188.904L267.365 188.973L266.788 189.357L266.178 189.762C266.111 189.728 266.041 189.693 265.969 189.66L265.913 189.637L265.74 189.563C265.272 189.38 264.789 189.236 264.297 189.134C264.146 189.101 263.997 189.072 263.857 189.047L266.717 187.318L259.149 182.644L258.739 182.389C258.731 181.384 258.727 180.38 258.727 179.377L266.884 184.133L270.893 186.037L272.649 184.997V171.416C272.648 171.273 272.591 171.136 272.49 171.035C272.389 170.934 272.252 170.877 272.11 170.877H271.872C271.729 170.877 271.593 170.934 271.492 171.035C271.391 171.136 271.334 171.273 271.333 171.416V184.372L267.68 182.636L258.732 177.418V165.676C258.731 165.533 258.675 165.396 258.574 165.295C258.473 165.194 258.336 165.137 258.193 165.137H257.957C257.814 165.137 257.677 165.194 257.576 165.295C257.475 165.396 257.417 165.533 257.416 165.676V179.787L255.969 180.681L246.541 174.86L254.116 170.189V160.649V160.267C254.213 157.29 255.471 155.382 257.449 154.675C258.526 156.456 260.043 157.929 261.855 158.952Z" fill="url(#paint0_linear_140_6066)"/>
<defs>
<linearGradient id="paint0_linear_140_6066" x1="32.6195" y1="55.3486" x2="204.665" y2="84.4454" gradientUnits="userSpaceOnUse">
<stop stop-color="#940DFF"/>
<stop offset="1" stop-color="#0094FF"/>
<stop offset="1" stop-color="#0094FF"/>
</linearGradient>
</defs>
</svg>
