<svg width="61" height="51" viewBox="0 0 61 51" fill="none" xmlns="http://www.w3.org/2000/svg">
<g clip-path="url(#clip0_1286_3035)">
<path d="M59.1513 50.5148C58.702 50.5101 58.2658 50.3624 57.9059 50.0933L45.9118 38.0992C44.0645 39.3009 41.9078 39.9399 39.704 39.9385C37.4303 39.9385 35.2076 39.2643 33.3171 38.0011C31.4266 36.7379 29.9532 34.9425 29.0831 32.8419C28.213 30.7413 27.9853 28.4298 28.4289 26.1998C28.8725 23.9698 29.9673 21.9214 31.5751 20.3136C33.1828 18.7059 35.2312 17.611 37.4612 17.1675C39.6912 16.7239 42.0026 16.9515 44.1033 17.8216C46.2039 18.6917 47.9993 20.1652 49.2625 22.0557C50.5257 23.9462 51.1999 26.1688 51.1999 28.4425C51.2087 31.0122 50.3439 33.5086 48.7475 35.5221L60.5596 47.3822L60.6075 47.4396C60.9134 47.8632 61.0469 48.3871 60.9811 48.9054C60.9548 49.1498 60.8803 49.3866 60.7619 49.602C60.6435 49.8174 60.4836 50.0072 60.2913 50.1604C59.9613 50.402 59.5602 50.5267 59.1513 50.5148ZM39.6561 20.3091C38.055 20.3091 36.4899 20.7839 35.1587 21.6734C33.8275 22.5629 32.7899 23.8272 32.1772 25.3064C31.5645 26.7855 31.4042 28.4132 31.7165 29.9835C32.0289 31.5538 32.7998 32.9962 33.932 34.1283C35.0641 35.2604 36.5065 36.0314 38.0768 36.3438C39.6471 36.6561 41.2747 36.4958 42.7539 35.8831C44.2331 35.2704 45.4974 34.2329 46.3869 32.9016C47.2764 31.5704 47.7511 30.0053 47.7511 28.4042C47.7486 26.2581 46.8949 24.2005 45.3773 22.683C43.8598 21.1654 41.8023 20.3117 39.6561 20.3091Z" fill="#C4C4C4"/>
<path fill-rule="evenodd" clip-rule="evenodd" d="M13.7228 14.3504C13.7132 14.5067 13.7132 14.6635 13.7228 14.8198C13.8444 16.1447 14.4556 17.3766 15.4371 18.2748C16.4185 19.173 17.6997 19.6729 19.0301 19.6769H27.9203C28.4266 19.677 28.9301 19.6027 29.4148 19.4565C28.6502 19.0061 27.9956 18.3908 27.4988 17.6555H19.0971C18.312 17.6518 17.5536 17.3696 16.9571 16.8591C16.3606 16.3485 15.9647 15.6429 15.8399 14.8677C15.8399 14.7623 15.8399 14.6569 15.8399 14.5611C15.8356 14.491 15.8356 14.4206 15.8399 14.3504C15.8401 13.9004 15.932 13.4551 16.1098 13.0416C16.2877 12.6282 16.5479 12.2554 16.8746 11.9458C17.0273 12.084 17.1683 12.2346 17.2961 12.3961C17.3727 12.5014 17.4398 12.626 17.5069 12.741L17.5931 12.8942C17.5931 12.9996 17.6889 13.105 17.7272 13.2104C17.7655 13.3158 17.7943 13.402 17.823 13.4978C17.8467 13.5797 17.8659 13.6629 17.8805 13.7469C17.9227 13.9453 17.9452 14.1475 17.9475 14.3504C17.9475 14.3504 17.9475 14.3504 17.9475 14.4079C17.9448 15.0989 17.7198 15.7707 17.3057 16.3239C17.802 16.803 18.4648 17.0709 19.1546 17.0711H19.0971C19.583 16.257 19.8412 15.3272 19.8444 14.3791C19.8495 14.2802 19.8495 14.1811 19.8444 14.0821C19.8403 14.0311 19.8403 13.9799 19.8444 13.9289C19.8444 13.766 19.8444 13.6128 19.7869 13.4595L19.7007 13.038L19.6144 12.7793C19.6144 12.6547 19.5378 12.5398 19.4899 12.4152L19.4037 12.214C19.2275 11.817 19.0022 11.4437 18.7331 11.1028C18.8385 11.1028 18.9439 11.1028 19.0493 11.1028H27.9394C28.0544 11.1028 28.1694 11.1028 28.2844 11.1507C27.5496 12.0808 27.1511 13.2322 27.1539 14.4175C27.1539 14.5708 27.1539 14.7336 27.1539 14.8869C27.2581 15.9838 27.6989 17.0218 28.4157 17.8587C29.1325 18.6955 30.0904 19.2904 31.1584 19.5619C31.9101 18.8449 32.7504 18.2267 33.6587 17.7225H32.5091C31.7251 17.7186 30.968 17.436 30.3731 16.9253C29.7782 16.4147 29.3842 15.7091 29.2615 14.9348C29.2615 14.8294 29.2615 14.724 29.2615 14.6282C29.2575 14.558 29.2575 14.4877 29.2615 14.4175C29.2358 13.9604 29.307 13.5031 29.4704 13.0754C29.6339 12.6478 29.8859 12.2596 30.2099 11.9362C30.3529 12.065 30.4843 12.2061 30.6027 12.3578C30.6793 12.4631 30.7464 12.5877 30.8134 12.7026L30.8997 12.8559C30.8997 12.9613 30.9955 13.0667 31.0338 13.172C31.0721 13.2774 31.1009 13.3637 31.1296 13.4595C31.1533 13.5414 31.1725 13.6245 31.1871 13.7085C31.2293 13.907 31.2518 14.1092 31.2541 14.3121C31.2541 14.3121 31.2541 14.3121 31.2541 14.3695C31.2514 15.0605 31.0264 15.7323 30.6123 16.2855C31.1086 16.7647 31.7714 17.0326 32.4612 17.0328H32.5091C32.9921 16.2179 33.2469 15.2881 33.2468 14.3408C33.2519 14.2419 33.2519 14.1428 33.2468 14.0439C33.2427 13.9928 33.2427 13.9415 33.2468 13.8905C33.2377 13.733 33.2185 13.5762 33.1893 13.4211L33.1031 12.9996L33.0169 12.741C33.0169 12.6164 32.9402 12.5015 32.8923 12.3769L32.8061 12.1757C32.6313 11.778 32.4059 11.4045 32.1355 11.0645C32.26 11.0645 32.375 11.0645 32.4899 11.0645H41.3802C41.49 11.0704 41.599 11.0864 41.7059 11.1124C41.2724 11.6483 40.947 12.2632 40.7479 12.923V13.0188C40.6994 13.1953 40.6611 13.3744 40.6329 13.5553C40.6376 13.6063 40.6376 13.6575 40.6329 13.7085C40.6023 13.9308 40.5863 14.1548 40.585 14.3791C40.5754 14.5355 40.5754 14.6922 40.585 14.8485C40.5804 14.9059 40.5804 14.9636 40.585 15.021V15.2892C40.585 15.4329 40.6425 15.5766 40.6809 15.7108C40.7192 15.8449 40.6809 15.7107 40.6809 15.7586L40.7383 15.9407L40.8149 16.161C41.7763 16.26 42.7221 16.4756 43.6315 16.8029C43.4755 16.6615 43.3314 16.5077 43.2003 16.343C43.1406 16.267 43.0862 16.187 43.0375 16.1035C43.0375 16.0556 42.9705 16.0077 42.9417 15.9503V15.9024C42.865 15.7601 42.7978 15.6128 42.7405 15.4617C42.7405 15.4617 42.7405 15.4617 42.7405 15.3946C42.6813 15.223 42.6364 15.0468 42.6064 14.8677C42.6064 14.7623 42.6064 14.6569 42.6064 14.5611C42.6021 14.491 42.6021 14.4206 42.6064 14.3504C42.606 14.1479 42.6253 13.9457 42.6639 13.7469C42.6837 13.6424 42.7126 13.5398 42.7501 13.4403C42.768 13.3624 42.7904 13.2857 42.8172 13.2104C42.8552 13.0977 42.9033 12.9887 42.9608 12.8847L43.0375 12.7314C43.1019 12.614 43.1756 12.5018 43.2578 12.3961C43.3759 12.2411 43.5073 12.0969 43.6506 11.965C43.7962 12.0946 43.9278 12.2391 44.0434 12.3961C44.1257 12.5051 44.1994 12.6205 44.2638 12.741L44.3499 12.8942C44.3499 12.9996 44.4458 13.105 44.4841 13.2104C44.5216 13.3034 44.5504 13.3995 44.5703 13.4978C44.5971 13.5795 44.6195 13.6627 44.6373 13.7469C44.6763 13.9457 44.6956 14.1478 44.6948 14.3504V14.4079C44.684 15.0991 44.4561 15.7694 44.0434 16.3239C44.5442 16.8019 45.2095 17.0694 45.9019 17.0711H45.9786C46.4645 16.257 46.7226 15.3272 46.7258 14.3791C46.7258 14.2737 46.7258 14.1779 46.7258 14.0821C46.7258 14.0247 46.7258 13.9768 46.7258 13.9289L46.6683 13.4595C46.6683 13.3158 46.6108 13.1721 46.5725 13.038C46.5514 12.9505 46.5258 12.8641 46.4959 12.7793C46.4959 12.6547 46.4192 12.5398 46.3713 12.4152L46.2851 12.214C46.1066 11.8212 45.8815 11.4514 45.6145 11.1124C45.7215 11.0871 45.8305 11.0711 45.9403 11.0645H54.8304C55.0729 11.0681 55.314 11.1002 55.5489 11.1603L55.731 11.2082C55.9053 11.2577 56.0751 11.3218 56.2387 11.3998L56.392 11.4764C56.8013 11.7011 57.1601 12.0076 57.4458 12.3769C57.5033 12.4536 57.5512 12.5398 57.5991 12.6164C57.6365 12.6639 57.6686 12.7152 57.6949 12.7697C57.7716 12.912 57.8388 13.0592 57.8961 13.2104C57.8948 13.2327 57.8948 13.2551 57.8961 13.2775C57.9553 13.4491 58.0002 13.6253 58.0302 13.8044C58.0302 13.9097 58.0302 14.0151 58.0302 14.1205C58.0355 14.1907 58.0355 14.2611 58.0302 14.3312C58.0268 14.5309 58.0044 14.7298 57.9631 14.9252C57.9631 15.0306 57.9631 15.1264 57.8865 15.2318C57.8652 15.3098 57.8396 15.3865 57.8098 15.4617C57.7718 15.5743 57.7237 15.6834 57.6661 15.7874C57.6464 15.8412 57.6207 15.8926 57.5895 15.9407C57.5224 16.0556 57.4554 16.1706 57.3788 16.276C57.0734 16.6943 56.6744 17.0352 56.2135 17.2714C55.7527 17.5077 55.2429 17.6326 54.7251 17.6363H45.9211C45.8049 17.6305 45.6896 17.6145 45.5762 17.5885C46.5874 18.1469 47.516 18.8433 48.3353 19.6577H54.8113C55.0422 19.6528 55.2725 19.6336 55.5011 19.6002H55.6352C55.8585 19.5628 56.0792 19.5116 56.2962 19.447C57.5951 19.0611 58.7003 18.1988 59.3905 17.0328C59.6156 16.6391 59.7955 16.2214 59.927 15.7874C59.927 15.7874 59.927 15.7299 59.927 15.6916C59.9754 15.5151 60.0138 15.336 60.042 15.1551C60.0466 15.1041 60.0466 15.0528 60.042 15.0018C60.0722 14.7828 60.0882 14.562 60.0898 14.3408C60.0898 14.2354 60.0898 14.1397 60.0898 14.0439C60.0853 13.9833 60.0853 13.9224 60.0898 13.8618C60.0898 13.8043 60.0898 13.7469 60.0898 13.6894C60.0946 13.6 60.0946 13.5105 60.0898 13.4211L60.0037 12.9996L59.9462 12.8176C59.9462 12.693 59.8695 12.5781 59.8216 12.4535L59.7354 12.2524C59.7354 12.2524 59.7354 12.2524 59.7354 12.1757L59.563 11.8405C59.4767 11.6968 59.3905 11.5531 59.2948 11.4189C59.2364 11.3227 59.1724 11.2299 59.1031 11.1411C58.9497 10.9449 58.7833 10.7593 58.605 10.5855L58.3463 10.3555L57.9344 10.0394L57.6566 9.85741C57.4399 9.72354 57.2124 9.60812 56.9764 9.51248C56.8731 9.46842 56.7677 9.43005 56.6603 9.39753C56.4929 9.33074 56.3197 9.27946 56.1429 9.24427L55.8076 9.16762H55.7406H55.616C55.3831 9.15303 55.1496 9.15303 54.9167 9.16762H45.9211C45.685 9.15303 45.4483 9.15303 45.2122 9.16762H45.078C44.5843 9.25354 44.1043 9.40499 43.6506 9.61791C43.2009 9.40362 42.7238 9.25209 42.2328 9.16762H42.1083C41.8722 9.15303 41.6354 9.15303 41.3994 9.16762H32.5091C31.9531 9.51274 31.3141 9.70118 30.6598 9.71298C30.0055 9.72479 29.3602 9.55952 28.7921 9.23468H28.6675C28.4346 9.2201 28.2011 9.2201 27.9682 9.23468H19.0971C18.3151 9.23342 17.5427 9.40692 16.8363 9.74245C16.3856 9.53268 15.9086 9.38444 15.4184 9.30175H15.2939C15.061 9.28756 14.8274 9.28756 14.5945 9.30175H5.68518C4.27075 9.30428 2.91497 9.86729 1.91481 10.8674C0.914659 11.8676 0.351654 13.2234 0.349121 14.6378C0.349121 14.7911 0.349121 14.9539 0.349121 15.1072C0.472971 16.4329 1.08621 17.6649 2.06924 18.5629C3.05226 19.4609 4.33455 19.9605 5.666 19.9643H14.5467C15.0561 19.965 15.5629 19.8908 16.0507 19.7439C15.2841 19.2962 14.629 18.6804 14.1347 17.9429H5.68518C4.89951 17.9412 4.14014 17.6597 3.54325 17.1488C2.94635 16.6379 2.55093 15.9311 2.42796 15.1551C2.42796 15.0497 2.42796 14.9443 2.42796 14.8485C2.42366 14.7783 2.42366 14.708 2.42796 14.6378C2.4267 14.203 2.51128 13.7721 2.67681 13.37C2.84235 12.9679 3.08559 12.6025 3.39262 12.2946C3.69966 11.9866 4.06443 11.7423 4.46604 11.5757C4.86766 11.409 5.29823 11.3231 5.73306 11.3231H14.6137C14.7158 11.3179 14.8182 11.3179 14.9203 11.3231C14.1914 12.2601 13.7938 13.4124 13.7899 14.5995L13.7228 14.3504Z" fill="#C4C4C4"/>
<path fill-rule="evenodd" clip-rule="evenodd" d="M50.4334 6.44694C50.1268 6.44694 49.8586 6.28407 49.849 6.07331L49.5904 0.957575C49.5864 0.845356 49.6054 0.733562 49.6463 0.628965C49.6871 0.524369 49.7489 0.429201 49.8279 0.349354C49.9068 0.269507 50.0012 0.206666 50.1054 0.164643C50.2095 0.122619 50.3211 0.102321 50.4334 0.105002C50.5461 0.10238 50.6581 0.122606 50.7627 0.164526C50.8673 0.206446 50.9624 0.269185 51.0421 0.348886C51.1218 0.428588 51.1845 0.523634 51.2264 0.628263C51.2684 0.732893 51.2886 0.844891 51.286 0.957575L51.0178 6.07331C51.0082 6.28407 50.7112 6.44694 50.4334 6.44694Z" fill="#C4C4C4"/>
<path fill-rule="evenodd" clip-rule="evenodd" d="M45.8352 6.93553C45.6148 7.15586 45.3083 7.2229 45.155 7.08878L41.323 3.64954C41.2428 3.57183 41.179 3.47881 41.1354 3.37595C41.0918 3.2731 41.0693 3.1625 41.0693 3.05079C41.0693 2.93908 41.0918 2.82855 41.1354 2.72569C41.179 2.62283 41.2428 2.52975 41.323 2.45204C41.4008 2.37179 41.4938 2.30799 41.5966 2.26441C41.6995 2.22083 41.8101 2.19839 41.9218 2.19839C42.0335 2.19839 42.144 2.22083 42.2469 2.26441C42.3498 2.30799 42.4428 2.37179 42.5205 2.45204L45.9597 6.28404C46.1226 6.40858 46.0555 6.71519 45.8352 6.93553Z" fill="#C4C4C4"/>
<path fill-rule="evenodd" clip-rule="evenodd" d="M54.7637 6.93552C54.5434 6.71518 54.4763 6.4086 54.6105 6.25532L58.0496 2.42333C58.1273 2.34308 58.2204 2.27927 58.3233 2.23569C58.4261 2.19211 58.5367 2.16968 58.6484 2.16968C58.7601 2.16968 58.8707 2.19211 58.9735 2.23569C59.0764 2.27927 59.1694 2.34308 59.2471 2.42333C59.3274 2.50104 59.3912 2.59406 59.4348 2.69692C59.4783 2.79977 59.5008 2.91037 59.5008 3.02208C59.5008 3.13378 59.4783 3.24432 59.4348 3.34718C59.3912 3.45004 59.3274 3.54312 59.2471 3.62082L55.4151 7.06C55.2906 7.22286 54.9841 7.14628 54.7637 6.93552Z" fill="#C4C4C4"/>
</g>
<defs>
<clipPath id="clip0_1286_3035">
<rect width="60.67" height="50.4003" fill="white" transform="translate(0.330078 0.10498)"/>
</clipPath>
</defs>
</svg>
