<?xml version="1.0" encoding="utf-8"?>
<!-- Generator: Adobe Illustrator 26.3.1, SVG Export Plug-In . SVG Version: 6.00 Build 0)  -->
<svg version="1.1" id="Layer_1" xmlns="http://www.w3.org/2000/svg" xmlns:xlink="http://www.w3.org/1999/xlink" x="0px" y="0px"
	 viewBox="0 0 1514 139" style="enable-background:new 0 0 1514 139;" xml:space="preserve">
<style type="text/css">
	.st0{clip-path:url(#SVGID_00000103236329455875374280000009241185016936417667_);}
	.st1{fill-rule:evenodd;clip-rule:evenodd;fill:url(#SVGID_00000070820818029695410820000018264777049884986245_);}
	
		.st2{fill-rule:evenodd;clip-rule:evenodd;fill:url(#SVGID_00000170237082183416837570000012951086731280233663_);fill-opacity:0.5;}
	.st3{fill:#FFFFFF;}
</style>
<g>
	<defs>
		<rect id="SVGID_1_" width="1514" height="139"/>
	</defs>
	<clipPath id="SVGID_00000149367157819033569490000010642183922015542406_">
		<use xlink:href="#SVGID_1_"  style="overflow:visible;"/>
	</clipPath>
	<g style="clip-path:url(#SVGID_00000149367157819033569490000010642183922015542406_);">
		
			<radialGradient id="SVGID_00000035503294484748920790000000354185030308000948_" cx="612.5479" cy="349.9427" r="1" gradientTransform="matrix(1394.576 -233.3853 -305.0083 -1822.5543 -747432.75 781021.625)" gradientUnits="userSpaceOnUse">
			<stop  offset="0.3865" style="stop-color:#FFFFFF"/>
			<stop  offset="0.9559" style="stop-color:#FFFFFF;stop-opacity:0"/>
		</radialGradient>
		<path style="fill-rule:evenodd;clip-rule:evenodd;fill:url(#SVGID_00000035503294484748920790000000354185030308000948_);" d="
			M1191.6,0c117,0,221.5,10.4,319.3,31.7l1.1,0.2v71.9C1419.4,86.4,1320.8,78,1211.3,78c-147.7,0-297.7,15.5-442.8,30.4l-0.2,0l0,0
			c-145.2,15-295.1,30.4-442.5,30.4c-118.7,0-224.6-9.9-323.8-30.4L0,108.1l0,610.1h0V31.3l1.9,0.4c97.6,21.2,201.8,31.6,318.5,31.6
			c145.1,0,292.5-16,435.3-31.6l0,0l0.2,0C898.7,16.1,1046.4,0,1191.6,0z"/>
		
			<radialGradient id="SVGID_00000168090478573209844860000009951066381430361217_" cx="612.6365" cy="349.9734" r="1" gradientTransform="matrix(1731.6476 -361.3595 -616.2365 -2953.0271 -845127.6875 1255264.25)" gradientUnits="userSpaceOnUse">
			<stop  offset="0.3865" style="stop-color:#FFFFFF"/>
			<stop  offset="1" style="stop-color:#FFFFFF;stop-opacity:0.1"/>
		</radialGradient>
		
			<path style="fill-rule:evenodd;clip-rule:evenodd;fill:url(#SVGID_00000168090478573209844860000009951066381430361217_);fill-opacity:0.5;" d="
			M0,71.3v646.8l0-570.1v-40l1.9,0.4c99.3,20.4,205.4,30.4,324.2,30.4c147.6,0,297.7-15.4,443.1-30.4h0l0,0l0.2,0h0
			C914.8,93.5,1065.1,78,1212.9,78c109.6,0,208.4,8.4,301.1,25.8V71.9l-1.1-0.2c-98-21.3-202.6-31.7-319.7-31.7
			C1047.7,40,899.9,56.1,757,71.6l-0.2,0l0,0c-143,15.5-290.6,31.6-435.9,31.6C204,103.2,99.6,92.9,1.9,71.7L0,71.3z"/>
	</g>
</g>
<path class="st3" d="M1514,103.8c-0.6-0.2-1.3-0.3-2-0.4c0,0,0,0,0,0c-92.3-17.3-190.6-25.7-299.8-25.7
	c-147.6,0-297.7,15.5-442.7,30.4h0l-0.2,0l0,0h0c-145.4,15-295.4,30.4-443.1,30.4c-0.1,0-0.2,0-0.2,0c-0.1,0-0.1,0-0.2,0
	c-118.7,0-224.6-9.9-323.8-30.4l-1.8-0.4l-0.1,0v31.2h1502.7h9.6h1.7C1514,127.2,1514,115.5,1514,103.8z"/>
</svg>
