<?xml version="1.0" encoding="UTF-8"?>
<svg id="layer" xmlns="http://www.w3.org/2000/svg" viewBox="0 0 668.03 216.53">
  <defs>
    <style>
      .cls-1 {
        fill: #fff;
      }
    </style>
  </defs>
  <path class="cls-1" d="M272.16,170.2c-5.07,0-8.05-.11-8.82-.21v-17.18c.44,.11,2.43,.11,5.84,.11,4.3,0,7.61-.74,9.81-2.11,2.2-1.37,3.75-3.69,4.52-6.96,0,0,.11-.74,.44-1.9,.22-1.26,.33-1.9,.33-2l-29.88-82.2h25.69l18.3,64.18h.44l18.3-64.18h24.69l-29.54,83.89c-3.64,10.54-8.49,17.92-14.55,22.13-6.17,4.32-14.66,6.43-25.58,6.43Zm114.1-97.69c-5.07,0-9.26,1.69-12.68,4.95-3.42,3.27-5.29,7.59-5.73,12.75h36.38c-.22-5.27-2.09-9.48-5.4-12.75-3.09-3.27-7.39-4.95-12.57-4.95Zm18.41,42.26h21.5c-1.32,8.11-5.51,14.54-12.68,19.5-7.06,4.85-15.98,7.38-26.46,7.38-13.23,0-23.59-3.79-31.09-11.28-7.5-7.59-11.24-17.92-11.24-31.09s3.75-23.61,11.24-31.4c7.5-7.9,17.53-11.8,30.21-11.8s22.38,3.69,29.65,11.17c7.39,7.48,11.02,17.39,11.02,29.93v6.85h-59.2v1.37c0,5.9,1.76,10.64,5.4,14.33,3.64,3.58,8.38,5.48,14.33,5.48,4.3,0,7.94-.95,11.02-2.74,3.09-2,5.18-4.53,6.28-7.69Zm67.36,10.22c5.18,0,9.59-1.48,13.12-4.32,3.64-2.95,5.4-6.53,5.4-10.96v-6.01l-18.08,1.05c-4.41,.32-7.72,1.37-10.14,3.16-2.32,1.79-3.53,4.11-3.53,7.06s1.21,5.48,3.64,7.27c2.43,1.79,5.62,2.74,9.59,2.74Zm-7.61,16.12c-8.27,0-15.1-2.32-20.61-6.96-5.4-4.64-8.16-10.64-8.16-17.92s2.87-13.28,8.6-17.49c5.73-4.22,14-6.64,24.69-7.27l21.61-1.26v-5.48c0-3.79-1.32-6.74-3.97-8.85-2.54-2.11-6.06-3.27-10.47-3.27s-7.72,.95-10.47,2.74c-2.65,1.79-4.3,4.32-4.85,7.38h-21.28c.44-8.01,4.08-14.54,10.8-19.39,6.72-4.95,15.76-7.38,27.01-7.38s19.84,2.53,26.46,7.48c6.61,4.95,9.92,11.59,9.92,19.92v56.38h-22.6v-12.44h-.44c-2.32,4.32-5.95,7.69-10.69,10.22-4.96,2.42-10.14,3.58-15.54,3.58Zm64.38-1.26V57.75h22.6v14.75h.44c1.54-5.16,3.97-9.17,7.5-11.91,3.53-2.74,7.83-4.11,12.9-4.11,2.43,0,4.63,.32,6.61,.84v19.71c-2.2-.84-5.07-1.26-8.49-1.26-5.73,0-10.25,1.58-13.45,4.85-3.2,3.27-4.85,7.69-4.85,13.49v45.84h-23.26v-.11Zm59.64,0V57.75h22.6v14.65h.44c2.32-5.16,5.73-9.17,10.25-11.91,4.52-2.85,10.03-4.22,16.54-4.22,9.48,0,16.87,2.74,22.05,8.11s7.72,12.96,7.72,22.55v52.9h-23.37v-48.27c0-5.37-1.32-9.59-3.97-12.44-2.65-2.85-6.61-4.32-11.8-4.32s-9.37,1.69-12.46,4.95c-3.09,3.27-4.63,7.69-4.63,12.96v47.11h-23.37Z"/>
  <g>
    <path class="cls-1" d="M10.25,84.1c5.3,5.12,10.53,10.09,15.66,15.16,3.13,3.08,6.07,6.34,9.18,9.45,1.5,1.5,1.85,3,1.31,5.11-1.68,6.51-1.71,13.2-.93,19.8,1.12,9.44,4.72,18.02,10.53,25.59,8.47,11.04,19.36,18.56,33.19,20.8,22.58,3.66,40.79-4.07,54.24-22.54,7.29-10.02,10.17-21.5,9.72-33.8-.12-3.36-.71-6.75-1.42-10.05-.47-2.19-.08-3.73,1.5-5.31,7.75-7.77,15.42-15.63,23.12-23.45,.34-.35,.72-.65,1.33-1.19,.53,.96,1.02,1.77,1.43,2.62,5.26,11.03,8.25,22.56,8.87,34.85,1.24,24.83-6.21,46.6-22.47,65.23-14.05,16.09-31.87,25.7-53.03,29.08-37.85,6.04-74.32-13.82-91.59-45.98-4.97-9.25-8.45-19.01-9.88-29.38-2.62-19.02-.02-37.33,8.51-54.66,.25-.5,.56-.97,.77-1.33Z"/>
    <path class="cls-1" d="M167.44,24.86c-.95,1.01-1.79,1.94-2.68,2.84-18.57,18.79-37.12,37.59-55.74,56.32-1.78,1.79-2.58,3.59-2.56,6.14,.1,16.71,.05,33.42,.05,50.12,0,4.33,.15,3.7-3.82,3.71-9.28,.02-18.56,0-27.84,0q-3.04,0-3.05-2.95c0-17.27-.02-34.55,.03-51.82,0-1.75-.47-3.03-1.73-4.3C50.81,65.47,31.56,45.96,12.31,26.45c-.44-.45-.84-.94-1.42-1.58C19.3,16.78,27.65,8.76,35.99,.73c-.12-.24-.25-.49-.37-.73,.55,.5,1.11,.99,1.63,1.52,16.52,16.63,33.03,33.27,49.55,49.9,2.29,2.3,2.34,2.33,4.59,.06C107.75,34.99,124.1,18.49,140.43,1.98c.69-.7,1.25-1.52,1.61-1.96,8.64,8.45,16.96,16.6,25.39,24.84Z"/>
  </g>
</svg>