<svg width="243" height="46" viewBox="0 0 243 46" fill="none" xmlns="http://www.w3.org/2000/svg">
<path d="M4.4 33.15H20.25V36H0.3V33.5L16.2 12.75H0.5V9.9H20.1V12.5L4.4 33.15ZM31.3094 0.0999973H34.6094V23.05L47.4094 9.9H51.6594L41.1594 20.35L52.5094 36H48.6094L38.8594 22.65L34.6094 26.9V36H31.3094V0.0999973ZM65.5801 36H61.1301V31.2H65.5801V36ZM82.8652 14.85C82.1986 15.55 81.6986 16.35 81.3652 17.25C81.0319 18.15 80.8652 19.1 80.8652 20.1V36H77.5652V9.9H80.8652V14.1C81.6986 12.6333 82.7986 11.4833 84.1652 10.65C85.5652 9.81667 87.0986 9.4 88.7652 9.4C90.5652 9.4 92.0986 9.85 93.3652 10.75C94.6652 11.6167 95.6152 12.8667 96.2152 14.5C97.0152 12.9667 98.1819 11.7333 99.7152 10.8C101.249 9.86667 102.915 9.4 104.715 9.4C107.315 9.4 109.365 10.2667 110.865 12C112.399 13.7 113.165 15.9833 113.165 18.85V36H109.865V19.6C109.865 17.3333 109.365 15.5833 108.365 14.35C107.365 13.1167 105.915 12.5 104.015 12.5C103.115 12.5 102.215 12.7167 101.315 13.15C100.449 13.55 99.6819 14.1167 99.0152 14.85C98.3486 15.55 97.8486 16.35 97.5152 17.25C97.1819 18.15 97.0152 19.1 97.0152 20.1V36H93.7152V19.6C93.7152 17.3333 93.2152 15.5833 92.2152 14.35C91.2152 13.1167 89.7652 12.5 87.8652 12.5C86.9652 12.5 86.0652 12.7167 85.1652 13.15C84.2986 13.55 83.5319 14.1167 82.8652 14.85ZM144.366 13.5C145.366 14.7 146.116 16.1167 146.616 17.75C147.116 19.35 147.366 21.0833 147.366 22.95C147.366 24.8167 147.116 26.5667 146.616 28.2C146.116 29.8 145.366 31.2 144.366 32.4C143.333 33.7333 142.066 34.75 140.566 35.45C139.066 36.15 137.416 36.5 135.616 36.5C133.816 36.5 132.166 36.15 130.666 35.45C129.2 34.75 127.933 33.7333 126.866 32.4C125.9 31.2 125.166 29.8 124.666 28.2C124.166 26.5667 123.916 24.8167 123.916 22.95C123.916 21.0833 124.166 19.35 124.666 17.75C125.166 16.1167 125.9 14.7 126.866 13.5C127.933 12.1667 129.2 11.15 130.666 10.45C132.166 9.75 133.816 9.4 135.616 9.4C137.416 9.4 139.066 9.75 140.566 10.45C142.066 11.15 143.333 12.1667 144.366 13.5ZM135.616 12.25C133.083 12.25 131.05 13.2333 129.516 15.2C127.983 17.1333 127.216 19.7167 127.216 22.95C127.216 26.1833 127.983 28.7833 129.516 30.75C131.05 32.6833 133.083 33.65 135.616 33.65C138.15 33.65 140.183 32.6833 141.716 30.75C143.25 28.7833 144.016 26.1833 144.016 22.95C144.016 19.7167 143.25 17.1333 141.716 15.2C140.183 13.2333 138.15 12.25 135.616 12.25ZM161.643 36H158.343V9.9H161.643V14.1C162.509 12.6333 163.659 11.4833 165.093 10.65C166.526 9.81667 168.126 9.4 169.893 9.4C172.593 9.4 174.693 10.25 176.193 11.95C177.726 13.6167 178.493 15.9167 178.493 18.85V36H175.193V19.6C175.193 17.3333 174.659 15.5833 173.593 14.35C172.559 13.1167 171.059 12.5 169.093 12.5C168.126 12.5 167.176 12.7 166.243 13.1C165.309 13.5 164.493 14.05 163.793 14.75C163.093 15.4833 162.559 16.3167 162.193 17.25C161.826 18.15 161.643 19.1333 161.643 20.2V36ZM201.113 36.5C197.58 36.5 194.73 35.25 192.563 32.75C190.396 30.25 189.313 26.9833 189.313 22.95C189.313 21.0833 189.563 19.35 190.063 17.75C190.563 16.15 191.296 14.75 192.263 13.55C193.33 12.1833 194.596 11.15 196.063 10.45C197.563 9.75 199.196 9.4 200.963 9.4C204.296 9.4 206.913 10.55 208.813 12.85C210.713 15.15 211.663 18.2333 211.663 22.1V23.2H192.463C192.496 26.3333 193.296 28.85 194.863 30.75C196.463 32.65 198.546 33.6 201.113 33.6C203.013 33.6 204.613 33.1 205.913 32.1C207.213 31.1 208.063 29.7167 208.463 27.95L211.463 28.9C210.763 31.3 209.496 33.1667 207.663 34.5C205.863 35.8333 203.68 36.5 201.113 36.5ZM200.963 12.3C198.763 12.3 196.913 13.05 195.413 14.55C193.913 16.0167 192.98 18.0333 192.613 20.6H208.313C208.246 18.0667 207.563 16.05 206.263 14.55C204.963 13.05 203.196 12.3 200.963 12.3ZM242.273 9.9L230.723 39.2C229.823 41.5 228.806 43.1 227.673 44C226.573 44.9333 225.173 45.4 223.473 45.4C223.04 45.4 222.64 45.3667 222.273 45.3C221.94 45.2667 221.54 45.2 221.073 45.1V42.15C221.473 42.2833 221.823 42.3667 222.123 42.4C222.456 42.4667 222.856 42.5 223.323 42.5C224.323 42.5 225.123 42.2167 225.723 41.65C226.356 41.0833 226.956 40.1 227.523 38.7L229.023 35.1L219.223 9.9H222.723L230.773 31.2L238.823 9.9H242.273Z" fill="white"/>
</svg>
