<?xml version="1.0" encoding="UTF-8"?>
<svg id="Layer_1" data-name="Layer 1" xmlns="http://www.w3.org/2000/svg" viewBox="0 0 89.7 104.09">
  <defs>
    <style>
      .cls-1 {
        fill: #ffd167;
      }

      .cls-2 {
        fill: #2e1d48;
      }
    </style>
  </defs>
  <circle class="cls-1" cx="47.25" cy="59.82" r="38.25"/>
  <path class="cls-2" d="m49.35,14.62v-5.57l7.61-.05c2.49-.02,4.49-2.05,4.47-4.53C61.41,1.99,59.4,0,56.93,0h-.03l-24.16.16c-2.49.02-4.49,2.04-4.47,4.53.02,2.48,2.03,4.47,4.5,4.47h.03l7.55-.05v5.51C17.72,16.88,0,36.03,0,59.24,0,83.97,20.12,104.09,44.85,104.09s44.85-20.12,44.85-44.85c0-23.21-17.72-42.36-40.35-44.62Zm-4.5,80.47c-19.77,0-35.85-16.08-35.85-35.85S25.08,23.39,44.85,23.39s35.85,16.08,35.85,35.85-16.08,35.85-35.85,35.85Z"/>
  <path class="cls-2" d="m68.48,66.98l-19.13-10.41v-22.27c0-2.49-2.02-4.5-4.5-4.5s-4.5,2.01-4.5,4.5v24.94c0,1.65.9,3.16,2.35,3.95l21.48,11.69c.68.37,1.42.55,2.15.55,1.59,0,3.14-.85,3.96-2.35,1.19-2.18.38-4.92-1.8-6.1Z"/>
</svg>