<svg width="21" height="21" viewBox="0 0 21 21" fill="none" xmlns="http://www.w3.org/2000/svg">
<path d="M0.332619 0.298996C0.421605 0.203996 0.54021 0.128996 0.658858 0.0769958C0.777506 0.0259959 0.915944 0 1.04448 0C1.1829 0 1.31145 0.0259959 1.4301 0.0769958C1.55864 0.128996 1.66735 0.203996 1.75634 0.298996L10.1013 8.739L18.4462 0.298996C18.5451 0.203996 18.6538 0.128996 18.7823 0.0769958C18.901 0.0259959 19.0295 0 19.168 0C19.2965 0 19.425 0.0259959 19.5536 0.0769958C19.6722 0.128996 19.7908 0.203996 19.8798 0.298996C19.9787 0.393996 20.048 0.506997 20.0974 0.630997C20.1469 0.754997 20.1765 0.888003 20.1765 1.022C20.1765 1.156 20.1469 1.28899 20.0974 1.41299C20.048 1.53699 19.9787 1.65 19.8798 1.745L11.5349 10.185L19.8798 18.625C20.0677 18.817 20.1765 19.077 20.1765 19.348C20.1765 19.619 20.0677 19.879 19.8798 20.071C19.692 20.263 19.4349 20.37 19.168 20.37C18.901 20.37 18.6439 20.263 18.4462 20.071L10.1013 11.631L1.75634 20.071C1.56848 20.263 1.31144 20.37 1.04448 20.37C0.777521 20.37 0.520478 20.263 0.332619 20.071C0.144759 19.879 0.0359497 19.619 0.0359497 19.348C0.0359497 19.077 0.144759 18.817 0.332619 18.625L8.67749 10.185L0.332619 1.745C0.233745 1.65 0.164442 1.53699 0.115005 1.41299C0.0655683 1.28899 0.0359497 1.156 0.0359497 1.022C0.0359497 0.888003 0.0655683 0.754997 0.115005 0.630997C0.164442 0.506997 0.233745 0.393996 0.332619 0.298996Z" fill="url(#paint0_linear_2030_61400)"/>
<defs>
<linearGradient id="paint0_linear_2030_61400" x1="2.12121" y1="3.0555" x2="13.062" y2="5.18519" gradientUnits="userSpaceOnUse">
<stop stop-color="#940DFF"/>
<stop offset="1" stop-color="#0094FF"/>
<stop offset="1" stop-color="#0094FF"/>
</linearGradient>
</defs>
</svg>
