<?xml version="1.0" encoding="UTF-8"?>
<svg id="Layer_1" data-name="Layer 1" xmlns="http://www.w3.org/2000/svg" viewBox="0 0 56.69 56.69">
  <defs>
    <style>
      .cls-1 {
        fill: #1fe5ce;
        fill-rule: evenodd;
      }
    </style>
  </defs>
  <path class="cls-1" d="M56.65,37.8c0-.33-.01-.66-.12-1l-6.3-18.9c-.43-1.28-1.61-2.14-2.96-2.15h0s-.03,0-.03,0h-4.61c.2,1.41-.06,2.86-.79,4.13l-1.25,2.15h.16l-.02,.02h4.25l5.25,15.75H6.47l5.25-15.75h4.25l-.02-.02h.16l-1.26-2.2c-.72-1.25-.98-2.69-.79-4.08h-4.61c-1.36,0-2.56,.87-2.99,2.15L.16,36.8c-.11,.33-.12,.66-.12,1C0,37.8,0,53.54,0,53.54,0,55.29,1.41,56.69,3.15,56.69H53.54c1.74,0,3.15-1.41,3.15-3.15,0,0,0-15.75-.04-15.75Z"/>
  <path class="cls-1" d="M26.24,31.63c.92,1.6,3.23,1.61,4.16,0l7.98-13.76c.93-1.6-.22-3.61-2.07-3.61h-3.07s.02-10.78,.02-10.78h0v-1.04C33.24,1.09,32.15,0,30.8,0h-4.88C24.58,0,23.49,1.09,23.49,2.44v1.88l-.02,9.92h-3.07c-1.85,0-3.01,1.99-2.09,3.6l7.93,13.79Z"/>
</svg>