<svg width="28" height="23" viewBox="0 0 28 23" fill="none" xmlns="http://www.w3.org/2000/svg">
<path fill-rule="evenodd" clip-rule="evenodd" d="M5.57936 0.84938C4.32477 0.84938 3.12208 1.34908 2.23574 2.2377C1.34948 3.12625 0.852051 4.33082 0.852051 5.5863V15.1155C0.852051 16.3709 1.34948 17.5755 2.23574 18.4641C3.12208 19.3527 4.32477 19.8524 5.57936 19.8524H20.0044L26.518 22.0961C26.885 22.2225 27.2921 22.1251 27.5621 21.8462C27.8321 21.5674 27.9164 21.1574 27.7782 20.7946L25.7212 15.3943C25.7418 15.3137 25.7564 15.22 25.7564 15.1155V5.5863C25.7564 4.33082 25.259 3.12625 24.3727 2.2377C23.4864 1.34908 22.2837 0.84938 21.0291 0.84938H5.57936ZM3.65177 3.6501C4.16344 3.13711 4.85687 2.84938 5.57936 2.84938H21.0291C21.7516 2.84938 22.445 3.13711 22.9567 3.6501C23.4684 4.16317 23.7564 4.8596 23.7564 5.5863V14.8858C23.7075 14.9895 23.6446 15.1599 23.6446 15.377C23.6446 15.4987 23.6668 15.6193 23.7101 15.733L25.1483 19.5089L20.4975 17.9069C20.3927 17.8708 20.2826 17.8524 20.1718 17.8524H5.57936C4.85687 17.8524 4.16344 17.5647 3.65177 17.0517C3.14002 16.5386 2.85205 15.8422 2.85205 15.1155V5.5863C2.85205 4.8596 3.14002 4.16317 3.65177 3.6501ZM6.88465 13.4711V11.0047L9.36332 11.0794V9.99573H6.88465V8.44491H9.84787V7.26778H5.636V13.4711H6.88465ZM9.4194 13.4711L11.7303 7.26778H13.1653L15.4949 13.4711H14.209L13.7244 12.1818H11.1712L10.6867 13.5084L9.4194 13.4711ZM13.3144 11.0608L12.4385 8.68781L11.5626 11.0608H13.3144ZM15.6255 11.6213C15.7512 11.9919 15.9474 12.3345 16.2033 12.6302C16.4598 12.8584 16.7569 13.0359 17.0792 13.1534C17.4547 13.3195 17.8615 13.4023 18.2719 13.3963H18.6633C18.7874 13.4053 18.9119 13.4053 19.036 13.3963C19.1855 13.649 19.3816 13.871 19.6138 14.0503C19.8811 14.255 20.1846 14.4071 20.5083 14.4987L21.2538 13.5831C21.0124 13.5304 20.78 13.4422 20.5642 13.3216C20.3842 13.2155 20.2261 13.076 20.0983 12.9105C20.4772 12.6265 20.7733 12.2458 20.9556 11.8081C21.1676 11.3386 21.2757 10.8287 21.2724 10.3133C21.2736 9.89364 21.2043 9.47675 21.0674 9.08014C20.9435 8.70408 20.7439 8.3575 20.481 8.06183C20.2182 7.76616 19.8976 7.52769 19.5392 7.36116C19.1619 7.20082 18.7563 7.1182 18.3465 7.1182C17.9367 7.1182 17.531 7.20082 17.1537 7.36116C16.7857 7.5198 16.4602 7.76303 16.2033 8.07117C15.9396 8.36123 15.7424 8.7056 15.6255 9.08014C15.4886 9.47675 15.4193 9.89364 15.4205 10.3133C15.4141 10.7578 15.4834 11.2002 15.6255 11.6213ZM19.0079 12.3023C18.8011 12.3995 18.5748 12.4478 18.3465 12.4434C18.1305 12.4379 17.9183 12.3849 17.7251 12.288C17.5318 12.1911 17.3622 12.0528 17.2283 11.8828C16.9033 11.4474 16.7387 10.9127 16.7624 10.3694C16.7417 9.82649 16.906 9.29271 17.2283 8.85593C17.37 8.67606 17.5516 8.53176 17.7586 8.43446C17.9657 8.33717 18.1924 8.28955 18.421 8.29539C18.6494 8.29099 18.8757 8.33924 19.0825 8.43643C19.2893 8.53362 19.4711 8.67714 19.6138 8.85593C19.8887 9.28994 20.0192 9.80022 19.9865 10.3133C20.0224 10.8726 19.8644 11.4271 19.5392 11.8828C19.3965 12.0616 19.2147 12.2051 19.0079 12.3023Z" fill="url(#paint0_linear_1487_38574)"/>
<defs>
<linearGradient id="paint0_linear_1487_38574" x1="3.64664" y1="4.04457" x2="17.9731" y2="7.61854" gradientUnits="userSpaceOnUse">
<stop stop-color="#940DFF"/>
<stop offset="1" stop-color="#0094FF"/>
<stop offset="1" stop-color="#0094FF"/>
</linearGradient>
</defs>
</svg>
