<svg width="17" height="17" viewBox="0 0 17 17" fill="none" xmlns="http://www.w3.org/2000/svg">
<path d="M8.5 0C13.1946 0 17 3.80578 17 8.5C17 13.1946 13.1942 17 8.5 17C3.80578 17 0 13.1942 0 8.5C0 3.80578 3.80578 0 8.5 0ZM8.5 1.70004C4.74448 1.70004 1.70007 4.74441 1.70007 8.49996C1.70007 12.2555 4.74444 15.2999 8.5 15.2999C12.2556 15.2999 15.2999 12.2554 15.2999 8.49996C15.2999 4.74451 12.2555 1.70004 8.5 1.70004ZM9.73115 6.42154L8.77343 11.2443C8.75141 11.3224 8.73753 11.4005 8.7315 11.4763C8.72477 11.5529 8.7214 11.6275 8.7214 11.702C8.7214 11.9007 8.76487 12.0377 8.85153 12.1142C8.93889 12.1902 9.0756 12.2285 9.26169 12.2285C9.38774 12.2285 9.47917 12.2192 9.53582 12.2009C9.59177 12.1816 9.64379 12.161 9.69189 12.1383C9.6745 12.3924 9.62121 12.6109 9.53246 12.7933C9.44313 12.9749 9.3311 13.1267 9.19704 13.2466C9.06229 13.3667 8.91015 13.456 8.74076 13.5135C8.57137 13.571 8.40002 13.6 8.22657 13.6C8.02648 13.6 7.83986 13.5675 7.6664 13.5035C7.49295 13.439 7.34165 13.3368 7.21364 13.1984C7.08547 13.0601 6.9848 12.8849 6.91076 12.672C6.83672 12.459 6.80012 12.203 6.80012 11.9027C6.80012 11.7729 6.80882 11.631 6.82607 11.4763C6.8377 11.3733 6.85313 11.2644 6.87234 11.1499L6.90417 10.9739L7.80985 6.42147L9.73115 6.42154ZM9.13171 3.40004C9.27909 3.40004 9.41706 3.4299 9.5451 3.4902C9.67326 3.55049 9.78656 3.6328 9.88402 3.73643C9.98133 3.84005 10.0587 3.95994 10.1154 4.09694C10.1715 4.2331 10.2001 4.37935 10.2001 4.53682C10.2001 4.69429 10.1715 4.84054 10.1154 4.9767C10.0587 5.11299 9.98133 5.23078 9.88402 5.33006C9.78656 5.42948 9.67326 5.50814 9.5451 5.56563C9.41708 5.62312 9.2791 5.65229 9.13171 5.65229C8.9842 5.65229 8.84622 5.62312 8.71818 5.56563C8.59002 5.50814 8.47798 5.42948 8.38263 5.33006C8.28728 5.23078 8.21254 5.11299 8.15785 4.9767C8.10387 4.84054 8.07653 4.69429 8.07653 4.53682C8.07653 4.37935 8.10387 4.2331 8.15785 4.09694C8.21254 3.95994 8.28728 3.84005 8.38263 3.73643C8.47798 3.6328 8.59002 3.55049 8.71818 3.4902C8.8462 3.4299 8.98418 3.40004 9.13171 3.40004Z" fill="white"/>
</svg>
