<?xml version="1.0" encoding="UTF-8"?>
<svg id="Layer_1" data-name="Layer 1" xmlns="http://www.w3.org/2000/svg" viewBox="0 0 56.69 56.69">
  <defs>
    <style>
      .cls-1 {
        fill: #1fe5ce;
      }
    </style>
  </defs>
  <path class="cls-1" d="M38.79,0C28.91,0,20.89,8.01,20.89,17.9c0,1.88,.29,3.69,.83,5.39l-1.87,1.87s0,0,0,0L0,45.01v11.68H11.68l.45-.45,4.47-4.47c-.18-1.62-.36-3.24-.54-4.86,1.62,.18,3.24,.36,4.86,.54l.02-.02c-.18-1.62-.36-3.24-.54-4.86,1.62,.18,3.24,.36,4.86,.54l3.4-3.4h0l4.75-4.75c1.7,.54,3.51,.83,5.39,.83,9.89,0,17.9-8.01,17.9-17.9S48.68,0,38.79,0Zm7.03,14.4c-1.97,0-3.56-1.6-3.56-3.56s1.6-3.56,3.56-3.56,3.56,1.6,3.56,3.56-1.6,3.56-3.56,3.56Z"/>
</svg>