<?xml version="1.0" encoding="UTF-8"?>
<svg id="Layer_1" data-name="Layer 1" xmlns="http://www.w3.org/2000/svg" viewBox="0 0 56.69 56.69">
  <defs>
    <style>
      .cls-1 {
        isolation: isolate;
        opacity: .2;
      }

      .cls-1, .cls-2 {
        fill: #1fe5ce;
        fill-rule: evenodd;
      }
    </style>
  </defs>
  <path class="cls-1" d="M28.35,0C12.69,0,0,12.69,0,28.35s12.69,28.35,28.35,28.35,28.35-12.69,28.35-28.35S44,0,28.35,0Zm0,47.62c-10.65,0-19.28-8.63-19.28-19.28S17.7,9.07,28.35,9.07s19.28,8.63,19.28,19.28-8.63,19.28-19.28,19.28Z"/>
  <path class="cls-2" d="M7.34,47.38c5.19,5.72,12.68,9.31,21.01,9.31,15.66,0,28.35-12.69,28.35-28.35S44.87,.89,29.97,.05V9.14c9.89,.82,17.66,9.11,17.66,19.21,0,10.65-8.63,19.28-19.28,19.28-6.49,0-12.23-3.21-15.72-8.13l-5.28,7.88Z"/>
</svg>