<svg width="15" height="14" viewBox="0 0 15 14" fill="none" xmlns="http://www.w3.org/2000/svg">
<path d="M8.95864 0C12.2878 0 15 2.53139 15 5.6386C15 8.7458 12.2878 11.2772 8.95864 11.2772C7.51882 11.2772 6.19628 10.8022 5.15675 10.0134L1.06841 13.8292C0.824368 14.0569 0.427101 14.057 0.183043 13.8292C-0.0610132 13.6014 -0.0610132 13.2367 0.183043 13.0089L4.27138 9.19312C3.42455 8.22239 2.91728 6.98394 2.91728 5.6386C2.91728 2.53139 5.62951 0 8.95864 0ZM8.95864 1.16661C6.30503 1.16661 4.16722 3.16188 4.16722 5.6386C4.16722 8.11529 6.30503 10.1106 8.95864 10.1106C11.6122 10.1106 13.7501 8.11529 13.7501 5.6386C13.7501 3.16188 11.6122 1.16661 8.95864 1.16661Z" fill="url(#paint0_linear_1981_43028)"/>
<defs>
<linearGradient id="paint0_linear_1981_43028" x1="13.447" y1="2.1" x2="5.35013" y2="3.80791" gradientUnits="userSpaceOnUse">
<stop stop-color="#940DFF"/>
<stop offset="1" stop-color="#0094FF"/>
<stop offset="1" stop-color="#0094FF"/>
</linearGradient>
</defs>
</svg>
