<?xml version="1.0" encoding="UTF-8"?>
<svg id="Layer_1" data-name="Layer 1" xmlns="http://www.w3.org/2000/svg" viewBox="0 0 56.69 56.69">
  <defs>
    <style>
      .cls-1 {
        fill: #fff;
      }

      .cls-2 {
        fill: #4a5568;
      }
    </style>
  </defs>
  <g>
    <rect class="cls-2" x="40.46" y="25.18" width="16.24" height="16.24" rx="2.78" ry="2.78"/>
    <path class="cls-2" d="M28.01,25.18c-1.13,0-2.05,.92-2.05,2.05v12.14c0,1.13,.92,2.05,2.05,2.05h25.29V25.18H28.01Z"/>
    <path class="cls-2" d="M28.01,45.21c-3.22,0-5.83-2.62-5.83-5.83v-12.14c0-3.22,2.62-5.83,5.83-5.83h25.29v-2.66c0-1.59-1.29-2.87-2.87-2.87H6.41c-1.04,0-1.89-.85-1.89-1.89s.85-1.89,1.89-1.89H47.97v-2.09c0-1.47-1.19-2.66-2.66-2.66H5.33C2.4,7.34,0,9.74,0,12.67v31.98c0,2.94,2.39,5.33,5.33,5.33H47.97c2.75,0,5.02-2.09,5.3-4.77H28.01Z"/>
  </g>
  <path class="cls-1" d="M34.28,36.97c-1.86,0-3.37-1.51-3.37-3.37s1.51-3.37,3.37-3.37,3.37,1.51,3.37,3.37-1.51,3.37-3.37,3.37Z"/>
</svg>