<?xml version="1.0" encoding="UTF-8"?>
<svg id="Layer_1" data-name="Layer 1" xmlns="http://www.w3.org/2000/svg" viewBox="0 0 56.69 56.69">
  <defs>
    <style>
      .cls-1 {
        stroke: #1fe5ce;
      }

      .cls-1, .cls-2 {
        fill: none;
        stroke-linecap: round;
        stroke-linejoin: round;
        stroke-width: 3.11px;
      }

      .cls-2 {
        stroke: #1fe5ce;
      }

      .cls-3, .cls-4 {
        fill: #1fe5ce;
      }

      .cls-4 {
        fill-rule: evenodd;
      }
    </style>
  </defs>
  <polyline class="cls-1" points="49.05 43.12 49.05 49.04 43.14 49.04"/>
  <rect class="cls-2" x="1.58" y="1.54" width="10.4" height="10.4"/>
  <path class="cls-4" d="M31.1,16.18l9.4,9.4c1.48,1.48,1.48,3.88,0,5.36l-9.4,9.46c-1.48,1.48-3.88,1.48-5.36,0l-9.43-9.43c-1.48-1.48-1.48-3.88,0-5.36l9.43-9.43c1.48-1.48,3.88-1.48,5.36,0Zm-3.3,2.38l-.03,.03-9.03,9.03c-.37,.37-.37,.92-.03,1.29l.03,.03,9.01,9.01c.37,.37,.92,.37,1.29,.03l.03-.03,9.01-9.01c.37-.37,.37-.98,0-1.35l-8.98-8.98c-.34-.37-.92-.37-1.29-.05Zm.79,3.99l5.57,5.57c.11,.11,.11,.24,0,.34l-5.57,5.57c-.11,.11-.24,.11-.34,0l-5.57-5.57c-.11-.11-.11-.24,0-.34l5.57-5.57c.11-.11,.24-.11,.34,0Z"/>
  <rect class="cls-2" x="44.75" y="1.54" width="10.4" height="10.4"/>
  <rect class="cls-2" x="1.66" y="44.71" width="10.4" height="10.4"/>
  <path class="cls-2" d="M55.13,44.71v10.4h-10.4"/>
  <path class="cls-2" d="M5.52,19.5v17.29"/>
  <path class="cls-2" d="M53.25,36.11V18.82"/>
  <path class="cls-2" d="M37.69,3.94c-5.76,0-11.53,0-17.29,0"/>
  <path class="cls-2" d="M21.08,51.67h17.29"/>
  <path class="cls-2" d="M6.09,23.22h3.71v-4.4h5.11"/>
  <path class="cls-2" d="M5.52,33.02h5.04"/>
  <path class="cls-2" d="M53.25,18.82h-5.49v2.57h-3.22"/>
  <path class="cls-2" d="M53.25,27.24h-4.76"/>
  <path class="cls-2" d="M53.25,31.56c-2.2,.02-4.39,.05-6.59,.07"/>
  <path class="cls-2" d="M22.51,3.94v5.07h10.9v2.2"/>
  <path class="cls-2" d="M21.08,51.67v-5.96"/>
  <path class="cls-2" d="M26.24,51.67v-3.22"/>
  <circle class="cls-3" cx="49.93" cy="6.74" r="2.07"/>
  <circle class="cls-3" cx="6.86" cy="50.05" r="2.07"/>
  <circle class="cls-3" cx="6.78" cy="6.74" r="2.07"/>
  <polyline class="cls-1" points="43.32 41.54 43.32 43.66 41.19 43.66"/>
</svg>