<svg width="10" height="17" viewBox="0 0 10 17" fill="none" xmlns="http://www.w3.org/2000/svg">
<path d="M5.0883 0.858474L9.61858 8.4287C9.68972 8.54757 9.65064 8.70162 9.53144 8.7722L5.00115 11.4547C4.9226 11.5012 4.82495 11.5012 4.7464 11.4547L0.216113 8.77232C0.0969143 8.70174 0.0578308 8.5477 0.128964 8.42883L4.65925 0.858475C4.7563 0.69631 4.99125 0.696309 5.0883 0.858474Z" fill="white"/>
<path d="M9.06945 10.5377L5.07822 16.2095C4.97865 16.351 4.7689 16.351 4.66932 16.2095L0.678087 10.5378C0.522685 10.317 0.779264 10.0407 1.01095 10.1794L4.74536 12.4151C4.82443 12.4624 4.92312 12.4624 5.00219 12.4151L8.73658 10.1793C8.96827 10.0406 9.22485 10.3169 9.06945 10.5377Z" fill="white"/>
</svg>
